%TF.GenerationSoftware,KiCad,Pcbnew,5.99.0-5f22025611*%
%TF.CreationDate,2021-06-18T16:30:18+00:00*%
%TF.ProjectId,driver,64726976-6572-42e6-9b69-6361645f7063,rev?*%
%TF.SameCoordinates,Original*%
%TF.FileFunction,Soldermask,Bot*%
%TF.FilePolarity,Negative*%
%FSLAX46Y46*%
G04 Gerber Fmt 4.6, Leading zero omitted, Abs format (unit mm)*
G04 Created by KiCad (PCBNEW 5.99.0-5f22025611) date 2021-06-18 16:30:18*
%MOMM*%
%LPD*%
G01*
G04 APERTURE LIST*
G04 Aperture macros list*
%AMRoundRect*
0 Rectangle with rounded corners*
0 $1 Rounding radius*
0 $2 $3 $4 $5 $6 $7 $8 $9 X,Y pos of 4 corners*
0 Add a 4 corners polygon primitive as box body*
4,1,4,$2,$3,$4,$5,$6,$7,$8,$9,$2,$3,0*
0 Add four circle primitives for the rounded corners*
1,1,$1+$1,$2,$3*
1,1,$1+$1,$4,$5*
1,1,$1+$1,$6,$7*
1,1,$1+$1,$8,$9*
0 Add four rect primitives between the rounded corners*
20,1,$1+$1,$2,$3,$4,$5,0*
20,1,$1+$1,$4,$5,$6,$7,0*
20,1,$1+$1,$6,$7,$8,$9,0*
20,1,$1+$1,$8,$9,$2,$3,0*%
%AMOutline5P*
0 Free polygon, 5 corners , with rotation*
0 The origin of the aperture is its center*
0 number of corners: always 8*
0 $1 to $10 corner X, Y*
0 $11 Rotation angle, in degrees counterclockwise*
0 create outline with 8 corners*
4,1,5,$1,$2,$3,$4,$5,$6,$7,$8,$9,$10,$1,$2,$11*%
%AMOutline6P*
0 Free polygon, 6 corners , with rotation*
0 The origin of the aperture is its center*
0 number of corners: always 6*
0 $1 to $12 corner X, Y*
0 $13 Rotation angle, in degrees counterclockwise*
0 create outline with 6 corners*
4,1,6,$1,$2,$3,$4,$5,$6,$7,$8,$9,$10,$11,$12,$1,$2,$13*%
%AMOutline7P*
0 Free polygon, 7 corners , with rotation*
0 The origin of the aperture is its center*
0 number of corners: always 7*
0 $1 to $14 corner X, Y*
0 $15 Rotation angle, in degrees counterclockwise*
0 create outline with 7 corners*
4,1,7,$1,$2,$3,$4,$5,$6,$7,$8,$9,$10,$11,$12,$13,$14,$1,$2,$15*%
%AMOutline8P*
0 Free polygon, 8 corners , with rotation*
0 The origin of the aperture is its center*
0 number of corners: always 8*
0 $1 to $16 corner X, Y*
0 $17 Rotation angle, in degrees counterclockwise*
0 create outline with 8 corners*
4,1,8,$1,$2,$3,$4,$5,$6,$7,$8,$9,$10,$11,$12,$13,$14,$15,$16,$1,$2,$17*%
%AMFreePoly0*
4,1,21,1.372500,0.787500,0.862500,0.787500,0.862500,0.532500,1.372500,0.532500,1.372500,0.127500,0.862500,0.127500,0.862500,-0.127500,1.372500,-0.127500,1.372500,-0.532500,0.862500,-0.532500,0.862500,-0.787500,1.372500,-0.787500,1.372500,-1.195000,0.612500,-1.195000,0.612500,-1.117500,-0.862500,-1.117500,-0.862500,1.117500,0.612500,1.117500,0.612500,1.195000,1.372500,1.195000,
1.372500,0.787500,1.372500,0.787500,$1*%
%AMFreePoly1*
4,1,13,0.550000,-0.125000,-0.550000,-0.125000,-0.550000,0.125000,-0.050000,0.125000,-0.050000,0.725000,-0.550000,0.725000,-0.550000,0.975000,-0.050000,0.975000,-0.050000,1.575000,-0.550000,1.575000,-0.550000,1.825000,0.550000,1.825000,0.550000,-0.125000,0.550000,-0.125000,$1*%
%AMFreePoly2*
4,1,13,0.550000,1.575000,0.050000,1.575000,0.050000,0.975000,0.550000,0.975000,0.550000,0.725000,0.050000,0.725000,0.050000,0.125000,0.550000,0.125000,0.550000,-0.125000,-0.550000,-0.125000,-0.550000,1.825000,0.550000,1.825000,0.550000,1.575000,0.550000,1.575000,$1*%
G04 Aperture macros list end*
%ADD10R,1.700000X1.700000*%
%ADD11O,1.700000X1.700000*%
%ADD12O,2.000000X1.000000*%
%ADD13C,0.990600*%
%ADD14C,5.000000*%
%ADD15O,2.000000X1.700000*%
%ADD16C,2.200000*%
%ADD17RoundRect,0.135000X-0.185000X0.135000X-0.185000X-0.135000X0.185000X-0.135000X0.185000X0.135000X0*%
%ADD18RoundRect,0.135000X0.135000X0.185000X-0.135000X0.185000X-0.135000X-0.185000X0.135000X-0.185000X0*%
%ADD19RoundRect,0.062500X0.350000X0.062500X-0.350000X0.062500X-0.350000X-0.062500X0.350000X-0.062500X0*%
%ADD20RoundRect,0.062500X0.062500X0.350000X-0.062500X0.350000X-0.062500X-0.350000X0.062500X-0.350000X0*%
%ADD21R,2.700000X2.700000*%
%ADD22RoundRect,0.140000X0.170000X-0.140000X0.170000X0.140000X-0.170000X0.140000X-0.170000X-0.140000X0*%
%ADD23R,0.990000X0.405000*%
%ADD24FreePoly0,0.000000*%
%ADD25RoundRect,0.135000X-0.135000X-0.185000X0.135000X-0.185000X0.135000X0.185000X-0.135000X0.185000X0*%
%ADD26RoundRect,0.140000X-0.140000X-0.170000X0.140000X-0.170000X0.140000X0.170000X-0.140000X0.170000X0*%
%ADD27Outline5P,-0.125000X-0.400000X-0.125000X0.400000X0.000000X0.400000X0.125000X0.275000X0.125000X-0.400000X180.000000*%
%ADD28R,0.250000X1.100000*%
%ADD29FreePoly1,270.000000*%
%ADD30FreePoly2,270.000000*%
%ADD31R,0.250000X0.700000*%
%ADD32R,0.700000X0.250000*%
%ADD33R,1.100000X0.250000*%
%ADD34RoundRect,0.140000X0.140000X0.170000X-0.140000X0.170000X-0.140000X-0.170000X0.140000X-0.170000X0*%
%ADD35R,0.850000X0.350000*%
%ADD36R,0.900000X1.600000*%
%ADD37RoundRect,0.135000X0.185000X-0.135000X0.185000X0.135000X-0.185000X0.135000X-0.185000X-0.135000X0*%
%ADD38RoundRect,0.250000X0.475000X-0.250000X0.475000X0.250000X-0.475000X0.250000X-0.475000X-0.250000X0*%
%ADD39R,0.370000X0.450000*%
%ADD40R,1.670000X0.900000*%
%ADD41RoundRect,0.250000X0.250000X0.475000X-0.250000X0.475000X-0.250000X-0.475000X0.250000X-0.475000X0*%
%ADD42RoundRect,0.057500X0.185000X-0.057500X0.185000X0.057500X-0.185000X0.057500X-0.185000X-0.057500X0*%
%ADD43RoundRect,0.057500X0.430000X-0.057500X0.430000X0.057500X-0.430000X0.057500X-0.430000X-0.057500X0*%
%ADD44RoundRect,0.057500X0.330000X-0.057500X0.330000X0.057500X-0.330000X0.057500X-0.330000X-0.057500X0*%
%ADD45RoundRect,0.057500X-0.057500X-0.330000X0.057500X-0.330000X0.057500X0.330000X-0.057500X0.330000X0*%
%ADD46R,0.405000X0.990000*%
%ADD47FreePoly0,90.000000*%
%ADD48RoundRect,0.250000X-0.475000X0.250000X-0.475000X-0.250000X0.475000X-0.250000X0.475000X0.250000X0*%
%ADD49RoundRect,0.150000X0.150000X-0.587500X0.150000X0.587500X-0.150000X0.587500X-0.150000X-0.587500X0*%
G04 APERTURE END LIST*
D10*
%TO.C,J102*%
X90600000Y-78900000D03*
D11*
X90600000Y-76360000D03*
X90600000Y-73820000D03*
X90600000Y-71280000D03*
%TD*%
D12*
%TO.C,J101*%
X67600000Y-70880000D03*
X67600000Y-79520000D03*
X63800000Y-70880000D03*
X63800000Y-79520000D03*
%TD*%
D13*
%TO.C,J103*%
X75776020Y-80516412D03*
X77738781Y-79990491D03*
X75442600Y-75346548D03*
%TD*%
D14*
%TO.C,H101*%
X80000000Y-76000000D03*
%TD*%
D15*
%TO.C,RV101*%
X84500000Y-63200000D03*
D16*
X80000000Y-63200000D03*
%TD*%
D17*
%TO.C,R122*%
X89150000Y-63040000D03*
X89150000Y-64060000D03*
%TD*%
D18*
%TO.C,R102*%
X78535000Y-65650000D03*
X77515000Y-65650000D03*
%TD*%
D19*
%TO.C,U101*%
X68862500Y-74050000D03*
X68862500Y-74550000D03*
X68862500Y-75050000D03*
X68862500Y-75550000D03*
X68862500Y-76050000D03*
X68862500Y-76550000D03*
D20*
X68150000Y-77262500D03*
X67650000Y-77262500D03*
X67150000Y-77262500D03*
X66650000Y-77262500D03*
X66150000Y-77262500D03*
X65650000Y-77262500D03*
D19*
X64937500Y-76550000D03*
X64937500Y-76050000D03*
X64937500Y-75550000D03*
X64937500Y-75050000D03*
X64937500Y-74550000D03*
X64937500Y-74050000D03*
D20*
X65650000Y-73337500D03*
X66150000Y-73337500D03*
X66650000Y-73337500D03*
X67150000Y-73337500D03*
X67650000Y-73337500D03*
X68150000Y-73337500D03*
D21*
X66900000Y-75300000D03*
%TD*%
D22*
%TO.C,C105*%
X70100000Y-72830000D03*
X70100000Y-71870000D03*
%TD*%
D17*
%TO.C,R111*%
X83400000Y-78590000D03*
X83400000Y-79610000D03*
%TD*%
D23*
%TO.C,Q105*%
X71465000Y-67540000D03*
X71465000Y-66880000D03*
X71465000Y-66220000D03*
X71465000Y-65560000D03*
D24*
X73457500Y-66550000D03*
%TD*%
D25*
%TO.C,R106*%
X79440000Y-65200000D03*
X80460000Y-65200000D03*
%TD*%
D26*
%TO.C,C107*%
X67020000Y-71900000D03*
X67980000Y-71900000D03*
%TD*%
D27*
%TO.C,U102*%
X79387500Y-66750000D03*
D28*
X80037500Y-66900000D03*
X80687500Y-66900000D03*
D29*
X81337500Y-66900000D03*
D30*
X81337500Y-69400000D03*
D28*
X80687500Y-69400000D03*
X80037500Y-69400000D03*
D31*
X79387500Y-69600000D03*
D32*
X78487500Y-69400000D03*
X78487500Y-68900000D03*
D33*
X78687500Y-68400000D03*
X78687500Y-67900000D03*
D32*
X78487500Y-67400000D03*
X78487500Y-66900000D03*
%TD*%
D34*
%TO.C,C109*%
X74480000Y-58750000D03*
X73520000Y-58750000D03*
%TD*%
D35*
%TO.C,U104*%
X75782500Y-56650000D03*
X75782500Y-57150000D03*
X75782500Y-57650000D03*
X73632500Y-57650000D03*
X73632500Y-57150000D03*
X73632500Y-56650000D03*
D36*
X74707500Y-57150000D03*
%TD*%
D25*
%TO.C,R118*%
X72090000Y-55900000D03*
X73110000Y-55900000D03*
%TD*%
D18*
%TO.C,R113*%
X94610000Y-79700000D03*
X93590000Y-79700000D03*
%TD*%
D37*
%TO.C,R119*%
X76900000Y-58210000D03*
X76900000Y-57190000D03*
%TD*%
D18*
%TO.C,R108*%
X66310000Y-78500000D03*
X65290000Y-78500000D03*
%TD*%
D26*
%TO.C,C108*%
X72220000Y-64200000D03*
X73180000Y-64200000D03*
%TD*%
D38*
%TO.C,C113*%
X88300000Y-74275000D03*
X88300000Y-72375000D03*
%TD*%
D25*
%TO.C,R112*%
X85991854Y-71063003D03*
X87011854Y-71063003D03*
%TD*%
D37*
%TO.C,R116*%
X70150000Y-66510000D03*
X70150000Y-65490000D03*
%TD*%
D25*
%TO.C,R121*%
X88890000Y-69300000D03*
X89910000Y-69300000D03*
%TD*%
D39*
%TO.C,U105*%
X84500000Y-72575000D03*
X85150000Y-72575000D03*
X85800000Y-72575000D03*
X85800000Y-74225000D03*
X85150000Y-74225000D03*
X84500000Y-74225000D03*
D40*
X85150000Y-73400000D03*
%TD*%
D34*
%TO.C,C106*%
X66080000Y-71900000D03*
X65120000Y-71900000D03*
%TD*%
%TO.C,C111*%
X94780000Y-65250000D03*
X93820000Y-65250000D03*
%TD*%
D17*
%TO.C,R109*%
X63700000Y-77390000D03*
X63700000Y-78410000D03*
%TD*%
%TO.C,R104*%
X63600000Y-72890000D03*
X63600000Y-73910000D03*
%TD*%
D37*
%TO.C,R101*%
X91350000Y-64010000D03*
X91350000Y-62990000D03*
%TD*%
%TO.C,R115*%
X70600000Y-70710000D03*
X70600000Y-69690000D03*
%TD*%
D25*
%TO.C,R105*%
X77515000Y-64650000D03*
X78535000Y-64650000D03*
%TD*%
%TO.C,R117*%
X70240000Y-64200000D03*
X71260000Y-64200000D03*
%TD*%
D41*
%TO.C,C110*%
X78950000Y-59700000D03*
X77050000Y-59700000D03*
%TD*%
%TO.C,C104*%
X81625000Y-71200000D03*
X79725000Y-71200000D03*
%TD*%
D25*
%TO.C,R114*%
X68040000Y-65550000D03*
X69060000Y-65550000D03*
%TD*%
D42*
%TO.C,U103*%
X92610000Y-65150000D03*
X92610000Y-65550000D03*
D43*
X92365000Y-65950000D03*
D44*
X92465000Y-66350000D03*
X92465000Y-66750000D03*
D42*
X92615000Y-67150000D03*
X92615000Y-67550000D03*
D45*
X92100000Y-67615000D03*
X91700000Y-67615000D03*
X91300000Y-67615000D03*
D42*
X90790000Y-67550000D03*
X90790000Y-67150000D03*
D44*
X90935000Y-66750000D03*
X90935000Y-66350000D03*
X90935000Y-65950000D03*
D42*
X90790000Y-65550000D03*
X90790000Y-65150000D03*
D45*
X91305000Y-65080000D03*
X91700000Y-65085000D03*
X92105000Y-65080000D03*
%TD*%
D46*
%TO.C,Q102*%
X86690000Y-78885000D03*
X86030000Y-78885000D03*
X85370000Y-78885000D03*
X84710000Y-78885000D03*
D47*
X85700000Y-76892500D03*
%TD*%
D22*
%TO.C,C112*%
X89850000Y-67480000D03*
X89850000Y-66520000D03*
%TD*%
D48*
%TO.C,C101*%
X76650000Y-68800000D03*
X76650000Y-70700000D03*
%TD*%
D49*
%TO.C,Q104*%
X95150000Y-78137500D03*
X93250000Y-78137500D03*
X94200000Y-76262500D03*
%TD*%
D18*
%TO.C,R120*%
X77060000Y-55450000D03*
X76040000Y-55450000D03*
%TD*%
M02*
