%TF.GenerationSoftware,KiCad,Pcbnew,5.99.0-5f22025611*%
%TF.CreationDate,2021-06-18T20:55:10+00:00*%
%TF.ProjectId,driver,64726976-6572-42e6-9b69-6361645f7063,rev?*%
%TF.SameCoordinates,Original*%
%TF.FileFunction,Legend,Top*%
%TF.FilePolarity,Positive*%
%FSLAX46Y46*%
G04 Gerber Fmt 4.6, Leading zero omitted, Abs format (unit mm)*
G04 Created by KiCad (PCBNEW 5.99.0-5f22025611) date 2021-06-18 20:55:10*
%MOMM*%
%LPD*%
G01*
G04 APERTURE LIST*
%ADD10C,0.120000*%
%ADD11C,0.127000*%
G04 APERTURE END LIST*
D10*
%TO.C,D111*%
X70740000Y-79150000D02*
X70740000Y-80825000D01*
X73860000Y-79150000D02*
X73860000Y-78500000D01*
X73860000Y-79150000D02*
X73860000Y-79800000D01*
X70740000Y-79150000D02*
X70740000Y-78500000D01*
%TO.C,D112*%
X87790000Y-70670000D02*
X87210000Y-70670000D01*
%TO.C,D102*%
X70690000Y-75470000D02*
X70110000Y-75470000D01*
%TO.C,D110*%
X89370000Y-62710000D02*
X89370000Y-63290000D01*
%TO.C,D109*%
X70880000Y-66290000D02*
X70880000Y-65710000D01*
%TO.C,D104*%
X75053641Y-72980000D02*
X74746359Y-72980000D01*
X75053641Y-72220000D02*
X74746359Y-72220000D01*
%TO.C,C102*%
X73335000Y-71561252D02*
X73335000Y-71038748D01*
X71865000Y-71561252D02*
X71865000Y-71038748D01*
%TO.C,D106*%
X89325000Y-75300000D02*
X89325000Y-73500000D01*
X89700000Y-74925000D02*
X89700000Y-75125000D01*
X89700000Y-75125000D02*
X89550000Y-75025000D01*
X89550000Y-75025000D02*
X89700000Y-74925000D01*
G36*
X89700000Y-75125000D02*
G01*
X89550000Y-75025000D01*
X89700000Y-74925000D01*
X89700000Y-75125000D01*
G37*
X89700000Y-75125000D02*
X89550000Y-75025000D01*
X89700000Y-74925000D01*
X89700000Y-75125000D01*
%TO.C,R103*%
X74746359Y-73220000D02*
X75053641Y-73220000D01*
X74746359Y-73980000D02*
X75053641Y-73980000D01*
%TO.C,J102*%
X90600000Y-80170000D02*
X96569000Y-80170000D01*
X89330000Y-78900000D02*
X89330000Y-80170000D01*
X89330000Y-80170000D02*
X90600000Y-80170000D01*
X96569000Y-80170000D02*
X96569000Y-70137000D01*
X96569000Y-70137000D02*
X89330000Y-70137000D01*
D11*
%TO.C,J101*%
X65150000Y-79670000D02*
X66250000Y-79670000D01*
X65150000Y-70730000D02*
X66250000Y-70730000D01*
X61200000Y-70730000D02*
X61200000Y-79670000D01*
X61200000Y-70730000D02*
X62450000Y-70730000D01*
X61200000Y-79670000D02*
X62450000Y-79670000D01*
D10*
%TO.C,C103*%
X75792164Y-71240000D02*
X76007836Y-71240000D01*
X75792164Y-71960000D02*
X76007836Y-71960000D01*
%TO.C,D107*%
X88075000Y-71225000D02*
X88075000Y-73025000D01*
X87700000Y-71600000D02*
X87700000Y-71400000D01*
X87700000Y-71400000D02*
X87850000Y-71500000D01*
X87850000Y-71500000D02*
X87700000Y-71600000D01*
G36*
X87850000Y-71500000D02*
G01*
X87700000Y-71600000D01*
X87700000Y-71400000D01*
X87850000Y-71500000D01*
G37*
X87850000Y-71500000D02*
X87700000Y-71600000D01*
X87700000Y-71400000D01*
X87850000Y-71500000D01*
%TO.C,D103*%
X70690000Y-74470000D02*
X70110000Y-74470000D01*
%TO.C,R107*%
X70196359Y-76270000D02*
X70503641Y-76270000D01*
X70196359Y-77030000D02*
X70503641Y-77030000D01*
%TO.C,F101*%
X73285000Y-74572936D02*
X73285000Y-75027064D01*
X71815000Y-74572936D02*
X71815000Y-75027064D01*
%TO.C,D105*%
X88075000Y-75800000D02*
X88075000Y-77600000D01*
X87700000Y-76175000D02*
X87700000Y-75975000D01*
X87700000Y-75975000D02*
X87850000Y-76075000D01*
X87850000Y-76075000D02*
X87700000Y-76175000D01*
G36*
X87850000Y-76075000D02*
G01*
X87700000Y-76175000D01*
X87700000Y-75975000D01*
X87850000Y-76075000D01*
G37*
X87850000Y-76075000D02*
X87700000Y-76175000D01*
X87700000Y-75975000D01*
X87850000Y-76075000D01*
%TO.C,D101*%
X70225000Y-73800000D02*
X70225000Y-72000000D01*
X70600000Y-73425000D02*
X70600000Y-73625000D01*
X70600000Y-73625000D02*
X70450000Y-73525000D01*
X70450000Y-73525000D02*
X70600000Y-73425000D01*
G36*
X70600000Y-73625000D02*
G01*
X70450000Y-73525000D01*
X70600000Y-73425000D01*
X70600000Y-73625000D01*
G37*
X70600000Y-73625000D02*
X70450000Y-73525000D01*
X70600000Y-73425000D01*
X70600000Y-73625000D01*
%TO.C,D108*%
X68970000Y-60310000D02*
X68970000Y-60890000D01*
%TD*%
M02*
