%TF.GenerationSoftware,KiCad,Pcbnew,5.99.0-5f22025611*%
%TF.CreationDate,2021-06-18T16:30:17+00:00*%
%TF.ProjectId,driver,64726976-6572-42e6-9b69-6361645f7063,rev?*%
%TF.SameCoordinates,Original*%
%TF.FileFunction,Legend,Bot*%
%TF.FilePolarity,Positive*%
%FSLAX46Y46*%
G04 Gerber Fmt 4.6, Leading zero omitted, Abs format (unit mm)*
G04 Created by KiCad (PCBNEW 5.99.0-5f22025611) date 2021-06-18 16:30:17*
%MOMM*%
%LPD*%
G01*
G04 APERTURE LIST*
%ADD10C,0.120000*%
G04 APERTURE END LIST*
D10*
%TO.C,R122*%
X88770000Y-63396359D02*
X88770000Y-63703641D01*
X89530000Y-63396359D02*
X89530000Y-63703641D01*
%TO.C,R102*%
X78178641Y-66030000D02*
X77871359Y-66030000D01*
X78178641Y-65270000D02*
X77871359Y-65270000D01*
%TO.C,U101*%
X69010000Y-77410000D02*
X69010000Y-76935000D01*
X64790000Y-77410000D02*
X64790000Y-76935000D01*
X64790000Y-73190000D02*
X64790000Y-73665000D01*
X68535000Y-73190000D02*
X69010000Y-73190000D01*
X65265000Y-77410000D02*
X64790000Y-77410000D01*
X68535000Y-77410000D02*
X69010000Y-77410000D01*
X65265000Y-73190000D02*
X64790000Y-73190000D01*
%TO.C,C105*%
X70460000Y-72457836D02*
X70460000Y-72242164D01*
X69740000Y-72457836D02*
X69740000Y-72242164D01*
%TO.C,R111*%
X83780000Y-78946359D02*
X83780000Y-79253641D01*
X83020000Y-78946359D02*
X83020000Y-79253641D01*
%TO.C,Q105*%
X74535000Y-65250000D02*
X74535000Y-64915000D01*
X71265000Y-64915000D02*
X74535000Y-64915000D01*
X71265000Y-65250000D02*
X71265000Y-64915000D01*
X74535000Y-68185000D02*
X74535000Y-67850000D01*
X71030000Y-68185000D02*
X74535000Y-68185000D01*
%TO.C,R106*%
X79796359Y-64820000D02*
X80103641Y-64820000D01*
X79796359Y-65580000D02*
X80103641Y-65580000D01*
%TO.C,C107*%
X67392164Y-71540000D02*
X67607836Y-71540000D01*
X67392164Y-72260000D02*
X67607836Y-72260000D01*
%TO.C,C109*%
X74107836Y-58390000D02*
X73892164Y-58390000D01*
X74107836Y-59110000D02*
X73892164Y-59110000D01*
%TO.C,U104*%
X76707500Y-56500000D02*
X76707500Y-56800000D01*
X76707500Y-56800000D02*
X76457500Y-56650000D01*
X76457500Y-56650000D02*
X76707500Y-56500000D01*
X76707500Y-56500000D02*
X76707500Y-56500000D01*
G36*
X76707500Y-56800000D02*
G01*
X76457500Y-56650000D01*
X76707500Y-56500000D01*
X76707500Y-56800000D01*
G37*
X76707500Y-56800000D02*
X76457500Y-56650000D01*
X76707500Y-56500000D01*
X76707500Y-56800000D01*
%TO.C,R118*%
X72446359Y-55520000D02*
X72753641Y-55520000D01*
X72446359Y-56280000D02*
X72753641Y-56280000D01*
%TO.C,R113*%
X94253641Y-80080000D02*
X93946359Y-80080000D01*
X94253641Y-79320000D02*
X93946359Y-79320000D01*
%TO.C,R119*%
X76520000Y-57853641D02*
X76520000Y-57546359D01*
X77280000Y-57853641D02*
X77280000Y-57546359D01*
%TO.C,R108*%
X65953641Y-78880000D02*
X65646359Y-78880000D01*
X65953641Y-78120000D02*
X65646359Y-78120000D01*
%TO.C,C108*%
X72592164Y-63840000D02*
X72807836Y-63840000D01*
X72592164Y-64560000D02*
X72807836Y-64560000D01*
%TO.C,C113*%
X89035000Y-73586252D02*
X89035000Y-73063748D01*
X87565000Y-73586252D02*
X87565000Y-73063748D01*
%TO.C,R112*%
X86348213Y-71443003D02*
X86655495Y-71443003D01*
X86348213Y-70683003D02*
X86655495Y-70683003D01*
%TO.C,R116*%
X70530000Y-66153641D02*
X70530000Y-65846359D01*
X69770000Y-66153641D02*
X69770000Y-65846359D01*
%TO.C,R121*%
X89246359Y-69680000D02*
X89553641Y-69680000D01*
X89246359Y-68920000D02*
X89553641Y-68920000D01*
%TO.C,U105*%
X86300000Y-74400000D02*
X86300000Y-72400000D01*
X84000000Y-74400000D02*
X84000000Y-73400000D01*
%TO.C,C106*%
X65707836Y-72260000D02*
X65492164Y-72260000D01*
X65707836Y-71540000D02*
X65492164Y-71540000D01*
%TO.C,C111*%
X94407836Y-65610000D02*
X94192164Y-65610000D01*
X94407836Y-64890000D02*
X94192164Y-64890000D01*
%TO.C,R109*%
X64080000Y-77746359D02*
X64080000Y-78053641D01*
X63320000Y-77746359D02*
X63320000Y-78053641D01*
%TO.C,R104*%
X63220000Y-73246359D02*
X63220000Y-73553641D01*
X63980000Y-73246359D02*
X63980000Y-73553641D01*
%TO.C,R101*%
X91730000Y-63653641D02*
X91730000Y-63346359D01*
X90970000Y-63653641D02*
X90970000Y-63346359D01*
%TO.C,R115*%
X70980000Y-70353641D02*
X70980000Y-70046359D01*
X70220000Y-70353641D02*
X70220000Y-70046359D01*
%TO.C,R105*%
X77871359Y-64270000D02*
X78178641Y-64270000D01*
X77871359Y-65030000D02*
X78178641Y-65030000D01*
%TO.C,R117*%
X70596359Y-63820000D02*
X70903641Y-63820000D01*
X70596359Y-64580000D02*
X70903641Y-64580000D01*
%TO.C,C110*%
X78261252Y-58965000D02*
X77738748Y-58965000D01*
X78261252Y-60435000D02*
X77738748Y-60435000D01*
%TO.C,C104*%
X80936252Y-70465000D02*
X80413748Y-70465000D01*
X80936252Y-71935000D02*
X80413748Y-71935000D01*
%TO.C,R114*%
X68396359Y-65170000D02*
X68703641Y-65170000D01*
X68396359Y-65930000D02*
X68703641Y-65930000D01*
%TO.C,U103*%
X93010000Y-65150000D02*
X93110000Y-65250000D01*
X93110000Y-65250000D02*
X93110000Y-65050000D01*
X93110000Y-65050000D02*
X93010000Y-65150000D01*
G36*
X93110000Y-65250000D02*
G01*
X93010000Y-65150000D01*
X93110000Y-65050000D01*
X93110000Y-65250000D01*
G37*
X93110000Y-65250000D02*
X93010000Y-65150000D01*
X93110000Y-65050000D01*
X93110000Y-65250000D01*
%TO.C,Q102*%
X84400000Y-79085000D02*
X84065000Y-79085000D01*
X84400000Y-75815000D02*
X84065000Y-75815000D01*
X87335000Y-79320000D02*
X87335000Y-75815000D01*
X84065000Y-79085000D02*
X84065000Y-75815000D01*
X87335000Y-75815000D02*
X87000000Y-75815000D01*
%TO.C,C112*%
X90210000Y-67107836D02*
X90210000Y-66892164D01*
X89490000Y-67107836D02*
X89490000Y-66892164D01*
%TO.C,C101*%
X75915000Y-69488748D02*
X75915000Y-70011252D01*
X77385000Y-69488748D02*
X77385000Y-70011252D01*
%TO.C,Q104*%
X92640000Y-77200000D02*
X92640000Y-77850000D01*
X95760000Y-77200000D02*
X95760000Y-76550000D01*
X95760000Y-77200000D02*
X95760000Y-78875000D01*
X92640000Y-77200000D02*
X92640000Y-76550000D01*
%TO.C,R120*%
X76703641Y-55830000D02*
X76396359Y-55830000D01*
X76703641Y-55070000D02*
X76396359Y-55070000D01*
%TD*%
M02*
