%TF.GenerationSoftware,KiCad,Pcbnew,5.99.0-5f22025611*%
%TF.CreationDate,2021-06-18T20:55:10+00:00*%
%TF.ProjectId,driver,64726976-6572-42e6-9b69-6361645f7063,rev?*%
%TF.SameCoordinates,Original*%
%TF.FileFunction,Copper,L4,Bot*%
%TF.FilePolarity,Positive*%
%FSLAX46Y46*%
G04 Gerber Fmt 4.6, Leading zero omitted, Abs format (unit mm)*
G04 Created by KiCad (PCBNEW 5.99.0-5f22025611) date 2021-06-18 20:55:10*
%MOMM*%
%LPD*%
G01*
G04 APERTURE LIST*
G04 Aperture macros list*
%AMRoundRect*
0 Rectangle with rounded corners*
0 $1 Rounding radius*
0 $2 $3 $4 $5 $6 $7 $8 $9 X,Y pos of 4 corners*
0 Add a 4 corners polygon primitive as box body*
4,1,4,$2,$3,$4,$5,$6,$7,$8,$9,$2,$3,0*
0 Add four circle primitives for the rounded corners*
1,1,$1+$1,$2,$3*
1,1,$1+$1,$4,$5*
1,1,$1+$1,$6,$7*
1,1,$1+$1,$8,$9*
0 Add four rect primitives between the rounded corners*
20,1,$1+$1,$2,$3,$4,$5,0*
20,1,$1+$1,$4,$5,$6,$7,0*
20,1,$1+$1,$6,$7,$8,$9,0*
20,1,$1+$1,$8,$9,$2,$3,0*%
%AMOutline5P*
0 Free polygon, 5 corners , with rotation*
0 The origin of the aperture is its center*
0 number of corners: always 8*
0 $1 to $10 corner X, Y*
0 $11 Rotation angle, in degrees counterclockwise*
0 create outline with 8 corners*
4,1,5,$1,$2,$3,$4,$5,$6,$7,$8,$9,$10,$1,$2,$11*%
%AMOutline6P*
0 Free polygon, 6 corners , with rotation*
0 The origin of the aperture is its center*
0 number of corners: always 6*
0 $1 to $12 corner X, Y*
0 $13 Rotation angle, in degrees counterclockwise*
0 create outline with 6 corners*
4,1,6,$1,$2,$3,$4,$5,$6,$7,$8,$9,$10,$11,$12,$1,$2,$13*%
%AMOutline7P*
0 Free polygon, 7 corners , with rotation*
0 The origin of the aperture is its center*
0 number of corners: always 7*
0 $1 to $14 corner X, Y*
0 $15 Rotation angle, in degrees counterclockwise*
0 create outline with 7 corners*
4,1,7,$1,$2,$3,$4,$5,$6,$7,$8,$9,$10,$11,$12,$13,$14,$1,$2,$15*%
%AMOutline8P*
0 Free polygon, 8 corners , with rotation*
0 The origin of the aperture is its center*
0 number of corners: always 8*
0 $1 to $16 corner X, Y*
0 $17 Rotation angle, in degrees counterclockwise*
0 create outline with 8 corners*
4,1,8,$1,$2,$3,$4,$5,$6,$7,$8,$9,$10,$11,$12,$13,$14,$15,$16,$1,$2,$17*%
%AMFreePoly0*
4,1,21,1.372500,0.787500,0.862500,0.787500,0.862500,0.532500,1.372500,0.532500,1.372500,0.127500,0.862500,0.127500,0.862500,-0.127500,1.372500,-0.127500,1.372500,-0.532500,0.862500,-0.532500,0.862500,-0.787500,1.372500,-0.787500,1.372500,-1.195000,0.612500,-1.195000,0.612500,-1.117500,-0.862500,-1.117500,-0.862500,1.117500,0.612500,1.117500,0.612500,1.195000,1.372500,1.195000,
1.372500,0.787500,1.372500,0.787500,$1*%
%AMFreePoly1*
4,1,13,0.550000,-0.125000,-0.550000,-0.125000,-0.550000,0.125000,-0.050000,0.125000,-0.050000,0.725000,-0.550000,0.725000,-0.550000,0.975000,-0.050000,0.975000,-0.050000,1.575000,-0.550000,1.575000,-0.550000,1.825000,0.550000,1.825000,0.550000,-0.125000,0.550000,-0.125000,$1*%
%AMFreePoly2*
4,1,13,0.550000,1.575000,0.050000,1.575000,0.050000,0.975000,0.550000,0.975000,0.550000,0.725000,0.050000,0.725000,0.050000,0.125000,0.550000,0.125000,0.550000,-0.125000,-0.550000,-0.125000,-0.550000,1.825000,0.550000,1.825000,0.550000,1.575000,0.550000,1.575000,$1*%
G04 Aperture macros list end*
%TA.AperFunction,SMDPad,CuDef*%
%ADD10RoundRect,0.135000X0.135000X0.185000X-0.135000X0.185000X-0.135000X-0.185000X0.135000X-0.185000X0*%
%TD*%
%TA.AperFunction,SMDPad,CuDef*%
%ADD11RoundRect,0.150000X0.150000X-0.587500X0.150000X0.587500X-0.150000X0.587500X-0.150000X-0.587500X0*%
%TD*%
%TA.AperFunction,ComponentPad*%
%ADD12R,1.700000X1.700000*%
%TD*%
%TA.AperFunction,ComponentPad*%
%ADD13O,1.700000X1.700000*%
%TD*%
%TA.AperFunction,ComponentPad*%
%ADD14O,2.000000X1.000000*%
%TD*%
%TA.AperFunction,SMDPad,CuDef*%
%ADD15RoundRect,0.135000X-0.185000X0.135000X-0.185000X-0.135000X0.185000X-0.135000X0.185000X0.135000X0*%
%TD*%
%TA.AperFunction,SMDPad,CuDef*%
%ADD16RoundRect,0.062500X0.350000X0.062500X-0.350000X0.062500X-0.350000X-0.062500X0.350000X-0.062500X0*%
%TD*%
%TA.AperFunction,SMDPad,CuDef*%
%ADD17RoundRect,0.062500X0.062500X0.350000X-0.062500X0.350000X-0.062500X-0.350000X0.062500X-0.350000X0*%
%TD*%
%TA.AperFunction,SMDPad,CuDef*%
%ADD18R,2.700000X2.700000*%
%TD*%
%TA.AperFunction,SMDPad,CuDef*%
%ADD19RoundRect,0.140000X0.170000X-0.140000X0.170000X0.140000X-0.170000X0.140000X-0.170000X-0.140000X0*%
%TD*%
%TA.AperFunction,SMDPad,CuDef*%
%ADD20R,0.990000X0.405000*%
%TD*%
%TA.AperFunction,SMDPad,CuDef*%
%ADD21FreePoly0,0.000000*%
%TD*%
%TA.AperFunction,SMDPad,CuDef*%
%ADD22RoundRect,0.135000X-0.135000X-0.185000X0.135000X-0.185000X0.135000X0.185000X-0.135000X0.185000X0*%
%TD*%
%TA.AperFunction,SMDPad,CuDef*%
%ADD23RoundRect,0.140000X-0.140000X-0.170000X0.140000X-0.170000X0.140000X0.170000X-0.140000X0.170000X0*%
%TD*%
%TA.AperFunction,SMDPad,CuDef*%
%ADD24Outline5P,-0.125000X-0.400000X-0.125000X0.400000X0.000000X0.400000X0.125000X0.275000X0.125000X-0.400000X180.000000*%
%TD*%
%TA.AperFunction,SMDPad,CuDef*%
%ADD25R,0.250000X1.100000*%
%TD*%
%TA.AperFunction,SMDPad,CuDef*%
%ADD26FreePoly1,270.000000*%
%TD*%
%TA.AperFunction,SMDPad,CuDef*%
%ADD27FreePoly2,270.000000*%
%TD*%
%TA.AperFunction,SMDPad,CuDef*%
%ADD28R,0.250000X0.700000*%
%TD*%
%TA.AperFunction,SMDPad,CuDef*%
%ADD29R,0.700000X0.250000*%
%TD*%
%TA.AperFunction,SMDPad,CuDef*%
%ADD30R,1.100000X0.250000*%
%TD*%
%TA.AperFunction,SMDPad,CuDef*%
%ADD31RoundRect,0.140000X0.140000X0.170000X-0.140000X0.170000X-0.140000X-0.170000X0.140000X-0.170000X0*%
%TD*%
%TA.AperFunction,SMDPad,CuDef*%
%ADD32R,0.850000X0.350000*%
%TD*%
%TA.AperFunction,SMDPad,CuDef*%
%ADD33R,0.900000X1.600000*%
%TD*%
%TA.AperFunction,SMDPad,CuDef*%
%ADD34RoundRect,0.135000X0.185000X-0.135000X0.185000X0.135000X-0.185000X0.135000X-0.185000X-0.135000X0*%
%TD*%
%TA.AperFunction,SMDPad,CuDef*%
%ADD35RoundRect,0.250000X0.475000X-0.250000X0.475000X0.250000X-0.475000X0.250000X-0.475000X-0.250000X0*%
%TD*%
%TA.AperFunction,SMDPad,CuDef*%
%ADD36R,0.370000X0.450000*%
%TD*%
%TA.AperFunction,SMDPad,CuDef*%
%ADD37R,1.670000X0.900000*%
%TD*%
%TA.AperFunction,SMDPad,CuDef*%
%ADD38RoundRect,0.250000X0.250000X0.475000X-0.250000X0.475000X-0.250000X-0.475000X0.250000X-0.475000X0*%
%TD*%
%TA.AperFunction,SMDPad,CuDef*%
%ADD39RoundRect,0.057500X0.185000X-0.057500X0.185000X0.057500X-0.185000X0.057500X-0.185000X-0.057500X0*%
%TD*%
%TA.AperFunction,SMDPad,CuDef*%
%ADD40RoundRect,0.057500X0.430000X-0.057500X0.430000X0.057500X-0.430000X0.057500X-0.430000X-0.057500X0*%
%TD*%
%TA.AperFunction,SMDPad,CuDef*%
%ADD41RoundRect,0.057500X0.330000X-0.057500X0.330000X0.057500X-0.330000X0.057500X-0.330000X-0.057500X0*%
%TD*%
%TA.AperFunction,SMDPad,CuDef*%
%ADD42RoundRect,0.057500X-0.057500X-0.330000X0.057500X-0.330000X0.057500X0.330000X-0.057500X0.330000X0*%
%TD*%
%TA.AperFunction,SMDPad,CuDef*%
%ADD43R,0.405000X0.990000*%
%TD*%
%TA.AperFunction,SMDPad,CuDef*%
%ADD44FreePoly0,90.000000*%
%TD*%
%TA.AperFunction,SMDPad,CuDef*%
%ADD45RoundRect,0.250000X-0.475000X0.250000X-0.475000X-0.250000X0.475000X-0.250000X0.475000X0.250000X0*%
%TD*%
%TA.AperFunction,ViaPad*%
%ADD46C,0.800000*%
%TD*%
%TA.AperFunction,ViaPad*%
%ADD47C,0.400000*%
%TD*%
%TA.AperFunction,Conductor*%
%ADD48C,0.150000*%
%TD*%
%TA.AperFunction,Conductor*%
%ADD49C,0.500000*%
%TD*%
%TA.AperFunction,Conductor*%
%ADD50C,0.200000*%
%TD*%
%TA.AperFunction,Conductor*%
%ADD51C,0.250000*%
%TD*%
G04 APERTURE END LIST*
D10*
%TO.P,R110,1*%
%TO.N,/FAN_PWM_LV*%
X95110000Y-74550000D03*
%TO.P,R110,2*%
%TO.N,GND*%
X94090000Y-74550000D03*
%TD*%
D11*
%TO.P,Q101,3,D*%
%TO.N,GND*%
X94175000Y-71037500D03*
%TO.P,Q101,2,S*%
%TO.N,/FAN_PWM*%
X93225000Y-72912500D03*
%TO.P,Q101,1,G*%
%TO.N,/FAN_PWM_LV*%
X95125000Y-72912500D03*
%TD*%
D12*
%TO.P,J102,1,Pin_1*%
%TO.N,GND*%
X90600000Y-78900000D03*
D13*
%TO.P,J102,2,Pin_2*%
%TO.N,/FAN_PWR*%
X90600000Y-76360000D03*
%TO.P,J102,3,Pin_3*%
%TO.N,/FAN_TACHO*%
X90600000Y-73820000D03*
%TO.P,J102,4,Pin_4*%
%TO.N,/FAN_PWM*%
X90600000Y-71280000D03*
%TD*%
D14*
%TO.P,J101,S1,SHIELD*%
%TO.N,GND*%
X67600000Y-70880000D03*
%TO.P,J101,S2,SHIELD*%
X67600000Y-79520000D03*
%TO.P,J101,S3,SHIELD*%
X63800000Y-70880000D03*
%TO.P,J101,S4,SHIELD*%
X63800000Y-79520000D03*
%TD*%
D15*
%TO.P,R122,1*%
%TO.N,+3.3V*%
X89150000Y-63040000D03*
%TO.P,R122,2*%
%TO.N,/HI_PWR*%
X89150000Y-64060000D03*
%TD*%
D10*
%TO.P,R102,1*%
%TO.N,Net-(R102-Pad1)*%
X78535000Y-65650000D03*
%TO.P,R102,2*%
%TO.N,GND*%
X77515000Y-65650000D03*
%TD*%
D16*
%TO.P,U101,1,CC1DB*%
%TO.N,/CC1*%
X68862500Y-74050000D03*
%TO.P,U101,2,CC1*%
X68862500Y-74550000D03*
%TO.P,U101,3,NC*%
%TO.N,unconnected-(U101-Pad3)*%
X68862500Y-75050000D03*
%TO.P,U101,4,CC2*%
%TO.N,/CC2*%
X68862500Y-75550000D03*
%TO.P,U101,5,CC2DB*%
X68862500Y-76050000D03*
%TO.P,U101,6,RESET*%
%TO.N,/RESET*%
X68862500Y-76550000D03*
D17*
%TO.P,U101,7,SCL*%
%TO.N,/PROG_SCL*%
X68150000Y-77262500D03*
%TO.P,U101,8,SDA*%
%TO.N,/PROG_SDA*%
X67650000Y-77262500D03*
%TO.P,U101,9,DISCH*%
%TO.N,Net-(R115-Pad1)*%
X67150000Y-77262500D03*
%TO.P,U101,10,GND*%
%TO.N,GND*%
X66650000Y-77262500D03*
%TO.P,U101,11,ATTACH*%
%TO.N,unconnected-(U101-Pad11)*%
X66150000Y-77262500D03*
%TO.P,U101,12,ADDR0*%
%TO.N,Net-(R108-Pad1)*%
X65650000Y-77262500D03*
D16*
%TO.P,U101,13,ADDR1*%
%TO.N,Net-(R109-Pad1)*%
X64937500Y-76550000D03*
%TO.P,U101,14,POWER_OK3*%
%TO.N,unconnected-(U101-Pad14)*%
X64937500Y-76050000D03*
%TO.P,U101,15,GPIO*%
%TO.N,unconnected-(U101-Pad15)*%
X64937500Y-75550000D03*
%TO.P,U101,16,VBUS_EN_SNK*%
%TO.N,Net-(R114-Pad1)*%
X64937500Y-75050000D03*
%TO.P,U101,17,A_B_SIDE*%
%TO.N,unconnected-(U101-Pad17)*%
X64937500Y-74550000D03*
%TO.P,U101,18,VBUS_VS_DISCH*%
%TO.N,Net-(R104-Pad2)*%
X64937500Y-74050000D03*
D17*
%TO.P,U101,19,ALERT*%
%TO.N,unconnected-(U101-Pad19)*%
X65650000Y-73337500D03*
%TO.P,U101,20,POWER_OK2*%
%TO.N,/HI_PWR*%
X66150000Y-73337500D03*
%TO.P,U101,21,VREG_1V2*%
%TO.N,Net-(C106-Pad1)*%
X66650000Y-73337500D03*
%TO.P,U101,22,VSYS*%
%TO.N,GND*%
X67150000Y-73337500D03*
%TO.P,U101,23,VREG_2V7*%
%TO.N,Net-(C107-Pad1)*%
X67650000Y-73337500D03*
%TO.P,U101,24,VDD*%
%TO.N,V_{bus}*%
X68150000Y-73337500D03*
D18*
%TO.P,U101,25,GND*%
%TO.N,GND*%
X66900000Y-75300000D03*
%TD*%
D19*
%TO.P,C105,1*%
%TO.N,V_{bus}*%
X70100000Y-72830000D03*
%TO.P,C105,2*%
%TO.N,GND*%
X70100000Y-71870000D03*
%TD*%
D15*
%TO.P,R111,1*%
%TO.N,V_{snk}*%
X83400000Y-78590000D03*
%TO.P,R111,2*%
%TO.N,Net-(Q102-Pad4)*%
X83400000Y-79610000D03*
%TD*%
D20*
%TO.P,Q105,1,S*%
%TO.N,Net-(D111-Pad3)*%
X71465000Y-67540000D03*
%TO.P,Q105,2,S*%
X71465000Y-66880000D03*
%TO.P,Q105,3,S*%
X71465000Y-66220000D03*
%TO.P,Q105,4,G*%
%TO.N,Net-(Q105-Pad4)*%
X71465000Y-65560000D03*
D21*
%TO.P,Q105,5,D*%
%TO.N,V_{snk}*%
X73457500Y-66550000D03*
%TD*%
D22*
%TO.P,R106,1*%
%TO.N,/FB_5V*%
X79440000Y-65200000D03*
%TO.P,R106,2*%
%TO.N,/AGND*%
X80460000Y-65200000D03*
%TD*%
D23*
%TO.P,C107,1*%
%TO.N,Net-(C107-Pad1)*%
X67020000Y-71900000D03*
%TO.P,C107,2*%
%TO.N,GND*%
X67980000Y-71900000D03*
%TD*%
D24*
%TO.P,U102,1,FB*%
%TO.N,/FB_5V*%
X79387500Y-66750000D03*
D25*
%TO.P,U102,2,VCC*%
%TO.N,unconnected-(U102-Pad2)*%
X80037500Y-66900000D03*
%TO.P,U102,3,AGND*%
%TO.N,/AGND*%
X80687500Y-66900000D03*
D26*
%TO.P,U102,4\u002C5\u002C6,SW*%
%TO.N,unconnected-(U102-Pad4\u002C5\u002C6)*%
X81337500Y-66900000D03*
D27*
%TO.P,U102,7\u002C8\u002C9,OUT*%
%TO.N,+5V*%
X81337500Y-69400000D03*
D25*
%TO.P,U102,10,NC*%
%TO.N,unconnected-(U102-Pad10)*%
X80687500Y-69400000D03*
%TO.P,U102,11,BST*%
%TO.N,unconnected-(U102-Pad11)*%
X80037500Y-69400000D03*
D28*
%TO.P,U102,12,PGND*%
%TO.N,GND*%
X79387500Y-69600000D03*
D29*
%TO.P,U102,13,PGND*%
X78487500Y-69400000D03*
%TO.P,U102,14,PGND*%
X78487500Y-68900000D03*
D30*
%TO.P,U102,15,NC*%
%TO.N,unconnected-(U102-Pad15)*%
X78687500Y-68400000D03*
%TO.P,U102,16,IN*%
%TO.N,V_{snk}*%
X78687500Y-67900000D03*
D29*
%TO.P,U102,17,EN*%
%TO.N,/REG_EN*%
X78487500Y-67400000D03*
%TO.P,U102,18,AAM*%
%TO.N,Net-(R102-Pad1)*%
X78487500Y-66900000D03*
%TD*%
D31*
%TO.P,C109,1*%
%TO.N,GND*%
X74480000Y-58750000D03*
%TO.P,C109,2*%
%TO.N,V_{snk}*%
X73520000Y-58750000D03*
%TD*%
D32*
%TO.P,U104,1,GND*%
%TO.N,GND*%
X75782500Y-56650000D03*
%TO.P,U104,2,FB*%
%TO.N,/FB_3.3V*%
X75782500Y-57150000D03*
%TO.P,U104,3,V_{out}*%
%TO.N,+3.3V*%
X75782500Y-57650000D03*
%TO.P,U104,4,V_{in}*%
%TO.N,V_{snk}*%
X73632500Y-57650000D03*
%TO.P,U104,5,NC*%
%TO.N,unconnected-(U104-Pad5)*%
X73632500Y-57150000D03*
%TO.P,U104,6,EN*%
%TO.N,/EN_3.3V*%
X73632500Y-56650000D03*
D33*
%TO.P,U104,EP,GND*%
%TO.N,GND*%
X74707500Y-57150000D03*
%TD*%
D22*
%TO.P,R118,1*%
%TO.N,V_{snk}*%
X72090000Y-55900000D03*
%TO.P,R118,2*%
%TO.N,/EN_3.3V*%
X73110000Y-55900000D03*
%TD*%
D10*
%TO.P,R113,1*%
%TO.N,/FAN_V_{snk}*%
X94610000Y-79700000D03*
%TO.P,R113,2*%
%TO.N,GND*%
X93590000Y-79700000D03*
%TD*%
D34*
%TO.P,R119,1*%
%TO.N,+3.3V*%
X76900000Y-58210000D03*
%TO.P,R119,2*%
%TO.N,/FB_3.3V*%
X76900000Y-57190000D03*
%TD*%
D10*
%TO.P,R108,1*%
%TO.N,Net-(R108-Pad1)*%
X66310000Y-78500000D03*
%TO.P,R108,2*%
%TO.N,GND*%
X65290000Y-78500000D03*
%TD*%
D23*
%TO.P,C108,1*%
%TO.N,Net-(C108-Pad1)*%
X72220000Y-64200000D03*
%TO.P,C108,2*%
%TO.N,V_{snk}*%
X73180000Y-64200000D03*
%TD*%
D35*
%TO.P,C113,1*%
%TO.N,/FAN_PWR*%
X88300000Y-74275000D03*
%TO.P,C113,2*%
%TO.N,GND*%
X88300000Y-72375000D03*
%TD*%
D22*
%TO.P,R112,1*%
%TO.N,/FAN_5V*%
X85991854Y-71063003D03*
%TO.P,R112,2*%
%TO.N,GND*%
X87011854Y-71063003D03*
%TD*%
D34*
%TO.P,R116,1*%
%TO.N,Net-(D111-Pad3)*%
X70150000Y-66510000D03*
%TO.P,R116,2*%
%TO.N,Net-(Q105-Pad4)*%
X70150000Y-65490000D03*
%TD*%
D22*
%TO.P,R121,1*%
%TO.N,+3.3V*%
X88890000Y-69300000D03*
%TO.P,R121,2*%
%TO.N,/FAN_VOLTAGE_SEL*%
X89910000Y-69300000D03*
%TD*%
D36*
%TO.P,U105,1,IN*%
%TO.N,+5V*%
X84500000Y-72575000D03*
%TO.P,U105,2,GND*%
%TO.N,GND*%
X85150000Y-72575000D03*
%TO.P,U105,3,EN*%
%TO.N,/FAN_5V*%
X85800000Y-72575000D03*
%TO.P,U105,4,~FLG*%
%TO.N,unconnected-(U105-Pad4)*%
X85800000Y-74225000D03*
%TO.P,U105,5,OUT*%
%TO.N,/FAN_PWR*%
X85150000Y-74225000D03*
%TO.P,U105,6*%
%TO.N,N/C*%
X84500000Y-74225000D03*
D37*
%TO.P,U105,EP,GND*%
%TO.N,GND*%
X85150000Y-73400000D03*
%TD*%
D31*
%TO.P,C106,1*%
%TO.N,Net-(C106-Pad1)*%
X66080000Y-71900000D03*
%TO.P,C106,2*%
%TO.N,GND*%
X65120000Y-71900000D03*
%TD*%
%TO.P,C111,1*%
%TO.N,GND*%
X94780000Y-65250000D03*
%TO.P,C111,2*%
%TO.N,+3.3V*%
X93820000Y-65250000D03*
%TD*%
D15*
%TO.P,R109,1*%
%TO.N,Net-(R109-Pad1)*%
X63700000Y-77390000D03*
%TO.P,R109,2*%
%TO.N,GND*%
X63700000Y-78410000D03*
%TD*%
%TO.P,R104,1*%
%TO.N,Net-(C103-Pad1)*%
X63600000Y-72890000D03*
%TO.P,R104,2*%
%TO.N,Net-(R104-Pad2)*%
X63600000Y-73910000D03*
%TD*%
D34*
%TO.P,R101,1*%
%TO.N,/REG_EN*%
X91350000Y-64010000D03*
%TO.P,R101,2*%
%TO.N,GND*%
X91350000Y-62990000D03*
%TD*%
%TO.P,R115,1*%
%TO.N,Net-(R115-Pad1)*%
X70600000Y-70710000D03*
%TO.P,R115,2*%
%TO.N,V_{snk}*%
X70600000Y-69690000D03*
%TD*%
D22*
%TO.P,R105,1*%
%TO.N,+5V*%
X77515000Y-64650000D03*
%TO.P,R105,2*%
%TO.N,/FB_5V*%
X78535000Y-64650000D03*
%TD*%
%TO.P,R117,1*%
%TO.N,Net-(Q105-Pad4)*%
X70240000Y-64200000D03*
%TO.P,R117,2*%
%TO.N,Net-(C108-Pad1)*%
X71260000Y-64200000D03*
%TD*%
D38*
%TO.P,C110,1*%
%TO.N,GND*%
X78950000Y-59700000D03*
%TO.P,C110,2*%
%TO.N,+3.3V*%
X77050000Y-59700000D03*
%TD*%
%TO.P,C104,1*%
%TO.N,+5V*%
X81625000Y-71200000D03*
%TO.P,C104,2*%
%TO.N,GND*%
X79725000Y-71200000D03*
%TD*%
D22*
%TO.P,R114,1*%
%TO.N,Net-(R114-Pad1)*%
X68040000Y-65550000D03*
%TO.P,R114,2*%
%TO.N,Net-(Q105-Pad4)*%
X69060000Y-65550000D03*
%TD*%
D39*
%TO.P,U103,1,V_{dd}*%
%TO.N,+3.3V*%
X92610000Y-65150000D03*
%TO.P,U103,2,GPI*%
%TO.N,unconnected-(U103-Pad2)*%
X92610000Y-65550000D03*
D40*
%TO.P,U103,3,GPIO*%
%TO.N,/FAN_PWM_LV*%
X92365000Y-65950000D03*
D41*
%TO.P,U103,4,GPIO*%
%TO.N,/FAN_TACHO*%
X92465000Y-66350000D03*
%TO.P,U103,5,GPIO*%
%TO.N,/POT_SUPPLY*%
X92465000Y-66750000D03*
D39*
%TO.P,U103,6,GPIO*%
%TO.N,/POT_WIPER*%
X92615000Y-67150000D03*
%TO.P,U103,7,GPIO*%
%TO.N,/FAN_V_{snk}*%
X92615000Y-67550000D03*
D42*
%TO.P,U103,8,GPIO*%
%TO.N,/FAN_5V*%
X92100000Y-67615000D03*
%TO.P,U103,9,GPIO*%
%TO.N,/FAN_VOLTAGE_SEL*%
X91700000Y-67615000D03*
%TO.P,U103,10,GPIO*%
%TO.N,GND*%
X91300000Y-67615000D03*
D39*
%TO.P,U103,11,GND*%
X90790000Y-67550000D03*
%TO.P,U103,12,GPIO*%
X90790000Y-67150000D03*
D41*
%TO.P,U103,13,GPIO*%
X90935000Y-66750000D03*
%TO.P,U103,14,V_{dd2}*%
%TO.N,+3.3V*%
X90935000Y-66350000D03*
%TO.P,U103,15,GPIO*%
%TO.N,/SW2*%
X90935000Y-65950000D03*
D39*
%TO.P,U103,16,GPIO*%
%TO.N,/SW1*%
X90790000Y-65550000D03*
%TO.P,U103,17,GPIO*%
%TO.N,/HI_PWR*%
X90790000Y-65150000D03*
D42*
%TO.P,U103,18,GPIO*%
%TO.N,unconnected-(U103-Pad18)*%
X91305000Y-65080000D03*
%TO.P,U103,19,GPIO*%
%TO.N,unconnected-(U103-Pad19)*%
X91700000Y-65085000D03*
%TO.P,U103,20,GPIO*%
%TO.N,/REG_EN*%
X92105000Y-65080000D03*
%TD*%
D43*
%TO.P,Q102,1,S*%
%TO.N,V_{snk}*%
X86690000Y-78885000D03*
%TO.P,Q102,2,S*%
X86030000Y-78885000D03*
%TO.P,Q102,3,S*%
X85370000Y-78885000D03*
%TO.P,Q102,4,G*%
%TO.N,Net-(Q102-Pad4)*%
X84710000Y-78885000D03*
D44*
%TO.P,Q102,5,D*%
%TO.N,/FAN_PWR*%
X85700000Y-76892500D03*
%TD*%
D19*
%TO.P,C112,1*%
%TO.N,GND*%
X89850000Y-67480000D03*
%TO.P,C112,2*%
%TO.N,+3.3V*%
X89850000Y-66520000D03*
%TD*%
D45*
%TO.P,C101,1*%
%TO.N,V_{snk}*%
X76650000Y-68800000D03*
%TO.P,C101,2*%
%TO.N,GND*%
X76650000Y-70700000D03*
%TD*%
D11*
%TO.P,Q104,1,G*%
%TO.N,/FAN_V_{snk}*%
X95150000Y-78137500D03*
%TO.P,Q104,2,S*%
%TO.N,GND*%
X93250000Y-78137500D03*
%TO.P,Q104,3,D*%
%TO.N,Net-(Q102-Pad4)*%
X94200000Y-76262500D03*
%TD*%
D10*
%TO.P,R120,1*%
%TO.N,/FB_3.3V*%
X77060000Y-55450000D03*
%TO.P,R120,2*%
%TO.N,GND*%
X76040000Y-55450000D03*
%TD*%
D46*
%TO.N,GND*%
X94275000Y-69725000D03*
X93175000Y-71125000D03*
X92925000Y-68675000D03*
D47*
%TO.N,/FAN_PWM_LV*%
X93875000Y-68300000D03*
X93875000Y-66095500D03*
D46*
%TO.N,V_{snk}*%
X81300000Y-80000000D03*
X88400000Y-80400000D03*
X82250000Y-80550000D03*
X74000000Y-63650000D03*
X69200000Y-59500000D03*
X82300000Y-78250000D03*
X69950000Y-58800000D03*
X82250000Y-79400000D03*
X76375000Y-63650000D03*
X71100000Y-60100000D03*
X75250000Y-62600000D03*
X81350000Y-78950000D03*
X74000000Y-62600000D03*
X75300000Y-64850000D03*
X87300000Y-80350000D03*
X84550000Y-80600000D03*
X75250000Y-63650000D03*
X80350000Y-79450000D03*
X70150000Y-59800000D03*
X76350000Y-62600000D03*
X80350000Y-80500000D03*
X83400000Y-80600000D03*
X88400000Y-78750000D03*
%TO.N,GND*%
X74800000Y-60750000D03*
D47*
X68358033Y-60143887D03*
X79500000Y-60950000D03*
D46*
X78225000Y-72550000D03*
D47*
X77625000Y-66425000D03*
X92300000Y-62925000D03*
X69175000Y-66500000D03*
X75150000Y-55650000D03*
X95875000Y-65150000D03*
D46*
X74550000Y-59700000D03*
D47*
X95875000Y-64500000D03*
D46*
X66100000Y-74600000D03*
D47*
X86425000Y-72875000D03*
X89700000Y-68575000D03*
D46*
X78100000Y-70700000D03*
X76775000Y-72675000D03*
D47*
X90900000Y-68400000D03*
D46*
X78725000Y-79150000D03*
X79575000Y-72575000D03*
D47*
X91100000Y-61750000D03*
D46*
X75025000Y-70325000D03*
D47*
X87050000Y-73050000D03*
X94775000Y-64050000D03*
D46*
X66100000Y-75950000D03*
D47*
X87050000Y-72400000D03*
X78300000Y-60950000D03*
X95450000Y-64075000D03*
X87050000Y-71800000D03*
X86450000Y-73450000D03*
X90300000Y-68575000D03*
X78900000Y-60950000D03*
D46*
X63700000Y-71925000D03*
D47*
X74500000Y-55650000D03*
D46*
X77450000Y-71700000D03*
D47*
X90425000Y-68000000D03*
%TO.N,V_{bus}*%
X73775000Y-72325000D03*
X73775000Y-71725000D03*
X73775000Y-72900000D03*
%TO.N,Net-(C103-Pad1)*%
X75050000Y-74300000D03*
X64650000Y-73300000D03*
%TO.N,+5V*%
X82300000Y-72100000D03*
X78300000Y-64000000D03*
D46*
%TO.N,+3.3V*%
X81800000Y-59250000D03*
D47*
X85250000Y-68300000D03*
D46*
X80450000Y-59250000D03*
X80450000Y-60200000D03*
D47*
X92650000Y-63950000D03*
X85800000Y-67100000D03*
X85250000Y-67700000D03*
X85250000Y-67100000D03*
D46*
X81800000Y-60200000D03*
D47*
X85800000Y-67700000D03*
X93900000Y-63950000D03*
X93250000Y-63950000D03*
X89400000Y-62000000D03*
X85800000Y-68300000D03*
%TO.N,/CC2*%
X70000000Y-75200000D03*
%TO.N,/CC1*%
X69950000Y-74250000D03*
%TO.N,/FAN_TACHO*%
X94824162Y-66255742D03*
%TO.N,/SW1*%
X68350000Y-60800000D03*
%TO.N,/SW2*%
X68850000Y-64450000D03*
%TO.N,/POT_WIPER*%
X95650000Y-67100000D03*
D46*
%TO.N,Net-(D111-Pad3)*%
X73250000Y-77450000D03*
X69550000Y-67750000D03*
X67000000Y-69650000D03*
X71350000Y-75250000D03*
X73700000Y-76550000D03*
X67800000Y-69050000D03*
X68650000Y-68300000D03*
D47*
%TO.N,/FAN_VOLTAGE_SEL*%
X87200000Y-69825000D03*
%TO.N,/PROG_SCL*%
X76650000Y-75500000D03*
%TO.N,/PROG_SDA*%
X77500000Y-78050000D03*
%TO.N,/RESET*%
X74500000Y-78150000D03*
X69750000Y-77400000D03*
%TO.N,/REG_EN*%
X78350000Y-63200000D03*
X84300000Y-65125000D03*
X90400000Y-64200000D03*
%TO.N,Net-(R114-Pad1)*%
X63800000Y-75050000D03*
X68050000Y-66250000D03*
%TO.N,Net-(R115-Pad1)*%
X71350000Y-70200000D03*
X69200000Y-79000000D03*
%TO.N,/HI_PWR*%
X83400000Y-55550000D03*
X65136531Y-72609500D03*
%TO.N,/POT_SUPPLY*%
X95600000Y-66350000D03*
%TD*%
D48*
%TO.N,/FAN_PWM_LV*%
X93620500Y-66095500D02*
X93475000Y-65950000D01*
X95125000Y-69550000D02*
X93875000Y-68300000D01*
X95125000Y-72912500D02*
X95125000Y-69550000D01*
X93475000Y-65950000D02*
X92365000Y-65950000D01*
X93875000Y-66095500D02*
X93620500Y-66095500D01*
X95110000Y-74550000D02*
X95110000Y-72927500D01*
X95110000Y-72927500D02*
X95125000Y-72912500D01*
%TO.N,/FAN_V_{snk}*%
X95150000Y-78137500D02*
X95150000Y-79160000D01*
X95150000Y-79160000D02*
X94610000Y-79700000D01*
X95150000Y-76800000D02*
X95150000Y-78137500D01*
X93250000Y-67550000D02*
X93450000Y-67750000D01*
X92615000Y-67550000D02*
X93250000Y-67550000D01*
X93450000Y-67750000D02*
X95550000Y-67750000D01*
X95550000Y-67750000D02*
X95975000Y-68175000D01*
X95975000Y-68175000D02*
X95975000Y-75975000D01*
X95975000Y-75975000D02*
X95150000Y-76800000D01*
D49*
%TO.N,GND*%
X94175000Y-71037500D02*
X94175000Y-72875000D01*
X94175000Y-72875000D02*
X94200000Y-72900000D01*
X94090000Y-73010000D02*
X94200000Y-72900000D01*
X94090000Y-74550000D02*
X94090000Y-73010000D01*
D48*
%TO.N,/FAN_PWM*%
X90600000Y-71280000D02*
X92232500Y-72912500D01*
X92232500Y-72912500D02*
X93225000Y-72912500D01*
D49*
%TO.N,V_{snk}*%
X71100000Y-68825000D02*
X73050000Y-68825000D01*
X73050000Y-68825000D02*
X73457500Y-68417500D01*
X70600000Y-69325000D02*
X71100000Y-68825000D01*
X70600000Y-69690000D02*
X70600000Y-69325000D01*
X73457500Y-68417500D02*
X73457500Y-66550000D01*
D48*
%TO.N,GND*%
X66650000Y-75550000D02*
X66900000Y-75300000D01*
D50*
X91350000Y-62990000D02*
X92235000Y-62990000D01*
D49*
X70100000Y-71870000D02*
X68010000Y-71870000D01*
X63725000Y-71900000D02*
X63700000Y-71925000D01*
X67980000Y-71900000D02*
X67980000Y-71260000D01*
X65120000Y-71900000D02*
X63725000Y-71900000D01*
D48*
X77515000Y-65650000D02*
X77515000Y-66315000D01*
D50*
X92235000Y-62990000D02*
X92300000Y-62925000D01*
D48*
X66650000Y-77262500D02*
X66650000Y-75550000D01*
X67150000Y-73337500D02*
X67150000Y-75050000D01*
D49*
X67980000Y-71260000D02*
X67600000Y-70880000D01*
D48*
X67150000Y-75050000D02*
X66900000Y-75300000D01*
D49*
X68010000Y-71870000D02*
X67980000Y-71900000D01*
D48*
X77515000Y-66315000D02*
X77625000Y-66425000D01*
%TO.N,Net-(C103-Pad1)*%
X63600000Y-72890000D02*
X64240000Y-72890000D01*
X64240000Y-72890000D02*
X64650000Y-73300000D01*
%TO.N,+5V*%
X78165000Y-64000000D02*
X77515000Y-64650000D01*
X78300000Y-64000000D02*
X78165000Y-64000000D01*
D51*
%TO.N,Net-(C106-Pad1)*%
X66650000Y-73337500D02*
X66650000Y-72870598D01*
X66650000Y-72870598D02*
X66080000Y-72300598D01*
X66080000Y-72300598D02*
X66080000Y-71900000D01*
%TO.N,Net-(C107-Pad1)*%
X67650000Y-73337500D02*
X67650000Y-72544000D01*
X67650000Y-72544000D02*
X67020000Y-71914000D01*
X67020000Y-71914000D02*
X67020000Y-71900000D01*
D50*
%TO.N,Net-(C108-Pad1)*%
X71260000Y-64200000D02*
X72220000Y-64200000D01*
%TO.N,+3.3V*%
X89150000Y-63040000D02*
X89150000Y-62250000D01*
X89150000Y-62250000D02*
X89400000Y-62000000D01*
D48*
%TO.N,/CC2*%
X70000000Y-75200000D02*
X69650000Y-75550000D01*
X68862500Y-75550000D02*
X68862500Y-76050000D01*
X69650000Y-75550000D02*
X68862500Y-75550000D01*
%TO.N,/CC1*%
X69500000Y-74050000D02*
X68862500Y-74050000D01*
X69750000Y-74050000D02*
X68862500Y-74050000D01*
X68862500Y-74050000D02*
X68862500Y-74550000D01*
X69950000Y-74250000D02*
X69750000Y-74050000D01*
%TO.N,/FAN_TACHO*%
X93800000Y-66700000D02*
X94379904Y-66700000D01*
X92465000Y-66350000D02*
X93450000Y-66350000D01*
X94379904Y-66700000D02*
X94824162Y-66255742D01*
X93450000Y-66350000D02*
X93800000Y-66700000D01*
%TO.N,/SW1*%
X68950000Y-61400000D02*
X68350000Y-60800000D01*
X71000000Y-61400000D02*
X68950000Y-61400000D01*
X89250000Y-65550000D02*
X87900000Y-64200000D01*
X87900000Y-64200000D02*
X85100000Y-61400000D01*
X90790000Y-65550000D02*
X89250000Y-65550000D01*
X85100000Y-61400000D02*
X71000000Y-61400000D01*
%TO.N,/SW2*%
X68978521Y-61821479D02*
X68400000Y-62400000D01*
X90935000Y-65950000D02*
X88995968Y-65950000D01*
X88995968Y-65950000D02*
X84867447Y-61821479D01*
X68400000Y-64000000D02*
X68850000Y-64450000D01*
X84867447Y-61821479D02*
X68978521Y-61821479D01*
X68400000Y-62400000D02*
X68400000Y-64000000D01*
%TO.N,/POT_WIPER*%
X95450000Y-67300000D02*
X95650000Y-67100000D01*
X93402830Y-67150000D02*
X93552830Y-67300000D01*
X92615000Y-67150000D02*
X93402830Y-67150000D01*
X93552830Y-67300000D02*
X95450000Y-67300000D01*
D49*
%TO.N,Net-(D111-Pad3)*%
X71465000Y-67540000D02*
X69760000Y-67540000D01*
X71465000Y-66220000D02*
X71465000Y-67540000D01*
X69760000Y-67540000D02*
X69550000Y-67750000D01*
D48*
%TO.N,/FAN_VOLTAGE_SEL*%
X88350000Y-70050000D02*
X87425000Y-70050000D01*
X87425000Y-70050000D02*
X87200000Y-69825000D01*
X89160000Y-70050000D02*
X89910000Y-69300000D01*
X91700000Y-68300000D02*
X91700000Y-67615000D01*
X90700000Y-69300000D02*
X91700000Y-68300000D01*
X89910000Y-69300000D02*
X90700000Y-69300000D01*
X88350000Y-70050000D02*
X89160000Y-70050000D01*
X90700000Y-69300000D02*
X91150000Y-68850000D01*
%TO.N,/PROG_SCL*%
X70300000Y-78750000D02*
X68812500Y-77262500D01*
X77000000Y-75850000D02*
X77000000Y-77650000D01*
X76650000Y-75500000D02*
X77000000Y-75850000D01*
X75900000Y-78750000D02*
X70300000Y-78750000D01*
X77000000Y-77650000D02*
X75900000Y-78750000D01*
X68812500Y-77262500D02*
X68150000Y-77262500D01*
%TO.N,/PROG_SDA*%
X67650000Y-77900000D02*
X67950000Y-78200000D01*
X67650000Y-77262500D02*
X67650000Y-77900000D01*
X70075000Y-79075000D02*
X76475000Y-79075000D01*
X69200000Y-78200000D02*
X70075000Y-79075000D01*
X76475000Y-79075000D02*
X77500000Y-78050000D01*
X67950000Y-78200000D02*
X69200000Y-78200000D01*
%TO.N,/RESET*%
X69350000Y-77400000D02*
X69750000Y-77400000D01*
X68950000Y-77000000D02*
X69350000Y-77400000D01*
X68862500Y-76912500D02*
X68950000Y-77000000D01*
X70500000Y-78150000D02*
X69750000Y-77400000D01*
X74500000Y-78150000D02*
X70500000Y-78150000D01*
X68862500Y-76550000D02*
X68862500Y-76912500D01*
%TO.N,Net-(Q102-Pad4)*%
X84710000Y-78885000D02*
X84710000Y-79340000D01*
X87400000Y-77550000D02*
X86900000Y-78050000D01*
X92437500Y-76262500D02*
X91150000Y-77550000D01*
X91150000Y-77550000D02*
X87400000Y-77550000D01*
X94200000Y-76262500D02*
X92437500Y-76262500D01*
X84710000Y-79340000D02*
X84300000Y-79750000D01*
X83540000Y-79750000D02*
X83400000Y-79610000D01*
X84710000Y-78885000D02*
X84710000Y-78240000D01*
X92300000Y-76400000D02*
X92000000Y-76700000D01*
X84900000Y-78050000D02*
X84710000Y-78240000D01*
X84300000Y-79750000D02*
X83540000Y-79750000D01*
X86900000Y-78050000D02*
X84900000Y-78050000D01*
D51*
%TO.N,Net-(Q105-Pad4)*%
X69070000Y-65560000D02*
X69060000Y-65550000D01*
X70220000Y-65560000D02*
X70200000Y-65540000D01*
X70200000Y-65540000D02*
X70200000Y-64240000D01*
X70200000Y-64240000D02*
X70240000Y-64200000D01*
X70190000Y-65530000D02*
X70200000Y-65540000D01*
X71465000Y-65560000D02*
X69070000Y-65560000D01*
D48*
%TO.N,/REG_EN*%
X76900000Y-64650000D02*
X76900000Y-64725000D01*
X78125000Y-63200000D02*
X76900000Y-64425000D01*
X91710000Y-64010000D02*
X92105000Y-64405000D01*
X76900000Y-66700000D02*
X77600000Y-67400000D01*
X91350000Y-64010000D02*
X90590000Y-64010000D01*
X91350000Y-64010000D02*
X91710000Y-64010000D01*
X77600000Y-67400000D02*
X78487500Y-67400000D01*
X92105000Y-64405000D02*
X92105000Y-64935882D01*
X76900000Y-64725000D02*
X76900000Y-66700000D01*
X76900000Y-64425000D02*
X76900000Y-64725000D01*
X90590000Y-64010000D02*
X90400000Y-64200000D01*
X78350000Y-63200000D02*
X78125000Y-63200000D01*
D51*
%TO.N,Net-(R102-Pad1)*%
X78487500Y-65697500D02*
X78535000Y-65650000D01*
X78487500Y-66900000D02*
X78487500Y-65697500D01*
D48*
%TO.N,Net-(R104-Pad2)*%
X64937500Y-74050000D02*
X63740000Y-74050000D01*
X63740000Y-74050000D02*
X63600000Y-73910000D01*
%TO.N,Net-(R108-Pad1)*%
X66310000Y-78360000D02*
X66310000Y-78500000D01*
X65650000Y-77262500D02*
X65650000Y-77700000D01*
X65650000Y-77700000D02*
X66310000Y-78360000D01*
%TO.N,Net-(R109-Pad1)*%
X64560000Y-77390000D02*
X63700000Y-77390000D01*
X64560000Y-77390000D02*
X64937500Y-77012500D01*
X64937500Y-77012500D02*
X64937500Y-76550000D01*
%TO.N,/FAN_5V*%
X85991854Y-71063003D02*
X85991854Y-70743003D01*
X86825000Y-70325000D02*
X86829520Y-70329520D01*
X86829520Y-70329520D02*
X89695480Y-70329520D01*
X85800000Y-72575000D02*
X85800000Y-71254857D01*
X92100000Y-69000000D02*
X92100000Y-67615000D01*
X85800000Y-71254857D02*
X85991854Y-71063003D01*
X89695480Y-70329520D02*
X90175000Y-69850000D01*
X90175000Y-69850000D02*
X91250000Y-69850000D01*
X91250000Y-69850000D02*
X92100000Y-69000000D01*
X85991854Y-70743003D02*
X86409857Y-70325000D01*
X86409857Y-70325000D02*
X86825000Y-70325000D01*
%TO.N,Net-(R114-Pad1)*%
X68050000Y-65560000D02*
X68040000Y-65550000D01*
X68050000Y-66250000D02*
X68050000Y-65560000D01*
X64937500Y-75050000D02*
X63800000Y-75050000D01*
%TO.N,Net-(R115-Pad1)*%
X68750000Y-78550000D02*
X69200000Y-79000000D01*
X67150000Y-77262500D02*
X67150000Y-78200000D01*
X67500000Y-78550000D02*
X68750000Y-78550000D01*
X71350000Y-70200000D02*
X71110000Y-70200000D01*
X71110000Y-70200000D02*
X70600000Y-70710000D01*
X67150000Y-78200000D02*
X67500000Y-78550000D01*
%TO.N,/HI_PWR*%
X65808692Y-72600000D02*
X66150000Y-72941308D01*
X90310000Y-62890000D02*
X90310000Y-59910000D01*
X90310000Y-59910000D02*
X85950000Y-55550000D01*
X90790000Y-65150000D02*
X89650000Y-65150000D01*
X65136531Y-72609500D02*
X65146031Y-72600000D01*
X89150000Y-64050000D02*
X90310000Y-62890000D01*
X89650000Y-65150000D02*
X89150000Y-64650000D01*
X89150000Y-64060000D02*
X89150000Y-64050000D01*
X85950000Y-55550000D02*
X83400000Y-55550000D01*
X65146031Y-72600000D02*
X65808692Y-72600000D01*
X89150000Y-64650000D02*
X89150000Y-64060000D01*
X66150000Y-72941308D02*
X66150000Y-73337500D01*
%TO.N,/POT_SUPPLY*%
X94950480Y-66999520D02*
X95600000Y-66350000D01*
X92465000Y-66750000D02*
X93426414Y-66750000D01*
X93426414Y-66750000D02*
X93675935Y-66999520D01*
X93675935Y-66999520D02*
X94950480Y-66999520D01*
%TO.N,/FB_5V*%
X79387500Y-66750000D02*
X79387500Y-65252500D01*
X78535000Y-64650000D02*
X78890000Y-64650000D01*
X78890000Y-64650000D02*
X79440000Y-65200000D01*
X79387500Y-65252500D02*
X79440000Y-65200000D01*
D50*
%TO.N,/FB_3.3V*%
X76900000Y-57190000D02*
X76900000Y-55610000D01*
X75782500Y-57150000D02*
X76860000Y-57150000D01*
X76860000Y-57150000D02*
X76900000Y-57190000D01*
X76900000Y-55610000D02*
X77060000Y-55450000D01*
D48*
%TO.N,/EN_3.3V*%
X73110000Y-56127500D02*
X73632500Y-56650000D01*
X73110000Y-55900000D02*
X73110000Y-56127500D01*
%TD*%
%TA.AperFunction,Conductor*%
%TO.N,/FAN_PWR*%
G36*
X89037171Y-73627421D02*
G01*
X89076953Y-73635334D01*
X89122374Y-73654148D01*
X89145582Y-73669655D01*
X89180345Y-73704418D01*
X89195852Y-73727626D01*
X89214666Y-73773047D01*
X89222579Y-73812829D01*
X89225000Y-73837410D01*
X89225000Y-75300000D01*
X89240224Y-75376537D01*
X89283579Y-75441421D01*
X89348463Y-75484776D01*
X89360632Y-75487196D01*
X89360633Y-75487197D01*
X89416349Y-75498279D01*
X89425000Y-75500000D01*
X91387590Y-75500000D01*
X91412171Y-75502421D01*
X91451953Y-75510334D01*
X91497374Y-75529148D01*
X91520582Y-75544655D01*
X91555345Y-75579418D01*
X91570852Y-75602626D01*
X91589666Y-75648047D01*
X91597579Y-75687829D01*
X91600000Y-75712410D01*
X91600000Y-76658195D01*
X91579998Y-76726316D01*
X91563095Y-76747290D01*
X91072790Y-77237595D01*
X91010478Y-77271621D01*
X90983695Y-77274500D01*
X87437547Y-77274500D01*
X87412965Y-77272079D01*
X87412171Y-77271921D01*
X87400000Y-77269500D01*
X87374864Y-77274500D01*
X87374863Y-77274500D01*
X87339889Y-77281457D01*
X87304826Y-77288431D01*
X87304824Y-77288432D01*
X87292657Y-77290852D01*
X87282342Y-77297744D01*
X87282340Y-77297745D01*
X87263684Y-77310211D01*
X87222967Y-77337417D01*
X87222963Y-77337420D01*
X87211974Y-77344763D01*
X87211973Y-77344764D01*
X87201657Y-77351657D01*
X87194764Y-77361973D01*
X87194315Y-77362645D01*
X87178646Y-77381738D01*
X86822790Y-77737595D01*
X86760477Y-77771620D01*
X86733694Y-77774500D01*
X84937546Y-77774500D01*
X84912966Y-77772079D01*
X84912172Y-77771921D01*
X84900000Y-77769500D01*
X84887828Y-77771921D01*
X84846329Y-77780176D01*
X84792658Y-77790851D01*
X84782339Y-77797746D01*
X84735916Y-77828765D01*
X84665914Y-77850000D01*
X84345253Y-77850000D01*
X84320673Y-77847579D01*
X84297502Y-77842970D01*
X84280888Y-77839666D01*
X84235470Y-77820853D01*
X84201731Y-77798310D01*
X84182644Y-77782644D01*
X83817356Y-77417356D01*
X83801690Y-77398269D01*
X83779147Y-77364530D01*
X83760334Y-77319111D01*
X83752421Y-77279327D01*
X83750000Y-77254747D01*
X83750000Y-74937410D01*
X83752421Y-74912829D01*
X83760334Y-74873047D01*
X83779148Y-74827626D01*
X83794655Y-74804418D01*
X83829418Y-74769655D01*
X83852626Y-74754148D01*
X83898047Y-74735334D01*
X83937829Y-74727421D01*
X83962410Y-74725000D01*
X84625000Y-74725000D01*
X84633651Y-74723279D01*
X84689367Y-74712197D01*
X84689368Y-74712196D01*
X84701537Y-74709776D01*
X84766421Y-74666421D01*
X84773312Y-74656108D01*
X84773314Y-74656106D01*
X84786806Y-74635914D01*
X84811478Y-74611243D01*
X84811216Y-74610981D01*
X84819994Y-74602203D01*
X84830310Y-74595310D01*
X84858439Y-74553212D01*
X84867964Y-74538958D01*
X84867965Y-74538956D01*
X84874857Y-74528641D01*
X84890500Y-74450000D01*
X84890500Y-74181500D01*
X84910502Y-74113379D01*
X84964158Y-74066886D01*
X85016500Y-74055500D01*
X85283500Y-74055500D01*
X85351621Y-74075502D01*
X85398114Y-74129158D01*
X85409500Y-74181500D01*
X85409500Y-74450000D01*
X85425143Y-74528641D01*
X85432035Y-74538956D01*
X85432036Y-74538958D01*
X85462375Y-74584363D01*
X85469690Y-74595310D01*
X85480006Y-74602203D01*
X85526042Y-74632964D01*
X85526044Y-74632965D01*
X85536359Y-74639857D01*
X85548526Y-74642277D01*
X85548528Y-74642278D01*
X85590169Y-74650561D01*
X85615000Y-74655500D01*
X85985000Y-74655500D01*
X86009831Y-74650561D01*
X86051472Y-74642278D01*
X86051474Y-74642277D01*
X86063641Y-74639857D01*
X86073956Y-74632965D01*
X86073958Y-74632964D01*
X86119994Y-74602203D01*
X86130310Y-74595310D01*
X86137625Y-74584363D01*
X86167964Y-74538958D01*
X86167965Y-74538956D01*
X86174857Y-74528641D01*
X86190500Y-74450000D01*
X86190500Y-74076000D01*
X86210502Y-74007879D01*
X86264158Y-73961386D01*
X86316500Y-73950000D01*
X87312500Y-73950000D01*
X87360076Y-73937252D01*
X87377729Y-73932522D01*
X87377730Y-73932522D01*
X87393750Y-73928229D01*
X87453229Y-73868750D01*
X87488033Y-73738860D01*
X87520645Y-73682376D01*
X87532376Y-73670645D01*
X87588860Y-73638033D01*
X87621478Y-73629293D01*
X87654089Y-73625000D01*
X89012590Y-73625000D01*
X89037171Y-73627421D01*
G37*
%TD.AperFunction*%
%TD*%
%TA.AperFunction,Conductor*%
%TO.N,V_{snk}*%
G36*
X72587593Y-54754019D02*
G01*
X72612172Y-54756440D01*
X72651958Y-54764354D01*
X72697381Y-54783170D01*
X72720586Y-54798676D01*
X72755347Y-54833438D01*
X72770853Y-54856645D01*
X72789666Y-54902066D01*
X72797579Y-54941849D01*
X72800000Y-54966429D01*
X72800000Y-55461154D01*
X72778765Y-55531155D01*
X72725091Y-55611484D01*
X72722671Y-55623651D01*
X72722670Y-55623653D01*
X72714432Y-55665070D01*
X72709500Y-55689864D01*
X72709500Y-56110136D01*
X72725091Y-56188516D01*
X72758369Y-56238319D01*
X72778765Y-56268844D01*
X72800000Y-56338846D01*
X72800000Y-57250000D01*
X72815224Y-57326537D01*
X72858579Y-57391421D01*
X72923463Y-57434776D01*
X72935632Y-57437196D01*
X72935633Y-57437197D01*
X72991349Y-57448279D01*
X73000000Y-57450000D01*
X73142303Y-57450000D01*
X73166881Y-57452421D01*
X73207500Y-57460500D01*
X73931244Y-57460500D01*
X74001246Y-57481735D01*
X74020582Y-57494655D01*
X74055345Y-57529418D01*
X74070852Y-57552626D01*
X74089666Y-57598047D01*
X74097579Y-57637829D01*
X74100000Y-57662410D01*
X74100000Y-57708410D01*
X74095705Y-57741026D01*
X74092410Y-57753321D01*
X74055456Y-57813943D01*
X74003317Y-57842411D01*
X73928525Y-57862452D01*
X73928522Y-57862454D01*
X73912500Y-57866747D01*
X73866747Y-57912500D01*
X73850000Y-57975000D01*
X73850000Y-59537590D01*
X73847579Y-59562171D01*
X73839666Y-59601953D01*
X73820852Y-59647374D01*
X73805345Y-59670582D01*
X73770582Y-59705345D01*
X73747374Y-59720852D01*
X73701953Y-59739666D01*
X73662171Y-59747579D01*
X73637590Y-59750000D01*
X72382843Y-59750000D01*
X72306306Y-59765224D01*
X72295987Y-59772119D01*
X72246567Y-59805140D01*
X72246563Y-59805143D01*
X72241421Y-59808579D01*
X71567356Y-60482644D01*
X71548269Y-60498310D01*
X71514530Y-60520853D01*
X71469112Y-60539666D01*
X71452498Y-60542970D01*
X71429327Y-60547579D01*
X71404747Y-60550000D01*
X68864824Y-60550000D01*
X68832385Y-60545752D01*
X68781251Y-60532128D01*
X68724974Y-60499845D01*
X68699524Y-60474608D01*
X68666768Y-60418601D01*
X68653044Y-60368779D01*
X68654237Y-60297792D01*
X68665402Y-60272315D01*
X68667789Y-60268180D01*
X68673300Y-60258635D01*
X68677303Y-60235936D01*
X68691619Y-60154742D01*
X68693533Y-60143887D01*
X68673300Y-60029139D01*
X68661813Y-60009243D01*
X68644936Y-59947302D01*
X68636729Y-58970786D01*
X68639222Y-58944767D01*
X68645228Y-58915049D01*
X68679583Y-58850968D01*
X68914116Y-58616171D01*
X68917746Y-58612950D01*
X68917738Y-58612941D01*
X68922203Y-58608665D01*
X68927078Y-58604837D01*
X68933919Y-58596858D01*
X68940412Y-58589846D01*
X68943449Y-58586806D01*
X68943454Y-58586800D01*
X68947831Y-58582418D01*
X68951271Y-58577263D01*
X68955190Y-58572482D01*
X68955200Y-58572490D01*
X68958138Y-58568613D01*
X69250464Y-58227692D01*
X69253846Y-58224197D01*
X69253837Y-58224189D01*
X69257968Y-58219582D01*
X69262532Y-58215401D01*
X69266188Y-58210416D01*
X69266194Y-58210409D01*
X69268741Y-58206935D01*
X69274690Y-58199438D01*
X69281522Y-58191471D01*
X69284556Y-58186079D01*
X69288109Y-58181002D01*
X69288118Y-58181008D01*
X69290753Y-58176921D01*
X69556334Y-57814788D01*
X69559441Y-57811045D01*
X69559432Y-57811038D01*
X69563202Y-57806129D01*
X69567439Y-57801610D01*
X69570712Y-57796351D01*
X69570716Y-57796346D01*
X69572983Y-57792704D01*
X69578347Y-57784773D01*
X69580893Y-57781301D01*
X69584555Y-57776308D01*
X69587172Y-57770698D01*
X69590327Y-57765369D01*
X69590337Y-57765375D01*
X69592657Y-57761095D01*
X69829963Y-57379838D01*
X69832777Y-57375869D01*
X69832768Y-57375863D01*
X69836156Y-57370680D01*
X69840033Y-57365856D01*
X69844891Y-57356542D01*
X69849629Y-57348241D01*
X69855179Y-57339325D01*
X69857363Y-57333530D01*
X69860102Y-57327981D01*
X69860113Y-57327986D01*
X69862099Y-57323546D01*
X70069764Y-56925364D01*
X70072273Y-56921185D01*
X70072264Y-56921180D01*
X70075246Y-56915758D01*
X70078744Y-56910656D01*
X70082883Y-56900994D01*
X70086979Y-56892354D01*
X70088967Y-56888542D01*
X70091830Y-56883052D01*
X70093568Y-56877107D01*
X70095876Y-56871370D01*
X70095888Y-56871375D01*
X70097529Y-56866800D01*
X70115434Y-56825000D01*
X70274354Y-56453983D01*
X70276534Y-56449635D01*
X70276523Y-56449630D01*
X70279085Y-56443997D01*
X70282189Y-56438639D01*
X70284187Y-56432781D01*
X70284189Y-56432776D01*
X70285573Y-56428717D01*
X70289010Y-56419766D01*
X70290705Y-56415809D01*
X70293142Y-56410120D01*
X70294423Y-56404062D01*
X70296289Y-56398165D01*
X70296300Y-56398169D01*
X70297591Y-56393477D01*
X70317565Y-56334909D01*
X70441984Y-55970085D01*
X70443638Y-55966107D01*
X70443481Y-55966048D01*
X70445658Y-55960257D01*
X70448395Y-55954704D01*
X70451554Y-55942903D01*
X70454010Y-55934824D01*
X70455952Y-55929129D01*
X70455953Y-55929125D01*
X70457951Y-55923266D01*
X70458768Y-55917128D01*
X70460181Y-55911107D01*
X70460342Y-55911145D01*
X70461188Y-55906910D01*
X70515982Y-55702197D01*
X70516386Y-55700722D01*
X70536826Y-55627908D01*
X70539144Y-55620529D01*
X70554183Y-55577339D01*
X70557994Y-55567693D01*
X70619894Y-55428126D01*
X70624485Y-55418830D01*
X70639312Y-55391678D01*
X70644655Y-55382785D01*
X70728599Y-55255276D01*
X70734651Y-55246859D01*
X70753730Y-55222507D01*
X70760460Y-55214612D01*
X70864201Y-55102579D01*
X70871558Y-55095262D01*
X70894352Y-55074389D01*
X70902287Y-55067702D01*
X71022988Y-54974207D01*
X71031440Y-54968200D01*
X71057392Y-54951321D01*
X71066282Y-54946046D01*
X71200690Y-54873612D01*
X71210002Y-54869078D01*
X71238350Y-54856692D01*
X71248021Y-54852933D01*
X71392499Y-54803521D01*
X71402430Y-54800576D01*
X71432423Y-54793009D01*
X71442569Y-54790889D01*
X71535181Y-54775491D01*
X71593191Y-54765846D01*
X71603486Y-54764567D01*
X71649049Y-54760805D01*
X71656770Y-54760406D01*
X71751567Y-54758415D01*
X71758130Y-54756966D01*
X71763037Y-54756430D01*
X71763758Y-54756344D01*
X71763759Y-54756352D01*
X71785304Y-54754001D01*
X71804894Y-54754001D01*
X72587593Y-54754019D01*
G37*
%TD.AperFunction*%
%TD*%
%TA.AperFunction,Conductor*%
%TO.N,GND*%
G36*
X91117121Y-66650002D02*
G01*
X91163614Y-66703658D01*
X91175000Y-66756000D01*
X91175000Y-67100000D01*
X91332767Y-67100000D01*
X91400888Y-67120002D01*
X91447381Y-67173658D01*
X91450000Y-67196127D01*
X91450000Y-68200000D01*
X91388623Y-68259016D01*
X91388622Y-68259018D01*
X90858067Y-68769167D01*
X90858065Y-68769168D01*
X90800000Y-68825000D01*
X89450000Y-68825000D01*
X89450000Y-66950000D01*
X90158013Y-66950000D01*
X90241584Y-66931703D01*
X90309864Y-66880158D01*
X90444175Y-66723463D01*
X90516549Y-66639026D01*
X90531582Y-66632797D01*
X90533453Y-66632425D01*
X90558055Y-66630000D01*
X91049000Y-66630000D01*
X91117121Y-66650002D01*
G37*
%TD.AperFunction*%
%TD*%
%TA.AperFunction,Conductor*%
%TO.N,/AGND*%
G36*
X80762171Y-64802421D02*
G01*
X80801953Y-64810334D01*
X80847374Y-64829148D01*
X80870582Y-64844655D01*
X80905345Y-64879418D01*
X80920852Y-64902626D01*
X80939666Y-64948047D01*
X80947579Y-64987829D01*
X80950000Y-65012410D01*
X80950000Y-67387590D01*
X80947579Y-67412171D01*
X80939666Y-67451953D01*
X80920852Y-67497374D01*
X80905345Y-67520582D01*
X80870582Y-67555345D01*
X80847374Y-67570852D01*
X80801953Y-67589666D01*
X80762171Y-67597579D01*
X80737590Y-67600000D01*
X80562410Y-67600000D01*
X80537829Y-67597579D01*
X80498047Y-67589666D01*
X80452626Y-67570852D01*
X80429418Y-67555345D01*
X80394655Y-67520582D01*
X80379148Y-67497374D01*
X80360334Y-67451953D01*
X80352421Y-67412171D01*
X80350000Y-67387590D01*
X80350000Y-66232843D01*
X80334776Y-66156306D01*
X80326226Y-66143510D01*
X80294860Y-66096567D01*
X80294857Y-66096563D01*
X80291421Y-66091421D01*
X80067356Y-65867356D01*
X80051690Y-65848269D01*
X80029147Y-65814530D01*
X80010334Y-65769111D01*
X80002421Y-65729327D01*
X80000000Y-65704747D01*
X80000000Y-65012410D01*
X80002421Y-64987829D01*
X80010334Y-64948047D01*
X80029148Y-64902626D01*
X80044655Y-64879418D01*
X80079418Y-64844655D01*
X80102626Y-64829148D01*
X80148047Y-64810334D01*
X80187829Y-64802421D01*
X80212410Y-64800000D01*
X80737590Y-64800000D01*
X80762171Y-64802421D01*
G37*
%TD.AperFunction*%
%TD*%
%TA.AperFunction,Conductor*%
%TO.N,GND*%
G36*
X96139032Y-76381117D02*
G01*
X96195868Y-76423664D01*
X96220679Y-76490184D01*
X96221000Y-76499173D01*
X96221000Y-79935947D01*
X96218114Y-79962759D01*
X96216497Y-79970185D01*
X96216385Y-79976381D01*
X96214757Y-80066404D01*
X96214390Y-80074012D01*
X96211619Y-80109221D01*
X96210456Y-80119045D01*
X96205918Y-80147700D01*
X96187856Y-80261743D01*
X96186777Y-80268555D01*
X96184849Y-80278248D01*
X96180690Y-80295572D01*
X96179307Y-80301331D01*
X96176622Y-80310850D01*
X96129844Y-80454816D01*
X96126421Y-80464095D01*
X96117342Y-80486015D01*
X96113200Y-80494999D01*
X96044476Y-80629879D01*
X96039649Y-80638498D01*
X96027247Y-80658735D01*
X96021752Y-80666958D01*
X95933791Y-80788026D01*
X95932775Y-80789424D01*
X95926662Y-80797178D01*
X95911236Y-80815240D01*
X95904532Y-80822491D01*
X95797497Y-80929526D01*
X95790235Y-80936240D01*
X95775927Y-80948461D01*
X95772193Y-80951650D01*
X95764430Y-80957770D01*
X95686266Y-81014560D01*
X95641958Y-81046752D01*
X95633735Y-81052247D01*
X95613490Y-81064653D01*
X95604879Y-81069476D01*
X95485969Y-81130063D01*
X95470001Y-81138199D01*
X95461016Y-81142341D01*
X95439092Y-81151422D01*
X95429811Y-81154846D01*
X95285842Y-81201624D01*
X95276327Y-81204308D01*
X95273450Y-81204999D01*
X95253259Y-81209846D01*
X95243593Y-81211769D01*
X95168934Y-81223595D01*
X95094042Y-81235456D01*
X95084218Y-81236619D01*
X95049011Y-81239390D01*
X95041403Y-81239757D01*
X94961555Y-81241201D01*
X94945185Y-81241497D01*
X94937759Y-81243114D01*
X94910948Y-81246000D01*
X93118301Y-81245995D01*
X89158082Y-81245983D01*
X89089961Y-81225981D01*
X89043468Y-81172325D01*
X89033365Y-81102051D01*
X89046958Y-81060590D01*
X89054061Y-81047300D01*
X89055517Y-81044576D01*
X89057462Y-81039882D01*
X89073150Y-81002006D01*
X89074331Y-80999155D01*
X89075224Y-80996211D01*
X89075228Y-80996200D01*
X89087885Y-80954476D01*
X89087886Y-80954471D01*
X89088786Y-80951505D01*
X89096699Y-80911723D01*
X89100356Y-80887067D01*
X89102777Y-80862486D01*
X89103468Y-80848415D01*
X89103924Y-80839145D01*
X89103924Y-80839129D01*
X89104000Y-80837590D01*
X89104000Y-78362410D01*
X89102777Y-78337514D01*
X89100356Y-78312933D01*
X89096699Y-78288277D01*
X89088786Y-78248495D01*
X89087885Y-78245524D01*
X89075228Y-78203800D01*
X89075224Y-78203789D01*
X89074331Y-78200845D01*
X89055517Y-78155424D01*
X89032046Y-78111512D01*
X89016539Y-78088304D01*
X89014575Y-78085911D01*
X89014561Y-78085892D01*
X89014178Y-78085426D01*
X89014129Y-78085310D01*
X89012733Y-78083428D01*
X89013187Y-78083092D01*
X88986429Y-78020077D01*
X88998416Y-77950100D01*
X89046332Y-77897712D01*
X89111583Y-77879500D01*
X91131047Y-77879500D01*
X91142029Y-77879979D01*
X91179154Y-77883227D01*
X91193063Y-77879500D01*
X91216055Y-77873340D01*
X91226784Y-77870961D01*
X91238449Y-77868904D01*
X91264406Y-77864327D01*
X91273956Y-77858814D01*
X91277403Y-77857559D01*
X91280718Y-77856013D01*
X91291365Y-77853160D01*
X91300394Y-77846838D01*
X91300398Y-77846836D01*
X91322656Y-77831251D01*
X91331925Y-77825345D01*
X91334534Y-77823839D01*
X91365012Y-77806242D01*
X91388970Y-77777690D01*
X91396396Y-77769587D01*
X92537078Y-76628905D01*
X92599390Y-76594879D01*
X92626173Y-76592000D01*
X93519500Y-76592000D01*
X93587621Y-76612002D01*
X93634114Y-76665658D01*
X93645500Y-76718000D01*
X93645500Y-76881569D01*
X93660542Y-76976542D01*
X93718708Y-77090698D01*
X93809302Y-77181292D01*
X93923458Y-77239458D01*
X94018431Y-77254500D01*
X94381569Y-77254500D01*
X94476542Y-77239458D01*
X94477003Y-77242370D01*
X94532128Y-77240789D01*
X94592930Y-77277445D01*
X94624262Y-77341154D01*
X94616964Y-77404819D01*
X94618108Y-77405191D01*
X94616275Y-77410832D01*
X94616177Y-77411689D01*
X94615579Y-77412974D01*
X94615043Y-77414625D01*
X94610542Y-77423458D01*
X94595500Y-77518431D01*
X94595500Y-78756569D01*
X94610542Y-78851542D01*
X94615043Y-78860375D01*
X94615043Y-78860376D01*
X94656784Y-78942297D01*
X94669888Y-79012074D01*
X94643188Y-79077859D01*
X94585160Y-79118765D01*
X94544517Y-79125500D01*
X94443431Y-79125500D01*
X94389317Y-79134071D01*
X94362884Y-79138257D01*
X94362882Y-79138258D01*
X94353093Y-79139808D01*
X94243119Y-79195843D01*
X94155843Y-79283119D01*
X94099808Y-79393093D01*
X94085500Y-79483431D01*
X94085500Y-79916569D01*
X94099808Y-80006907D01*
X94155843Y-80116881D01*
X94243119Y-80204157D01*
X94353093Y-80260192D01*
X94362882Y-80261742D01*
X94362884Y-80261743D01*
X94389317Y-80265929D01*
X94443431Y-80274500D01*
X94776569Y-80274500D01*
X94830683Y-80265929D01*
X94857116Y-80261743D01*
X94857118Y-80261742D01*
X94866907Y-80260192D01*
X94976881Y-80204157D01*
X95064157Y-80116881D01*
X95120192Y-80006907D01*
X95134500Y-79916569D01*
X95134500Y-79693673D01*
X95154502Y-79625552D01*
X95171405Y-79604578D01*
X95369587Y-79406396D01*
X95377691Y-79398969D01*
X95393029Y-79386099D01*
X95406242Y-79375012D01*
X95417066Y-79356264D01*
X95425340Y-79341933D01*
X95431249Y-79332658D01*
X95446835Y-79310400D01*
X95446837Y-79310396D01*
X95453160Y-79301366D01*
X95456013Y-79290718D01*
X95457562Y-79287396D01*
X95458816Y-79283952D01*
X95464327Y-79274406D01*
X95468676Y-79249744D01*
X95470962Y-79236784D01*
X95473340Y-79226057D01*
X95480373Y-79199807D01*
X95480373Y-79199805D01*
X95483227Y-79189154D01*
X95481788Y-79172704D01*
X95495778Y-79103099D01*
X95532782Y-79060325D01*
X95540698Y-79056292D01*
X95631292Y-78965698D01*
X95689458Y-78851542D01*
X95704500Y-78756569D01*
X95704500Y-77518431D01*
X95689458Y-77423458D01*
X95631292Y-77309302D01*
X95540698Y-77218708D01*
X95531863Y-77214207D01*
X95531436Y-77213896D01*
X95488084Y-77157672D01*
X95479500Y-77111962D01*
X95479500Y-76988673D01*
X95499502Y-76920552D01*
X95516405Y-76899578D01*
X96005905Y-76410078D01*
X96068217Y-76376052D01*
X96139032Y-76381117D01*
G37*
%TD.AperFunction*%
%TA.AperFunction,Conductor*%
G36*
X68313063Y-59278064D02*
G01*
X68366530Y-59324773D01*
X68386255Y-59391407D01*
X68390945Y-59949437D01*
X68399870Y-60014075D01*
X68416747Y-60076016D01*
X68422847Y-60090654D01*
X68423350Y-60091861D01*
X68431127Y-60118435D01*
X68431504Y-60120572D01*
X68423967Y-60183505D01*
X68426033Y-60184176D01*
X68424102Y-60190121D01*
X68421596Y-60195840D01*
X68409882Y-60249504D01*
X68375814Y-60311788D01*
X68313478Y-60345769D01*
X68295684Y-60348315D01*
X68282466Y-60349250D01*
X68259163Y-60350900D01*
X68259160Y-60350901D01*
X68249763Y-60351566D01*
X68240976Y-60354966D01*
X68240974Y-60354966D01*
X68222302Y-60362190D01*
X68122337Y-60400864D01*
X68015039Y-60485451D01*
X67937356Y-60597848D01*
X67896157Y-60728118D01*
X67895084Y-60864744D01*
X67897783Y-60873768D01*
X67897783Y-60873770D01*
X67931533Y-60986623D01*
X67931535Y-60986626D01*
X67934232Y-60995646D01*
X67939464Y-61003476D01*
X67994387Y-61085673D01*
X68010140Y-61109249D01*
X68116095Y-61195511D01*
X68124826Y-61199047D01*
X68124827Y-61199048D01*
X68141058Y-61205622D01*
X68242732Y-61246804D01*
X68293423Y-61251194D01*
X68359563Y-61276999D01*
X68371646Y-61287629D01*
X68619922Y-61535905D01*
X68653948Y-61598217D01*
X68648883Y-61669032D01*
X68619922Y-61714095D01*
X68180413Y-62153604D01*
X68172310Y-62161030D01*
X68143758Y-62184988D01*
X68138247Y-62194533D01*
X68124655Y-62218075D01*
X68118749Y-62227344D01*
X68103164Y-62249602D01*
X68103162Y-62249606D01*
X68096840Y-62258635D01*
X68093987Y-62269282D01*
X68092441Y-62272597D01*
X68091186Y-62276044D01*
X68085673Y-62285594D01*
X68083759Y-62296450D01*
X68079039Y-62323216D01*
X68076660Y-62333945D01*
X68071700Y-62352459D01*
X68066773Y-62370846D01*
X68067734Y-62381828D01*
X68070021Y-62407971D01*
X68070500Y-62418953D01*
X68070500Y-63981047D01*
X68070021Y-63992029D01*
X68066773Y-64029154D01*
X68069627Y-64039805D01*
X68076660Y-64066055D01*
X68079039Y-64076784D01*
X68080078Y-64082677D01*
X68085673Y-64114406D01*
X68091186Y-64123956D01*
X68092441Y-64127403D01*
X68093987Y-64130718D01*
X68096840Y-64141365D01*
X68103162Y-64150394D01*
X68103164Y-64150398D01*
X68118749Y-64172656D01*
X68124655Y-64181924D01*
X68143758Y-64215012D01*
X68161674Y-64230045D01*
X68172309Y-64238969D01*
X68180413Y-64246396D01*
X68358187Y-64424170D01*
X68392213Y-64486482D01*
X68393206Y-64496090D01*
X68393831Y-64496001D01*
X68395158Y-64505324D01*
X68395084Y-64514744D01*
X68397783Y-64523769D01*
X68431533Y-64636623D01*
X68431535Y-64636626D01*
X68434232Y-64645646D01*
X68448444Y-64666916D01*
X68503925Y-64749947D01*
X68510140Y-64759249D01*
X68616095Y-64845511D01*
X68637223Y-64854069D01*
X68692851Y-64898179D01*
X68715800Y-64965364D01*
X68698784Y-65034292D01*
X68679015Y-65059947D01*
X68639095Y-65099867D01*
X68576783Y-65133893D01*
X68505968Y-65128828D01*
X68460905Y-65099867D01*
X68406881Y-65045843D01*
X68296907Y-64989808D01*
X68287118Y-64988258D01*
X68287116Y-64988257D01*
X68249048Y-64982228D01*
X68206569Y-64975500D01*
X67873431Y-64975500D01*
X67830952Y-64982228D01*
X67792884Y-64988257D01*
X67792882Y-64988258D01*
X67783093Y-64989808D01*
X67673119Y-65045843D01*
X67585843Y-65133119D01*
X67529808Y-65243093D01*
X67528258Y-65252882D01*
X67528257Y-65252884D01*
X67526023Y-65266993D01*
X67515500Y-65333431D01*
X67515500Y-65766569D01*
X67524071Y-65820683D01*
X67526104Y-65833518D01*
X67529808Y-65856907D01*
X67585843Y-65966881D01*
X67592855Y-65973893D01*
X67598682Y-65981913D01*
X67596820Y-65983266D01*
X67624341Y-66033665D01*
X67621355Y-66098441D01*
X67598998Y-66169133D01*
X67598997Y-66169137D01*
X67596157Y-66178118D01*
X67595084Y-66314744D01*
X67597783Y-66323768D01*
X67597783Y-66323770D01*
X67631533Y-66436623D01*
X67631535Y-66436626D01*
X67634232Y-66445646D01*
X67639464Y-66453476D01*
X67704498Y-66550805D01*
X67710140Y-66559249D01*
X67816095Y-66645511D01*
X67824826Y-66649047D01*
X67824827Y-66649048D01*
X67857817Y-66662410D01*
X67942732Y-66696804D01*
X67952117Y-66697617D01*
X67952118Y-66697617D01*
X68069472Y-66707781D01*
X68069475Y-66707781D01*
X68078852Y-66708593D01*
X68088053Y-66706612D01*
X68088055Y-66706612D01*
X68150040Y-66693267D01*
X68212422Y-66679837D01*
X68303367Y-66628905D01*
X68323416Y-66617677D01*
X68323418Y-66617676D01*
X68331631Y-66613076D01*
X68425940Y-66514215D01*
X68458854Y-66448343D01*
X68482802Y-66400415D01*
X68482802Y-66400414D01*
X68487010Y-66391993D01*
X68490448Y-66371342D01*
X68508630Y-66262103D01*
X68508630Y-66262102D01*
X68509443Y-66257218D01*
X68509500Y-66250000D01*
X68498333Y-66175723D01*
X68507985Y-66105386D01*
X68554132Y-66051433D01*
X68622123Y-66030994D01*
X68689177Y-66050215D01*
X68693119Y-66054157D01*
X68701950Y-66058657D01*
X68701952Y-66058658D01*
X68748106Y-66082175D01*
X68803093Y-66110192D01*
X68812882Y-66111742D01*
X68812884Y-66111743D01*
X68839317Y-66115929D01*
X68893431Y-66124500D01*
X69220000Y-66124500D01*
X69288121Y-66144502D01*
X69334614Y-66198158D01*
X69346000Y-66250500D01*
X69346000Y-66484003D01*
X69325998Y-66552124D01*
X69309095Y-66573098D01*
X69270595Y-66611598D01*
X69249114Y-66628804D01*
X69247898Y-66629523D01*
X69236132Y-66637514D01*
X69224358Y-66645511D01*
X69221831Y-66647227D01*
X69196675Y-66666722D01*
X69195193Y-66668027D01*
X69195187Y-66668032D01*
X66242432Y-69268219D01*
X66161280Y-69339681D01*
X66161270Y-69339690D01*
X66160028Y-69340784D01*
X66158840Y-69341948D01*
X66158831Y-69341956D01*
X66151127Y-69349502D01*
X66140782Y-69359635D01*
X66139666Y-69360851D01*
X66139655Y-69360862D01*
X66124524Y-69377344D01*
X66122736Y-69379292D01*
X66121682Y-69380571D01*
X66121669Y-69380585D01*
X66106671Y-69398771D01*
X66106660Y-69398785D01*
X66105597Y-69400074D01*
X66104603Y-69401419D01*
X66104598Y-69401425D01*
X66097005Y-69411696D01*
X66079632Y-69435197D01*
X66077945Y-69438073D01*
X66077941Y-69438079D01*
X66064107Y-69461663D01*
X66052413Y-69481599D01*
X66051037Y-69484644D01*
X66051035Y-69484648D01*
X66050010Y-69486916D01*
X66030559Y-69529964D01*
X66029519Y-69533121D01*
X66029516Y-69533128D01*
X66014767Y-69577888D01*
X66014764Y-69577897D01*
X66013723Y-69581058D01*
X66012058Y-69588786D01*
X66006390Y-69615096D01*
X66004523Y-69623760D01*
X66000254Y-69650359D01*
X65997428Y-69676896D01*
X65996000Y-69703793D01*
X65996000Y-69937590D01*
X65997223Y-69962486D01*
X65999644Y-69987067D01*
X65999867Y-69988568D01*
X65999867Y-69988571D01*
X66000765Y-69994627D01*
X66003301Y-70011723D01*
X66011214Y-70051505D01*
X66012114Y-70054471D01*
X66012115Y-70054476D01*
X66024772Y-70096200D01*
X66024776Y-70096211D01*
X66025669Y-70099155D01*
X66026850Y-70102006D01*
X66043027Y-70141060D01*
X66044483Y-70144576D01*
X66067954Y-70188488D01*
X66083461Y-70211696D01*
X66085430Y-70214095D01*
X66109999Y-70244032D01*
X66115050Y-70250187D01*
X66149813Y-70284950D01*
X66152203Y-70286911D01*
X66152208Y-70286916D01*
X66185903Y-70314569D01*
X66185909Y-70314573D01*
X66188304Y-70316539D01*
X66211512Y-70332046D01*
X66255424Y-70355517D01*
X66258273Y-70356697D01*
X66258277Y-70356699D01*
X66288615Y-70369265D01*
X66300845Y-70374331D01*
X66303789Y-70375224D01*
X66303800Y-70375228D01*
X66345524Y-70387885D01*
X66345529Y-70387886D01*
X66348495Y-70388786D01*
X66388277Y-70396699D01*
X66400946Y-70398578D01*
X66411429Y-70400133D01*
X66411432Y-70400133D01*
X66412933Y-70400356D01*
X66437514Y-70402777D01*
X66448950Y-70403339D01*
X66460855Y-70403924D01*
X66460871Y-70403924D01*
X66462410Y-70404000D01*
X68387590Y-70404000D01*
X68389129Y-70403924D01*
X68389145Y-70403924D01*
X68401050Y-70403339D01*
X68412486Y-70402777D01*
X68437067Y-70400356D01*
X68438568Y-70400133D01*
X68438571Y-70400133D01*
X68449054Y-70398578D01*
X68461723Y-70396699D01*
X68501505Y-70388786D01*
X68504471Y-70387886D01*
X68504476Y-70387885D01*
X68546200Y-70375228D01*
X68546211Y-70375224D01*
X68549155Y-70374331D01*
X68561385Y-70369265D01*
X68591723Y-70356699D01*
X68591727Y-70356697D01*
X68594576Y-70355517D01*
X68638488Y-70332046D01*
X68661696Y-70316539D01*
X68664091Y-70314573D01*
X68664097Y-70314569D01*
X68697792Y-70286916D01*
X68697797Y-70286911D01*
X68700187Y-70284950D01*
X68734950Y-70250187D01*
X68740002Y-70244032D01*
X68764570Y-70214095D01*
X68766539Y-70211696D01*
X68782046Y-70188488D01*
X68805517Y-70144576D01*
X68806974Y-70141060D01*
X68823150Y-70102006D01*
X68824331Y-70099155D01*
X68825224Y-70096211D01*
X68825228Y-70096200D01*
X68837885Y-70054476D01*
X68837886Y-70054471D01*
X68838786Y-70051505D01*
X68846699Y-70011723D01*
X68849235Y-69994627D01*
X68850133Y-69988571D01*
X68850133Y-69988568D01*
X68850356Y-69987067D01*
X68852777Y-69962486D01*
X68854000Y-69937590D01*
X68854000Y-69627982D01*
X68874002Y-69559861D01*
X68899337Y-69531186D01*
X70156916Y-68483204D01*
X70222053Y-68454960D01*
X70237579Y-68454000D01*
X70453340Y-68454000D01*
X70521461Y-68474002D01*
X70567954Y-68527658D01*
X70578058Y-68597932D01*
X70548564Y-68662512D01*
X70542435Y-68669095D01*
X70292612Y-68918918D01*
X70283826Y-68925938D01*
X70284210Y-68926389D01*
X70277377Y-68932204D01*
X70269783Y-68936996D01*
X70242737Y-68967620D01*
X70236446Y-68974743D01*
X70231100Y-68980430D01*
X70218577Y-68992953D01*
X70211601Y-69002261D01*
X70205220Y-69010099D01*
X70180096Y-69038547D01*
X70174156Y-69045273D01*
X70170342Y-69053396D01*
X70168483Y-69056227D01*
X70160105Y-69070172D01*
X70158480Y-69073139D01*
X70153094Y-69080326D01*
X70144388Y-69103550D01*
X70136630Y-69124246D01*
X70132702Y-69133568D01*
X70117010Y-69166991D01*
X70112763Y-69176037D01*
X70111382Y-69184910D01*
X70110392Y-69188147D01*
X70106262Y-69203892D01*
X70105537Y-69207187D01*
X70102386Y-69215593D01*
X70098908Y-69262396D01*
X70097756Y-69272416D01*
X70096250Y-69282086D01*
X70096249Y-69282095D01*
X70095500Y-69286907D01*
X70095500Y-69293542D01*
X70095299Y-69294380D01*
X70095125Y-69296627D01*
X70094766Y-69296599D01*
X70081766Y-69350745D01*
X70044310Y-69424255D01*
X70044308Y-69424262D01*
X70039808Y-69433093D01*
X70038258Y-69442882D01*
X70038257Y-69442884D01*
X70036753Y-69452383D01*
X70025500Y-69523431D01*
X70025500Y-69856569D01*
X70032519Y-69900885D01*
X70038250Y-69937067D01*
X70039808Y-69946907D01*
X70095843Y-70056881D01*
X70149867Y-70110905D01*
X70183893Y-70173217D01*
X70178828Y-70244032D01*
X70149867Y-70289095D01*
X70095843Y-70343119D01*
X70039808Y-70453093D01*
X70038258Y-70462882D01*
X70038257Y-70462884D01*
X70034071Y-70489317D01*
X70025500Y-70543431D01*
X70025500Y-70876569D01*
X70039808Y-70966907D01*
X70095843Y-71076881D01*
X70183119Y-71164157D01*
X70293093Y-71220192D01*
X70302882Y-71221742D01*
X70302884Y-71221743D01*
X70327888Y-71225703D01*
X70383431Y-71234500D01*
X70816569Y-71234500D01*
X70872112Y-71225703D01*
X70897116Y-71221743D01*
X70897118Y-71221742D01*
X70906907Y-71220192D01*
X71016881Y-71164157D01*
X71104157Y-71076881D01*
X71160192Y-70966907D01*
X71174500Y-70876569D01*
X71174500Y-70778279D01*
X71194502Y-70710158D01*
X71248158Y-70663665D01*
X71311371Y-70652749D01*
X71369471Y-70657781D01*
X71369474Y-70657781D01*
X71378852Y-70658593D01*
X71388053Y-70656612D01*
X71388055Y-70656612D01*
X71445637Y-70644215D01*
X71512422Y-70629837D01*
X71572027Y-70596456D01*
X71623416Y-70567677D01*
X71623418Y-70567676D01*
X71631631Y-70563076D01*
X71725940Y-70464215D01*
X71764079Y-70387885D01*
X71782802Y-70350415D01*
X71782802Y-70350414D01*
X71787010Y-70341993D01*
X71789310Y-70328178D01*
X71808630Y-70212103D01*
X71808630Y-70212102D01*
X71809443Y-70207218D01*
X71809500Y-70200000D01*
X71807770Y-70188488D01*
X71790587Y-70074199D01*
X71790587Y-70074198D01*
X71789187Y-70064888D01*
X71739648Y-69961723D01*
X71734121Y-69950213D01*
X71734120Y-69950212D01*
X71730044Y-69941723D01*
X71637299Y-69841392D01*
X71519153Y-69772768D01*
X71386052Y-69741916D01*
X71376656Y-69742581D01*
X71376653Y-69742581D01*
X71309398Y-69747343D01*
X71240035Y-69732202D01*
X71189869Y-69681964D01*
X71174500Y-69621658D01*
X71174500Y-69523431D01*
X71175017Y-69523431D01*
X71188959Y-69457087D01*
X71210875Y-69427595D01*
X71272065Y-69366405D01*
X71334377Y-69332379D01*
X71361160Y-69329500D01*
X72111397Y-69329500D01*
X72179518Y-69349502D01*
X72217559Y-69388752D01*
X72217954Y-69388488D01*
X72233461Y-69411696D01*
X72235427Y-69414091D01*
X72235431Y-69414097D01*
X72260075Y-69444125D01*
X72265050Y-69450187D01*
X72299813Y-69484950D01*
X72302203Y-69486911D01*
X72302208Y-69486916D01*
X72335903Y-69514569D01*
X72335909Y-69514573D01*
X72338304Y-69516539D01*
X72361512Y-69532046D01*
X72405424Y-69555517D01*
X72408273Y-69556697D01*
X72408277Y-69556699D01*
X72424081Y-69563245D01*
X72450845Y-69574331D01*
X72453789Y-69575224D01*
X72453800Y-69575228D01*
X72495524Y-69587885D01*
X72495529Y-69587886D01*
X72498495Y-69588786D01*
X72538277Y-69596699D01*
X72550946Y-69598578D01*
X72561429Y-69600133D01*
X72561432Y-69600133D01*
X72562933Y-69600356D01*
X72587514Y-69602777D01*
X72598950Y-69603339D01*
X72610855Y-69603924D01*
X72610871Y-69603924D01*
X72612410Y-69604000D01*
X77287590Y-69604000D01*
X77289129Y-69603924D01*
X77289145Y-69603924D01*
X77301050Y-69603339D01*
X77312486Y-69602777D01*
X77337067Y-69600356D01*
X77338568Y-69600133D01*
X77338571Y-69600133D01*
X77349054Y-69598578D01*
X77361723Y-69596699D01*
X77401505Y-69588786D01*
X77404471Y-69587886D01*
X77404476Y-69587885D01*
X77446200Y-69575228D01*
X77446211Y-69575224D01*
X77449155Y-69574331D01*
X77475919Y-69563245D01*
X77491723Y-69556699D01*
X77491727Y-69556697D01*
X77494576Y-69555517D01*
X77538488Y-69532046D01*
X77561696Y-69516539D01*
X77564091Y-69514573D01*
X77564097Y-69514569D01*
X77597792Y-69486916D01*
X77597797Y-69486911D01*
X77600187Y-69484950D01*
X77634950Y-69450187D01*
X77639925Y-69444125D01*
X77664569Y-69414097D01*
X77664573Y-69414091D01*
X77666539Y-69411696D01*
X77682046Y-69388488D01*
X77705517Y-69344576D01*
X77709489Y-69334988D01*
X77723150Y-69302006D01*
X77724331Y-69299155D01*
X77725224Y-69296211D01*
X77725228Y-69296200D01*
X77737885Y-69254476D01*
X77737886Y-69254471D01*
X77738786Y-69251505D01*
X77746699Y-69211723D01*
X77750356Y-69187067D01*
X77752777Y-69162486D01*
X77753411Y-69149587D01*
X77753924Y-69139145D01*
X77753924Y-69139129D01*
X77754000Y-69137590D01*
X77754000Y-68809255D01*
X77774002Y-68741134D01*
X77827658Y-68694641D01*
X77897932Y-68684537D01*
X77953160Y-68709760D01*
X77954006Y-68708494D01*
X78038194Y-68764747D01*
X78137500Y-68784500D01*
X79237500Y-68784500D01*
X79246923Y-68782626D01*
X79324631Y-68767169D01*
X79324632Y-68767168D01*
X79336806Y-68764747D01*
X79337017Y-68764606D01*
X79399235Y-68757916D01*
X79462723Y-68789693D01*
X79498951Y-68850751D01*
X79501502Y-68900401D01*
X79499871Y-68911396D01*
X79499866Y-68911434D01*
X79499644Y-68912933D01*
X79497223Y-68937514D01*
X79496000Y-68962410D01*
X79496000Y-69887590D01*
X79496076Y-69889129D01*
X79496076Y-69889145D01*
X79496653Y-69900885D01*
X79497223Y-69912486D01*
X79499644Y-69937067D01*
X79503301Y-69961723D01*
X79511214Y-70001505D01*
X79512114Y-70004471D01*
X79512115Y-70004476D01*
X79524772Y-70046200D01*
X79524776Y-70046211D01*
X79525669Y-70049155D01*
X79526850Y-70052006D01*
X79537286Y-70077200D01*
X79544483Y-70094576D01*
X79545934Y-70097291D01*
X79545937Y-70097297D01*
X79557348Y-70118645D01*
X79567954Y-70138488D01*
X79579479Y-70155736D01*
X79580303Y-70156969D01*
X79583461Y-70161696D01*
X79585427Y-70164091D01*
X79585431Y-70164097D01*
X79613084Y-70197792D01*
X79615050Y-70200187D01*
X79649813Y-70234950D01*
X79652203Y-70236911D01*
X79652208Y-70236916D01*
X79685903Y-70264569D01*
X79685909Y-70264573D01*
X79688304Y-70266539D01*
X79711512Y-70282046D01*
X79755424Y-70305517D01*
X79758273Y-70306697D01*
X79758277Y-70306699D01*
X79786200Y-70318265D01*
X79800845Y-70324331D01*
X79803789Y-70325224D01*
X79803800Y-70325228D01*
X79845524Y-70337885D01*
X79845529Y-70337886D01*
X79848495Y-70338786D01*
X79888277Y-70346699D01*
X79900946Y-70348578D01*
X79911429Y-70350133D01*
X79911432Y-70350133D01*
X79912933Y-70350356D01*
X79937514Y-70352777D01*
X79948950Y-70353339D01*
X79960855Y-70353924D01*
X79960871Y-70353924D01*
X79962410Y-70354000D01*
X80233364Y-70354000D01*
X80299469Y-70345247D01*
X80303469Y-70344169D01*
X80303473Y-70344168D01*
X80360424Y-70328817D01*
X80360428Y-70328816D01*
X80362794Y-70328178D01*
X80365094Y-70327361D01*
X80365103Y-70327358D01*
X80391979Y-70317809D01*
X80391981Y-70317808D01*
X80400140Y-70314909D01*
X80481040Y-70257662D01*
X80489419Y-70248821D01*
X80550799Y-70213140D01*
X80580868Y-70209500D01*
X80720000Y-70209500D01*
X80788121Y-70229502D01*
X80834614Y-70283158D01*
X80846000Y-70335500D01*
X80846000Y-72137590D01*
X80846076Y-72139129D01*
X80846076Y-72139145D01*
X80846456Y-72146866D01*
X80847223Y-72162486D01*
X80849644Y-72187067D01*
X80853301Y-72211723D01*
X80861214Y-72251505D01*
X80862114Y-72254471D01*
X80862115Y-72254476D01*
X80874772Y-72296200D01*
X80874776Y-72296211D01*
X80875669Y-72299155D01*
X80876850Y-72302006D01*
X80885891Y-72323832D01*
X80894483Y-72344576D01*
X80917954Y-72388488D01*
X80933461Y-72411696D01*
X80935427Y-72414091D01*
X80935431Y-72414097D01*
X80963084Y-72447792D01*
X80965050Y-72450187D01*
X80999813Y-72484950D01*
X81002203Y-72486911D01*
X81002208Y-72486916D01*
X81035903Y-72514569D01*
X81035909Y-72514573D01*
X81038304Y-72516539D01*
X81061512Y-72532046D01*
X81105424Y-72555517D01*
X81108273Y-72556697D01*
X81108277Y-72556699D01*
X81135763Y-72568084D01*
X81150845Y-72574331D01*
X81153789Y-72575224D01*
X81153800Y-72575228D01*
X81195524Y-72587885D01*
X81195529Y-72587886D01*
X81198495Y-72588786D01*
X81238277Y-72596699D01*
X81250946Y-72598578D01*
X81261429Y-72600133D01*
X81261432Y-72600133D01*
X81262933Y-72600356D01*
X81287514Y-72602777D01*
X81298950Y-72603339D01*
X81310855Y-72603924D01*
X81310871Y-72603924D01*
X81312410Y-72604000D01*
X83838975Y-72604000D01*
X83907096Y-72624002D01*
X83953589Y-72677658D01*
X83960921Y-72698296D01*
X83966391Y-72719337D01*
X83966399Y-72719364D01*
X83966859Y-72721134D01*
X83975824Y-72748896D01*
X84025573Y-72837176D01*
X84029721Y-72841963D01*
X84029723Y-72841966D01*
X84063097Y-72880483D01*
X84074880Y-72899555D01*
X84075253Y-72899306D01*
X84131506Y-72983494D01*
X84215694Y-73039747D01*
X84315000Y-73059500D01*
X84685000Y-73059500D01*
X84784306Y-73039747D01*
X84868494Y-72983494D01*
X84924747Y-72899306D01*
X84940348Y-72820872D01*
X84952015Y-72787774D01*
X84953642Y-72785137D01*
X84982459Y-72718838D01*
X84991915Y-72684297D01*
X84998555Y-72651877D01*
X85002358Y-72624260D01*
X85002743Y-72621465D01*
X85002744Y-72621454D01*
X85003023Y-72619429D01*
X85003522Y-72612487D01*
X85005246Y-72588463D01*
X85005392Y-72586430D01*
X85018085Y-70631818D01*
X85027597Y-69166991D01*
X85027597Y-69166981D01*
X85027607Y-69165412D01*
X85026536Y-69140412D01*
X85026276Y-69137590D01*
X85024401Y-69117286D01*
X85024401Y-69117284D01*
X85024256Y-69115716D01*
X85024036Y-69114168D01*
X85024033Y-69114145D01*
X85021700Y-69097750D01*
X85031906Y-69027491D01*
X85078477Y-68973903D01*
X85146443Y-68954000D01*
X88220000Y-68954000D01*
X88288121Y-68974002D01*
X88334614Y-69027658D01*
X88346000Y-69080000D01*
X88346000Y-69487590D01*
X88347223Y-69512486D01*
X88349644Y-69537067D01*
X88353301Y-69561723D01*
X88353604Y-69563245D01*
X88354932Y-69569923D01*
X88348601Y-69640637D01*
X88305045Y-69696702D01*
X88231352Y-69720500D01*
X87733156Y-69720500D01*
X87665035Y-69700498D01*
X87619573Y-69649042D01*
X87617404Y-69644524D01*
X87597357Y-69602777D01*
X87584121Y-69575213D01*
X87584120Y-69575212D01*
X87580044Y-69566723D01*
X87487299Y-69466392D01*
X87369153Y-69397768D01*
X87236052Y-69366916D01*
X87226657Y-69367581D01*
X87226654Y-69367581D01*
X87109164Y-69375900D01*
X87109162Y-69375901D01*
X87099763Y-69376566D01*
X87090976Y-69379966D01*
X87090974Y-69379966D01*
X87060704Y-69391677D01*
X86972337Y-69425864D01*
X86865039Y-69510451D01*
X86787356Y-69622848D01*
X86746157Y-69753118D01*
X86746083Y-69762539D01*
X86745235Y-69870490D01*
X86724699Y-69938451D01*
X86670679Y-69984521D01*
X86619239Y-69995500D01*
X86428810Y-69995500D01*
X86417828Y-69995021D01*
X86417604Y-69995001D01*
X86380703Y-69991773D01*
X86370052Y-69994627D01*
X86343802Y-70001660D01*
X86333073Y-70004039D01*
X86325344Y-70005402D01*
X86295451Y-70010673D01*
X86285901Y-70016186D01*
X86282454Y-70017441D01*
X86279139Y-70018987D01*
X86268492Y-70021840D01*
X86237178Y-70043765D01*
X86227942Y-70049649D01*
X86194845Y-70068758D01*
X86187762Y-70077199D01*
X86187761Y-70077200D01*
X86170898Y-70097297D01*
X86163472Y-70105401D01*
X85979779Y-70289095D01*
X85800014Y-70468860D01*
X85749855Y-70499598D01*
X85744741Y-70501260D01*
X85734947Y-70502811D01*
X85624973Y-70558846D01*
X85537697Y-70646122D01*
X85481662Y-70756096D01*
X85480112Y-70765885D01*
X85480111Y-70765887D01*
X85475925Y-70792320D01*
X85467354Y-70846434D01*
X85467354Y-71223535D01*
X85466031Y-71223535D01*
X85466410Y-71225736D01*
X85466773Y-71225704D01*
X85466875Y-71226870D01*
X85466966Y-71228967D01*
X85467154Y-71230058D01*
X85467354Y-71232344D01*
X85467354Y-71279572D01*
X85468128Y-71284458D01*
X85468128Y-71284460D01*
X85468949Y-71289641D01*
X85470500Y-71309353D01*
X85470500Y-72078745D01*
X85450498Y-72146866D01*
X85438362Y-72161925D01*
X85431506Y-72166506D01*
X85375253Y-72250694D01*
X85355500Y-72350000D01*
X85355500Y-72800000D01*
X85375253Y-72899306D01*
X85431506Y-72983494D01*
X85515694Y-73039747D01*
X85615000Y-73059500D01*
X85985000Y-73059500D01*
X86084306Y-73039747D01*
X86168494Y-72983494D01*
X86224747Y-72899306D01*
X86244500Y-72800000D01*
X86244500Y-72350000D01*
X86224747Y-72250694D01*
X86168494Y-72166506D01*
X86164058Y-72163542D01*
X86132379Y-72105528D01*
X86129500Y-72078745D01*
X86129500Y-71749699D01*
X86149502Y-71681578D01*
X86203158Y-71635085D01*
X86235785Y-71625251D01*
X86238965Y-71624747D01*
X86238968Y-71624746D01*
X86248761Y-71623195D01*
X86358735Y-71567160D01*
X86446011Y-71479884D01*
X86502046Y-71369910D01*
X86507002Y-71338622D01*
X86510275Y-71317954D01*
X86516354Y-71279572D01*
X86516354Y-70846434D01*
X86509033Y-70800211D01*
X86518133Y-70729800D01*
X86563855Y-70675486D01*
X86633482Y-70654500D01*
X86752999Y-70654500D01*
X86785611Y-70658794D01*
X86789714Y-70659893D01*
X86789715Y-70659893D01*
X86800366Y-70662747D01*
X86837490Y-70659499D01*
X86848472Y-70659020D01*
X89472830Y-70659020D01*
X89540951Y-70679022D01*
X89587444Y-70732678D01*
X89597548Y-70802952D01*
X89589698Y-70832113D01*
X89536190Y-70964885D01*
X89495795Y-71171732D01*
X89495779Y-71177718D01*
X89495779Y-71177721D01*
X89495568Y-71258321D01*
X89495243Y-71382485D01*
X89496361Y-71388372D01*
X89528974Y-71560149D01*
X89534554Y-71589541D01*
X89612309Y-71785427D01*
X89615533Y-71790477D01*
X89615534Y-71790480D01*
X89659662Y-71859614D01*
X89725702Y-71963076D01*
X89870642Y-72116079D01*
X89875507Y-72119569D01*
X89875510Y-72119571D01*
X90003918Y-72211671D01*
X90041899Y-72238913D01*
X90122330Y-72275992D01*
X90216930Y-72319603D01*
X90233294Y-72327147D01*
X90239110Y-72328581D01*
X90239113Y-72328582D01*
X90325985Y-72350000D01*
X90437921Y-72377598D01*
X90443911Y-72377907D01*
X90443913Y-72377907D01*
X90517857Y-72381717D01*
X90648396Y-72388444D01*
X90654331Y-72387615D01*
X90654335Y-72387615D01*
X90816132Y-72365020D01*
X90857124Y-72359295D01*
X91048365Y-72294005D01*
X91119293Y-72290925D01*
X91178168Y-72324152D01*
X91986109Y-73132093D01*
X91993535Y-73140196D01*
X92017488Y-73168742D01*
X92050585Y-73187851D01*
X92059821Y-73193735D01*
X92091135Y-73215660D01*
X92101782Y-73218513D01*
X92105097Y-73220059D01*
X92108544Y-73221314D01*
X92118094Y-73226827D01*
X92144051Y-73231404D01*
X92155716Y-73233461D01*
X92166445Y-73235840D01*
X92189437Y-73242000D01*
X92203346Y-73245727D01*
X92240471Y-73242479D01*
X92251453Y-73242000D01*
X92544500Y-73242000D01*
X92612621Y-73262002D01*
X92659114Y-73315658D01*
X92670500Y-73368000D01*
X92670500Y-73531569D01*
X92685542Y-73626542D01*
X92743708Y-73740698D01*
X92834302Y-73831292D01*
X92948458Y-73889458D01*
X93043431Y-73904500D01*
X93406569Y-73904500D01*
X93501542Y-73889458D01*
X93615698Y-73831292D01*
X93706292Y-73740698D01*
X93764458Y-73626542D01*
X93779500Y-73531569D01*
X93779500Y-72293431D01*
X93764458Y-72198458D01*
X93706292Y-72084302D01*
X93615698Y-71993708D01*
X93501542Y-71935542D01*
X93406569Y-71920500D01*
X93043431Y-71920500D01*
X92948458Y-71935542D01*
X92834302Y-71993708D01*
X92743708Y-72084302D01*
X92685542Y-72198458D01*
X92670500Y-72293431D01*
X92670500Y-72457000D01*
X92650498Y-72525121D01*
X92596842Y-72571614D01*
X92544500Y-72583000D01*
X92421174Y-72583000D01*
X92353053Y-72562998D01*
X92332079Y-72546095D01*
X91643806Y-71857822D01*
X91609780Y-71795510D01*
X91614845Y-71724695D01*
X91621187Y-71710452D01*
X91625209Y-71702742D01*
X91625212Y-71702735D01*
X91627984Y-71697421D01*
X91688370Y-71495503D01*
X91689109Y-71488169D01*
X91698005Y-71399813D01*
X91709485Y-71285809D01*
X91709500Y-71280000D01*
X91709200Y-71276850D01*
X91690789Y-71083892D01*
X91689483Y-71070199D01*
X91630155Y-70867967D01*
X91567988Y-70747263D01*
X91536402Y-70685934D01*
X91536400Y-70685931D01*
X91533656Y-70680603D01*
X91444952Y-70567677D01*
X91407175Y-70519584D01*
X91407171Y-70519579D01*
X91403469Y-70514867D01*
X91350451Y-70468860D01*
X91261296Y-70391496D01*
X91222955Y-70331742D01*
X91223005Y-70260746D01*
X91261431Y-70201047D01*
X91311270Y-70174622D01*
X91316059Y-70173339D01*
X91326784Y-70170961D01*
X91338449Y-70168904D01*
X91364406Y-70164327D01*
X91373956Y-70158814D01*
X91377403Y-70157559D01*
X91380718Y-70156013D01*
X91391365Y-70153160D01*
X91400394Y-70146838D01*
X91400398Y-70146836D01*
X91422656Y-70131251D01*
X91431925Y-70125345D01*
X91455467Y-70111753D01*
X91465012Y-70106242D01*
X91488965Y-70077696D01*
X91496391Y-70069592D01*
X92319599Y-69246385D01*
X92327703Y-69238959D01*
X92347800Y-69222096D01*
X92347801Y-69222095D01*
X92356242Y-69215012D01*
X92375351Y-69181915D01*
X92381235Y-69172679D01*
X92403160Y-69141365D01*
X92406013Y-69130718D01*
X92407559Y-69127403D01*
X92408814Y-69123956D01*
X92414327Y-69114406D01*
X92420961Y-69076784D01*
X92423340Y-69066055D01*
X92430373Y-69039805D01*
X92433227Y-69029154D01*
X92429979Y-68992029D01*
X92429500Y-68981047D01*
X92429500Y-68132668D01*
X92437099Y-68089573D01*
X92468826Y-68002405D01*
X92510921Y-67945234D01*
X92577242Y-67919896D01*
X92587227Y-67919500D01*
X92828357Y-67919500D01*
X92908420Y-67905383D01*
X92924012Y-67896381D01*
X92987012Y-67879500D01*
X93061327Y-67879500D01*
X93129448Y-67899502D01*
X93150422Y-67916405D01*
X93203607Y-67969590D01*
X93211035Y-67977695D01*
X93234988Y-68006242D01*
X93268085Y-68025351D01*
X93277321Y-68031235D01*
X93308635Y-68053160D01*
X93319284Y-68056014D01*
X93322600Y-68057560D01*
X93326045Y-68058814D01*
X93335594Y-68064327D01*
X93346093Y-68066178D01*
X93403085Y-68108143D01*
X93428421Y-68174465D01*
X93424410Y-68209667D01*
X93425471Y-68209835D01*
X93423998Y-68219135D01*
X93421157Y-68228118D01*
X93420084Y-68364744D01*
X93422783Y-68373768D01*
X93422783Y-68373770D01*
X93456533Y-68486623D01*
X93456535Y-68486626D01*
X93459232Y-68495646D01*
X93464464Y-68503476D01*
X93529085Y-68600187D01*
X93535140Y-68609249D01*
X93641095Y-68695511D01*
X93649826Y-68699047D01*
X93649827Y-68699048D01*
X93686036Y-68713714D01*
X93767732Y-68746804D01*
X93818423Y-68751194D01*
X93884563Y-68776999D01*
X93896646Y-68787629D01*
X94758595Y-69649578D01*
X94792621Y-69711890D01*
X94795500Y-69738673D01*
X94795500Y-71886962D01*
X94775498Y-71955083D01*
X94743564Y-71988896D01*
X94743137Y-71989207D01*
X94734302Y-71993708D01*
X94643708Y-72084302D01*
X94585542Y-72198458D01*
X94570500Y-72293431D01*
X94570500Y-73531569D01*
X94585542Y-73626542D01*
X94643708Y-73740698D01*
X94734302Y-73831292D01*
X94733712Y-73831882D01*
X94771916Y-73881427D01*
X94780500Y-73927139D01*
X94780500Y-73956402D01*
X94760498Y-74024523D01*
X94741703Y-74044427D01*
X94743119Y-74045843D01*
X94655843Y-74133119D01*
X94599808Y-74243093D01*
X94598258Y-74252882D01*
X94598257Y-74252884D01*
X94594992Y-74273500D01*
X94585500Y-74333431D01*
X94585500Y-74766569D01*
X94590564Y-74798541D01*
X94597638Y-74843204D01*
X94599808Y-74856907D01*
X94655843Y-74966881D01*
X94743119Y-75054157D01*
X94853093Y-75110192D01*
X94862882Y-75111742D01*
X94862884Y-75111743D01*
X94881833Y-75114744D01*
X94943431Y-75124500D01*
X95276569Y-75124500D01*
X95338167Y-75114744D01*
X95357116Y-75111743D01*
X95357118Y-75111742D01*
X95366907Y-75110192D01*
X95462297Y-75061588D01*
X95532074Y-75048484D01*
X95597858Y-75075184D01*
X95638765Y-75133211D01*
X95645500Y-75173855D01*
X95645500Y-75786327D01*
X95625498Y-75854448D01*
X95608595Y-75875422D01*
X94969595Y-76514422D01*
X94907283Y-76548448D01*
X94836468Y-76543383D01*
X94779632Y-76500836D01*
X94754821Y-76434316D01*
X94754500Y-76425327D01*
X94754500Y-75643431D01*
X94739458Y-75548458D01*
X94681292Y-75434302D01*
X94590698Y-75343708D01*
X94476542Y-75285542D01*
X94381569Y-75270500D01*
X94018431Y-75270500D01*
X93923458Y-75285542D01*
X93809302Y-75343708D01*
X93718708Y-75434302D01*
X93660542Y-75548458D01*
X93645500Y-75643431D01*
X93645500Y-75807000D01*
X93625498Y-75875121D01*
X93571842Y-75921614D01*
X93519500Y-75933000D01*
X92456453Y-75933000D01*
X92445471Y-75932521D01*
X92445247Y-75932501D01*
X92408346Y-75929273D01*
X92397695Y-75932127D01*
X92371445Y-75939160D01*
X92360716Y-75941539D01*
X92356327Y-75942313D01*
X92323094Y-75948173D01*
X92313544Y-75953686D01*
X92310097Y-75954941D01*
X92306782Y-75956487D01*
X92296135Y-75959340D01*
X92287106Y-75965662D01*
X92287102Y-75965664D01*
X92264844Y-75981249D01*
X92255575Y-75987155D01*
X92237157Y-75997789D01*
X92222488Y-76006258D01*
X92215403Y-76014702D01*
X92198531Y-76034809D01*
X92191104Y-76042913D01*
X92069095Y-76164922D01*
X92006783Y-76198948D01*
X91935968Y-76193883D01*
X91879132Y-76151336D01*
X91854321Y-76084816D01*
X91854000Y-76075827D01*
X91854000Y-75712410D01*
X91853711Y-75706512D01*
X91852854Y-75689088D01*
X91852777Y-75687514D01*
X91850356Y-75662933D01*
X91846699Y-75638277D01*
X91838786Y-75598495D01*
X91831395Y-75574130D01*
X91825228Y-75553800D01*
X91825224Y-75553789D01*
X91824331Y-75550845D01*
X91805517Y-75505424D01*
X91782046Y-75461512D01*
X91766539Y-75438304D01*
X91763998Y-75435207D01*
X91736916Y-75402208D01*
X91736911Y-75402203D01*
X91734950Y-75399813D01*
X91700187Y-75365050D01*
X91697797Y-75363089D01*
X91697792Y-75363084D01*
X91664097Y-75335431D01*
X91664091Y-75335427D01*
X91661696Y-75333461D01*
X91638488Y-75317954D01*
X91594576Y-75294483D01*
X91591727Y-75293303D01*
X91591723Y-75293301D01*
X91552006Y-75276850D01*
X91552007Y-75276850D01*
X91549155Y-75275669D01*
X91546211Y-75274776D01*
X91546200Y-75274772D01*
X91504476Y-75262115D01*
X91504471Y-75262114D01*
X91501505Y-75261214D01*
X91461723Y-75253301D01*
X91449054Y-75251422D01*
X91438571Y-75249867D01*
X91438568Y-75249867D01*
X91437067Y-75249644D01*
X91412486Y-75247223D01*
X91401050Y-75246661D01*
X91389145Y-75246076D01*
X91389129Y-75246076D01*
X91387590Y-75246000D01*
X89605000Y-75246000D01*
X89536879Y-75225998D01*
X89490386Y-75172342D01*
X89479000Y-75120000D01*
X89479000Y-74548161D01*
X89499002Y-74480040D01*
X89552658Y-74433547D01*
X89622932Y-74423443D01*
X89687512Y-74452937D01*
X89711206Y-74480366D01*
X89725702Y-74503076D01*
X89870642Y-74656079D01*
X89875507Y-74659569D01*
X89875510Y-74659571D01*
X90033332Y-74772768D01*
X90041899Y-74778913D01*
X90127325Y-74818295D01*
X90221585Y-74861749D01*
X90233294Y-74867147D01*
X90239110Y-74868581D01*
X90239113Y-74868582D01*
X90333566Y-74891869D01*
X90437921Y-74917598D01*
X90443911Y-74917907D01*
X90443913Y-74917907D01*
X90517857Y-74921717D01*
X90648396Y-74928444D01*
X90654331Y-74927615D01*
X90654335Y-74927615D01*
X90816132Y-74905020D01*
X90857124Y-74899295D01*
X91030524Y-74840096D01*
X91050896Y-74833141D01*
X91050898Y-74833140D01*
X91056575Y-74831202D01*
X91148062Y-74778913D01*
X91234344Y-74729599D01*
X91234347Y-74729597D01*
X91239552Y-74726622D01*
X91244101Y-74722716D01*
X91244104Y-74722714D01*
X91394900Y-74593237D01*
X91394902Y-74593235D01*
X91399451Y-74589329D01*
X91406686Y-74580218D01*
X91507748Y-74452937D01*
X91530505Y-74424277D01*
X91537794Y-74410305D01*
X91625210Y-74242739D01*
X91625211Y-74242736D01*
X91627984Y-74237421D01*
X91688370Y-74035503D01*
X91689168Y-74027584D01*
X91697150Y-73948306D01*
X91709485Y-73825809D01*
X91709500Y-73820000D01*
X91707302Y-73796956D01*
X91691829Y-73634787D01*
X91689483Y-73610199D01*
X91630155Y-73407967D01*
X91621736Y-73391621D01*
X91536402Y-73225934D01*
X91536400Y-73225931D01*
X91533656Y-73220603D01*
X91489891Y-73164888D01*
X91407175Y-73059584D01*
X91407171Y-73059579D01*
X91403469Y-73054867D01*
X91244290Y-72916739D01*
X91078579Y-72820873D01*
X91067062Y-72814210D01*
X91067061Y-72814210D01*
X91061864Y-72811203D01*
X91056195Y-72809234D01*
X91056192Y-72809233D01*
X90868442Y-72744035D01*
X90862772Y-72742066D01*
X90856834Y-72741205D01*
X90660139Y-72712686D01*
X90660136Y-72712686D01*
X90654199Y-72711825D01*
X90443670Y-72721569D01*
X90437846Y-72722973D01*
X90437843Y-72722973D01*
X90244615Y-72769541D01*
X90244613Y-72769542D01*
X90238782Y-72770947D01*
X90233324Y-72773429D01*
X90233320Y-72773430D01*
X90150244Y-72811203D01*
X90046928Y-72858178D01*
X89875030Y-72980114D01*
X89729291Y-73132355D01*
X89614969Y-73309408D01*
X89569335Y-73422641D01*
X89551066Y-73467972D01*
X89507051Y-73523678D01*
X89439906Y-73546744D01*
X89370949Y-73529847D01*
X89345105Y-73509968D01*
X89325187Y-73490050D01*
X89322797Y-73488089D01*
X89322792Y-73488084D01*
X89289097Y-73460431D01*
X89289091Y-73460427D01*
X89286696Y-73458461D01*
X89263488Y-73442954D01*
X89219576Y-73419483D01*
X89216727Y-73418303D01*
X89216723Y-73418301D01*
X89177006Y-73401850D01*
X89177007Y-73401850D01*
X89174155Y-73400669D01*
X89171211Y-73399776D01*
X89171200Y-73399772D01*
X89129476Y-73387115D01*
X89129471Y-73387114D01*
X89126505Y-73386214D01*
X89086723Y-73378301D01*
X89074054Y-73376422D01*
X89063571Y-73374867D01*
X89063568Y-73374867D01*
X89062067Y-73374644D01*
X89037486Y-73372223D01*
X89026050Y-73371661D01*
X89014145Y-73371076D01*
X89014129Y-73371076D01*
X89012590Y-73371000D01*
X87654089Y-73371000D01*
X87652049Y-73371134D01*
X87652040Y-73371134D01*
X87622993Y-73373038D01*
X87622984Y-73373039D01*
X87620938Y-73373173D01*
X87610903Y-73374494D01*
X87590367Y-73377197D01*
X87590354Y-73377199D01*
X87588327Y-73377466D01*
X87586320Y-73377865D01*
X87586309Y-73377867D01*
X87557748Y-73383548D01*
X87557742Y-73383549D01*
X87555738Y-73383948D01*
X87535773Y-73389298D01*
X87527101Y-73391621D01*
X87527097Y-73391622D01*
X87523120Y-73392688D01*
X87461857Y-73418064D01*
X87405373Y-73450676D01*
X87352771Y-73491040D01*
X87341040Y-73502771D01*
X87300676Y-73555373D01*
X87268064Y-73611857D01*
X87266490Y-73615657D01*
X87266489Y-73615659D01*
X87265428Y-73618221D01*
X87264907Y-73618868D01*
X87264658Y-73619372D01*
X87264545Y-73619316D01*
X87220878Y-73673501D01*
X87149020Y-73696000D01*
X86316500Y-73696000D01*
X86313153Y-73696360D01*
X86313149Y-73696360D01*
X86265874Y-73701442D01*
X86265867Y-73701443D01*
X86262510Y-73701804D01*
X86259210Y-73702522D01*
X86259209Y-73702522D01*
X86211822Y-73712830D01*
X86211815Y-73712832D01*
X86210168Y-73713190D01*
X86183945Y-73720384D01*
X86177098Y-73724283D01*
X86177093Y-73724285D01*
X86147099Y-73741365D01*
X86078006Y-73757692D01*
X86060170Y-73755452D01*
X85985000Y-73740500D01*
X85615000Y-73740500D01*
X85608932Y-73741707D01*
X85527864Y-73757832D01*
X85527863Y-73757833D01*
X85515694Y-73760253D01*
X85515136Y-73760626D01*
X85452627Y-73767346D01*
X85438880Y-73763309D01*
X85434306Y-73760253D01*
X85422137Y-73757833D01*
X85422136Y-73757832D01*
X85341068Y-73741707D01*
X85335000Y-73740500D01*
X84965000Y-73740500D01*
X84958932Y-73741707D01*
X84877864Y-73757832D01*
X84877863Y-73757833D01*
X84865694Y-73760253D01*
X84865136Y-73760626D01*
X84802627Y-73767346D01*
X84788880Y-73763309D01*
X84784306Y-73760253D01*
X84772137Y-73757833D01*
X84772136Y-73757832D01*
X84691068Y-73741707D01*
X84685000Y-73740500D01*
X84315000Y-73740500D01*
X84215694Y-73760253D01*
X84131506Y-73816506D01*
X84124613Y-73826822D01*
X84105898Y-73854831D01*
X84075253Y-73900694D01*
X84055500Y-74000000D01*
X84055500Y-74346510D01*
X84035498Y-74414631D01*
X83981842Y-74461124D01*
X83938807Y-74472159D01*
X83937514Y-74472223D01*
X83912933Y-74474644D01*
X83911432Y-74474867D01*
X83911429Y-74474867D01*
X83900946Y-74476422D01*
X83888277Y-74478301D01*
X83848495Y-74486214D01*
X83845529Y-74487114D01*
X83845524Y-74487115D01*
X83803800Y-74499772D01*
X83803789Y-74499776D01*
X83800845Y-74500669D01*
X83797993Y-74501850D01*
X83797994Y-74501850D01*
X83758277Y-74518301D01*
X83758273Y-74518303D01*
X83755424Y-74519483D01*
X83711512Y-74542954D01*
X83688304Y-74558461D01*
X83685909Y-74560427D01*
X83685903Y-74560431D01*
X83652208Y-74588084D01*
X83652203Y-74588089D01*
X83649813Y-74590050D01*
X83615050Y-74624813D01*
X83613089Y-74627203D01*
X83613084Y-74627208D01*
X83586525Y-74659571D01*
X83583461Y-74663304D01*
X83581736Y-74665886D01*
X83581735Y-74665887D01*
X83579479Y-74669264D01*
X83567954Y-74686512D01*
X83544483Y-74730424D01*
X83543303Y-74733273D01*
X83543301Y-74733277D01*
X83539099Y-74743422D01*
X83525669Y-74775845D01*
X83524776Y-74778789D01*
X83524772Y-74778800D01*
X83513134Y-74817166D01*
X83511214Y-74823495D01*
X83503301Y-74863277D01*
X83499644Y-74887933D01*
X83497223Y-74912514D01*
X83497146Y-74914088D01*
X83496128Y-74934808D01*
X83496000Y-74937410D01*
X83496000Y-76778438D01*
X83475998Y-76846559D01*
X83422342Y-76893052D01*
X83352068Y-76903156D01*
X83282741Y-76869333D01*
X83269153Y-76856288D01*
X83242665Y-76830860D01*
X83224366Y-76814902D01*
X83205499Y-76799974D01*
X83204290Y-76799108D01*
X83204278Y-76799099D01*
X83186993Y-76786718D01*
X83186977Y-76786707D01*
X83185765Y-76785839D01*
X83152546Y-76764370D01*
X83109484Y-76742054D01*
X83106681Y-76740926D01*
X83106674Y-76740923D01*
X83087780Y-76733322D01*
X83065044Y-76724174D01*
X83062160Y-76723323D01*
X83062151Y-76723320D01*
X83021398Y-76711297D01*
X83021393Y-76711296D01*
X83018516Y-76710447D01*
X82979680Y-76702928D01*
X82978187Y-76702712D01*
X82978179Y-76702711D01*
X82971160Y-76701697D01*
X82955650Y-76699457D01*
X82945005Y-76698436D01*
X82933226Y-76697306D01*
X82933215Y-76697305D01*
X82931701Y-76697160D01*
X82930181Y-76697087D01*
X82930177Y-76697087D01*
X82908959Y-76696072D01*
X82908953Y-76696072D01*
X82907451Y-76696000D01*
X82823548Y-76696000D01*
X82755427Y-76675998D01*
X82708934Y-76622342D01*
X82698830Y-76552068D01*
X82700099Y-76544772D01*
X82709418Y-76499173D01*
X82731970Y-76388817D01*
X82758895Y-76057791D01*
X82759420Y-76007639D01*
X82759477Y-76002221D01*
X82759477Y-76002214D01*
X82759500Y-76000000D01*
X82756711Y-75953725D01*
X82739742Y-75672260D01*
X82739742Y-75672256D01*
X82739514Y-75668482D01*
X82737708Y-75658593D01*
X82680525Y-75345489D01*
X82680524Y-75345485D01*
X82679845Y-75341767D01*
X82677032Y-75332706D01*
X82639481Y-75211774D01*
X82581358Y-75024586D01*
X82445479Y-74721535D01*
X82274176Y-74437002D01*
X82271849Y-74434018D01*
X82271844Y-74434011D01*
X82072267Y-74178105D01*
X82072265Y-74178103D01*
X82069931Y-74175110D01*
X81863964Y-73968061D01*
X81838375Y-73942338D01*
X81835703Y-73939652D01*
X81574884Y-73734039D01*
X81291252Y-73561249D01*
X81167286Y-73504885D01*
X80992368Y-73425354D01*
X80992361Y-73425351D01*
X80988916Y-73423785D01*
X80672256Y-73323638D01*
X80527065Y-73296335D01*
X80349581Y-73262959D01*
X80349576Y-73262958D01*
X80345857Y-73262259D01*
X80014449Y-73240538D01*
X80010669Y-73240746D01*
X80010668Y-73240746D01*
X79920160Y-73245727D01*
X79682831Y-73258788D01*
X79679104Y-73259449D01*
X79679100Y-73259449D01*
X79519320Y-73287766D01*
X79355808Y-73316745D01*
X79352192Y-73317847D01*
X79352184Y-73317849D01*
X79073981Y-73402639D01*
X79038115Y-73413570D01*
X79034653Y-73415100D01*
X79034649Y-73415102D01*
X78948499Y-73453189D01*
X78734357Y-73547861D01*
X78602106Y-73626542D01*
X78458914Y-73711732D01*
X78448931Y-73717671D01*
X78445930Y-73719986D01*
X78445926Y-73719989D01*
X78301657Y-73831292D01*
X78185973Y-73920542D01*
X78183272Y-73923201D01*
X78183265Y-73923207D01*
X77961057Y-74141952D01*
X77949292Y-74153534D01*
X77946928Y-74156501D01*
X77946925Y-74156504D01*
X77752562Y-74400415D01*
X77742316Y-74413273D01*
X77568043Y-74695996D01*
X77428998Y-74997608D01*
X77427839Y-75001208D01*
X77427836Y-75001215D01*
X77331912Y-75299091D01*
X77327195Y-75313740D01*
X77326474Y-75317467D01*
X77324156Y-75329447D01*
X77291579Y-75392528D01*
X77230069Y-75427983D01*
X77159155Y-75424555D01*
X77101352Y-75383332D01*
X77086867Y-75360056D01*
X77034121Y-75250213D01*
X77034120Y-75250212D01*
X77030044Y-75241723D01*
X76937299Y-75141392D01*
X76819153Y-75072768D01*
X76686052Y-75041916D01*
X76676657Y-75042581D01*
X76676654Y-75042581D01*
X76559164Y-75050900D01*
X76559162Y-75050901D01*
X76549763Y-75051566D01*
X76540976Y-75054966D01*
X76540974Y-75054966D01*
X76531434Y-75058657D01*
X76422337Y-75100864D01*
X76370928Y-75141392D01*
X76348319Y-75159215D01*
X76282439Y-75185680D01*
X76212710Y-75172327D01*
X76161269Y-75123395D01*
X76151874Y-75103256D01*
X76120005Y-75015458D01*
X76120005Y-75015457D01*
X76117508Y-75008579D01*
X76112065Y-75000276D01*
X76058060Y-74917907D01*
X76021656Y-74862382D01*
X75894743Y-74742156D01*
X75743576Y-74654351D01*
X75736572Y-74652230D01*
X75736568Y-74652228D01*
X75583271Y-74605799D01*
X75583269Y-74605799D01*
X75576264Y-74603677D01*
X75576588Y-74602608D01*
X75519302Y-74573965D01*
X75483046Y-74512924D01*
X75485194Y-74445628D01*
X75487010Y-74441993D01*
X75489178Y-74428973D01*
X75508630Y-74312103D01*
X75508630Y-74312102D01*
X75509443Y-74307218D01*
X75509500Y-74300000D01*
X75507079Y-74283892D01*
X75490587Y-74174199D01*
X75490587Y-74174198D01*
X75489187Y-74164888D01*
X75434978Y-74051998D01*
X75434121Y-74050213D01*
X75434120Y-74050212D01*
X75430044Y-74041723D01*
X75418779Y-74029536D01*
X75373097Y-73980118D01*
X75337299Y-73941392D01*
X75219153Y-73872768D01*
X75086052Y-73841916D01*
X75076657Y-73842581D01*
X75076654Y-73842581D01*
X74959164Y-73850900D01*
X74959162Y-73850901D01*
X74949763Y-73851566D01*
X74940976Y-73854966D01*
X74940974Y-73854966D01*
X74935859Y-73856945D01*
X74822337Y-73900864D01*
X74715039Y-73985451D01*
X74637356Y-74097848D01*
X74596157Y-74228118D01*
X74595084Y-74364744D01*
X74597783Y-74373768D01*
X74597783Y-74373770D01*
X74631533Y-74486623D01*
X74631535Y-74486626D01*
X74634232Y-74495646D01*
X74639464Y-74503476D01*
X74699619Y-74593503D01*
X74710140Y-74609249D01*
X74751611Y-74643012D01*
X74808791Y-74689565D01*
X74808793Y-74689566D01*
X74816095Y-74695511D01*
X74820408Y-74697258D01*
X74867144Y-74747316D01*
X74879848Y-74817166D01*
X74850576Y-74885453D01*
X74819380Y-74922172D01*
X74819377Y-74922176D01*
X74814641Y-74927751D01*
X74735140Y-75083446D01*
X74713391Y-75172327D01*
X74695450Y-75245646D01*
X74693588Y-75253254D01*
X74693531Y-75260572D01*
X74693530Y-75260576D01*
X74692972Y-75331735D01*
X74692215Y-75428066D01*
X74731094Y-75598505D01*
X74808140Y-75755429D01*
X74812788Y-75761078D01*
X74812789Y-75761079D01*
X74850576Y-75807000D01*
X74919220Y-75890420D01*
X74925047Y-75894851D01*
X74940648Y-75906714D01*
X75058376Y-75996236D01*
X75065064Y-75999207D01*
X75065068Y-75999209D01*
X75131200Y-76028583D01*
X75218141Y-76067201D01*
X75225336Y-76068554D01*
X75357930Y-76093488D01*
X75389948Y-76099509D01*
X75397256Y-76099171D01*
X75397259Y-76099171D01*
X75557264Y-76091766D01*
X75557268Y-76091765D01*
X75564579Y-76091427D01*
X75571619Y-76089415D01*
X75725624Y-76045400D01*
X75725627Y-76045399D01*
X75732666Y-76043387D01*
X75833075Y-75987155D01*
X75878802Y-75961547D01*
X75878804Y-75961546D01*
X75885194Y-75957967D01*
X75987206Y-75864327D01*
X76008590Y-75844698D01*
X76008591Y-75844696D01*
X76013980Y-75839750D01*
X76067887Y-75760280D01*
X76068381Y-75759551D01*
X76123175Y-75714405D01*
X76193678Y-75706049D01*
X76257506Y-75737137D01*
X76277418Y-75760278D01*
X76310140Y-75809249D01*
X76416095Y-75895511D01*
X76424826Y-75899047D01*
X76424827Y-75899048D01*
X76534001Y-75943268D01*
X76534003Y-75943269D01*
X76542732Y-75946804D01*
X76552115Y-75947617D01*
X76552117Y-75947617D01*
X76555375Y-75947899D01*
X76558705Y-75949198D01*
X76561274Y-75949815D01*
X76561189Y-75950168D01*
X76621516Y-75973706D01*
X76663204Y-76031175D01*
X76670500Y-76073429D01*
X76670500Y-77461327D01*
X76650498Y-77529448D01*
X76633595Y-77550422D01*
X75800422Y-78383595D01*
X75738110Y-78417621D01*
X75711327Y-78420500D01*
X75064326Y-78420500D01*
X74996205Y-78400498D01*
X74949712Y-78346842D01*
X74940036Y-78273812D01*
X74958630Y-78162103D01*
X74958630Y-78162102D01*
X74959443Y-78157218D01*
X74959500Y-78150000D01*
X74949775Y-78085310D01*
X74940587Y-78024199D01*
X74940587Y-78024198D01*
X74939187Y-78014888D01*
X74889778Y-77911994D01*
X74884121Y-77900213D01*
X74884120Y-77900212D01*
X74880044Y-77891723D01*
X74872191Y-77883227D01*
X74833494Y-77841365D01*
X74787299Y-77791392D01*
X74669153Y-77722768D01*
X74536052Y-77691916D01*
X74526657Y-77692581D01*
X74526654Y-77692581D01*
X74409164Y-77700900D01*
X74409162Y-77700901D01*
X74399763Y-77701566D01*
X74390976Y-77704966D01*
X74390974Y-77704966D01*
X74373377Y-77711774D01*
X74272337Y-77750864D01*
X74220508Y-77791723D01*
X74218317Y-77793450D01*
X74152437Y-77819915D01*
X74140311Y-77820500D01*
X73992430Y-77820500D01*
X73924309Y-77800498D01*
X73877816Y-77746842D01*
X73867712Y-77676568D01*
X73875278Y-77648117D01*
X73885863Y-77621382D01*
X73885864Y-77621379D01*
X73888781Y-77614011D01*
X73890354Y-77601566D01*
X73908506Y-77457868D01*
X73909500Y-77450000D01*
X73888781Y-77285989D01*
X73890864Y-77285726D01*
X73892925Y-77225682D01*
X73933336Y-77167308D01*
X73958884Y-77151300D01*
X74046203Y-77110211D01*
X74046207Y-77110208D01*
X74053378Y-77106834D01*
X74059483Y-77101784D01*
X74059487Y-77101781D01*
X74174647Y-77006512D01*
X74180755Y-77001459D01*
X74223532Y-76942581D01*
X74273265Y-76874130D01*
X74273266Y-76874128D01*
X74277924Y-76867717D01*
X74282804Y-76855393D01*
X74335864Y-76721379D01*
X74335864Y-76721377D01*
X74338781Y-76714011D01*
X74339854Y-76705522D01*
X74358506Y-76557868D01*
X74359500Y-76550000D01*
X74348088Y-76459664D01*
X74339775Y-76393854D01*
X74339774Y-76393851D01*
X74338781Y-76385989D01*
X74335864Y-76378621D01*
X74280842Y-76239652D01*
X74280841Y-76239650D01*
X74277924Y-76232283D01*
X74263024Y-76211774D01*
X74185415Y-76104955D01*
X74180755Y-76098541D01*
X74164164Y-76084816D01*
X74059487Y-75998219D01*
X74059483Y-75998216D01*
X74053378Y-75993166D01*
X73903797Y-75922778D01*
X73896014Y-75921293D01*
X73896013Y-75921293D01*
X73749196Y-75893286D01*
X73749194Y-75893286D01*
X73741410Y-75891801D01*
X73658916Y-75896992D01*
X73584333Y-75901684D01*
X73584331Y-75901684D01*
X73576422Y-75902182D01*
X73568886Y-75904631D01*
X73568884Y-75904631D01*
X73426741Y-75950816D01*
X73426738Y-75950817D01*
X73419199Y-75953267D01*
X73279619Y-76041847D01*
X73274192Y-76047626D01*
X73274191Y-76047627D01*
X73171877Y-76156580D01*
X73166453Y-76162356D01*
X73086812Y-76307222D01*
X73045700Y-76467343D01*
X73045700Y-76632657D01*
X73062666Y-76698735D01*
X73060233Y-76769687D01*
X73019825Y-76828063D01*
X72979563Y-76849900D01*
X72969199Y-76853267D01*
X72829619Y-76941847D01*
X72824192Y-76947626D01*
X72824191Y-76947627D01*
X72775898Y-76999054D01*
X72716453Y-77062356D01*
X72636812Y-77207222D01*
X72595700Y-77367343D01*
X72595700Y-77532657D01*
X72629209Y-77663165D01*
X72626777Y-77734120D01*
X72586369Y-77792496D01*
X72520816Y-77819759D01*
X72507168Y-77820500D01*
X70688673Y-77820500D01*
X70620552Y-77800498D01*
X70599578Y-77783595D01*
X70237690Y-77421707D01*
X70203664Y-77359395D01*
X70202185Y-77351344D01*
X70190587Y-77274199D01*
X70190587Y-77274198D01*
X70189187Y-77264888D01*
X70130044Y-77141723D01*
X70037299Y-77041392D01*
X69919153Y-76972768D01*
X69786052Y-76941916D01*
X69776657Y-76942581D01*
X69776654Y-76942581D01*
X69659164Y-76950900D01*
X69659162Y-76950901D01*
X69649763Y-76951566D01*
X69640975Y-76954966D01*
X69631786Y-76957020D01*
X69631315Y-76954914D01*
X69573071Y-76959793D01*
X69510349Y-76926529D01*
X69475568Y-76864636D01*
X69479770Y-76793764D01*
X69486457Y-76779343D01*
X69491360Y-76773500D01*
X69529500Y-76668712D01*
X69529500Y-76459144D01*
X69515081Y-76377370D01*
X69506720Y-76362888D01*
X69489984Y-76293893D01*
X69497440Y-76256796D01*
X69525729Y-76179073D01*
X69525729Y-76179072D01*
X69529500Y-76168712D01*
X69529500Y-76007639D01*
X69549502Y-75939518D01*
X69603158Y-75893025D01*
X69657232Y-75883712D01*
X69657190Y-75883227D01*
X69663006Y-75882718D01*
X69666485Y-75882119D01*
X69668169Y-75882266D01*
X69679154Y-75883227D01*
X69701013Y-75877370D01*
X69716055Y-75873340D01*
X69726784Y-75870961D01*
X69744585Y-75867822D01*
X69764406Y-75864327D01*
X69773956Y-75858814D01*
X69777403Y-75857559D01*
X69780718Y-75856013D01*
X69791365Y-75853160D01*
X69800394Y-75846838D01*
X69800398Y-75846836D01*
X69822656Y-75831251D01*
X69831925Y-75825345D01*
X69855467Y-75811753D01*
X69865012Y-75806242D01*
X69888970Y-75777690D01*
X69896396Y-75769587D01*
X69975236Y-75690747D01*
X70037812Y-75656664D01*
X70162422Y-75629837D01*
X70261893Y-75574130D01*
X70273416Y-75567677D01*
X70273418Y-75567676D01*
X70281631Y-75563076D01*
X70375940Y-75464215D01*
X70437010Y-75341993D01*
X70438718Y-75331735D01*
X70445410Y-75291527D01*
X70476325Y-75227615D01*
X70483464Y-75223247D01*
X70654000Y-75223247D01*
X70666728Y-75231831D01*
X70694784Y-75297048D01*
X70695700Y-75312215D01*
X70695700Y-75332657D01*
X70736812Y-75492778D01*
X70816453Y-75637644D01*
X70821877Y-75643420D01*
X70909884Y-75737137D01*
X70929619Y-75758153D01*
X71069199Y-75846733D01*
X71076738Y-75849183D01*
X71076741Y-75849184D01*
X71218884Y-75895369D01*
X71218886Y-75895369D01*
X71226422Y-75897818D01*
X71234331Y-75898316D01*
X71234333Y-75898316D01*
X71295780Y-75902182D01*
X71391410Y-75908199D01*
X71399194Y-75906714D01*
X71399196Y-75906714D01*
X71546013Y-75878707D01*
X71546014Y-75878707D01*
X71553797Y-75877222D01*
X71703378Y-75806834D01*
X71709483Y-75801784D01*
X71709487Y-75801781D01*
X71824647Y-75706512D01*
X71830755Y-75701459D01*
X71863300Y-75656664D01*
X71923265Y-75574130D01*
X71923266Y-75574128D01*
X71927924Y-75567717D01*
X71933435Y-75553800D01*
X71985864Y-75421379D01*
X71985864Y-75421377D01*
X71988781Y-75414011D01*
X71992039Y-75388226D01*
X72008506Y-75257868D01*
X72009500Y-75250000D01*
X72004671Y-75211774D01*
X71989775Y-75093854D01*
X71989774Y-75093851D01*
X71988781Y-75085989D01*
X71984113Y-75074199D01*
X71930842Y-74939652D01*
X71930841Y-74939650D01*
X71927924Y-74932283D01*
X71919674Y-74920927D01*
X71835415Y-74804955D01*
X71830755Y-74798541D01*
X71803320Y-74775845D01*
X71709487Y-74698219D01*
X71709483Y-74698216D01*
X71703378Y-74693166D01*
X71553797Y-74622778D01*
X71546014Y-74621293D01*
X71546013Y-74621293D01*
X71399196Y-74593286D01*
X71399194Y-74593286D01*
X71391410Y-74591801D01*
X71308916Y-74596991D01*
X71234333Y-74601684D01*
X71234331Y-74601684D01*
X71226422Y-74602182D01*
X71218886Y-74604631D01*
X71218884Y-74604631D01*
X71076741Y-74650816D01*
X71076738Y-74650817D01*
X71069199Y-74653267D01*
X70929619Y-74741847D01*
X70924192Y-74747626D01*
X70924191Y-74747627D01*
X70837357Y-74840096D01*
X70816453Y-74862356D01*
X70736812Y-75007222D01*
X70697993Y-75158414D01*
X70661680Y-75219416D01*
X70654000Y-75223247D01*
X70483464Y-75223247D01*
X70494364Y-75216578D01*
X70472352Y-75198788D01*
X70451353Y-75145808D01*
X70440587Y-75074199D01*
X70440587Y-75074198D01*
X70439187Y-75064888D01*
X70391052Y-74964648D01*
X70384121Y-74950213D01*
X70384120Y-74950212D01*
X70380044Y-74941723D01*
X70367484Y-74928135D01*
X70339031Y-74897355D01*
X70287299Y-74841392D01*
X70247534Y-74818295D01*
X70198676Y-74766784D01*
X70185422Y-74697035D01*
X70211982Y-74631194D01*
X70228499Y-74614830D01*
X70231631Y-74613076D01*
X70325940Y-74514215D01*
X70358026Y-74450000D01*
X70382802Y-74400415D01*
X70382802Y-74400414D01*
X70387010Y-74391993D01*
X70389090Y-74379500D01*
X70408630Y-74262103D01*
X70408630Y-74262102D01*
X70409443Y-74257218D01*
X70409500Y-74250000D01*
X70408765Y-74245108D01*
X70408764Y-74245100D01*
X70399636Y-74184388D01*
X70409289Y-74114051D01*
X70455436Y-74060098D01*
X70524752Y-74039657D01*
X72849648Y-74049185D01*
X72849647Y-74049185D01*
X73280282Y-74050950D01*
X73769522Y-74052955D01*
X73809131Y-74053118D01*
X73809148Y-74053118D01*
X73810697Y-74053124D01*
X73835656Y-74051998D01*
X73837200Y-74051852D01*
X73837214Y-74051851D01*
X73846737Y-74050950D01*
X73860302Y-74049667D01*
X73863637Y-74049185D01*
X73883511Y-74046312D01*
X73883510Y-74046312D01*
X73885047Y-74046090D01*
X73893567Y-74044427D01*
X73921920Y-74038893D01*
X73921928Y-74038891D01*
X73924966Y-74038298D01*
X73953045Y-74029882D01*
X73969818Y-74024855D01*
X73969825Y-74024852D01*
X73972786Y-74023965D01*
X73975648Y-74022790D01*
X73975653Y-74022788D01*
X74015501Y-74006425D01*
X74018380Y-74005243D01*
X74021122Y-74003787D01*
X74021131Y-74003783D01*
X74059738Y-73983286D01*
X74059744Y-73983283D01*
X74062476Y-73981832D01*
X74065050Y-73980122D01*
X74065056Y-73980118D01*
X74083200Y-73968061D01*
X74083203Y-73968059D01*
X74085779Y-73966347D01*
X74124441Y-73934767D01*
X74159364Y-73899986D01*
X74167280Y-73890375D01*
X74189132Y-73863845D01*
X74189134Y-73863843D01*
X74191102Y-73861453D01*
X74206682Y-73838213D01*
X74208146Y-73835482D01*
X74208151Y-73835474D01*
X74228802Y-73796956D01*
X74228806Y-73796947D01*
X74230271Y-73794215D01*
X74249179Y-73748698D01*
X74263707Y-73700939D01*
X74264621Y-73696360D01*
X74271357Y-73662584D01*
X74271358Y-73662578D01*
X74271660Y-73661064D01*
X74275336Y-73636347D01*
X74277770Y-73611702D01*
X74278265Y-73601651D01*
X74278923Y-73588311D01*
X74278923Y-73588291D01*
X74279000Y-73586738D01*
X74279000Y-71712410D01*
X74277777Y-71687514D01*
X74275356Y-71662933D01*
X74271699Y-71638277D01*
X74263786Y-71598495D01*
X74259284Y-71583654D01*
X74250228Y-71553800D01*
X74250224Y-71553789D01*
X74249331Y-71550845D01*
X74230517Y-71505424D01*
X74207046Y-71461512D01*
X74191539Y-71438304D01*
X74176220Y-71419637D01*
X74161916Y-71402208D01*
X74161911Y-71402203D01*
X74159950Y-71399813D01*
X74125187Y-71365050D01*
X74122797Y-71363089D01*
X74122792Y-71363084D01*
X74089097Y-71335431D01*
X74089091Y-71335427D01*
X74086696Y-71333461D01*
X74063488Y-71317954D01*
X74019576Y-71294483D01*
X74016727Y-71293303D01*
X74016723Y-71293301D01*
X73983578Y-71279572D01*
X73974155Y-71275669D01*
X73971211Y-71274776D01*
X73971200Y-71274772D01*
X73929476Y-71262115D01*
X73929471Y-71262114D01*
X73926505Y-71261214D01*
X73886723Y-71253301D01*
X73874054Y-71251422D01*
X73863571Y-71249867D01*
X73863568Y-71249867D01*
X73862067Y-71249644D01*
X73837486Y-71247223D01*
X73826050Y-71246661D01*
X73814145Y-71246076D01*
X73814129Y-71246076D01*
X73812590Y-71246000D01*
X72111688Y-71246000D01*
X72110277Y-71246064D01*
X72110258Y-71246064D01*
X72090285Y-71246964D01*
X72090268Y-71246965D01*
X72088851Y-71247029D01*
X72079654Y-71247859D01*
X72067702Y-71248938D01*
X72067691Y-71248939D01*
X72066287Y-71249066D01*
X72043637Y-71252143D01*
X72006911Y-71258828D01*
X72004191Y-71259581D01*
X72004187Y-71259582D01*
X72000478Y-71260609D01*
X71962887Y-71271017D01*
X71920647Y-71286923D01*
X71879516Y-71306801D01*
X71858829Y-71319208D01*
X71848740Y-71325258D01*
X71848723Y-71325269D01*
X71847512Y-71325995D01*
X71828457Y-71338622D01*
X71827341Y-71339436D01*
X71827321Y-71339450D01*
X71815335Y-71348194D01*
X71810155Y-71351973D01*
X71792311Y-71366263D01*
X71712954Y-71435903D01*
X71615416Y-71521497D01*
X70740015Y-72289705D01*
X70675621Y-72319603D01*
X70656907Y-72321000D01*
X70442080Y-72321000D01*
X70403143Y-72314833D01*
X70402289Y-72314555D01*
X70393452Y-72310053D01*
X70301569Y-72295500D01*
X69898431Y-72295500D01*
X69806548Y-72310053D01*
X69797711Y-72314555D01*
X69796857Y-72314833D01*
X69757920Y-72321000D01*
X68137410Y-72321000D01*
X68135871Y-72321076D01*
X68135855Y-72321076D01*
X68123950Y-72321661D01*
X68112514Y-72322223D01*
X68087933Y-72324644D01*
X68086432Y-72324867D01*
X68086429Y-72324867D01*
X68075946Y-72326422D01*
X68063277Y-72328301D01*
X68053937Y-72330159D01*
X67983225Y-72323832D01*
X67943828Y-72299105D01*
X67918824Y-72275992D01*
X67915256Y-72272562D01*
X67591404Y-71948709D01*
X67557379Y-71886397D01*
X67554500Y-71859614D01*
X67554500Y-71698431D01*
X67542909Y-71625251D01*
X67541498Y-71616339D01*
X67541498Y-71616338D01*
X67539947Y-71606548D01*
X67483202Y-71495180D01*
X67394820Y-71406798D01*
X67283452Y-71350053D01*
X67273662Y-71348502D01*
X67273661Y-71348502D01*
X67248285Y-71344483D01*
X67191569Y-71335500D01*
X66848431Y-71335500D01*
X66791715Y-71344483D01*
X66766339Y-71348502D01*
X66766338Y-71348502D01*
X66756548Y-71350053D01*
X66645180Y-71406798D01*
X66638169Y-71413809D01*
X66630148Y-71419637D01*
X66629176Y-71418299D01*
X66576783Y-71446909D01*
X66505968Y-71441844D01*
X66470349Y-71418953D01*
X66469852Y-71419637D01*
X66461831Y-71413809D01*
X66454820Y-71406798D01*
X66343452Y-71350053D01*
X66333662Y-71348502D01*
X66333661Y-71348502D01*
X66308285Y-71344483D01*
X66251569Y-71335500D01*
X65908431Y-71335500D01*
X65851715Y-71344483D01*
X65826339Y-71348502D01*
X65826338Y-71348502D01*
X65816548Y-71350053D01*
X65705180Y-71406798D01*
X65616798Y-71495180D01*
X65560053Y-71606548D01*
X65558502Y-71616338D01*
X65558502Y-71616339D01*
X65557091Y-71625251D01*
X65545500Y-71698431D01*
X65545500Y-72101569D01*
X65543375Y-72101569D01*
X65530588Y-72162345D01*
X65480730Y-72212889D01*
X65411461Y-72228454D01*
X65356305Y-72211671D01*
X65333557Y-72198458D01*
X65305684Y-72182268D01*
X65172583Y-72151416D01*
X65163188Y-72152081D01*
X65163185Y-72152081D01*
X65045695Y-72160400D01*
X65045693Y-72160401D01*
X65036294Y-72161066D01*
X65027507Y-72164466D01*
X65027505Y-72164466D01*
X65018784Y-72167840D01*
X64908868Y-72210364D01*
X64801570Y-72294951D01*
X64723887Y-72407348D01*
X64682688Y-72537618D01*
X64682516Y-72559627D01*
X64682515Y-72559694D01*
X64661980Y-72627656D01*
X64607962Y-72673727D01*
X64537611Y-72683280D01*
X64473263Y-72653282D01*
X64464005Y-72643803D01*
X64462098Y-72642203D01*
X64455012Y-72633758D01*
X64421924Y-72614655D01*
X64412656Y-72608749D01*
X64390398Y-72593164D01*
X64390394Y-72593162D01*
X64381365Y-72586840D01*
X64370718Y-72583987D01*
X64367403Y-72582441D01*
X64363956Y-72581186D01*
X64354406Y-72575673D01*
X64328449Y-72571096D01*
X64316784Y-72569039D01*
X64306055Y-72566660D01*
X64279805Y-72559627D01*
X64269154Y-72556773D01*
X64235767Y-72559694D01*
X64232029Y-72560021D01*
X64221047Y-72560500D01*
X64193598Y-72560500D01*
X64125477Y-72540498D01*
X64105573Y-72521703D01*
X64104157Y-72523119D01*
X64016881Y-72435843D01*
X63906907Y-72379808D01*
X63897118Y-72378258D01*
X63897116Y-72378257D01*
X63870683Y-72374071D01*
X63816569Y-72365500D01*
X63383431Y-72365500D01*
X63329317Y-72374071D01*
X63302884Y-72378257D01*
X63302882Y-72378258D01*
X63293093Y-72379808D01*
X63183119Y-72435843D01*
X63095843Y-72523119D01*
X63039808Y-72633093D01*
X63038258Y-72642882D01*
X63038257Y-72642884D01*
X63037208Y-72649509D01*
X63025500Y-72723431D01*
X63025500Y-73056569D01*
X63034071Y-73110683D01*
X63037462Y-73132093D01*
X63039808Y-73146907D01*
X63095843Y-73256881D01*
X63149867Y-73310905D01*
X63183893Y-73373217D01*
X63178828Y-73444032D01*
X63149867Y-73489095D01*
X63095843Y-73543119D01*
X63039808Y-73653093D01*
X63025500Y-73743431D01*
X63025500Y-74076569D01*
X63030293Y-74106832D01*
X63038144Y-74156399D01*
X63039808Y-74166907D01*
X63095843Y-74276881D01*
X63183119Y-74364157D01*
X63293093Y-74420192D01*
X63302882Y-74421742D01*
X63302884Y-74421743D01*
X63329317Y-74425929D01*
X63383431Y-74434500D01*
X63483440Y-74434500D01*
X63551561Y-74454502D01*
X63598054Y-74508158D01*
X63608158Y-74578432D01*
X63578664Y-74643012D01*
X63561447Y-74659449D01*
X63465039Y-74735451D01*
X63387356Y-74847848D01*
X63346157Y-74978118D01*
X63345084Y-75114744D01*
X63347783Y-75123768D01*
X63347783Y-75123770D01*
X63381533Y-75236623D01*
X63381535Y-75236626D01*
X63384232Y-75245646D01*
X63389464Y-75253476D01*
X63450946Y-75345489D01*
X63460140Y-75359249D01*
X63512906Y-75402208D01*
X63554294Y-75435903D01*
X63566095Y-75445511D01*
X63692732Y-75496804D01*
X63702117Y-75497617D01*
X63702118Y-75497617D01*
X63819472Y-75507781D01*
X63819475Y-75507781D01*
X63828852Y-75508593D01*
X63838053Y-75506612D01*
X63838055Y-75506612D01*
X63902312Y-75492778D01*
X63962422Y-75479837D01*
X64081631Y-75413076D01*
X64083343Y-75416132D01*
X64133355Y-75396494D01*
X64202978Y-75410392D01*
X64254035Y-75459725D01*
X64270500Y-75522000D01*
X64270500Y-75640856D01*
X64284919Y-75722630D01*
X64292765Y-75736220D01*
X64293280Y-75737112D01*
X64310016Y-75806107D01*
X64302560Y-75843204D01*
X64283522Y-75895511D01*
X64270500Y-75931288D01*
X64270500Y-76140856D01*
X64284919Y-76222630D01*
X64292765Y-76236220D01*
X64293280Y-76237112D01*
X64310016Y-76306107D01*
X64302560Y-76343204D01*
X64286173Y-76388226D01*
X64270500Y-76431288D01*
X64270500Y-76640856D01*
X64284919Y-76722630D01*
X64314206Y-76773357D01*
X64327186Y-76795839D01*
X64343924Y-76864835D01*
X64320703Y-76931926D01*
X64264896Y-76975813D01*
X64194221Y-76982562D01*
X64128972Y-76947934D01*
X64116881Y-76935843D01*
X64006907Y-76879808D01*
X63997118Y-76878258D01*
X63997116Y-76878257D01*
X63970683Y-76874071D01*
X63916569Y-76865500D01*
X63483431Y-76865500D01*
X63429317Y-76874071D01*
X63402884Y-76878257D01*
X63402882Y-76878258D01*
X63393093Y-76879808D01*
X63283119Y-76935843D01*
X63195843Y-77023119D01*
X63139808Y-77133093D01*
X63125500Y-77223431D01*
X63125500Y-77556569D01*
X63131112Y-77592000D01*
X63134286Y-77612039D01*
X63139808Y-77646907D01*
X63195843Y-77756881D01*
X63283119Y-77844157D01*
X63393093Y-77900192D01*
X63402882Y-77901742D01*
X63402884Y-77901743D01*
X63426398Y-77905467D01*
X63483431Y-77914500D01*
X63916569Y-77914500D01*
X63973602Y-77905467D01*
X63997116Y-77901743D01*
X63997118Y-77901742D01*
X64006907Y-77900192D01*
X64116881Y-77844157D01*
X64204157Y-77756881D01*
X64206934Y-77759658D01*
X64247911Y-77728075D01*
X64293598Y-77719500D01*
X64541047Y-77719500D01*
X64552029Y-77719979D01*
X64589154Y-77723227D01*
X64603063Y-77719500D01*
X64626055Y-77713340D01*
X64636784Y-77710961D01*
X64648449Y-77708904D01*
X64674406Y-77704327D01*
X64683956Y-77698814D01*
X64687403Y-77697559D01*
X64690718Y-77696013D01*
X64701365Y-77693160D01*
X64710394Y-77686838D01*
X64710398Y-77686836D01*
X64732656Y-77671251D01*
X64741925Y-77665345D01*
X64765467Y-77651753D01*
X64775012Y-77646242D01*
X64798965Y-77617696D01*
X64806391Y-77609592D01*
X65055405Y-77360579D01*
X65117717Y-77326554D01*
X65188533Y-77331619D01*
X65245368Y-77374166D01*
X65270179Y-77440687D01*
X65270500Y-77449675D01*
X65270500Y-77640856D01*
X65284919Y-77722630D01*
X65310127Y-77766292D01*
X65331863Y-77803940D01*
X65335022Y-77810713D01*
X65335673Y-77814406D01*
X65341184Y-77823952D01*
X65342438Y-77827397D01*
X65343987Y-77830719D01*
X65346840Y-77841365D01*
X65353162Y-77850394D01*
X65353164Y-77850398D01*
X65368749Y-77872656D01*
X65374655Y-77881924D01*
X65378340Y-77888308D01*
X65386997Y-77903301D01*
X65393758Y-77915012D01*
X65402202Y-77922097D01*
X65422309Y-77938969D01*
X65430413Y-77946396D01*
X65748595Y-78264578D01*
X65782621Y-78326890D01*
X65785500Y-78353673D01*
X65785500Y-78716569D01*
X65790334Y-78747087D01*
X65795397Y-78779054D01*
X65799808Y-78806907D01*
X65855843Y-78916881D01*
X65943119Y-79004157D01*
X66053093Y-79060192D01*
X66062882Y-79061742D01*
X66062884Y-79061743D01*
X66081833Y-79064744D01*
X66143431Y-79074500D01*
X66476569Y-79074500D01*
X66538167Y-79064744D01*
X66557116Y-79061743D01*
X66557118Y-79061742D01*
X66566907Y-79060192D01*
X66676881Y-79004157D01*
X66764157Y-78916881D01*
X66820192Y-78806907D01*
X66824604Y-78779054D01*
X66829666Y-78747087D01*
X66834500Y-78716569D01*
X66834500Y-78654674D01*
X66854502Y-78586553D01*
X66908158Y-78540060D01*
X66978432Y-78529956D01*
X67043012Y-78559450D01*
X67049591Y-78565574D01*
X67153191Y-78669175D01*
X67253615Y-78769599D01*
X67261041Y-78777703D01*
X67284988Y-78806242D01*
X67318085Y-78825351D01*
X67327321Y-78831235D01*
X67358635Y-78853160D01*
X67369282Y-78856013D01*
X67372597Y-78857559D01*
X67376044Y-78858814D01*
X67385594Y-78864327D01*
X67411551Y-78868904D01*
X67423216Y-78870961D01*
X67433945Y-78873340D01*
X67456937Y-78879500D01*
X67470846Y-78883227D01*
X67507971Y-78879979D01*
X67518953Y-78879500D01*
X68561327Y-78879500D01*
X68629448Y-78899502D01*
X68650422Y-78916405D01*
X68708187Y-78974170D01*
X68742213Y-79036482D01*
X68743206Y-79046090D01*
X68743831Y-79046001D01*
X68745158Y-79055324D01*
X68745084Y-79064744D01*
X68747783Y-79073769D01*
X68781533Y-79186623D01*
X68781535Y-79186626D01*
X68784232Y-79195646D01*
X68789464Y-79203476D01*
X68854873Y-79301366D01*
X68860140Y-79309249D01*
X68966095Y-79395511D01*
X69092732Y-79446804D01*
X69102117Y-79447617D01*
X69102118Y-79447617D01*
X69219472Y-79457781D01*
X69219475Y-79457781D01*
X69228852Y-79458593D01*
X69238053Y-79456612D01*
X69238055Y-79456612D01*
X69322345Y-79438465D01*
X69362422Y-79429837D01*
X69460318Y-79375012D01*
X69473416Y-79367677D01*
X69473418Y-79367676D01*
X69481631Y-79363076D01*
X69543430Y-79298294D01*
X69569441Y-79271028D01*
X69569442Y-79271027D01*
X69575940Y-79264215D01*
X69580148Y-79255793D01*
X69580494Y-79255301D01*
X69636029Y-79211070D01*
X69706661Y-79203885D01*
X69772675Y-79238658D01*
X69828604Y-79294587D01*
X69836030Y-79302690D01*
X69859988Y-79331242D01*
X69869533Y-79336753D01*
X69893075Y-79350345D01*
X69902344Y-79356251D01*
X69924602Y-79371836D01*
X69924606Y-79371838D01*
X69933635Y-79378160D01*
X69944282Y-79381013D01*
X69947597Y-79382559D01*
X69951044Y-79383814D01*
X69960594Y-79389327D01*
X69981952Y-79393093D01*
X69998216Y-79395961D01*
X70008945Y-79398340D01*
X70031937Y-79404500D01*
X70045846Y-79408227D01*
X70082971Y-79404979D01*
X70093953Y-79404500D01*
X76456047Y-79404500D01*
X76467029Y-79404979D01*
X76504154Y-79408227D01*
X76518063Y-79404500D01*
X76541055Y-79398340D01*
X76551784Y-79395961D01*
X76568048Y-79393093D01*
X76589406Y-79389327D01*
X76598956Y-79383814D01*
X76602403Y-79382559D01*
X76605718Y-79381013D01*
X76616365Y-79378160D01*
X76625394Y-79371838D01*
X76625398Y-79371836D01*
X76647656Y-79356251D01*
X76656925Y-79350345D01*
X76680467Y-79336753D01*
X76690012Y-79331242D01*
X76713970Y-79302690D01*
X76721396Y-79294587D01*
X77475236Y-78540747D01*
X77537812Y-78506664D01*
X77662422Y-78479837D01*
X77768375Y-78420500D01*
X77773416Y-78417677D01*
X77773418Y-78417676D01*
X77781631Y-78413076D01*
X77875940Y-78314215D01*
X77910262Y-78245524D01*
X77932802Y-78200415D01*
X77932802Y-78200414D01*
X77937010Y-78191993D01*
X77948097Y-78125383D01*
X77979012Y-78061470D01*
X78039573Y-78024418D01*
X78110552Y-78025989D01*
X78151424Y-78047942D01*
X78398513Y-78246961D01*
X78398523Y-78246968D01*
X78401474Y-78249345D01*
X78404694Y-78251353D01*
X78680053Y-78423084D01*
X78680060Y-78423088D01*
X78683280Y-78425096D01*
X78984160Y-78565718D01*
X78987770Y-78566901D01*
X78987774Y-78566903D01*
X79214999Y-78641391D01*
X79273499Y-78681618D01*
X79300965Y-78747087D01*
X79300467Y-78779047D01*
X79296000Y-78810116D01*
X79296000Y-80837590D01*
X79296076Y-80839129D01*
X79296076Y-80839145D01*
X79296532Y-80848415D01*
X79297223Y-80862486D01*
X79299644Y-80887067D01*
X79303301Y-80911723D01*
X79311214Y-80951505D01*
X79312114Y-80954471D01*
X79312115Y-80954476D01*
X79324772Y-80996200D01*
X79324776Y-80996211D01*
X79325669Y-80999155D01*
X79326850Y-81002006D01*
X79342539Y-81039882D01*
X79344483Y-81044576D01*
X79345936Y-81047294D01*
X79345940Y-81047303D01*
X79353025Y-81060557D01*
X79367498Y-81130063D01*
X79342096Y-81196359D01*
X79284883Y-81238398D01*
X79241905Y-81245955D01*
X78916281Y-81245954D01*
X76413530Y-81245946D01*
X76345409Y-81225944D01*
X76298916Y-81172288D01*
X76288813Y-81102014D01*
X76318306Y-81037433D01*
X76328320Y-81027128D01*
X76347400Y-81009614D01*
X76353922Y-81000000D01*
X76421919Y-80899756D01*
X76445536Y-80864940D01*
X76507757Y-80701570D01*
X76530727Y-80528268D01*
X76530820Y-80516412D01*
X76527583Y-80488641D01*
X76511423Y-80350043D01*
X76510575Y-80342770D01*
X76450928Y-80178443D01*
X76441770Y-80164474D01*
X76381146Y-80072009D01*
X76988396Y-80072009D01*
X77027275Y-80242448D01*
X77104321Y-80399372D01*
X77108969Y-80405021D01*
X77108970Y-80405022D01*
X77167015Y-80475561D01*
X77215401Y-80534363D01*
X77354557Y-80640179D01*
X77361245Y-80643150D01*
X77361249Y-80643152D01*
X77414845Y-80666958D01*
X77514322Y-80711144D01*
X77521517Y-80712497D01*
X77678493Y-80742016D01*
X77686129Y-80743452D01*
X77693437Y-80743114D01*
X77693440Y-80743114D01*
X77853445Y-80735709D01*
X77853449Y-80735708D01*
X77860760Y-80735370D01*
X77893552Y-80725998D01*
X78021805Y-80689343D01*
X78021808Y-80689342D01*
X78028847Y-80687330D01*
X78149073Y-80620000D01*
X78174983Y-80605490D01*
X78174985Y-80605489D01*
X78181375Y-80601910D01*
X78310161Y-80483693D01*
X78408297Y-80339019D01*
X78470518Y-80175649D01*
X78493488Y-80002347D01*
X78493581Y-79990491D01*
X78490538Y-79964386D01*
X78474184Y-79824122D01*
X78473336Y-79816849D01*
X78413689Y-79652522D01*
X78406452Y-79641483D01*
X78321849Y-79512445D01*
X78317837Y-79506325D01*
X78190924Y-79386099D01*
X78060599Y-79310400D01*
X78046086Y-79301970D01*
X78046085Y-79301969D01*
X78039757Y-79298294D01*
X78032753Y-79296173D01*
X78032749Y-79296171D01*
X77879458Y-79249744D01*
X77872445Y-79247620D01*
X77865135Y-79247167D01*
X77865132Y-79247166D01*
X77797528Y-79242973D01*
X77697962Y-79236796D01*
X77690746Y-79238036D01*
X77690744Y-79238036D01*
X77532885Y-79265161D01*
X77532883Y-79265162D01*
X77525670Y-79266401D01*
X77364809Y-79334848D01*
X77358916Y-79339185D01*
X77229903Y-79434127D01*
X77229900Y-79434129D01*
X77224009Y-79438465D01*
X77216234Y-79447617D01*
X77115561Y-79566115D01*
X77115558Y-79566119D01*
X77110822Y-79571694D01*
X77031321Y-79727389D01*
X77007628Y-79824215D01*
X76997622Y-79865106D01*
X76989769Y-79897197D01*
X76989712Y-79904515D01*
X76989711Y-79904519D01*
X76989358Y-79949509D01*
X76988396Y-80072009D01*
X76381146Y-80072009D01*
X76359088Y-80038366D01*
X76355076Y-80032246D01*
X76228163Y-79912020D01*
X76076996Y-79824215D01*
X76069992Y-79822094D01*
X76069988Y-79822092D01*
X75916697Y-79775665D01*
X75909684Y-79773541D01*
X75902374Y-79773088D01*
X75902371Y-79773087D01*
X75834767Y-79768894D01*
X75735201Y-79762717D01*
X75727985Y-79763957D01*
X75727983Y-79763957D01*
X75570124Y-79791082D01*
X75570122Y-79791083D01*
X75562909Y-79792322D01*
X75402048Y-79860769D01*
X75396155Y-79865106D01*
X75267142Y-79960048D01*
X75267139Y-79960050D01*
X75261248Y-79964386D01*
X75242374Y-79986602D01*
X75152800Y-80092036D01*
X75152797Y-80092040D01*
X75148061Y-80097615D01*
X75068560Y-80253310D01*
X75042014Y-80361793D01*
X75032819Y-80399372D01*
X75027008Y-80423118D01*
X75026951Y-80430436D01*
X75026950Y-80430440D01*
X75026759Y-80454816D01*
X75025635Y-80597930D01*
X75064514Y-80768369D01*
X75067738Y-80774936D01*
X75067739Y-80774938D01*
X75083513Y-80807066D01*
X75141560Y-80925293D01*
X75146208Y-80930942D01*
X75146209Y-80930943D01*
X75235852Y-81039882D01*
X75263691Y-81105193D01*
X75251801Y-81175187D01*
X75203957Y-81227641D01*
X75138557Y-81245943D01*
X65038816Y-81245914D01*
X65012532Y-81243142D01*
X65003830Y-81241286D01*
X64905782Y-81239932D01*
X64898353Y-81239609D01*
X64877698Y-81238096D01*
X64868537Y-81237086D01*
X64720017Y-81215195D01*
X64710965Y-81213521D01*
X64698096Y-81210649D01*
X64689193Y-81208317D01*
X64666988Y-81201624D01*
X64545459Y-81164994D01*
X64536737Y-81162013D01*
X64524430Y-81157297D01*
X64515949Y-81153685D01*
X64380085Y-81089860D01*
X64371899Y-81085642D01*
X64353845Y-81075487D01*
X64347451Y-81071636D01*
X64307281Y-81045790D01*
X64307251Y-81045771D01*
X64203072Y-80978743D01*
X64196473Y-80974193D01*
X64186449Y-80966799D01*
X64180846Y-80964167D01*
X64179344Y-80963272D01*
X64177784Y-80962473D01*
X64172575Y-80959121D01*
X64166814Y-80956851D01*
X64166808Y-80956848D01*
X64160995Y-80954558D01*
X64153629Y-80951382D01*
X63972159Y-80866132D01*
X63966539Y-80863318D01*
X63958919Y-80859262D01*
X63958917Y-80859261D01*
X63953457Y-80856355D01*
X63948129Y-80854749D01*
X63947607Y-80854519D01*
X63947054Y-80854337D01*
X63942018Y-80851972D01*
X63936006Y-80850483D01*
X63936004Y-80850482D01*
X63927659Y-80848415D01*
X63921603Y-80846754D01*
X63726762Y-80788026D01*
X63720788Y-80786061D01*
X63712674Y-80783166D01*
X63712670Y-80783165D01*
X63706843Y-80781086D01*
X63701345Y-80780276D01*
X63700783Y-80780121D01*
X63700211Y-80780023D01*
X63694888Y-80778418D01*
X63688727Y-80777822D01*
X63688726Y-80777822D01*
X63684379Y-80777402D01*
X63680144Y-80776992D01*
X63673923Y-80776234D01*
X63531336Y-80755217D01*
X63475563Y-80746996D01*
X63467655Y-80745572D01*
X63461524Y-80744264D01*
X63461522Y-80744264D01*
X63455480Y-80742975D01*
X63449297Y-80742889D01*
X63447559Y-80742694D01*
X63445803Y-80742609D01*
X63439672Y-80741706D01*
X63427222Y-80742329D01*
X63419214Y-80742475D01*
X63295319Y-80740764D01*
X63278288Y-80743908D01*
X63255425Y-80746000D01*
X62055000Y-80746000D01*
X61986879Y-80725998D01*
X61940386Y-80672342D01*
X61929000Y-80620000D01*
X61929000Y-70383616D01*
X61949002Y-70315495D01*
X62002658Y-70269002D01*
X62052719Y-70257637D01*
X62063430Y-70257443D01*
X62087810Y-70257002D01*
X62094998Y-70257078D01*
X62108574Y-70257611D01*
X62114684Y-70256644D01*
X62115239Y-70256611D01*
X62115595Y-70256597D01*
X62115953Y-70256548D01*
X62116506Y-70256483D01*
X62122700Y-70256371D01*
X62128750Y-70255054D01*
X62128755Y-70255053D01*
X62135962Y-70253484D01*
X62143058Y-70252150D01*
X62360630Y-70217690D01*
X62365532Y-70217012D01*
X62369989Y-70216484D01*
X62381882Y-70215077D01*
X62386402Y-70213608D01*
X62391095Y-70212865D01*
X62406552Y-70207163D01*
X62411206Y-70205549D01*
X62624588Y-70136217D01*
X62629313Y-70134783D01*
X62645169Y-70130311D01*
X62649403Y-70128154D01*
X62653923Y-70126685D01*
X62668302Y-70118632D01*
X62672644Y-70116312D01*
X62872551Y-70014455D01*
X62877001Y-70012296D01*
X62878244Y-70011723D01*
X62891955Y-70005402D01*
X62895801Y-70002608D01*
X62900034Y-70000451D01*
X62912957Y-69990263D01*
X62916903Y-69987276D01*
X63035810Y-69900885D01*
X63098425Y-69855393D01*
X63102477Y-69852569D01*
X63111008Y-69846868D01*
X63116162Y-69843424D01*
X63119520Y-69840066D01*
X63123367Y-69837271D01*
X63134551Y-69825172D01*
X63137981Y-69821605D01*
X63296618Y-69662969D01*
X63300185Y-69659540D01*
X63307724Y-69652571D01*
X63307728Y-69652566D01*
X63312271Y-69648367D01*
X63315063Y-69644524D01*
X63318425Y-69641162D01*
X63324659Y-69631832D01*
X63327576Y-69627467D01*
X63330405Y-69623408D01*
X63462272Y-69441909D01*
X63465257Y-69437965D01*
X63471619Y-69429895D01*
X63471619Y-69429894D01*
X63475451Y-69425034D01*
X63477608Y-69420801D01*
X63480402Y-69416955D01*
X63487296Y-69402000D01*
X63489455Y-69397551D01*
X63591312Y-69197644D01*
X63593632Y-69193302D01*
X63601685Y-69178923D01*
X63603154Y-69174403D01*
X63605311Y-69170169D01*
X63606991Y-69164213D01*
X63606993Y-69164207D01*
X63609781Y-69154321D01*
X63611217Y-69149587D01*
X63680552Y-68936198D01*
X63682172Y-68931527D01*
X63685721Y-68921906D01*
X63687865Y-68916095D01*
X63688608Y-68911402D01*
X63690077Y-68906882D01*
X63692013Y-68890528D01*
X63692690Y-68885630D01*
X63704787Y-68809255D01*
X63727155Y-68668029D01*
X63728489Y-68660932D01*
X63731371Y-68647700D01*
X63731482Y-68641518D01*
X63731545Y-68640982D01*
X63731597Y-68640607D01*
X63731612Y-68640208D01*
X63731642Y-68639693D01*
X63732612Y-68633574D01*
X63732369Y-68627383D01*
X63732079Y-68620000D01*
X63732003Y-68612777D01*
X63734300Y-68485743D01*
X63734412Y-68479552D01*
X63730997Y-68460597D01*
X63729000Y-68438255D01*
X63729000Y-64240998D01*
X63731273Y-64220586D01*
X63731067Y-64220560D01*
X63731829Y-64214423D01*
X63733192Y-64208379D01*
X63735161Y-64130934D01*
X63735754Y-64121512D01*
X63738207Y-64097154D01*
X63740094Y-64084699D01*
X63747612Y-64047685D01*
X63762325Y-63975249D01*
X63765438Y-63963081D01*
X63768773Y-63952315D01*
X63773085Y-63940518D01*
X63816622Y-63837670D01*
X63822108Y-63826328D01*
X63827504Y-63816462D01*
X63834093Y-63805726D01*
X63897204Y-63713577D01*
X63904808Y-63703585D01*
X63912071Y-63694971D01*
X63920640Y-63685784D01*
X63968767Y-63639095D01*
X64000814Y-63608006D01*
X64010270Y-63599707D01*
X64019078Y-63592726D01*
X64029312Y-63585417D01*
X64123329Y-63525131D01*
X64134263Y-63518868D01*
X64144280Y-63513778D01*
X64155780Y-63508641D01*
X64259893Y-63468244D01*
X64271854Y-63464279D01*
X64282683Y-63461281D01*
X64294971Y-63458532D01*
X64335972Y-63451491D01*
X64405021Y-63439634D01*
X64417519Y-63438126D01*
X64428740Y-63437338D01*
X64441332Y-63437085D01*
X64497146Y-63438759D01*
X64552947Y-63440434D01*
X64565504Y-63441441D01*
X64576662Y-63442900D01*
X64589055Y-63445155D01*
X64666253Y-63463233D01*
X64697774Y-63470615D01*
X64709867Y-63474093D01*
X64733028Y-63482028D01*
X64741826Y-63485416D01*
X64756398Y-63491664D01*
X64765375Y-63495512D01*
X64766921Y-63496175D01*
X64766990Y-63496222D01*
X64775370Y-63499808D01*
X64789921Y-63506035D01*
X64789997Y-63506068D01*
X64806362Y-63513084D01*
X64813047Y-63515950D01*
X64813129Y-63515967D01*
X64885647Y-63547001D01*
X64885822Y-63547076D01*
X64888991Y-63548484D01*
X64899672Y-63553407D01*
X64899677Y-63553409D01*
X64905297Y-63555999D01*
X64908425Y-63556750D01*
X64911382Y-63558015D01*
X64917429Y-63559291D01*
X64917434Y-63559293D01*
X64928944Y-63561723D01*
X64932321Y-63562484D01*
X65155300Y-63615991D01*
X65161793Y-63617549D01*
X65161858Y-63617552D01*
X65161918Y-63617566D01*
X65425467Y-63628517D01*
X65425529Y-63628507D01*
X65425592Y-63628510D01*
X65431819Y-63627553D01*
X65431824Y-63627553D01*
X65573128Y-63605843D01*
X65686310Y-63588454D01*
X65686368Y-63588433D01*
X65686433Y-63588423D01*
X65800973Y-63547076D01*
X65928713Y-63500964D01*
X65928715Y-63500963D01*
X65934541Y-63498860D01*
X65934599Y-63498825D01*
X65934655Y-63498805D01*
X66033276Y-63439634D01*
X66155450Y-63366332D01*
X66155452Y-63366331D01*
X66160843Y-63363096D01*
X66160889Y-63363054D01*
X66160943Y-63363022D01*
X66193133Y-63333960D01*
X66296653Y-63240497D01*
X66356730Y-63186257D01*
X66356767Y-63186207D01*
X66356815Y-63186164D01*
X66514857Y-62974974D01*
X66514884Y-62974918D01*
X66514923Y-62974866D01*
X66517538Y-62969431D01*
X66517541Y-62969426D01*
X66626878Y-62742181D01*
X66629289Y-62737170D01*
X66629305Y-62737110D01*
X66629332Y-62737053D01*
X66631587Y-62728386D01*
X66694229Y-62487564D01*
X66695736Y-62481771D01*
X66695740Y-62481705D01*
X66695755Y-62481647D01*
X66711704Y-62218352D01*
X66711695Y-62218288D01*
X66711699Y-62218227D01*
X66676595Y-61956796D01*
X66676574Y-61956735D01*
X66676566Y-61956674D01*
X66625667Y-61806832D01*
X66593713Y-61712761D01*
X66593711Y-61712756D01*
X66591726Y-61706913D01*
X66591696Y-61706861D01*
X66591675Y-61706799D01*
X66474099Y-61502131D01*
X66472452Y-61499170D01*
X66469714Y-61494086D01*
X66466864Y-61488791D01*
X66466861Y-61488787D01*
X66463930Y-61483343D01*
X66461882Y-61480863D01*
X66460281Y-61478076D01*
X66448486Y-61464568D01*
X66446268Y-61461957D01*
X66397949Y-61403447D01*
X66397188Y-61402423D01*
X66397079Y-61402220D01*
X66396623Y-61401664D01*
X66396617Y-61401656D01*
X66348719Y-61343259D01*
X66342927Y-61335622D01*
X66324529Y-61309346D01*
X66317562Y-61298201D01*
X66263110Y-61200025D01*
X66257349Y-61188225D01*
X66251056Y-61173420D01*
X66246554Y-61161077D01*
X66238639Y-61135261D01*
X66213650Y-61053752D01*
X66210458Y-61040997D01*
X66208918Y-61033122D01*
X66207378Y-61025243D01*
X66205532Y-61012219D01*
X66204167Y-60996842D01*
X66198670Y-60934950D01*
X66195603Y-60900415D01*
X66195125Y-60887276D01*
X66195339Y-60873770D01*
X66195379Y-60871214D01*
X66196274Y-60858090D01*
X66209749Y-60746646D01*
X66212000Y-60733724D01*
X66215588Y-60718032D01*
X66219180Y-60705402D01*
X66255471Y-60599186D01*
X66260367Y-60586978D01*
X66267120Y-60572395D01*
X66273264Y-60560762D01*
X66330783Y-60464398D01*
X66338102Y-60453475D01*
X66347737Y-60440604D01*
X66356157Y-60430502D01*
X66432422Y-60348151D01*
X66441853Y-60338979D01*
X66453932Y-60328400D01*
X66464265Y-60320262D01*
X66499680Y-60295253D01*
X66555962Y-60255509D01*
X66567062Y-60248509D01*
X66595097Y-60232813D01*
X66603619Y-60228460D01*
X66646570Y-60208538D01*
X66648765Y-60207545D01*
X66754448Y-60161018D01*
X66849263Y-60119276D01*
X66853319Y-60117792D01*
X66853258Y-60117640D01*
X66858993Y-60115325D01*
X66864935Y-60113581D01*
X66875772Y-60107914D01*
X66883370Y-60104260D01*
X66894549Y-60099338D01*
X66899618Y-60095788D01*
X66905012Y-60092750D01*
X66905094Y-60092895D01*
X66908776Y-60090654D01*
X67305182Y-59883349D01*
X67309609Y-59881363D01*
X67309604Y-59881353D01*
X67315154Y-59878605D01*
X67320943Y-59876416D01*
X67329839Y-59870865D01*
X67338152Y-59866107D01*
X67341967Y-59864112D01*
X67341971Y-59864109D01*
X67347456Y-59861241D01*
X67352276Y-59857358D01*
X67357454Y-59853965D01*
X67357460Y-59853975D01*
X67361428Y-59851154D01*
X67742428Y-59613413D01*
X67746699Y-59611092D01*
X67746692Y-59611081D01*
X67752008Y-59607925D01*
X67757620Y-59605300D01*
X67762990Y-59601353D01*
X67766079Y-59599082D01*
X67773995Y-59593714D01*
X67782904Y-59588155D01*
X67787415Y-59583917D01*
X67792325Y-59580137D01*
X67792332Y-59580146D01*
X67796075Y-59577031D01*
X68048586Y-59391407D01*
X68157911Y-59311041D01*
X68161990Y-59308405D01*
X68161983Y-59308395D01*
X68167046Y-59304843D01*
X68172441Y-59301800D01*
X68178131Y-59296910D01*
X68178760Y-59296626D01*
X68182205Y-59294209D01*
X68182663Y-59294862D01*
X68242830Y-59267677D01*
X68313063Y-59278064D01*
G37*
%TD.AperFunction*%
%TA.AperFunction,Conductor*%
G36*
X66690801Y-77571779D02*
G01*
X66749279Y-77612039D01*
X66775570Y-77669609D01*
X66776204Y-77673204D01*
X66783004Y-77711773D01*
X66783005Y-77711776D01*
X66784919Y-77722630D01*
X66803620Y-77755020D01*
X66820500Y-77818019D01*
X66820500Y-77863407D01*
X66800498Y-77931528D01*
X66746842Y-77978021D01*
X66676568Y-77988125D01*
X66637297Y-77975673D01*
X66575747Y-77944311D01*
X66575740Y-77944309D01*
X66566907Y-77939808D01*
X66564392Y-77939410D01*
X66509164Y-77901645D01*
X66481527Y-77836248D01*
X66492326Y-77773851D01*
X66491360Y-77773500D01*
X66493317Y-77768123D01*
X66506401Y-77732175D01*
X66525729Y-77679073D01*
X66525729Y-77679072D01*
X66529500Y-77668712D01*
X66529500Y-77665366D01*
X66558926Y-77605995D01*
X66619841Y-77569526D01*
X66690801Y-77571779D01*
G37*
%TD.AperFunction*%
%TA.AperFunction,Conductor*%
G36*
X67190801Y-73646779D02*
G01*
X67249279Y-73687039D01*
X67275570Y-73744609D01*
X67276117Y-73747709D01*
X67283004Y-73786773D01*
X67283005Y-73786776D01*
X67284919Y-73797630D01*
X67340834Y-73894478D01*
X67349279Y-73901564D01*
X67397872Y-73942338D01*
X67426500Y-73966360D01*
X67436859Y-73970130D01*
X67436860Y-73970131D01*
X67518924Y-74000000D01*
X67531288Y-74004500D01*
X67740856Y-74004500D01*
X67822630Y-73990081D01*
X67832174Y-73984571D01*
X67842535Y-73980800D01*
X67843602Y-73983733D01*
X67895402Y-73971172D01*
X67937969Y-73980769D01*
X67949175Y-73985451D01*
X67990438Y-74002692D01*
X68041634Y-74016598D01*
X68043636Y-74017004D01*
X68043650Y-74017007D01*
X68057872Y-74019889D01*
X68074110Y-74023179D01*
X68087204Y-74024953D01*
X68152022Y-74053923D01*
X68190888Y-74113336D01*
X68195500Y-74137256D01*
X68195500Y-74140856D01*
X68209919Y-74222630D01*
X68216634Y-74234260D01*
X68218280Y-74237112D01*
X68235016Y-74306107D01*
X68227560Y-74343204D01*
X68211365Y-74387700D01*
X68195500Y-74431288D01*
X68195500Y-74640856D01*
X68209919Y-74722630D01*
X68216066Y-74733277D01*
X68218280Y-74737112D01*
X68235016Y-74806107D01*
X68227560Y-74843204D01*
X68206842Y-74900125D01*
X68195500Y-74931288D01*
X68195500Y-75140856D01*
X68209919Y-75222630D01*
X68216950Y-75234808D01*
X68218280Y-75237112D01*
X68235016Y-75306107D01*
X68227560Y-75343204D01*
X68202129Y-75413076D01*
X68195500Y-75431288D01*
X68195500Y-75640856D01*
X68209919Y-75722630D01*
X68217765Y-75736220D01*
X68218280Y-75737112D01*
X68235016Y-75806107D01*
X68227560Y-75843204D01*
X68208522Y-75895511D01*
X68195500Y-75931288D01*
X68195500Y-76140856D01*
X68209919Y-76222630D01*
X68217765Y-76236220D01*
X68218280Y-76237112D01*
X68235016Y-76306107D01*
X68227560Y-76343204D01*
X68211173Y-76388226D01*
X68195500Y-76431288D01*
X68195500Y-76469500D01*
X68175498Y-76537621D01*
X68121842Y-76584114D01*
X68069500Y-76595500D01*
X68059144Y-76595500D01*
X67977370Y-76609919D01*
X67963780Y-76617765D01*
X67962888Y-76618280D01*
X67893893Y-76635016D01*
X67856796Y-76627560D01*
X67779073Y-76599271D01*
X67779072Y-76599271D01*
X67768712Y-76595500D01*
X67559144Y-76595500D01*
X67477370Y-76609919D01*
X67463780Y-76617765D01*
X67462888Y-76618280D01*
X67393893Y-76635016D01*
X67356796Y-76627560D01*
X67279073Y-76599271D01*
X67279072Y-76599271D01*
X67268712Y-76595500D01*
X67059144Y-76595500D01*
X66977370Y-76609919D01*
X66880522Y-76665834D01*
X66808640Y-76751500D01*
X66804870Y-76761859D01*
X66804869Y-76761860D01*
X66779755Y-76830860D01*
X66770500Y-76856288D01*
X66770500Y-76859634D01*
X66741074Y-76919005D01*
X66680159Y-76955474D01*
X66609199Y-76953221D01*
X66550721Y-76912961D01*
X66524430Y-76855391D01*
X66516996Y-76813227D01*
X66516995Y-76813224D01*
X66515081Y-76802370D01*
X66459166Y-76705522D01*
X66415297Y-76668712D01*
X66381945Y-76640726D01*
X66381944Y-76640726D01*
X66373500Y-76633640D01*
X66363141Y-76629870D01*
X66363140Y-76629869D01*
X66279073Y-76599271D01*
X66279072Y-76599271D01*
X66268712Y-76595500D01*
X66059144Y-76595500D01*
X65977370Y-76609919D01*
X65963780Y-76617765D01*
X65962888Y-76618280D01*
X65893893Y-76635016D01*
X65856796Y-76627560D01*
X65779073Y-76599271D01*
X65779072Y-76599271D01*
X65768712Y-76595500D01*
X65730500Y-76595500D01*
X65662379Y-76575498D01*
X65615886Y-76521842D01*
X65604500Y-76469500D01*
X65604500Y-76459144D01*
X65590081Y-76377370D01*
X65581720Y-76362888D01*
X65564984Y-76293893D01*
X65572440Y-76256796D01*
X65600729Y-76179073D01*
X65600729Y-76179072D01*
X65604500Y-76168712D01*
X65604500Y-75959144D01*
X65590081Y-75877370D01*
X65581720Y-75862888D01*
X65564984Y-75793893D01*
X65572440Y-75756796D01*
X65600729Y-75679073D01*
X65600729Y-75679072D01*
X65604500Y-75668712D01*
X65604500Y-75459144D01*
X65590081Y-75377370D01*
X65581720Y-75362888D01*
X65564984Y-75293893D01*
X65572440Y-75256796D01*
X65600729Y-75179073D01*
X65600729Y-75179072D01*
X65604500Y-75168712D01*
X65604500Y-74959144D01*
X65590081Y-74877370D01*
X65582235Y-74863780D01*
X65581720Y-74862888D01*
X65564984Y-74793893D01*
X65572440Y-74756796D01*
X65600729Y-74679073D01*
X65600729Y-74679072D01*
X65604500Y-74668712D01*
X65604500Y-74459144D01*
X65590081Y-74377370D01*
X65581720Y-74362888D01*
X65564984Y-74293893D01*
X65572440Y-74256796D01*
X65600729Y-74179073D01*
X65600729Y-74179072D01*
X65604500Y-74168712D01*
X65604500Y-74130500D01*
X65624502Y-74062379D01*
X65678158Y-74015886D01*
X65730500Y-74004500D01*
X65740856Y-74004500D01*
X65822630Y-73990081D01*
X65837112Y-73981720D01*
X65906107Y-73964984D01*
X65943204Y-73972440D01*
X66018924Y-74000000D01*
X66031288Y-74004500D01*
X66240856Y-74004500D01*
X66322630Y-73990081D01*
X66337112Y-73981720D01*
X66406107Y-73964984D01*
X66443204Y-73972440D01*
X66518924Y-74000000D01*
X66531288Y-74004500D01*
X66740856Y-74004500D01*
X66822630Y-73990081D01*
X66919478Y-73934166D01*
X66991360Y-73848500D01*
X66995397Y-73837410D01*
X67025729Y-73754073D01*
X67025729Y-73754072D01*
X67029500Y-73743712D01*
X67029500Y-73740366D01*
X67058926Y-73680995D01*
X67119841Y-73644526D01*
X67190801Y-73646779D01*
G37*
%TD.AperFunction*%
%TA.AperFunction,Conductor*%
G36*
X91117121Y-66774002D02*
G01*
X91163614Y-66827658D01*
X91175000Y-66880000D01*
X91175000Y-67100000D01*
X91205108Y-67100000D01*
X91273229Y-67120002D01*
X91319722Y-67173658D01*
X91326842Y-67229448D01*
X91330500Y-67229448D01*
X91330500Y-67973357D01*
X91344617Y-68053420D01*
X91350129Y-68062967D01*
X91353899Y-68073325D01*
X91350570Y-68074537D01*
X91362785Y-68124896D01*
X91339562Y-68191987D01*
X91326024Y-68207992D01*
X90937059Y-68596958D01*
X90600422Y-68933595D01*
X90538109Y-68967620D01*
X90511326Y-68970500D01*
X90485893Y-68970500D01*
X90417772Y-68950498D01*
X90373626Y-68901703D01*
X90368657Y-68891951D01*
X90364157Y-68883119D01*
X90276881Y-68795843D01*
X90166907Y-68739808D01*
X90157118Y-68738258D01*
X90157116Y-68738257D01*
X90130683Y-68734071D01*
X90076569Y-68725500D01*
X89743431Y-68725500D01*
X89653093Y-68739808D01*
X89644257Y-68744310D01*
X89637499Y-68746506D01*
X89566531Y-68748534D01*
X89505733Y-68711872D01*
X89474408Y-68648160D01*
X89472581Y-68624501D01*
X89472742Y-68615195D01*
X89497523Y-67177828D01*
X89518696Y-67110062D01*
X89573145Y-67064501D01*
X89623504Y-67054000D01*
X89642077Y-67054000D01*
X89646328Y-67054167D01*
X89648431Y-67054500D01*
X90051569Y-67054500D01*
X90054688Y-67054006D01*
X90054747Y-67054003D01*
X90054747Y-67054000D01*
X90077001Y-67052907D01*
X90078077Y-67052854D01*
X90078078Y-67052854D01*
X90079644Y-67052777D01*
X90104224Y-67050356D01*
X90115527Y-67048679D01*
X90127346Y-67046926D01*
X90127362Y-67046923D01*
X90128880Y-67046698D01*
X90130396Y-67046396D01*
X90130410Y-67046394D01*
X90152032Y-67042093D01*
X90152040Y-67042092D01*
X90168654Y-67038788D01*
X90171612Y-67037891D01*
X90171619Y-67037889D01*
X90213351Y-67025230D01*
X90213350Y-67025230D01*
X90216315Y-67024331D01*
X90261733Y-67005518D01*
X90264463Y-67004059D01*
X90302915Y-66983506D01*
X90302921Y-66983503D01*
X90305642Y-66982048D01*
X90339381Y-66959505D01*
X90359415Y-66944646D01*
X90378502Y-66928980D01*
X90396961Y-66912249D01*
X90518305Y-66790905D01*
X90580617Y-66756879D01*
X90607400Y-66754000D01*
X91049000Y-66754000D01*
X91117121Y-66774002D01*
G37*
%TD.AperFunction*%
%TA.AperFunction,Conductor*%
G36*
X77994988Y-65179194D02*
G01*
X78035895Y-65237221D01*
X78038936Y-65308153D01*
X78030060Y-65331947D01*
X78029308Y-65334261D01*
X78024808Y-65343093D01*
X78010500Y-65433431D01*
X78010500Y-65866569D01*
X78024808Y-65956907D01*
X78045902Y-65998306D01*
X78074360Y-66054157D01*
X78080843Y-66066881D01*
X78084753Y-66070791D01*
X78107794Y-66135365D01*
X78108000Y-66142560D01*
X78108000Y-66424769D01*
X78087998Y-66492890D01*
X78037876Y-66534777D01*
X78038194Y-66535253D01*
X77954006Y-66591506D01*
X77897753Y-66675694D01*
X77878000Y-66775000D01*
X77878000Y-66907827D01*
X77857998Y-66975948D01*
X77804342Y-67022441D01*
X77734068Y-67032545D01*
X77669488Y-67003051D01*
X77662905Y-66996922D01*
X77266405Y-66600422D01*
X77232379Y-66538110D01*
X77229500Y-66511327D01*
X77229500Y-65350500D01*
X77249502Y-65282379D01*
X77303158Y-65235886D01*
X77355500Y-65224500D01*
X77681569Y-65224500D01*
X77735683Y-65215929D01*
X77762116Y-65211743D01*
X77762118Y-65211742D01*
X77771907Y-65210192D01*
X77859427Y-65165598D01*
X77929204Y-65152494D01*
X77994988Y-65179194D01*
G37*
%TD.AperFunction*%
%TA.AperFunction,Conductor*%
G36*
X95521494Y-63437437D02*
G01*
X95532052Y-63438181D01*
X95532719Y-63438228D01*
X95545220Y-63439741D01*
X95655228Y-63458670D01*
X95667514Y-63461422D01*
X95678367Y-63464430D01*
X95690331Y-63468401D01*
X95794392Y-63508817D01*
X95805893Y-63513959D01*
X95815929Y-63519063D01*
X95826848Y-63525322D01*
X95900894Y-63572836D01*
X95920812Y-63585617D01*
X95931056Y-63592939D01*
X95939876Y-63599934D01*
X95949324Y-63608229D01*
X96029459Y-63686022D01*
X96038034Y-63695224D01*
X96045281Y-63703825D01*
X96052903Y-63713849D01*
X96115783Y-63805726D01*
X96115960Y-63805985D01*
X96122548Y-63816726D01*
X96127935Y-63826584D01*
X96133411Y-63837915D01*
X96176909Y-63940765D01*
X96181225Y-63952585D01*
X96182184Y-63955685D01*
X96184552Y-63963339D01*
X96187667Y-63975536D01*
X96201719Y-64044836D01*
X96209803Y-64084699D01*
X96209853Y-64084948D01*
X96211735Y-64097396D01*
X96214181Y-64121773D01*
X96214769Y-64131156D01*
X96216712Y-64208622D01*
X96218073Y-64214666D01*
X96218833Y-64220807D01*
X96218682Y-64220826D01*
X96221000Y-64241678D01*
X96221000Y-66040040D01*
X96200998Y-66108161D01*
X96147342Y-66154654D01*
X96077068Y-66164758D01*
X96012488Y-66135264D01*
X95990896Y-66106995D01*
X95989414Y-66108002D01*
X95984121Y-66100213D01*
X95980044Y-66091723D01*
X95887299Y-65991392D01*
X95769153Y-65922768D01*
X95636052Y-65891916D01*
X95626657Y-65892581D01*
X95626654Y-65892581D01*
X95509164Y-65900900D01*
X95509162Y-65900901D01*
X95499763Y-65901566D01*
X95490976Y-65904966D01*
X95490974Y-65904966D01*
X95473488Y-65911731D01*
X95372337Y-65950864D01*
X95364943Y-65956693D01*
X95364941Y-65956694D01*
X95341629Y-65975072D01*
X95275749Y-66001536D01*
X95206020Y-65988182D01*
X95171099Y-65961650D01*
X95134933Y-65922526D01*
X95111461Y-65897134D01*
X94993315Y-65828510D01*
X94860214Y-65797658D01*
X94850819Y-65798323D01*
X94850816Y-65798323D01*
X94733326Y-65806642D01*
X94733324Y-65806643D01*
X94723925Y-65807308D01*
X94715138Y-65810708D01*
X94715136Y-65810708D01*
X94674617Y-65826384D01*
X94596499Y-65856606D01*
X94536319Y-65904048D01*
X94494711Y-65936849D01*
X94428831Y-65963314D01*
X94359102Y-65949961D01*
X94307661Y-65901029D01*
X94290841Y-65832053D01*
X94315426Y-65763053D01*
X94316539Y-65761696D01*
X94332046Y-65738488D01*
X94355517Y-65694576D01*
X94374331Y-65649155D01*
X94375224Y-65646211D01*
X94375228Y-65646200D01*
X94387885Y-65604476D01*
X94387886Y-65604471D01*
X94388786Y-65601505D01*
X94396699Y-65561723D01*
X94400356Y-65537067D01*
X94402777Y-65512486D01*
X94404000Y-65487590D01*
X94404000Y-63862410D01*
X94403846Y-63859259D01*
X94402854Y-63839088D01*
X94402777Y-63837514D01*
X94400356Y-63812933D01*
X94399326Y-63805985D01*
X94396926Y-63789808D01*
X94396699Y-63788277D01*
X94394778Y-63778620D01*
X94401104Y-63707906D01*
X94444656Y-63651837D01*
X94511608Y-63628216D01*
X94521204Y-63628211D01*
X94525444Y-63628859D01*
X94525507Y-63628856D01*
X94525570Y-63628866D01*
X94531860Y-63628600D01*
X94531864Y-63628600D01*
X94783355Y-63617954D01*
X94789167Y-63617708D01*
X94789226Y-63617694D01*
X94789292Y-63617691D01*
X94794942Y-63616331D01*
X94794946Y-63616330D01*
X95018768Y-63562437D01*
X95022145Y-63561673D01*
X95033658Y-63559233D01*
X95033661Y-63559232D01*
X95039712Y-63557950D01*
X95042670Y-63556682D01*
X95045795Y-63555929D01*
X95051409Y-63553337D01*
X95051413Y-63553335D01*
X95062079Y-63548409D01*
X95065242Y-63547001D01*
X95175281Y-63499808D01*
X95184081Y-63496034D01*
X95184571Y-63495697D01*
X95185738Y-63495128D01*
X95206406Y-63486275D01*
X95208433Y-63485407D01*
X95217240Y-63482019D01*
X95225383Y-63479232D01*
X95240390Y-63474096D01*
X95252484Y-63470622D01*
X95309717Y-63457239D01*
X95361203Y-63445200D01*
X95373595Y-63442948D01*
X95378264Y-63442339D01*
X95384745Y-63441494D01*
X95397302Y-63440491D01*
X95440571Y-63439207D01*
X95508911Y-63437180D01*
X95521494Y-63437437D01*
G37*
%TD.AperFunction*%
%TA.AperFunction,Conductor*%
G36*
X88164614Y-54754356D02*
G01*
X88186173Y-54756707D01*
X88186173Y-54756704D01*
X88186488Y-54756742D01*
X88191773Y-54757318D01*
X88198367Y-54758774D01*
X88204550Y-54758904D01*
X88204554Y-54758904D01*
X88293161Y-54760760D01*
X88300881Y-54761159D01*
X88323615Y-54763034D01*
X88346410Y-54764915D01*
X88356684Y-54766190D01*
X88507310Y-54791227D01*
X88517463Y-54793348D01*
X88547381Y-54800895D01*
X88557328Y-54803845D01*
X88701787Y-54853240D01*
X88711458Y-54856998D01*
X88727142Y-54863849D01*
X88739754Y-54869358D01*
X88749081Y-54873899D01*
X88883480Y-54946319D01*
X88892405Y-54951614D01*
X88917572Y-54967981D01*
X88918285Y-54968445D01*
X88926737Y-54974451D01*
X89039863Y-55062067D01*
X89047434Y-55067931D01*
X89055369Y-55074618D01*
X89078149Y-55095476D01*
X89085507Y-55102792D01*
X89189238Y-55214804D01*
X89195946Y-55222674D01*
X89215012Y-55247006D01*
X89221066Y-55255423D01*
X89305019Y-55382933D01*
X89310356Y-55391816D01*
X89325160Y-55418922D01*
X89329755Y-55428226D01*
X89391653Y-55567766D01*
X89395466Y-55577416D01*
X89405186Y-55605324D01*
X89410489Y-55620552D01*
X89412808Y-55627932D01*
X89431009Y-55692756D01*
X89431414Y-55694235D01*
X89488424Y-55907204D01*
X89489270Y-55911436D01*
X89489431Y-55911398D01*
X89490844Y-55917418D01*
X89491662Y-55923562D01*
X89495602Y-55935115D01*
X89498056Y-55943184D01*
X89501219Y-55955000D01*
X89503954Y-55960549D01*
X89506133Y-55966343D01*
X89505978Y-55966401D01*
X89507633Y-55970388D01*
X89519987Y-56006612D01*
X89652043Y-56393798D01*
X89653335Y-56398491D01*
X89653345Y-56398488D01*
X89655214Y-56404391D01*
X89656494Y-56410445D01*
X89660629Y-56420097D01*
X89664059Y-56429027D01*
X89667448Y-56438964D01*
X89670553Y-56444324D01*
X89673114Y-56449954D01*
X89673103Y-56449959D01*
X89675282Y-56454305D01*
X89852129Y-56867145D01*
X89853774Y-56871728D01*
X89853785Y-56871724D01*
X89856094Y-56877461D01*
X89857831Y-56883403D01*
X89860694Y-56888892D01*
X89860695Y-56888895D01*
X89862687Y-56892715D01*
X89866788Y-56901364D01*
X89868480Y-56905315D01*
X89868483Y-56905320D01*
X89870919Y-56911007D01*
X89874421Y-56916115D01*
X89877401Y-56921531D01*
X89877390Y-56921537D01*
X89879894Y-56925705D01*
X90087593Y-57323929D01*
X90089577Y-57328364D01*
X90089588Y-57328359D01*
X90092327Y-57333908D01*
X90094511Y-57339702D01*
X90097781Y-57344955D01*
X90097783Y-57344959D01*
X90100050Y-57348600D01*
X90104801Y-57356922D01*
X90109657Y-57366232D01*
X90113530Y-57371051D01*
X90116919Y-57376236D01*
X90116910Y-57376242D01*
X90119727Y-57380212D01*
X90340840Y-57735431D01*
X90357064Y-57761495D01*
X90359383Y-57765774D01*
X90359393Y-57765768D01*
X90362545Y-57771091D01*
X90365164Y-57776705D01*
X90371372Y-57785169D01*
X90376731Y-57793090D01*
X90382282Y-57802008D01*
X90386517Y-57806525D01*
X90390289Y-57811437D01*
X90390280Y-57811444D01*
X90393389Y-57815189D01*
X90527829Y-57998495D01*
X90658997Y-58177340D01*
X90661631Y-58181426D01*
X90661641Y-58181419D01*
X90665192Y-58186493D01*
X90668228Y-58191889D01*
X90675063Y-58199860D01*
X90681006Y-58207349D01*
X90687218Y-58215819D01*
X90691783Y-58220001D01*
X90695917Y-58224611D01*
X90695908Y-58224619D01*
X90699297Y-58228121D01*
X90991641Y-58569047D01*
X90994583Y-58572927D01*
X90994592Y-58572920D01*
X90998516Y-58577707D01*
X91001952Y-58582855D01*
X91006324Y-58587231D01*
X91006326Y-58587234D01*
X91009366Y-58590277D01*
X91015871Y-58597305D01*
X91018670Y-58600569D01*
X91018678Y-58600577D01*
X91022704Y-58605272D01*
X91027569Y-58609092D01*
X91032041Y-58613375D01*
X91032033Y-58613383D01*
X91035673Y-58616613D01*
X91353078Y-58934358D01*
X91356304Y-58938001D01*
X91356313Y-58937992D01*
X91360585Y-58942462D01*
X91364408Y-58947343D01*
X91369109Y-58951382D01*
X91369113Y-58951387D01*
X91372367Y-58954183D01*
X91379388Y-58960697D01*
X91382425Y-58963737D01*
X91382430Y-58963741D01*
X91386804Y-58968120D01*
X91391949Y-58971562D01*
X91396730Y-58975490D01*
X91396723Y-58975499D01*
X91400598Y-58978444D01*
X91741214Y-59271157D01*
X91744712Y-59274549D01*
X91744720Y-59274540D01*
X91749322Y-59278676D01*
X91753500Y-59283247D01*
X91758487Y-59286913D01*
X91758495Y-59286920D01*
X91761968Y-59289473D01*
X91769454Y-59295427D01*
X91772713Y-59298227D01*
X91777410Y-59302263D01*
X91782800Y-59305303D01*
X91787867Y-59308858D01*
X91787860Y-59308867D01*
X91791941Y-59311504D01*
X92153819Y-59577511D01*
X92157560Y-59580624D01*
X92157567Y-59580614D01*
X92162470Y-59584388D01*
X92166983Y-59588629D01*
X92175894Y-59594189D01*
X92183818Y-59599563D01*
X92186632Y-59601631D01*
X92192268Y-59605774D01*
X92197872Y-59608395D01*
X92203194Y-59611555D01*
X92203188Y-59611565D01*
X92207464Y-59613888D01*
X92588493Y-59851635D01*
X92592458Y-59854453D01*
X92592464Y-59854444D01*
X92597650Y-59857842D01*
X92602466Y-59861722D01*
X92607948Y-59864589D01*
X92607950Y-59864590D01*
X92611761Y-59866583D01*
X92620065Y-59871336D01*
X92623725Y-59873619D01*
X92628979Y-59876897D01*
X92634768Y-59879086D01*
X92640315Y-59881832D01*
X92640310Y-59881842D01*
X92644754Y-59883836D01*
X92802686Y-59966423D01*
X93041186Y-60091142D01*
X93044866Y-60093382D01*
X93044948Y-60093237D01*
X93050342Y-60096275D01*
X93055411Y-60099825D01*
X93066599Y-60104750D01*
X93074193Y-60108402D01*
X93077361Y-60110059D01*
X93079402Y-60111126D01*
X93085024Y-60114066D01*
X93090963Y-60115809D01*
X93096703Y-60118126D01*
X93096640Y-60118281D01*
X93100688Y-60119757D01*
X93316989Y-60214977D01*
X93319217Y-60215984D01*
X93346395Y-60228592D01*
X93354921Y-60232949D01*
X93382878Y-60248603D01*
X93394004Y-60255620D01*
X93485695Y-60320375D01*
X93496028Y-60328513D01*
X93508097Y-60339084D01*
X93517528Y-60348257D01*
X93526965Y-60358448D01*
X93593777Y-60430600D01*
X93602195Y-60440701D01*
X93609284Y-60450171D01*
X93611751Y-60453466D01*
X93611821Y-60453560D01*
X93619143Y-60464488D01*
X93632931Y-60487590D01*
X93676647Y-60560837D01*
X93682789Y-60572468D01*
X93689548Y-60587065D01*
X93694446Y-60599277D01*
X93730718Y-60705458D01*
X93734314Y-60718108D01*
X93737878Y-60733696D01*
X93737890Y-60733750D01*
X93740148Y-60746709D01*
X93741960Y-60761696D01*
X93753616Y-60858144D01*
X93754510Y-60871266D01*
X93754764Y-60887300D01*
X93754285Y-60900448D01*
X93753835Y-60905517D01*
X93744350Y-61012245D01*
X93742507Y-61025247D01*
X93739428Y-61040997D01*
X93739427Y-61041003D01*
X93736233Y-61053759D01*
X93703324Y-61161079D01*
X93698817Y-61173436D01*
X93692546Y-61188187D01*
X93686775Y-61200005D01*
X93658381Y-61251194D01*
X93632329Y-61298161D01*
X93625355Y-61309317D01*
X93606963Y-61335581D01*
X93601171Y-61343217D01*
X93568924Y-61382529D01*
X93502857Y-61462655D01*
X93500670Y-61465234D01*
X93488872Y-61478767D01*
X93487271Y-61481559D01*
X93485226Y-61484039D01*
X93477111Y-61499138D01*
X93476749Y-61499811D01*
X93475081Y-61502816D01*
X93357627Y-61707639D01*
X93357606Y-61707701D01*
X93357575Y-61707755D01*
X93272911Y-61957635D01*
X93272903Y-61957694D01*
X93272882Y-61957756D01*
X93272097Y-61963635D01*
X93272096Y-61963640D01*
X93253651Y-62101816D01*
X93237972Y-62219270D01*
X93237976Y-62219336D01*
X93237968Y-62219397D01*
X93238338Y-62225428D01*
X93238338Y-62225429D01*
X93253270Y-62468811D01*
X93254124Y-62482736D01*
X93254140Y-62482798D01*
X93254144Y-62482859D01*
X93320759Y-62738144D01*
X93320786Y-62738199D01*
X93320802Y-62738262D01*
X93353795Y-62806697D01*
X93432721Y-62970410D01*
X93432724Y-62970415D01*
X93435377Y-62975918D01*
X93435416Y-62975970D01*
X93435443Y-62976026D01*
X93439112Y-62980921D01*
X93589788Y-63181947D01*
X93589791Y-63181951D01*
X93592985Y-63186211D01*
X93593681Y-63187140D01*
X93593509Y-63187269D01*
X93623675Y-63248069D01*
X93615835Y-63318632D01*
X93571090Y-63373754D01*
X93499598Y-63396000D01*
X92562410Y-63396000D01*
X92560871Y-63396076D01*
X92560855Y-63396076D01*
X92548950Y-63396661D01*
X92537514Y-63397223D01*
X92512933Y-63399644D01*
X92511432Y-63399867D01*
X92511429Y-63399867D01*
X92506737Y-63400563D01*
X92488277Y-63403301D01*
X92448495Y-63411214D01*
X92445529Y-63412114D01*
X92445524Y-63412115D01*
X92403800Y-63424772D01*
X92403789Y-63424776D01*
X92400845Y-63425669D01*
X92397993Y-63426850D01*
X92397994Y-63426850D01*
X92358277Y-63443301D01*
X92358273Y-63443303D01*
X92355424Y-63444483D01*
X92311512Y-63467954D01*
X92288304Y-63483461D01*
X92285909Y-63485427D01*
X92285903Y-63485431D01*
X92252208Y-63513084D01*
X92252203Y-63513089D01*
X92249813Y-63515050D01*
X92215050Y-63549813D01*
X92213089Y-63552203D01*
X92213084Y-63552208D01*
X92185834Y-63585413D01*
X92183461Y-63588304D01*
X92167954Y-63611512D01*
X92166498Y-63614236D01*
X92164866Y-63617289D01*
X92144483Y-63655424D01*
X92125669Y-63700845D01*
X92125079Y-63702791D01*
X92083407Y-63760042D01*
X92017226Y-63785743D01*
X91947656Y-63771584D01*
X91930007Y-63759710D01*
X91925012Y-63753758D01*
X91919231Y-63750420D01*
X91890301Y-63714056D01*
X91858659Y-63651953D01*
X91858656Y-63651949D01*
X91854157Y-63643119D01*
X91766881Y-63555843D01*
X91656907Y-63499808D01*
X91647118Y-63498258D01*
X91647116Y-63498257D01*
X91620683Y-63494071D01*
X91566569Y-63485500D01*
X91133431Y-63485500D01*
X91079317Y-63494071D01*
X91052884Y-63498257D01*
X91052882Y-63498258D01*
X91043093Y-63499808D01*
X90933119Y-63555843D01*
X90845843Y-63643119D01*
X90843066Y-63640342D01*
X90802089Y-63671925D01*
X90756402Y-63680500D01*
X90608953Y-63680500D01*
X90597971Y-63680021D01*
X90597747Y-63680001D01*
X90560846Y-63676773D01*
X90550195Y-63679627D01*
X90523945Y-63686660D01*
X90513216Y-63689039D01*
X90506587Y-63690208D01*
X90475594Y-63695673D01*
X90466044Y-63701186D01*
X90462597Y-63702441D01*
X90459282Y-63703987D01*
X90448635Y-63706840D01*
X90427876Y-63721375D01*
X90422893Y-63724864D01*
X90359524Y-63747335D01*
X90345315Y-63748341D01*
X90309163Y-63750900D01*
X90309160Y-63750901D01*
X90299763Y-63751566D01*
X90290976Y-63754966D01*
X90290974Y-63754966D01*
X90277854Y-63760042D01*
X90227706Y-63779443D01*
X90156958Y-63785368D01*
X90094237Y-63752102D01*
X90059458Y-63690208D01*
X90063662Y-63619336D01*
X90093149Y-63572836D01*
X90529599Y-63136386D01*
X90537703Y-63128959D01*
X90557800Y-63112096D01*
X90557801Y-63112095D01*
X90566242Y-63105012D01*
X90585351Y-63071915D01*
X90591235Y-63062679D01*
X90613160Y-63031365D01*
X90616013Y-63020718D01*
X90617559Y-63017403D01*
X90618814Y-63013956D01*
X90624327Y-63004406D01*
X90629934Y-62972608D01*
X90630961Y-62966784D01*
X90633340Y-62956055D01*
X90640373Y-62929805D01*
X90643227Y-62919154D01*
X90639979Y-62882029D01*
X90639500Y-62871047D01*
X90639500Y-59928953D01*
X90639979Y-59917971D01*
X90642266Y-59891828D01*
X90643227Y-59880846D01*
X90640373Y-59870193D01*
X90633340Y-59843943D01*
X90630962Y-59833216D01*
X90626242Y-59806452D01*
X90626241Y-59806450D01*
X90624327Y-59795594D01*
X90618816Y-59786048D01*
X90617562Y-59782604D01*
X90616013Y-59779282D01*
X90613160Y-59768634D01*
X90606837Y-59759604D01*
X90606835Y-59759600D01*
X90591249Y-59737342D01*
X90585340Y-59728067D01*
X90571755Y-59704537D01*
X90566242Y-59694988D01*
X90537690Y-59671030D01*
X90529587Y-59663604D01*
X86196396Y-55330413D01*
X86188969Y-55322309D01*
X86172097Y-55302202D01*
X86165012Y-55293758D01*
X86131924Y-55274655D01*
X86122656Y-55268749D01*
X86100398Y-55253164D01*
X86100394Y-55253162D01*
X86091365Y-55246840D01*
X86080718Y-55243987D01*
X86077403Y-55242441D01*
X86073956Y-55241186D01*
X86064406Y-55235673D01*
X86038449Y-55231096D01*
X86026784Y-55229039D01*
X86016055Y-55226660D01*
X85989805Y-55219627D01*
X85979154Y-55216773D01*
X85942253Y-55220001D01*
X85942029Y-55220021D01*
X85931047Y-55220500D01*
X83765640Y-55220500D01*
X83697519Y-55200498D01*
X83692145Y-55196635D01*
X83687299Y-55191392D01*
X83569153Y-55122768D01*
X83436052Y-55091916D01*
X83426657Y-55092581D01*
X83426654Y-55092581D01*
X83309164Y-55100900D01*
X83309162Y-55100901D01*
X83299763Y-55101566D01*
X83290976Y-55104966D01*
X83290974Y-55104966D01*
X83250455Y-55120642D01*
X83172337Y-55150864D01*
X83065039Y-55235451D01*
X82987356Y-55347848D01*
X82946157Y-55478118D01*
X82945084Y-55614744D01*
X82947783Y-55623768D01*
X82947783Y-55623770D01*
X82981533Y-55736623D01*
X82981535Y-55736626D01*
X82984232Y-55745646D01*
X83060140Y-55859249D01*
X83166095Y-55945511D01*
X83174826Y-55949047D01*
X83174827Y-55949048D01*
X83217527Y-55966343D01*
X83292732Y-55996804D01*
X83302117Y-55997617D01*
X83302118Y-55997617D01*
X83419472Y-56007781D01*
X83419475Y-56007781D01*
X83428852Y-56008593D01*
X83438053Y-56006612D01*
X83438055Y-56006612D01*
X83500040Y-55993267D01*
X83562422Y-55979837D01*
X83681631Y-55913076D01*
X83688132Y-55906261D01*
X83688546Y-55905940D01*
X83754632Y-55879993D01*
X83765772Y-55879500D01*
X85761327Y-55879500D01*
X85829448Y-55899502D01*
X85850422Y-55916405D01*
X89943595Y-60009578D01*
X89977621Y-60071890D01*
X89980500Y-60098673D01*
X89980500Y-61636647D01*
X89960498Y-61704768D01*
X89906842Y-61751261D01*
X89836568Y-61761365D01*
X89771988Y-61731871D01*
X89761975Y-61722176D01*
X89728027Y-61685451D01*
X89687299Y-61641392D01*
X89569153Y-61572768D01*
X89436052Y-61541916D01*
X89426657Y-61542581D01*
X89426654Y-61542581D01*
X89309164Y-61550900D01*
X89309162Y-61550901D01*
X89299763Y-61551566D01*
X89290976Y-61554966D01*
X89290974Y-61554966D01*
X89250455Y-61570642D01*
X89172337Y-61600864D01*
X89065039Y-61685451D01*
X88987356Y-61797848D01*
X88946157Y-61928118D01*
X88942558Y-61926980D01*
X88919941Y-61974675D01*
X88915132Y-61979531D01*
X88908052Y-61984103D01*
X88901605Y-61992281D01*
X88901604Y-61992282D01*
X88888417Y-62009010D01*
X88885013Y-62012841D01*
X88885123Y-62012934D01*
X88881770Y-62016891D01*
X88878089Y-62020572D01*
X88875065Y-62024804D01*
X88868047Y-62034624D01*
X88864483Y-62039370D01*
X88841416Y-62068630D01*
X88841415Y-62068632D01*
X88834968Y-62076810D01*
X88832134Y-62084879D01*
X88827159Y-62091841D01*
X88824176Y-62101816D01*
X88813492Y-62137539D01*
X88811665Y-62143164D01*
X88795853Y-62188191D01*
X88795500Y-62192267D01*
X88795500Y-62194976D01*
X88795382Y-62197709D01*
X88795237Y-62197703D01*
X88795167Y-62198817D01*
X88793335Y-62204942D01*
X88794789Y-62241951D01*
X88795403Y-62257584D01*
X88795500Y-62262530D01*
X88795500Y-62478238D01*
X88775498Y-62546359D01*
X88743563Y-62580173D01*
X88741957Y-62581340D01*
X88733119Y-62585843D01*
X88645843Y-62673119D01*
X88589808Y-62783093D01*
X88588258Y-62792882D01*
X88588257Y-62792884D01*
X88586015Y-62807042D01*
X88575500Y-62873431D01*
X88575500Y-63206569D01*
X88589808Y-63296907D01*
X88645843Y-63406881D01*
X88699867Y-63460905D01*
X88733893Y-63523217D01*
X88728828Y-63594032D01*
X88699867Y-63639095D01*
X88645843Y-63693119D01*
X88589808Y-63803093D01*
X88588258Y-63812882D01*
X88588257Y-63812884D01*
X88587649Y-63816726D01*
X88575500Y-63893431D01*
X88575500Y-64105327D01*
X88555498Y-64173448D01*
X88501842Y-64219941D01*
X88431568Y-64230045D01*
X88366988Y-64200551D01*
X88360405Y-64194422D01*
X85346396Y-61180413D01*
X85338969Y-61172309D01*
X85322097Y-61152202D01*
X85315012Y-61143758D01*
X85281924Y-61124655D01*
X85272656Y-61118749D01*
X85250398Y-61103164D01*
X85250394Y-61103162D01*
X85241365Y-61096840D01*
X85230718Y-61093987D01*
X85227403Y-61092441D01*
X85223956Y-61091186D01*
X85214406Y-61085673D01*
X85188449Y-61081096D01*
X85176784Y-61079039D01*
X85166055Y-61076660D01*
X85139805Y-61069627D01*
X85129154Y-61066773D01*
X85092253Y-61070001D01*
X85092029Y-61070021D01*
X85081047Y-61070500D01*
X82561583Y-61070500D01*
X82493462Y-61050498D01*
X82446969Y-60996842D01*
X82436865Y-60926568D01*
X82463159Y-60866888D01*
X82462733Y-60866572D01*
X82464124Y-60864696D01*
X82464178Y-60864574D01*
X82464561Y-60864108D01*
X82464575Y-60864089D01*
X82466539Y-60861696D01*
X82468949Y-60858090D01*
X82480327Y-60841060D01*
X82482046Y-60838488D01*
X82505517Y-60794576D01*
X82507665Y-60789392D01*
X82523150Y-60752006D01*
X82524331Y-60749155D01*
X82525224Y-60746211D01*
X82525228Y-60746200D01*
X82537885Y-60704476D01*
X82537886Y-60704471D01*
X82538786Y-60701505D01*
X82546699Y-60661723D01*
X82550356Y-60637067D01*
X82552777Y-60612486D01*
X82554000Y-60587590D01*
X82554000Y-58112410D01*
X82552777Y-58087514D01*
X82550356Y-58062933D01*
X82546699Y-58038277D01*
X82538786Y-57998495D01*
X82537885Y-57995524D01*
X82525228Y-57953800D01*
X82525224Y-57953789D01*
X82524331Y-57950845D01*
X82505517Y-57905424D01*
X82482046Y-57861512D01*
X82466539Y-57838304D01*
X82454150Y-57823207D01*
X82436916Y-57802208D01*
X82436911Y-57802203D01*
X82434950Y-57799813D01*
X82400187Y-57765050D01*
X82397797Y-57763089D01*
X82397792Y-57763084D01*
X82364097Y-57735431D01*
X82364091Y-57735427D01*
X82361696Y-57733461D01*
X82338488Y-57717954D01*
X82294576Y-57694483D01*
X82291727Y-57693303D01*
X82291723Y-57693301D01*
X82252006Y-57676850D01*
X82252007Y-57676850D01*
X82249155Y-57675669D01*
X82246211Y-57674776D01*
X82246200Y-57674772D01*
X82204476Y-57662115D01*
X82204471Y-57662114D01*
X82201505Y-57661214D01*
X82161723Y-57653301D01*
X82149054Y-57651422D01*
X82138571Y-57649867D01*
X82138568Y-57649867D01*
X82137067Y-57649644D01*
X82112486Y-57647223D01*
X82101050Y-57646661D01*
X82089145Y-57646076D01*
X82089129Y-57646076D01*
X82087590Y-57646000D01*
X77564363Y-57646000D01*
X77496242Y-57625998D01*
X77449749Y-57572342D01*
X77439645Y-57502068D01*
X77452095Y-57462799D01*
X77455691Y-57455741D01*
X77455691Y-57455740D01*
X77460192Y-57446907D01*
X77474500Y-57356569D01*
X77474500Y-57023431D01*
X77460192Y-56933093D01*
X77404157Y-56823119D01*
X77316881Y-56735843D01*
X77308043Y-56731340D01*
X77306437Y-56730173D01*
X77263084Y-56673950D01*
X77254500Y-56628238D01*
X77254500Y-56119203D01*
X77274502Y-56051082D01*
X77323297Y-56006936D01*
X77323933Y-56006612D01*
X77426881Y-55954157D01*
X77514157Y-55866881D01*
X77570192Y-55756907D01*
X77584500Y-55666569D01*
X77584500Y-55233431D01*
X77572626Y-55158459D01*
X77571743Y-55152884D01*
X77571742Y-55152882D01*
X77570192Y-55143093D01*
X77514157Y-55033119D01*
X77450259Y-54969221D01*
X77416233Y-54906909D01*
X77421298Y-54836094D01*
X77463845Y-54779258D01*
X77530365Y-54754447D01*
X77539357Y-54754126D01*
X88164614Y-54754356D01*
G37*
%TD.AperFunction*%
%TA.AperFunction,Conductor*%
G36*
X79538121Y-59024002D02*
G01*
X79584614Y-59077658D01*
X79596000Y-59130000D01*
X79596000Y-60587590D01*
X79597223Y-60612486D01*
X79599644Y-60637067D01*
X79603301Y-60661723D01*
X79611214Y-60701505D01*
X79612114Y-60704471D01*
X79612115Y-60704476D01*
X79624772Y-60746200D01*
X79624776Y-60746211D01*
X79625669Y-60749155D01*
X79626850Y-60752006D01*
X79642336Y-60789392D01*
X79644483Y-60794576D01*
X79667954Y-60838488D01*
X79669673Y-60841060D01*
X79681052Y-60858090D01*
X79683461Y-60861696D01*
X79685425Y-60864089D01*
X79685439Y-60864108D01*
X79685822Y-60864574D01*
X79685871Y-60864690D01*
X79687267Y-60866572D01*
X79686813Y-60866908D01*
X79713571Y-60929923D01*
X79701584Y-60999900D01*
X79653668Y-61052288D01*
X79588417Y-61070500D01*
X77915315Y-61070500D01*
X77847194Y-61050498D01*
X77800701Y-60996842D01*
X77790597Y-60926568D01*
X77820091Y-60861988D01*
X77835381Y-60847101D01*
X77847792Y-60836916D01*
X77847797Y-60836911D01*
X77850187Y-60834950D01*
X77884950Y-60800187D01*
X77887321Y-60797298D01*
X77914569Y-60764097D01*
X77914573Y-60764091D01*
X77916539Y-60761696D01*
X77932046Y-60738488D01*
X77955517Y-60694576D01*
X77959205Y-60685674D01*
X77973150Y-60652006D01*
X77974331Y-60649155D01*
X77975224Y-60646211D01*
X77975228Y-60646200D01*
X77987885Y-60604476D01*
X77987886Y-60604471D01*
X77988786Y-60601505D01*
X77996699Y-60561723D01*
X78000356Y-60537067D01*
X78002777Y-60512486D01*
X78003339Y-60501050D01*
X78003924Y-60489145D01*
X78003924Y-60489129D01*
X78004000Y-60487590D01*
X78004000Y-59130000D01*
X78024002Y-59061879D01*
X78077658Y-59015386D01*
X78130000Y-59004000D01*
X79470000Y-59004000D01*
X79538121Y-59024002D01*
G37*
%TD.AperFunction*%
%TA.AperFunction,Conductor*%
G36*
X76572649Y-54754105D02*
G01*
X76580670Y-54754105D01*
X76648790Y-54774109D01*
X76695282Y-54827765D01*
X76705384Y-54898039D01*
X76675890Y-54962619D01*
X76669762Y-54969200D01*
X76605843Y-55033119D01*
X76549808Y-55143093D01*
X76548258Y-55152882D01*
X76548257Y-55152884D01*
X76547374Y-55158459D01*
X76535500Y-55233431D01*
X76535500Y-55666569D01*
X76539882Y-55694235D01*
X76543949Y-55719914D01*
X76545500Y-55739625D01*
X76545500Y-56628238D01*
X76525498Y-56696359D01*
X76493561Y-56730174D01*
X76491955Y-56731341D01*
X76483119Y-56735843D01*
X76476106Y-56742856D01*
X76471495Y-56746206D01*
X76404628Y-56770064D01*
X76335476Y-56753984D01*
X76327432Y-56749035D01*
X76317125Y-56742148D01*
X76306806Y-56735253D01*
X76207500Y-56715500D01*
X75357500Y-56715500D01*
X75258194Y-56735253D01*
X75174006Y-56791506D01*
X75117753Y-56875694D01*
X75098000Y-56975000D01*
X75098000Y-57325000D01*
X75107158Y-57371041D01*
X75100830Y-57441753D01*
X75097097Y-57449825D01*
X75097262Y-57449903D01*
X75095941Y-57452697D01*
X75094483Y-57455424D01*
X75075669Y-57500845D01*
X75074776Y-57503789D01*
X75074772Y-57503800D01*
X75062115Y-57545524D01*
X75061214Y-57548495D01*
X75053301Y-57588277D01*
X75049644Y-57612933D01*
X75047223Y-57637514D01*
X75047146Y-57639088D01*
X75046433Y-57653605D01*
X75046000Y-57662410D01*
X75046000Y-60487590D01*
X75046076Y-60489129D01*
X75046076Y-60489145D01*
X75046661Y-60501050D01*
X75047223Y-60512486D01*
X75049644Y-60537067D01*
X75053301Y-60561723D01*
X75061214Y-60601505D01*
X75062114Y-60604471D01*
X75062115Y-60604476D01*
X75074772Y-60646200D01*
X75074776Y-60646211D01*
X75075669Y-60649155D01*
X75076850Y-60652006D01*
X75090796Y-60685674D01*
X75094483Y-60694576D01*
X75117954Y-60738488D01*
X75133461Y-60761696D01*
X75135427Y-60764091D01*
X75135431Y-60764097D01*
X75162679Y-60797298D01*
X75165050Y-60800187D01*
X75199813Y-60834950D01*
X75202203Y-60836911D01*
X75202208Y-60836916D01*
X75214619Y-60847101D01*
X75254587Y-60905778D01*
X75256488Y-60976749D01*
X75219717Y-61037481D01*
X75155949Y-61068693D01*
X75134685Y-61070500D01*
X69138673Y-61070500D01*
X69070552Y-61050498D01*
X69049578Y-61033595D01*
X69035078Y-61019095D01*
X69001052Y-60956783D01*
X69006117Y-60885968D01*
X69048664Y-60829132D01*
X69115184Y-60804321D01*
X69124173Y-60804000D01*
X71404747Y-60804000D01*
X71406286Y-60803924D01*
X71406302Y-60803924D01*
X71428077Y-60802854D01*
X71428078Y-60802854D01*
X71429644Y-60802777D01*
X71454224Y-60800356D01*
X71465527Y-60798679D01*
X71477346Y-60796926D01*
X71477362Y-60796923D01*
X71478880Y-60796698D01*
X71480396Y-60796396D01*
X71480410Y-60796394D01*
X71502032Y-60792093D01*
X71502040Y-60792092D01*
X71518654Y-60788788D01*
X71521612Y-60787891D01*
X71521619Y-60787889D01*
X71563351Y-60775230D01*
X71563350Y-60775230D01*
X71566315Y-60774331D01*
X71611733Y-60755518D01*
X71614463Y-60754059D01*
X71652915Y-60733506D01*
X71652921Y-60733503D01*
X71655642Y-60732048D01*
X71689381Y-60709505D01*
X71700357Y-60701364D01*
X71708179Y-60695563D01*
X71708186Y-60695558D01*
X71709415Y-60694646D01*
X71728502Y-60678980D01*
X71746961Y-60662249D01*
X72368305Y-60040905D01*
X72430617Y-60006879D01*
X72457400Y-60004000D01*
X73637590Y-60004000D01*
X73639129Y-60003924D01*
X73639145Y-60003924D01*
X73651050Y-60003339D01*
X73662486Y-60002777D01*
X73687067Y-60000356D01*
X73688568Y-60000133D01*
X73688571Y-60000133D01*
X73699054Y-59998578D01*
X73711723Y-59996699D01*
X73751505Y-59988786D01*
X73754471Y-59987886D01*
X73754476Y-59987885D01*
X73796200Y-59975228D01*
X73796211Y-59975224D01*
X73799155Y-59974331D01*
X73824794Y-59963711D01*
X73841723Y-59956699D01*
X73841727Y-59956697D01*
X73844576Y-59955517D01*
X73888488Y-59932046D01*
X73911696Y-59916539D01*
X73914091Y-59914573D01*
X73914097Y-59914569D01*
X73947792Y-59886916D01*
X73947797Y-59886911D01*
X73950187Y-59884950D01*
X73984950Y-59850187D01*
X73986916Y-59847792D01*
X74014569Y-59814097D01*
X74014573Y-59814091D01*
X74016539Y-59811696D01*
X74032046Y-59788488D01*
X74055517Y-59744576D01*
X74058514Y-59737342D01*
X74073150Y-59702006D01*
X74074331Y-59699155D01*
X74075224Y-59696211D01*
X74075228Y-59696200D01*
X74087885Y-59654476D01*
X74087886Y-59654471D01*
X74088786Y-59651505D01*
X74096699Y-59611723D01*
X74100356Y-59587067D01*
X74102777Y-59562486D01*
X74104000Y-59537590D01*
X74104000Y-58167379D01*
X74124002Y-58099258D01*
X74159998Y-58062614D01*
X74161772Y-58061429D01*
X74240994Y-58008494D01*
X74277540Y-57953800D01*
X74290354Y-57934623D01*
X74290355Y-57934620D01*
X74297247Y-57924306D01*
X74299667Y-57912140D01*
X74302868Y-57904412D01*
X74309443Y-57885593D01*
X74309291Y-57885528D01*
X74310243Y-57883304D01*
X74337752Y-57819072D01*
X74341047Y-57806777D01*
X74347531Y-57774187D01*
X74351826Y-57741571D01*
X74354000Y-57708410D01*
X74354000Y-57662410D01*
X74353568Y-57653605D01*
X74352854Y-57639088D01*
X74352777Y-57637514D01*
X74350356Y-57612933D01*
X74346699Y-57588277D01*
X74338786Y-57548495D01*
X74324331Y-57500845D01*
X74323147Y-57497986D01*
X74322184Y-57495295D01*
X74317600Y-57474881D01*
X74317000Y-57475000D01*
X74312008Y-57449903D01*
X74306971Y-57424579D01*
X74306971Y-57375419D01*
X74307299Y-57373774D01*
X74317000Y-57325000D01*
X74317000Y-56975000D01*
X74306971Y-56924579D01*
X74306971Y-56875419D01*
X74315793Y-56831068D01*
X74317000Y-56825000D01*
X74317000Y-56475000D01*
X74297247Y-56375694D01*
X74240994Y-56291506D01*
X74156806Y-56235253D01*
X74057500Y-56215500D01*
X73760500Y-56215500D01*
X73692379Y-56195498D01*
X73645886Y-56141842D01*
X73634500Y-56089500D01*
X73634500Y-55683431D01*
X73620192Y-55593093D01*
X73564157Y-55483119D01*
X73476881Y-55395843D01*
X73366907Y-55339808D01*
X73357118Y-55338258D01*
X73357116Y-55338257D01*
X73330683Y-55334071D01*
X73276569Y-55325500D01*
X73180000Y-55325500D01*
X73111879Y-55305498D01*
X73065386Y-55251842D01*
X73054000Y-55199500D01*
X73054000Y-54966429D01*
X73053616Y-54958600D01*
X73052854Y-54943099D01*
X73052854Y-54943098D01*
X73052777Y-54941532D01*
X73050356Y-54916952D01*
X73050132Y-54915440D01*
X73050129Y-54915418D01*
X73047622Y-54898519D01*
X73057412Y-54828201D01*
X73103666Y-54774339D01*
X73172261Y-54754032D01*
X76572649Y-54754105D01*
G37*
%TD.AperFunction*%
%TD*%
%TA.AperFunction,Conductor*%
%TO.N,+3.3V*%
G36*
X76209356Y-57480502D02*
G01*
X76215785Y-57484921D01*
X76248910Y-57509232D01*
X76268534Y-57527101D01*
X76366959Y-57637829D01*
X76540331Y-57832873D01*
X76607882Y-57882448D01*
X76620929Y-57885243D01*
X76683313Y-57898608D01*
X76683318Y-57898608D01*
X76689813Y-57900000D01*
X82087590Y-57900000D01*
X82112171Y-57902421D01*
X82151953Y-57910334D01*
X82197374Y-57929148D01*
X82220582Y-57944655D01*
X82255345Y-57979418D01*
X82270852Y-58002626D01*
X82289666Y-58048047D01*
X82297579Y-58087829D01*
X82300000Y-58112410D01*
X82300000Y-60587590D01*
X82297579Y-60612171D01*
X82289666Y-60651953D01*
X82270852Y-60697374D01*
X82255345Y-60720582D01*
X82220582Y-60755345D01*
X82197374Y-60770852D01*
X82151953Y-60789666D01*
X82112171Y-60797579D01*
X82087590Y-60800000D01*
X80062410Y-60800000D01*
X80037829Y-60797579D01*
X79998047Y-60789666D01*
X79952626Y-60770852D01*
X79929418Y-60755345D01*
X79894655Y-60720582D01*
X79879148Y-60697374D01*
X79860334Y-60651953D01*
X79852421Y-60612171D01*
X79850000Y-60587590D01*
X79850000Y-58950000D01*
X79834776Y-58873463D01*
X79791421Y-58808579D01*
X79726537Y-58765224D01*
X79714368Y-58762804D01*
X79714367Y-58762803D01*
X79656068Y-58751207D01*
X79650000Y-58750000D01*
X77950000Y-58750000D01*
X77943932Y-58751207D01*
X77885633Y-58762803D01*
X77885632Y-58762804D01*
X77873463Y-58765224D01*
X77808579Y-58808579D01*
X77765224Y-58873463D01*
X77750000Y-58950000D01*
X77750000Y-60487590D01*
X77747579Y-60512171D01*
X77739666Y-60551953D01*
X77720852Y-60597374D01*
X77705345Y-60620582D01*
X77670582Y-60655345D01*
X77647374Y-60670852D01*
X77601953Y-60689666D01*
X77562171Y-60697579D01*
X77537590Y-60700000D01*
X75512410Y-60700000D01*
X75487829Y-60697579D01*
X75448047Y-60689666D01*
X75402626Y-60670852D01*
X75379418Y-60655345D01*
X75344655Y-60620582D01*
X75329148Y-60597374D01*
X75310334Y-60551953D01*
X75302421Y-60512171D01*
X75300000Y-60487590D01*
X75300000Y-57662410D01*
X75302421Y-57637829D01*
X75310334Y-57598047D01*
X75329148Y-57552626D01*
X75344655Y-57529418D01*
X75379418Y-57494655D01*
X75398754Y-57481735D01*
X75468756Y-57460500D01*
X76141235Y-57460500D01*
X76209356Y-57480502D01*
G37*
%TD.AperFunction*%
%TD*%
%TA.AperFunction,Conductor*%
%TO.N,V_{bus}*%
G36*
X73837171Y-71502421D02*
G01*
X73876953Y-71510334D01*
X73922374Y-71529148D01*
X73945582Y-71544655D01*
X73980345Y-71579418D01*
X73995852Y-71602626D01*
X74014666Y-71648047D01*
X74022579Y-71687829D01*
X74025000Y-71712410D01*
X74025000Y-73586738D01*
X74022566Y-73611383D01*
X74014613Y-73651258D01*
X73995705Y-73696775D01*
X73980125Y-73720015D01*
X73945202Y-73754796D01*
X73921899Y-73770281D01*
X73876305Y-73789003D01*
X73836386Y-73796795D01*
X73811740Y-73799126D01*
X73770565Y-73798957D01*
X73281323Y-73796952D01*
X72850688Y-73795187D01*
X69221121Y-73780312D01*
X68140725Y-73775884D01*
X68108214Y-73771479D01*
X68057018Y-73757573D01*
X68000768Y-73724892D01*
X67975417Y-73699437D01*
X67942966Y-73643052D01*
X67929271Y-73591801D01*
X67925000Y-73559273D01*
X67925000Y-72787410D01*
X67927421Y-72762829D01*
X67935334Y-72723047D01*
X67954148Y-72677626D01*
X67969655Y-72654418D01*
X68004418Y-72619655D01*
X68027626Y-72604148D01*
X68073047Y-72585334D01*
X68112829Y-72577421D01*
X68137410Y-72575000D01*
X70724688Y-72575000D01*
X70795169Y-72562170D01*
X70804924Y-72556320D01*
X70804926Y-72556319D01*
X70851734Y-72528247D01*
X70851735Y-72528246D01*
X70856606Y-72525325D01*
X71782952Y-71712410D01*
X71959847Y-71557176D01*
X71978149Y-71543825D01*
X71989466Y-71537038D01*
X72010158Y-71524628D01*
X72052398Y-71508722D01*
X72089124Y-71502037D01*
X72111688Y-71500000D01*
X73812590Y-71500000D01*
X73837171Y-71502421D01*
G37*
%TD.AperFunction*%
%TD*%
%TA.AperFunction,Conductor*%
%TO.N,V_{snk}*%
G36*
X82931400Y-76952297D02*
G01*
X82970236Y-76959816D01*
X83014676Y-76977696D01*
X83047895Y-76999165D01*
X83066762Y-77014093D01*
X84187607Y-78090102D01*
X84191956Y-78094277D01*
X84255815Y-78135547D01*
X84260266Y-78136409D01*
X84311999Y-78177236D01*
X84335104Y-78244367D01*
X84325645Y-78298366D01*
X84324536Y-78301042D01*
X84317643Y-78311359D01*
X84315223Y-78323526D01*
X84315222Y-78323528D01*
X84307488Y-78362410D01*
X84302000Y-78390000D01*
X84302000Y-79306195D01*
X84281998Y-79374316D01*
X84265095Y-79395290D01*
X84222790Y-79437595D01*
X84160478Y-79471621D01*
X84133695Y-79474500D01*
X84031138Y-79474500D01*
X83963017Y-79454498D01*
X83916524Y-79400842D01*
X83907052Y-79370376D01*
X83906880Y-79369400D01*
X83906879Y-79369398D01*
X83904965Y-79358542D01*
X83845838Y-79256131D01*
X83805883Y-79222604D01*
X83763696Y-79187205D01*
X83755250Y-79180118D01*
X83644127Y-79139673D01*
X83642150Y-79139500D01*
X83186644Y-79139500D01*
X83098542Y-79155035D01*
X82996131Y-79214162D01*
X82989048Y-79222603D01*
X82989047Y-79222604D01*
X82952905Y-79265676D01*
X82920118Y-79304750D01*
X82879673Y-79415873D01*
X82879500Y-79417850D01*
X82879500Y-79773356D01*
X82895035Y-79861458D01*
X82954162Y-79963869D01*
X82962603Y-79970952D01*
X82962604Y-79970953D01*
X83030683Y-80028078D01*
X83044750Y-80039882D01*
X83155873Y-80080327D01*
X83157850Y-80080500D01*
X83613356Y-80080500D01*
X83701458Y-80064965D01*
X83740576Y-80042380D01*
X83803574Y-80025500D01*
X84262458Y-80025500D01*
X84287038Y-80027921D01*
X84287827Y-80028078D01*
X84287829Y-80028078D01*
X84300000Y-80030499D01*
X84325130Y-80025500D01*
X84325137Y-80025500D01*
X84325144Y-80025499D01*
X84325149Y-80025498D01*
X84395174Y-80011569D01*
X84395176Y-80011568D01*
X84407343Y-80009148D01*
X84498343Y-79948343D01*
X84505687Y-79937352D01*
X84521357Y-79918258D01*
X84817212Y-79622404D01*
X84879524Y-79588379D01*
X84900155Y-79586161D01*
X84900150Y-79586107D01*
X84906238Y-79585507D01*
X84906307Y-79585500D01*
X84912500Y-79585500D01*
X84937331Y-79580561D01*
X84978972Y-79572278D01*
X84978974Y-79572277D01*
X84991141Y-79569857D01*
X85001456Y-79562965D01*
X85001458Y-79562964D01*
X85047494Y-79532203D01*
X85057810Y-79525310D01*
X85064703Y-79514994D01*
X85095464Y-79468958D01*
X85095465Y-79468956D01*
X85102357Y-79458641D01*
X85106544Y-79437595D01*
X85113854Y-79400842D01*
X85118000Y-79380000D01*
X85118000Y-78451500D01*
X85138002Y-78383379D01*
X85191658Y-78336886D01*
X85244000Y-78325500D01*
X86862458Y-78325500D01*
X86887038Y-78327921D01*
X86887827Y-78328078D01*
X86887829Y-78328078D01*
X86900000Y-78330499D01*
X86925130Y-78325500D01*
X86925137Y-78325500D01*
X86925144Y-78325499D01*
X86925149Y-78325498D01*
X86995174Y-78311569D01*
X86995176Y-78311568D01*
X87007343Y-78309148D01*
X87098343Y-78248343D01*
X87105689Y-78237349D01*
X87121359Y-78218256D01*
X87152710Y-78186905D01*
X87215022Y-78152879D01*
X87241805Y-78150000D01*
X88637590Y-78150000D01*
X88662171Y-78152421D01*
X88701953Y-78160334D01*
X88747374Y-78179148D01*
X88770582Y-78194655D01*
X88805345Y-78229418D01*
X88820852Y-78252626D01*
X88839666Y-78298047D01*
X88847579Y-78337829D01*
X88850000Y-78362410D01*
X88850000Y-80837590D01*
X88847579Y-80862171D01*
X88839666Y-80901953D01*
X88820852Y-80947374D01*
X88805345Y-80970582D01*
X88770582Y-81005345D01*
X88747374Y-81020852D01*
X88701953Y-81039666D01*
X88662171Y-81047579D01*
X88637590Y-81050000D01*
X79762410Y-81050000D01*
X79737829Y-81047579D01*
X79698047Y-81039666D01*
X79652626Y-81020852D01*
X79629418Y-81005345D01*
X79594655Y-80970582D01*
X79579148Y-80947374D01*
X79560334Y-80901953D01*
X79552421Y-80862171D01*
X79550000Y-80837590D01*
X79550000Y-78810116D01*
X79570002Y-78741995D01*
X79623658Y-78695502D01*
X79685555Y-78684479D01*
X79845863Y-78696674D01*
X79953727Y-78704879D01*
X79953732Y-78704879D01*
X79957504Y-78705166D01*
X80282802Y-78690679D01*
X80286540Y-78690057D01*
X80286548Y-78690056D01*
X80600269Y-78637838D01*
X80600277Y-78637836D01*
X80604003Y-78637216D01*
X80916455Y-78545553D01*
X81215633Y-78417016D01*
X81218911Y-78415112D01*
X81218917Y-78415109D01*
X81397173Y-78311569D01*
X81497201Y-78253468D01*
X81500226Y-78251184D01*
X81500234Y-78251179D01*
X81754055Y-78059563D01*
X81757082Y-78057278D01*
X81991511Y-77831288D01*
X81993905Y-77828348D01*
X81993910Y-77828342D01*
X82194692Y-77581719D01*
X82197092Y-77578771D01*
X82340391Y-77351657D01*
X82368826Y-77306590D01*
X82368827Y-77306587D01*
X82370848Y-77303385D01*
X82504134Y-77022051D01*
X82551373Y-76969056D01*
X82617999Y-76950000D01*
X82907451Y-76950000D01*
X82931400Y-76952297D01*
G37*
%TD.AperFunction*%
%TD*%
%TA.AperFunction,Conductor*%
%TO.N,+3.3V*%
G36*
X93962171Y-63652421D02*
G01*
X94001953Y-63660334D01*
X94047374Y-63679148D01*
X94070582Y-63694655D01*
X94105345Y-63729418D01*
X94120852Y-63752626D01*
X94139666Y-63798047D01*
X94147579Y-63837829D01*
X94150000Y-63862410D01*
X94150000Y-65487590D01*
X94147579Y-65512171D01*
X94139666Y-65551953D01*
X94120852Y-65597374D01*
X94105345Y-65620582D01*
X94070582Y-65655345D01*
X94047374Y-65670852D01*
X94001953Y-65689666D01*
X93962171Y-65697579D01*
X93937590Y-65700000D01*
X93354224Y-65700000D01*
X93327591Y-65697153D01*
X93284745Y-65687887D01*
X93236235Y-65665875D01*
X93201050Y-65639734D01*
X93181368Y-65621564D01*
X92964186Y-65373355D01*
X92959762Y-65368299D01*
X92891890Y-65317873D01*
X92878725Y-65315026D01*
X92878723Y-65315025D01*
X92841430Y-65306960D01*
X92809246Y-65300000D01*
X92562410Y-65300000D01*
X92537829Y-65297579D01*
X92498047Y-65289666D01*
X92452626Y-65270852D01*
X92429418Y-65255345D01*
X92394655Y-65220582D01*
X92379148Y-65197374D01*
X92360334Y-65151953D01*
X92352921Y-65114685D01*
X92350500Y-65090104D01*
X92350500Y-64724863D01*
X92350167Y-64723189D01*
X92350000Y-64719785D01*
X92350000Y-63862410D01*
X92352421Y-63837829D01*
X92360334Y-63798047D01*
X92379148Y-63752626D01*
X92394655Y-63729418D01*
X92429418Y-63694655D01*
X92452626Y-63679148D01*
X92498047Y-63660334D01*
X92537829Y-63652421D01*
X92562410Y-63650000D01*
X93937590Y-63650000D01*
X93962171Y-63652421D01*
G37*
%TD.AperFunction*%
%TD*%
%TA.AperFunction,Conductor*%
%TO.N,+5V*%
G36*
X84585915Y-68952441D02*
G01*
X84615971Y-68958445D01*
X84625854Y-68960419D01*
X84671427Y-68979383D01*
X84694683Y-68995004D01*
X84729475Y-69030023D01*
X84744945Y-69053380D01*
X84763614Y-69099078D01*
X84771332Y-69139067D01*
X84773612Y-69163763D01*
X84751397Y-72584781D01*
X84746929Y-72617229D01*
X84737473Y-72651770D01*
X84700197Y-72712189D01*
X84636170Y-72742866D01*
X84615946Y-72744500D01*
X84332148Y-72744500D01*
X84264027Y-72724498D01*
X84217534Y-72670842D01*
X84208569Y-72643080D01*
X84202421Y-72612170D01*
X84200000Y-72587590D01*
X84200000Y-72550000D01*
X84184776Y-72473463D01*
X84141421Y-72408579D01*
X84076537Y-72365224D01*
X84064368Y-72362804D01*
X84064367Y-72362803D01*
X84006068Y-72351207D01*
X84000000Y-72350000D01*
X81312410Y-72350000D01*
X81287829Y-72347579D01*
X81248047Y-72339666D01*
X81202626Y-72320852D01*
X81179418Y-72305345D01*
X81144655Y-72270582D01*
X81129148Y-72247374D01*
X81110334Y-72201953D01*
X81102421Y-72162171D01*
X81100000Y-72137590D01*
X81100000Y-69162410D01*
X81102421Y-69137829D01*
X81110334Y-69098047D01*
X81129148Y-69052626D01*
X81144655Y-69029418D01*
X81179418Y-68994655D01*
X81202626Y-68979148D01*
X81248047Y-68960334D01*
X81287829Y-68952421D01*
X81312410Y-68950000D01*
X84561235Y-68950000D01*
X84585915Y-68952441D01*
G37*
%TD.AperFunction*%
%TD*%
%TA.AperFunction,Conductor*%
%TO.N,V_{snk}*%
G36*
X77312171Y-62152421D02*
G01*
X77351953Y-62160334D01*
X77397374Y-62179148D01*
X77420582Y-62194655D01*
X77455345Y-62229418D01*
X77470852Y-62252626D01*
X77489666Y-62298047D01*
X77497579Y-62337829D01*
X77500000Y-62362410D01*
X77500000Y-63351780D01*
X77497442Y-63377040D01*
X77489354Y-63416549D01*
X77455011Y-63480374D01*
X77311447Y-63623938D01*
X77164835Y-63770549D01*
X77162834Y-63772506D01*
X76917526Y-64007149D01*
X76411755Y-64490930D01*
X76366086Y-64556873D01*
X76350000Y-64635458D01*
X76350000Y-66169136D01*
X76364582Y-66244104D01*
X76406202Y-66308140D01*
X76410410Y-66312493D01*
X76589092Y-66497336D01*
X76622057Y-66560216D01*
X76624500Y-66584909D01*
X76624500Y-66662458D01*
X76622079Y-66687038D01*
X76619501Y-66700000D01*
X76621922Y-66712170D01*
X76624499Y-66725125D01*
X76624502Y-66725149D01*
X76630054Y-66753056D01*
X76640852Y-66807343D01*
X76701657Y-66898343D01*
X76711973Y-66905236D01*
X76712648Y-66905687D01*
X76731742Y-66921357D01*
X77378646Y-67568262D01*
X77394315Y-67587355D01*
X77401657Y-67598343D01*
X77411973Y-67605236D01*
X77422964Y-67612580D01*
X77422966Y-67612582D01*
X77482340Y-67652255D01*
X77482342Y-67652256D01*
X77492657Y-67659148D01*
X77504824Y-67661568D01*
X77504826Y-67661569D01*
X77550933Y-67670740D01*
X77574863Y-67675500D01*
X77574867Y-67675500D01*
X77600000Y-67680499D01*
X77612171Y-67678078D01*
X77612173Y-67678078D01*
X77612962Y-67677921D01*
X77637542Y-67675500D01*
X77682276Y-67675500D01*
X77753605Y-67697634D01*
X77806736Y-67734121D01*
X77819160Y-67736647D01*
X77878640Y-67748741D01*
X77878645Y-67748742D01*
X77884835Y-67750000D01*
X78799000Y-67750000D01*
X78867121Y-67770002D01*
X78913614Y-67823658D01*
X78925000Y-67876000D01*
X78925000Y-67943500D01*
X78904998Y-68011621D01*
X78851342Y-68058114D01*
X78799000Y-68069500D01*
X78137500Y-68069500D01*
X78112669Y-68074439D01*
X78071028Y-68082722D01*
X78071026Y-68082723D01*
X78058859Y-68085143D01*
X78048544Y-68092035D01*
X78048542Y-68092036D01*
X78002506Y-68122797D01*
X77992190Y-68129690D01*
X77947643Y-68196359D01*
X77946402Y-68195530D01*
X77930152Y-68219848D01*
X77558579Y-68591421D01*
X77555143Y-68596563D01*
X77555140Y-68596567D01*
X77523774Y-68643510D01*
X77515224Y-68656306D01*
X77500000Y-68732843D01*
X77500000Y-69137590D01*
X77497579Y-69162171D01*
X77489666Y-69201953D01*
X77470852Y-69247374D01*
X77455345Y-69270582D01*
X77420582Y-69305345D01*
X77397374Y-69320852D01*
X77351953Y-69339666D01*
X77312171Y-69347579D01*
X77287590Y-69350000D01*
X72612410Y-69350000D01*
X72587829Y-69347579D01*
X72548047Y-69339666D01*
X72502626Y-69320852D01*
X72479418Y-69305345D01*
X72444655Y-69270582D01*
X72429148Y-69247374D01*
X72410334Y-69201953D01*
X72402421Y-69162171D01*
X72400000Y-69137590D01*
X72400000Y-64809304D01*
X72420002Y-64741183D01*
X72472543Y-64695656D01*
X72478168Y-64694664D01*
X72487711Y-64689154D01*
X72487712Y-64689154D01*
X72572538Y-64640179D01*
X72572539Y-64640179D01*
X72582083Y-64634668D01*
X72659212Y-64542750D01*
X72700251Y-64429995D01*
X72700500Y-64427149D01*
X72700500Y-64001643D01*
X72691799Y-63952297D01*
X72692306Y-63905836D01*
X72698793Y-63873223D01*
X72700000Y-63867157D01*
X72700000Y-62954224D01*
X72702847Y-62927591D01*
X72712113Y-62884745D01*
X72734126Y-62836234D01*
X72760265Y-62801052D01*
X72778433Y-62781371D01*
X73285338Y-62337829D01*
X73434906Y-62206958D01*
X73453189Y-62193656D01*
X73477440Y-62179148D01*
X73485161Y-62174529D01*
X73527327Y-62158687D01*
X73563980Y-62152029D01*
X73586499Y-62150000D01*
X77287590Y-62150000D01*
X77312171Y-62152421D01*
G37*
%TD.AperFunction*%
%TD*%
%TA.AperFunction,Conductor*%
%TO.N,+3.3V*%
G36*
X88945206Y-66150797D02*
G01*
X88954221Y-66151816D01*
X88965478Y-66153740D01*
X88966909Y-66153902D01*
X88973857Y-66155500D01*
X88980983Y-66155500D01*
X88982243Y-66155643D01*
X88993868Y-66156298D01*
X89005330Y-66157594D01*
X89005331Y-66157594D01*
X89019432Y-66159188D01*
X89029793Y-66155570D01*
X89031043Y-66155500D01*
X90447561Y-66155500D01*
X90509330Y-66174237D01*
X90509360Y-66174166D01*
X90510085Y-66174466D01*
X90517560Y-66176734D01*
X90531142Y-66185809D01*
X90543311Y-66188229D01*
X90543312Y-66188230D01*
X90571292Y-66193795D01*
X90579863Y-66195500D01*
X91049000Y-66195500D01*
X91117121Y-66215502D01*
X91163614Y-66269158D01*
X91175000Y-66321500D01*
X91175000Y-66374000D01*
X91154998Y-66442121D01*
X91101342Y-66488614D01*
X91049000Y-66500000D01*
X90532843Y-66500000D01*
X90456306Y-66515224D01*
X90445987Y-66522119D01*
X90396567Y-66555140D01*
X90396563Y-66555143D01*
X90391421Y-66558579D01*
X90217356Y-66732644D01*
X90198269Y-66748310D01*
X90164530Y-66770853D01*
X90119112Y-66789666D01*
X90102498Y-66792970D01*
X90079327Y-66797579D01*
X90054747Y-66800000D01*
X89446581Y-66800000D01*
X89393431Y-66814078D01*
X89363434Y-66822023D01*
X89363433Y-66822023D01*
X89347578Y-66826223D01*
X89335880Y-66837721D01*
X89304627Y-66868440D01*
X89274537Y-66898016D01*
X89246611Y-66996552D01*
X89216232Y-68758579D01*
X89203672Y-69487044D01*
X89198916Y-69519229D01*
X89184562Y-69569876D01*
X89151664Y-69625376D01*
X89126223Y-69650383D01*
X89070161Y-69682322D01*
X89019276Y-69695800D01*
X88987015Y-69700000D01*
X88812410Y-69700000D01*
X88787829Y-69697579D01*
X88748047Y-69689666D01*
X88702626Y-69670852D01*
X88679418Y-69655345D01*
X88644655Y-69620582D01*
X88629148Y-69597374D01*
X88610334Y-69551953D01*
X88602421Y-69512171D01*
X88600000Y-69487590D01*
X88600000Y-68900000D01*
X88584776Y-68823463D01*
X88541421Y-68758579D01*
X88476537Y-68715224D01*
X88464368Y-68712804D01*
X88464367Y-68712803D01*
X88406068Y-68701207D01*
X88400000Y-68700000D01*
X85012410Y-68700000D01*
X84987829Y-68697579D01*
X84948047Y-68689666D01*
X84902626Y-68670852D01*
X84879418Y-68655345D01*
X84844655Y-68620582D01*
X84829148Y-68597374D01*
X84810334Y-68551953D01*
X84802421Y-68512171D01*
X84800000Y-68487590D01*
X84800000Y-66957984D01*
X84804070Y-66926218D01*
X84817148Y-66876019D01*
X84848146Y-66820565D01*
X84872508Y-66795167D01*
X84926623Y-66761887D01*
X84976234Y-66746731D01*
X85007803Y-66741342D01*
X85120620Y-66736641D01*
X85748341Y-66710486D01*
X85927025Y-66703041D01*
X85995067Y-66688059D01*
X86053842Y-66650645D01*
X86154278Y-66558579D01*
X86534014Y-66210488D01*
X86552603Y-66196379D01*
X86585214Y-66176094D01*
X86628526Y-66159245D01*
X86666282Y-66152161D01*
X86689517Y-66150000D01*
X88931061Y-66150000D01*
X88945206Y-66150797D01*
G37*
%TD.AperFunction*%
%TD*%
%TA.AperFunction,Conductor*%
%TO.N,GND*%
G36*
X94075000Y-81025000D02*
G01*
X89675000Y-81025000D01*
X89650000Y-77925000D01*
X91709246Y-77925000D01*
X91791890Y-77907127D01*
X91859762Y-77856701D01*
X92265238Y-77393299D01*
X92265239Y-77393298D01*
X92325000Y-77325000D01*
X94075000Y-77325000D01*
X94075000Y-81025000D01*
G37*
%TD.AperFunction*%
%TD*%
%TA.AperFunction,Conductor*%
%TO.N,Net-(D111-Pad3)*%
G36*
X71762171Y-66002421D02*
G01*
X71801953Y-66010334D01*
X71847374Y-66029148D01*
X71870582Y-66044655D01*
X71905345Y-66079418D01*
X71920852Y-66102626D01*
X71939666Y-66148047D01*
X71947579Y-66187829D01*
X71950000Y-66212410D01*
X71950000Y-67987590D01*
X71947579Y-68012171D01*
X71939666Y-68051953D01*
X71920852Y-68097374D01*
X71905345Y-68120582D01*
X71870582Y-68155345D01*
X71847374Y-68170852D01*
X71801953Y-68189666D01*
X71762171Y-68197579D01*
X71737590Y-68200000D01*
X70172410Y-68200000D01*
X70167020Y-68200946D01*
X70167017Y-68200946D01*
X70115130Y-68210050D01*
X70115129Y-68210050D01*
X70104325Y-68211946D01*
X70094811Y-68217407D01*
X70094810Y-68217407D01*
X70049123Y-68243629D01*
X70049117Y-68243633D01*
X70044373Y-68246356D01*
X70040166Y-68249862D01*
X68677272Y-69385606D01*
X68677268Y-69385610D01*
X68671963Y-69390031D01*
X68618882Y-69458844D01*
X68600000Y-69543675D01*
X68600000Y-69937590D01*
X68597579Y-69962171D01*
X68589666Y-70001953D01*
X68570852Y-70047374D01*
X68555345Y-70070582D01*
X68520582Y-70105345D01*
X68497374Y-70120852D01*
X68451953Y-70139666D01*
X68412171Y-70147579D01*
X68387590Y-70150000D01*
X66462410Y-70150000D01*
X66437829Y-70147579D01*
X66398047Y-70139666D01*
X66352626Y-70120852D01*
X66329418Y-70105345D01*
X66294655Y-70070582D01*
X66279148Y-70047374D01*
X66260334Y-70001953D01*
X66252421Y-69962171D01*
X66250000Y-69937590D01*
X66250000Y-69703793D01*
X66252826Y-69677256D01*
X66262026Y-69634554D01*
X66283880Y-69586189D01*
X66309845Y-69551066D01*
X66327891Y-69531409D01*
X66410296Y-69458844D01*
X69364539Y-66857347D01*
X69390606Y-66839643D01*
X69413347Y-66828056D01*
X69503056Y-66738347D01*
X69503692Y-66737098D01*
X69514205Y-66725552D01*
X69527153Y-66714150D01*
X69527157Y-66714146D01*
X69532176Y-66709726D01*
X69582257Y-66641983D01*
X69600000Y-66559627D01*
X69600000Y-66212410D01*
X69602421Y-66187829D01*
X69610334Y-66148047D01*
X69629148Y-66102626D01*
X69644655Y-66079418D01*
X69679418Y-66044655D01*
X69702626Y-66029148D01*
X69748047Y-66010334D01*
X69787829Y-66002421D01*
X69812410Y-66000000D01*
X71737590Y-66000000D01*
X71762171Y-66002421D01*
G37*
%TD.AperFunction*%
%TD*%
%TA.AperFunction,Conductor*%
%TO.N,unconnected-(U102-Pad4\u002C5\u002C6)*%
G36*
X84062171Y-66452421D02*
G01*
X84101953Y-66460334D01*
X84147374Y-66479148D01*
X84170582Y-66494655D01*
X84205345Y-66529418D01*
X84220852Y-66552626D01*
X84239666Y-66598047D01*
X84247579Y-66637829D01*
X84250000Y-66662410D01*
X84250000Y-68287590D01*
X84247579Y-68312171D01*
X84239666Y-68351953D01*
X84220852Y-68397374D01*
X84205345Y-68420582D01*
X84170582Y-68455345D01*
X84147374Y-68470852D01*
X84101953Y-68489666D01*
X84062171Y-68497579D01*
X84037590Y-68500000D01*
X81312410Y-68500000D01*
X81287829Y-68497579D01*
X81248047Y-68489666D01*
X81202627Y-68470853D01*
X81180999Y-68456402D01*
X81135471Y-68401926D01*
X81125000Y-68351636D01*
X81125000Y-67675000D01*
X81119681Y-67675000D01*
X81111965Y-67648720D01*
X81105103Y-67638043D01*
X81100000Y-67602548D01*
X81100000Y-66662410D01*
X81102421Y-66637829D01*
X81110334Y-66598047D01*
X81129148Y-66552626D01*
X81144655Y-66529418D01*
X81179418Y-66494655D01*
X81202626Y-66479148D01*
X81248047Y-66460334D01*
X81287829Y-66452421D01*
X81312410Y-66450000D01*
X84037590Y-66450000D01*
X84062171Y-66452421D01*
G37*
%TD.AperFunction*%
%TD*%
%TA.AperFunction,Conductor*%
%TO.N,unconnected-(U102-Pad11)*%
G36*
X80299121Y-68770002D02*
G01*
X80345614Y-68823658D01*
X80357000Y-68876000D01*
X80357000Y-69950000D01*
X80358208Y-69956071D01*
X80358757Y-69961649D01*
X80345529Y-70031402D01*
X80296689Y-70082931D01*
X80233364Y-70100000D01*
X79962410Y-70100000D01*
X79937829Y-70097579D01*
X79898047Y-70089666D01*
X79852626Y-70070852D01*
X79829418Y-70055345D01*
X79794655Y-70020582D01*
X79779148Y-69997374D01*
X79760334Y-69951953D01*
X79752421Y-69912171D01*
X79750000Y-69887590D01*
X79750000Y-68962410D01*
X79752421Y-68937829D01*
X79760334Y-68898047D01*
X79779148Y-68852626D01*
X79794655Y-68829418D01*
X79829418Y-68794655D01*
X79852626Y-68779148D01*
X79898047Y-68760334D01*
X79937829Y-68752421D01*
X79962410Y-68750000D01*
X80231000Y-68750000D01*
X80299121Y-68770002D01*
G37*
%TD.AperFunction*%
%TD*%
M02*
