%TF.GenerationSoftware,KiCad,Pcbnew,5.99.0-5f22025611*%
%TF.CreationDate,2021-06-18T20:55:10+00:00*%
%TF.ProjectId,driver,64726976-6572-42e6-9b69-6361645f7063,rev?*%
%TF.SameCoordinates,Original*%
%TF.FileFunction,Paste,Top*%
%TF.FilePolarity,Positive*%
%FSLAX46Y46*%
G04 Gerber Fmt 4.6, Leading zero omitted, Abs format (unit mm)*
G04 Created by KiCad (PCBNEW 5.99.0-5f22025611) date 2021-06-18 20:55:10*
%MOMM*%
%LPD*%
G01*
G04 APERTURE LIST*
G04 Aperture macros list*
%AMRoundRect*
0 Rectangle with rounded corners*
0 $1 Rounding radius*
0 $2 $3 $4 $5 $6 $7 $8 $9 X,Y pos of 4 corners*
0 Add a 4 corners polygon primitive as box body*
4,1,4,$2,$3,$4,$5,$6,$7,$8,$9,$2,$3,0*
0 Add four circle primitives for the rounded corners*
1,1,$1+$1,$2,$3*
1,1,$1+$1,$4,$5*
1,1,$1+$1,$6,$7*
1,1,$1+$1,$8,$9*
0 Add four rect primitives between the rounded corners*
20,1,$1+$1,$2,$3,$4,$5,0*
20,1,$1+$1,$4,$5,$6,$7,0*
20,1,$1+$1,$6,$7,$8,$9,0*
20,1,$1+$1,$8,$9,$2,$3,0*%
G04 Aperture macros list end*
%ADD10RoundRect,0.150000X0.150000X-0.587500X0.150000X0.587500X-0.150000X0.587500X-0.150000X-0.587500X0*%
%ADD11RoundRect,0.062500X0.072500X0.062500X-0.072500X0.062500X-0.072500X-0.062500X0.072500X-0.062500X0*%
%ADD12RoundRect,0.062500X-0.062500X0.072500X-0.062500X-0.072500X0.062500X-0.072500X0.062500X0.072500X0*%
%ADD13RoundRect,0.062500X0.062500X-0.072500X0.062500X0.072500X-0.062500X0.072500X-0.062500X-0.072500X0*%
%ADD14RoundRect,0.135000X0.135000X0.185000X-0.135000X0.185000X-0.135000X-0.185000X0.135000X-0.185000X0*%
%ADD15RoundRect,0.250000X0.475000X-0.250000X0.475000X0.250000X-0.475000X0.250000X-0.475000X-0.250000X0*%
%ADD16RoundRect,0.156250X0.343750X-0.156250X0.343750X0.156250X-0.343750X0.156250X-0.343750X-0.156250X0*%
%ADD17RoundRect,0.135000X-0.135000X-0.185000X0.135000X-0.185000X0.135000X0.185000X-0.135000X0.185000X0*%
%ADD18R,1.100000X1.500000*%
%ADD19R,1.150000X0.700000*%
%ADD20R,1.150000X0.800000*%
%ADD21R,1.150000X0.900000*%
%ADD22RoundRect,0.140000X-0.140000X-0.170000X0.140000X-0.170000X0.140000X0.170000X-0.140000X0.170000X0*%
%ADD23RoundRect,0.156250X-0.343750X0.156250X-0.343750X-0.156250X0.343750X-0.156250X0.343750X0.156250X0*%
%ADD24RoundRect,0.250000X-0.450000X0.262500X-0.450000X-0.262500X0.450000X-0.262500X0.450000X0.262500X0*%
%ADD25RoundRect,0.300000X0.750000X-0.300000X0.750000X0.300000X-0.750000X0.300000X-0.750000X-0.300000X0*%
%ADD26RoundRect,0.325000X0.875000X-0.325000X0.875000X0.325000X-0.875000X0.325000X-0.875000X-0.325000X0*%
%ADD27RoundRect,0.937500X1.062500X-0.937500X1.062500X0.937500X-1.062500X0.937500X-1.062500X-0.937500X0*%
%ADD28RoundRect,0.625000X0.975000X-0.625000X0.975000X0.625000X-0.975000X0.625000X-0.975000X-0.625000X0*%
G04 APERTURE END LIST*
D10*
%TO.C,D111*%
X71350000Y-80087500D03*
X73250000Y-80087500D03*
X72300000Y-78212500D03*
%TD*%
D11*
%TO.C,D112*%
X87710000Y-70900000D03*
X87290000Y-70900000D03*
%TD*%
%TO.C,D102*%
X70610000Y-75700000D03*
X70190000Y-75700000D03*
%TD*%
D12*
%TO.C,D110*%
X89600000Y-62790000D03*
X89600000Y-63210000D03*
%TD*%
D13*
%TO.C,D109*%
X70650000Y-66210000D03*
X70650000Y-65790000D03*
%TD*%
D14*
%TO.C,D104*%
X75410000Y-72600000D03*
X74390000Y-72600000D03*
%TD*%
D15*
%TO.C,C102*%
X72600000Y-72250000D03*
X72600000Y-70350000D03*
%TD*%
D16*
%TO.C,D106*%
X88700000Y-75025000D03*
X88700000Y-73775000D03*
%TD*%
D17*
%TO.C,R103*%
X74390000Y-73600000D03*
X75410000Y-73600000D03*
%TD*%
D18*
%TO.C,SW101*%
X85900000Y-79960000D03*
X85900000Y-71059998D03*
%TD*%
D19*
%TO.C,J101*%
X67605000Y-74700000D03*
D20*
X67605000Y-76720000D03*
D21*
X67605000Y-77950000D03*
D19*
X67605000Y-75700000D03*
D20*
X67605000Y-73680000D03*
D21*
X67605000Y-72450000D03*
%TD*%
D22*
%TO.C,C103*%
X75420000Y-71600000D03*
X76380000Y-71600000D03*
%TD*%
D23*
%TO.C,D107*%
X88700000Y-71500000D03*
X88700000Y-72750000D03*
%TD*%
D11*
%TO.C,D103*%
X70610000Y-74700000D03*
X70190000Y-74700000D03*
%TD*%
D17*
%TO.C,R107*%
X69840000Y-76650000D03*
X70860000Y-76650000D03*
%TD*%
D24*
%TO.C,F101*%
X72550000Y-73887500D03*
X72550000Y-75712500D03*
%TD*%
D23*
%TO.C,D105*%
X88700000Y-76075000D03*
X88700000Y-77325000D03*
%TD*%
D25*
%TO.C,RV101*%
X87450000Y-65200000D03*
X87450000Y-63200000D03*
X87450000Y-61200000D03*
D26*
X73000000Y-65700000D03*
X73000000Y-60700000D03*
D27*
X80000000Y-56825000D03*
D28*
X87900000Y-68200000D03*
D27*
X80000000Y-69575000D03*
D28*
X87900000Y-58200000D03*
X72100000Y-68200000D03*
X72100000Y-58200000D03*
%TD*%
D16*
%TO.C,D101*%
X69600000Y-73525000D03*
X69600000Y-72275000D03*
%TD*%
D12*
%TO.C,D108*%
X69200000Y-60390000D03*
X69200000Y-60810000D03*
%TD*%
M02*
