%TF.GenerationSoftware,KiCad,Pcbnew,5.99.0-5f22025611*%
%TF.CreationDate,2021-06-18T20:55:10+00:00*%
%TF.ProjectId,driver,64726976-6572-42e6-9b69-6361645f7063,rev?*%
%TF.SameCoordinates,Original*%
%TF.FileFunction,Copper,L2,Inr*%
%TF.FilePolarity,Positive*%
%FSLAX46Y46*%
G04 Gerber Fmt 4.6, Leading zero omitted, Abs format (unit mm)*
G04 Created by KiCad (PCBNEW 5.99.0-5f22025611) date 2021-06-18 20:55:10*
%MOMM*%
%LPD*%
G01*
G04 APERTURE LIST*
%TA.AperFunction,ComponentPad*%
%ADD10R,1.700000X1.700000*%
%TD*%
%TA.AperFunction,ComponentPad*%
%ADD11O,1.700000X1.700000*%
%TD*%
%TA.AperFunction,ComponentPad*%
%ADD12O,2.000000X1.000000*%
%TD*%
%TA.AperFunction,ViaPad*%
%ADD13C,0.800000*%
%TD*%
%TA.AperFunction,ViaPad*%
%ADD14C,0.400000*%
%TD*%
%TA.AperFunction,Conductor*%
%ADD15C,0.150000*%
%TD*%
%TA.AperFunction,Conductor*%
%ADD16C,0.500000*%
%TD*%
G04 APERTURE END LIST*
D10*
%TO.N,GND*%
%TO.C,J102*%
X90600000Y-78900000D03*
D11*
%TO.N,/FAN_PWR*%
X90600000Y-76360000D03*
%TO.N,/FAN_TACHO*%
X90600000Y-73820000D03*
%TO.N,/FAN_PWM*%
X90600000Y-71280000D03*
%TD*%
D12*
%TO.N,GND*%
%TO.C,J101*%
X67600000Y-70880000D03*
X67600000Y-79520000D03*
X63800000Y-70880000D03*
X63800000Y-79520000D03*
%TD*%
D13*
%TO.N,GND*%
X94275000Y-69725000D03*
X93175000Y-71125000D03*
X92925000Y-68675000D03*
D14*
%TO.N,/FAN_PWM_LV*%
X93875000Y-68300000D03*
X93875000Y-66095500D03*
D13*
%TO.N,V_{snk}*%
X81300000Y-80000000D03*
X88400000Y-80400000D03*
X82250000Y-80550000D03*
X74000000Y-63650000D03*
X69200000Y-59500000D03*
X82300000Y-78250000D03*
X69950000Y-58800000D03*
X82250000Y-79400000D03*
X76375000Y-63650000D03*
X71100000Y-60100000D03*
X75250000Y-62600000D03*
X81350000Y-78950000D03*
X74000000Y-62600000D03*
X75300000Y-64850000D03*
X87300000Y-80350000D03*
X84550000Y-80600000D03*
X75250000Y-63650000D03*
X80350000Y-79450000D03*
X70150000Y-59800000D03*
X76350000Y-62600000D03*
X80350000Y-80500000D03*
X83400000Y-80600000D03*
X88400000Y-78750000D03*
%TO.N,GND*%
X74800000Y-60750000D03*
D14*
X68358033Y-60143887D03*
X79500000Y-60950000D03*
D13*
X78225000Y-72550000D03*
D14*
X77625000Y-66425000D03*
X92300000Y-62925000D03*
X69175000Y-66500000D03*
X75150000Y-55650000D03*
X95875000Y-65150000D03*
D13*
X74550000Y-59700000D03*
D14*
X95875000Y-64500000D03*
D13*
X66100000Y-74600000D03*
D14*
X86425000Y-72875000D03*
X89700000Y-68575000D03*
D13*
X78100000Y-70700000D03*
X76775000Y-72675000D03*
D14*
X90900000Y-68400000D03*
D13*
X78725000Y-79150000D03*
X79575000Y-72575000D03*
D14*
X91100000Y-61750000D03*
D13*
X75025000Y-70325000D03*
D14*
X87050000Y-73050000D03*
X94775000Y-64050000D03*
D13*
X66100000Y-75950000D03*
D14*
X87050000Y-72400000D03*
X78300000Y-60950000D03*
X95450000Y-64075000D03*
X87050000Y-71800000D03*
X86450000Y-73450000D03*
X90300000Y-68575000D03*
X78900000Y-60950000D03*
D13*
X63700000Y-71925000D03*
D14*
X74500000Y-55650000D03*
D13*
X77450000Y-71700000D03*
D14*
X90425000Y-68000000D03*
%TO.N,V_{bus}*%
X73775000Y-72325000D03*
X73775000Y-71725000D03*
X73775000Y-72900000D03*
%TO.N,Net-(C103-Pad1)*%
X75050000Y-74300000D03*
X64650000Y-73300000D03*
%TO.N,+5V*%
X82300000Y-72100000D03*
X78300000Y-64000000D03*
D13*
%TO.N,+3.3V*%
X81800000Y-59250000D03*
D14*
X85250000Y-68300000D03*
D13*
X80450000Y-59250000D03*
X80450000Y-60200000D03*
D14*
X92650000Y-63950000D03*
X85800000Y-67100000D03*
X85250000Y-67700000D03*
X85250000Y-67100000D03*
D13*
X81800000Y-60200000D03*
D14*
X85800000Y-67700000D03*
X93900000Y-63950000D03*
X93250000Y-63950000D03*
X89400000Y-62000000D03*
X85800000Y-68300000D03*
%TO.N,/CC2*%
X70000000Y-75200000D03*
%TO.N,/CC1*%
X69950000Y-74250000D03*
%TO.N,/FAN_TACHO*%
X94824162Y-66255742D03*
%TO.N,/SW1*%
X68350000Y-60800000D03*
%TO.N,/SW2*%
X68850000Y-64450000D03*
%TO.N,/POT_WIPER*%
X95650000Y-67100000D03*
D13*
%TO.N,Net-(D111-Pad3)*%
X73250000Y-77450000D03*
X69550000Y-67750000D03*
X67000000Y-69650000D03*
X71350000Y-75250000D03*
X73700000Y-76550000D03*
X67800000Y-69050000D03*
X68650000Y-68300000D03*
D14*
%TO.N,/FAN_VOLTAGE_SEL*%
X87200000Y-69825000D03*
%TO.N,/PROG_SCL*%
X76650000Y-75500000D03*
%TO.N,/PROG_SDA*%
X77500000Y-78050000D03*
%TO.N,/RESET*%
X74500000Y-78150000D03*
X69750000Y-77400000D03*
%TO.N,/REG_EN*%
X78350000Y-63200000D03*
X84300000Y-65125000D03*
X90400000Y-64200000D03*
%TO.N,Net-(R114-Pad1)*%
X63800000Y-75050000D03*
X68050000Y-66250000D03*
%TO.N,Net-(R115-Pad1)*%
X71350000Y-70200000D03*
X69200000Y-79000000D03*
%TO.N,/HI_PWR*%
X83400000Y-55550000D03*
X65136531Y-72609500D03*
%TO.N,/POT_SUPPLY*%
X95600000Y-66350000D03*
%TD*%
D15*
%TO.N,Net-(C103-Pad1)*%
X74400000Y-74950000D02*
X75050000Y-74300000D01*
X68750000Y-74850000D02*
X68750000Y-77500000D01*
X68750000Y-77500000D02*
X70200000Y-78950000D01*
X67200000Y-73300000D02*
X68750000Y-74850000D01*
X70200000Y-78950000D02*
X73050000Y-78950000D01*
X64650000Y-73300000D02*
X67200000Y-73300000D01*
X74400000Y-77600000D02*
X74400000Y-74950000D01*
X73050000Y-78950000D02*
X74400000Y-77600000D01*
D16*
%TO.N,Net-(D111-Pad3)*%
X70700000Y-71400000D02*
X71350000Y-72050000D01*
X69550000Y-67750000D02*
X69550000Y-70250000D01*
X71350000Y-72050000D02*
X71350000Y-75250000D01*
X69550000Y-70250000D02*
X70700000Y-71400000D01*
D15*
%TO.N,/REG_EN*%
X78350000Y-62809788D02*
X78350000Y-63200000D01*
X84300000Y-65125000D02*
X80996479Y-61821479D01*
X79338309Y-61821479D02*
X78350000Y-62809788D01*
X80996479Y-61821479D02*
X79338309Y-61821479D01*
%TO.N,/HI_PWR*%
X64750000Y-69650000D02*
X65700000Y-70600000D01*
X64750000Y-65450000D02*
X64750000Y-69400000D01*
X83400000Y-55550000D02*
X81950000Y-55550000D01*
X81600000Y-55200000D02*
X72500000Y-55200000D01*
X64750000Y-69400000D02*
X64750000Y-69650000D01*
X71050000Y-56650000D02*
X67450000Y-60250000D01*
X67450000Y-60250000D02*
X67450000Y-62750000D01*
X67450000Y-62750000D02*
X65200000Y-65000000D01*
X65700000Y-70600000D02*
X65700000Y-72046031D01*
X65700000Y-72046031D02*
X65136531Y-72609500D01*
X81950000Y-55550000D02*
X81600000Y-55200000D01*
X65200000Y-65000000D02*
X64750000Y-65450000D01*
X72500000Y-55200000D02*
X71050000Y-56650000D01*
%TD*%
%TA.AperFunction,Conductor*%
%TO.N,Net-(D111-Pad3)*%
G36*
X71012171Y-66952421D02*
G01*
X71051953Y-66960334D01*
X71097374Y-66979148D01*
X71120582Y-66994655D01*
X71155345Y-67029418D01*
X71170852Y-67052626D01*
X71189666Y-67098047D01*
X71197579Y-67137829D01*
X71200000Y-67162410D01*
X71200000Y-68517157D01*
X71215224Y-68593694D01*
X71222119Y-68604013D01*
X71255140Y-68653433D01*
X71255143Y-68653437D01*
X71258579Y-68658579D01*
X73724883Y-71124883D01*
X73758909Y-71187195D01*
X73753844Y-71258010D01*
X73711297Y-71314846D01*
X73668355Y-71332996D01*
X73668919Y-71334731D01*
X73659486Y-71337796D01*
X73649694Y-71339347D01*
X73536653Y-71396944D01*
X73446944Y-71486653D01*
X73389347Y-71599694D01*
X73369500Y-71725000D01*
X73389347Y-71850306D01*
X73393848Y-71859139D01*
X73446944Y-71963347D01*
X73444684Y-71964498D01*
X73463705Y-72017809D01*
X73447922Y-72085675D01*
X73446944Y-72086653D01*
X73389347Y-72199694D01*
X73369500Y-72325000D01*
X73389347Y-72450306D01*
X73393849Y-72459141D01*
X73393849Y-72459142D01*
X73442842Y-72555298D01*
X73455946Y-72625075D01*
X73442842Y-72669702D01*
X73393849Y-72765858D01*
X73389347Y-72774694D01*
X73369500Y-72900000D01*
X73389347Y-73025306D01*
X73446944Y-73138347D01*
X73536653Y-73228056D01*
X73649694Y-73285653D01*
X73775000Y-73305500D01*
X73784792Y-73303949D01*
X73784793Y-73303949D01*
X73854289Y-73292942D01*
X73924701Y-73302042D01*
X73979015Y-73347764D01*
X74000000Y-73417391D01*
X74000000Y-77339702D01*
X73996852Y-77367692D01*
X73986638Y-77412523D01*
X73962388Y-77462978D01*
X73933764Y-77498957D01*
X73913874Y-77518901D01*
X73563104Y-77799517D01*
X73545470Y-77811334D01*
X73514816Y-77828323D01*
X73474890Y-77842329D01*
X73465183Y-77843982D01*
X73440341Y-77848212D01*
X73419190Y-77850000D01*
X70812410Y-77850000D01*
X70787829Y-77847579D01*
X70748047Y-77839666D01*
X70702626Y-77820852D01*
X70679418Y-77805345D01*
X70644655Y-77770582D01*
X70629148Y-77747374D01*
X70610334Y-77701953D01*
X70602421Y-77662171D01*
X70600000Y-77637590D01*
X70600000Y-74073372D01*
X70587764Y-74004489D01*
X70552551Y-73944035D01*
X69066165Y-72190861D01*
X68704632Y-71764437D01*
X68691863Y-71746374D01*
X68673503Y-71714854D01*
X68658321Y-71673472D01*
X68651942Y-71637561D01*
X68650000Y-71615524D01*
X68650000Y-71362712D01*
X68672534Y-71290803D01*
X68674264Y-71288314D01*
X68679321Y-71282638D01*
X68758641Y-71132829D01*
X68799937Y-70968423D01*
X68800824Y-70798912D01*
X68761252Y-70634082D01*
X68683505Y-70483450D01*
X68678516Y-70477730D01*
X68674242Y-70471442D01*
X68676344Y-70470013D01*
X68650362Y-70409875D01*
X68650000Y-70406199D01*
X68650000Y-70400000D01*
X68634776Y-70323463D01*
X68591421Y-70258579D01*
X68526537Y-70215224D01*
X68514368Y-70212804D01*
X68514367Y-70212803D01*
X68456068Y-70201207D01*
X68450000Y-70200000D01*
X70944500Y-70200000D01*
X70964347Y-70325306D01*
X71021944Y-70438347D01*
X71111653Y-70528056D01*
X71224694Y-70585653D01*
X71350000Y-70605500D01*
X71359792Y-70603949D01*
X71465514Y-70587204D01*
X71475306Y-70585653D01*
X71588347Y-70528056D01*
X71678056Y-70438347D01*
X71735653Y-70325306D01*
X71755500Y-70200000D01*
X71735653Y-70074694D01*
X71678056Y-69961653D01*
X71588347Y-69871944D01*
X71475306Y-69814347D01*
X71350000Y-69794500D01*
X71224694Y-69814347D01*
X71111653Y-69871944D01*
X71021944Y-69961653D01*
X70964347Y-70074694D01*
X70944500Y-70200000D01*
X68450000Y-70200000D01*
X68300687Y-70200000D01*
X68276008Y-70196882D01*
X68275451Y-70196665D01*
X68267924Y-70195674D01*
X68267920Y-70195673D01*
X68149157Y-70180038D01*
X68149156Y-70180038D01*
X68145070Y-70179500D01*
X67058683Y-70179500D01*
X66931715Y-70194865D01*
X66926951Y-70196665D01*
X66899387Y-70200000D01*
X66462410Y-70200000D01*
X66437829Y-70197579D01*
X66398047Y-70189666D01*
X66352626Y-70170852D01*
X66329418Y-70155345D01*
X66294655Y-70120582D01*
X66279148Y-70097374D01*
X66260334Y-70051953D01*
X66252421Y-70012171D01*
X66250000Y-69987590D01*
X66250000Y-69697726D01*
X66252537Y-69672571D01*
X66260818Y-69631927D01*
X66280498Y-69585633D01*
X66304016Y-69551472D01*
X66320368Y-69532191D01*
X67283571Y-68604013D01*
X68933186Y-67014384D01*
X68952066Y-66999396D01*
X68985338Y-66977826D01*
X69029867Y-66959863D01*
X69068791Y-66952308D01*
X69092799Y-66950000D01*
X70987590Y-66950000D01*
X71012171Y-66952421D01*
G37*
%TD.AperFunction*%
%TD*%
%TA.AperFunction,Conductor*%
%TO.N,+3.3V*%
G36*
X86463934Y-58851866D02*
G01*
X86476240Y-58854008D01*
X86499177Y-58858000D01*
X86539840Y-58872595D01*
X86570944Y-58890276D01*
X86588801Y-58902574D01*
X86752939Y-59037829D01*
X92294599Y-63604348D01*
X92299311Y-63607027D01*
X92299316Y-63607030D01*
X92344760Y-63632863D01*
X92354221Y-63638241D01*
X92364941Y-63640107D01*
X92364942Y-63640107D01*
X92416431Y-63649068D01*
X92416433Y-63649068D01*
X92421787Y-63650000D01*
X94087590Y-63650000D01*
X94112171Y-63652421D01*
X94151953Y-63660334D01*
X94197374Y-63679148D01*
X94220582Y-63694655D01*
X94255345Y-63729418D01*
X94270852Y-63752626D01*
X94289666Y-63798047D01*
X94297579Y-63837829D01*
X94300000Y-63862410D01*
X94300000Y-64559611D01*
X94295738Y-64592107D01*
X94282069Y-64643315D01*
X94249682Y-64699658D01*
X94224372Y-64725113D01*
X94168214Y-64757821D01*
X94117085Y-64771782D01*
X94084615Y-64776230D01*
X91014643Y-64793773D01*
X90156688Y-64798676D01*
X90010686Y-64799510D01*
X89932017Y-64816123D01*
X89921549Y-64823484D01*
X89921550Y-64823484D01*
X89871467Y-64858704D01*
X89871465Y-64858706D01*
X89866246Y-64862376D01*
X89740445Y-64995932D01*
X86343053Y-68602752D01*
X86323667Y-68619529D01*
X86289248Y-68643660D01*
X86242422Y-68663882D01*
X86201249Y-68672392D01*
X86175746Y-68675000D01*
X84887410Y-68675000D01*
X84862829Y-68672579D01*
X84823047Y-68664666D01*
X84777626Y-68645852D01*
X84754418Y-68630345D01*
X84719655Y-68595582D01*
X84704148Y-68572374D01*
X84685334Y-68526953D01*
X84677421Y-68487171D01*
X84675000Y-68462590D01*
X84675000Y-65082459D01*
X84659901Y-65006225D01*
X84616884Y-64941502D01*
X83991642Y-64312147D01*
X83957822Y-64249724D01*
X83961542Y-64200000D01*
X90064500Y-64200000D01*
X90084733Y-64314748D01*
X90142992Y-64415655D01*
X90232250Y-64490552D01*
X90341741Y-64530403D01*
X90458259Y-64530403D01*
X90567750Y-64490552D01*
X90657008Y-64415655D01*
X90715267Y-64314748D01*
X90735500Y-64200000D01*
X90715267Y-64085252D01*
X90657008Y-63984345D01*
X90567750Y-63909448D01*
X90458259Y-63869597D01*
X90341741Y-63869597D01*
X90232250Y-63909448D01*
X90142992Y-63984345D01*
X90084733Y-64085252D01*
X90064500Y-64200000D01*
X83961542Y-64200000D01*
X83963119Y-64178926D01*
X84005852Y-64122230D01*
X84072453Y-64097637D01*
X84119965Y-64103512D01*
X84149216Y-64113016D01*
X84149220Y-64113017D01*
X84155499Y-64115057D01*
X84162062Y-64115747D01*
X84162063Y-64115747D01*
X84186584Y-64118324D01*
X84302428Y-64130500D01*
X84697572Y-64130500D01*
X84813416Y-64118324D01*
X84837937Y-64115747D01*
X84837938Y-64115747D01*
X84844501Y-64115057D01*
X84902821Y-64096108D01*
X85024217Y-64056664D01*
X85024216Y-64056664D01*
X85030502Y-64054622D01*
X85036225Y-64051318D01*
X85194151Y-63960139D01*
X85194154Y-63960137D01*
X85199873Y-63956835D01*
X85345212Y-63825972D01*
X85440620Y-63694655D01*
X85456286Y-63673092D01*
X85456287Y-63673091D01*
X85460167Y-63667750D01*
X85472475Y-63640107D01*
X85537026Y-63495121D01*
X85537027Y-63495118D01*
X85539713Y-63489085D01*
X85566326Y-63363883D01*
X85579003Y-63304243D01*
X85579003Y-63304239D01*
X85580375Y-63297786D01*
X85580375Y-63102214D01*
X85574821Y-63076082D01*
X85541086Y-62917375D01*
X85539713Y-62910915D01*
X85537026Y-62904879D01*
X85462853Y-62738282D01*
X85462851Y-62738279D01*
X85460167Y-62732250D01*
X85389110Y-62634448D01*
X85349095Y-62579372D01*
X85349093Y-62579370D01*
X85345212Y-62574028D01*
X85199873Y-62443165D01*
X85194154Y-62439863D01*
X85194151Y-62439861D01*
X85036225Y-62348682D01*
X85036224Y-62348681D01*
X85030502Y-62345378D01*
X84954033Y-62320532D01*
X84850780Y-62286983D01*
X84850779Y-62286983D01*
X84844501Y-62284943D01*
X84837938Y-62284253D01*
X84837937Y-62284253D01*
X84813416Y-62281676D01*
X84697572Y-62269500D01*
X84302428Y-62269500D01*
X84186584Y-62281676D01*
X84162063Y-62284253D01*
X84162062Y-62284253D01*
X84155499Y-62284943D01*
X84149221Y-62286983D01*
X84149220Y-62286983D01*
X84045967Y-62320532D01*
X83969498Y-62345378D01*
X83963776Y-62348681D01*
X83963775Y-62348682D01*
X83805849Y-62439861D01*
X83805846Y-62439863D01*
X83800127Y-62443165D01*
X83654788Y-62574028D01*
X83650907Y-62579370D01*
X83650905Y-62579372D01*
X83610890Y-62634448D01*
X83539833Y-62732250D01*
X83537149Y-62738279D01*
X83537147Y-62738282D01*
X83462974Y-62904879D01*
X83460287Y-62910915D01*
X83458914Y-62917375D01*
X83425180Y-63076082D01*
X83419625Y-63102214D01*
X83419625Y-63297786D01*
X83420997Y-63304239D01*
X83420997Y-63304243D01*
X83449248Y-63437151D01*
X83443846Y-63507942D01*
X83401029Y-63564574D01*
X83334391Y-63589068D01*
X83265090Y-63573647D01*
X83236614Y-63552151D01*
X80938041Y-61238456D01*
X80933657Y-61234043D01*
X80868612Y-61190350D01*
X80856397Y-61187910D01*
X80856395Y-61187909D01*
X80826456Y-61181929D01*
X80791773Y-61175000D01*
X80087410Y-61175000D01*
X80062829Y-61172579D01*
X80023047Y-61164666D01*
X79977626Y-61145852D01*
X79954418Y-61130345D01*
X79919655Y-61095582D01*
X79904148Y-61072374D01*
X79885334Y-61026953D01*
X79877421Y-60987171D01*
X79875000Y-60962590D01*
X79875000Y-59062410D01*
X79877421Y-59037829D01*
X79885334Y-58998047D01*
X79904148Y-58952626D01*
X79919655Y-58929418D01*
X79954418Y-58894655D01*
X79977626Y-58879148D01*
X80023047Y-58860334D01*
X80062829Y-58852421D01*
X80087410Y-58850000D01*
X86442331Y-58850000D01*
X86463934Y-58851866D01*
G37*
%TD.AperFunction*%
%TD*%
%TA.AperFunction,Conductor*%
%TO.N,V_{snk}*%
G36*
X73344847Y-56125672D02*
G01*
X73385020Y-56133528D01*
X73430883Y-56152450D01*
X73434035Y-56154558D01*
X73454280Y-56168098D01*
X73489279Y-56203254D01*
X73504823Y-56226722D01*
X73523541Y-56272671D01*
X73531216Y-56312871D01*
X73533445Y-56337697D01*
X73487438Y-61168470D01*
X73488614Y-61174611D01*
X73488614Y-61174615D01*
X73494230Y-61203949D01*
X73502284Y-61246016D01*
X73545985Y-61311774D01*
X73578857Y-61333634D01*
X73601270Y-61348540D01*
X73601272Y-61348541D01*
X73611729Y-61355495D01*
X73624062Y-61357860D01*
X73624064Y-61357861D01*
X73649029Y-61362648D01*
X73689270Y-61370366D01*
X73689271Y-61370366D01*
X75500434Y-61353681D01*
X75813165Y-61350800D01*
X75835785Y-61352636D01*
X75872623Y-61359003D01*
X75915063Y-61374568D01*
X75947287Y-61393530D01*
X75965726Y-61406751D01*
X77903227Y-63079678D01*
X77941715Y-63139337D01*
X77944386Y-63180288D01*
X77946051Y-63180288D01*
X77946051Y-63190208D01*
X77944500Y-63200000D01*
X77964347Y-63325306D01*
X78021944Y-63438347D01*
X78070745Y-63487148D01*
X78104771Y-63549460D01*
X78099706Y-63620275D01*
X78060969Y-63671260D01*
X78061653Y-63671944D01*
X77971944Y-63761653D01*
X77914347Y-63874694D01*
X77894500Y-64000000D01*
X77914347Y-64125306D01*
X77971944Y-64238347D01*
X78061653Y-64328056D01*
X78174694Y-64385653D01*
X78300000Y-64405500D01*
X78309792Y-64403949D01*
X78415514Y-64387204D01*
X78425306Y-64385653D01*
X78538347Y-64328056D01*
X78628056Y-64238347D01*
X78685653Y-64125306D01*
X78701792Y-64023408D01*
X78732205Y-63959256D01*
X78792473Y-63921729D01*
X78863462Y-63922743D01*
X78908587Y-63947751D01*
X79756080Y-64679515D01*
X87316570Y-71207585D01*
X87355057Y-71267243D01*
X87355181Y-71338240D01*
X87316902Y-71398033D01*
X87252373Y-71427639D01*
X87194795Y-71418153D01*
X87193573Y-71421913D01*
X87184139Y-71418848D01*
X87175306Y-71414347D01*
X87050000Y-71394500D01*
X86924694Y-71414347D01*
X86811653Y-71471944D01*
X86721944Y-71561653D01*
X86664347Y-71674694D01*
X86644500Y-71800000D01*
X86646051Y-71809792D01*
X86661853Y-71909557D01*
X86664347Y-71925306D01*
X86703807Y-72002750D01*
X86721944Y-72038347D01*
X86719684Y-72039498D01*
X86738705Y-72092809D01*
X86722922Y-72160675D01*
X86721944Y-72161653D01*
X86664347Y-72274694D01*
X86662796Y-72284486D01*
X86648101Y-72377265D01*
X86617688Y-72441418D01*
X86557420Y-72478945D01*
X86503941Y-72482003D01*
X86434793Y-72471051D01*
X86434792Y-72471051D01*
X86425000Y-72469500D01*
X86415208Y-72471051D01*
X86318092Y-72486433D01*
X86299694Y-72489347D01*
X86186653Y-72546944D01*
X86096944Y-72636653D01*
X86039347Y-72749694D01*
X86019500Y-72875000D01*
X86039347Y-73000306D01*
X86096944Y-73113347D01*
X86098045Y-73114448D01*
X86120344Y-73176940D01*
X86106817Y-73241340D01*
X86079294Y-73295358D01*
X86064347Y-73324694D01*
X86044500Y-73450000D01*
X86064347Y-73575306D01*
X86121944Y-73688347D01*
X86211653Y-73778056D01*
X86324694Y-73835653D01*
X86450000Y-73855500D01*
X86459792Y-73853949D01*
X86565514Y-73837204D01*
X86575306Y-73835653D01*
X86688347Y-73778056D01*
X86778056Y-73688347D01*
X86835653Y-73575306D01*
X86839699Y-73549761D01*
X86870112Y-73485608D01*
X86930381Y-73448082D01*
X86983859Y-73445024D01*
X87050000Y-73455500D01*
X87059792Y-73453949D01*
X87165514Y-73437204D01*
X87175306Y-73435653D01*
X87288347Y-73378056D01*
X87378056Y-73288347D01*
X87435653Y-73175306D01*
X87455500Y-73050000D01*
X87435653Y-72924694D01*
X87378056Y-72811653D01*
X87371041Y-72804638D01*
X87366991Y-72799064D01*
X87343131Y-72732197D01*
X87359209Y-72663045D01*
X87366991Y-72650936D01*
X87371041Y-72645362D01*
X87378056Y-72638347D01*
X87435653Y-72525306D01*
X87441349Y-72489347D01*
X87453949Y-72409792D01*
X87455500Y-72400000D01*
X87440532Y-72305500D01*
X87437204Y-72284486D01*
X87435653Y-72274694D01*
X87378056Y-72161653D01*
X87380316Y-72160502D01*
X87361295Y-72107191D01*
X87377078Y-72039325D01*
X87378056Y-72038347D01*
X87396194Y-72002750D01*
X87431152Y-71934139D01*
X87435653Y-71925306D01*
X87438148Y-71909557D01*
X87453949Y-71809792D01*
X87455500Y-71800000D01*
X87435653Y-71674694D01*
X87431152Y-71665861D01*
X87431151Y-71665857D01*
X87395917Y-71596705D01*
X87382813Y-71526928D01*
X87409514Y-71461144D01*
X87467542Y-71420238D01*
X87538473Y-71417198D01*
X87590530Y-71444135D01*
X87720434Y-71556301D01*
X87738855Y-71576025D01*
X87765363Y-71611337D01*
X87787705Y-71660146D01*
X87797109Y-71703288D01*
X87800000Y-71730123D01*
X87800000Y-77950000D01*
X87815224Y-78026537D01*
X87858579Y-78091421D01*
X87923463Y-78134776D01*
X87935632Y-78137196D01*
X87935633Y-78137197D01*
X87991349Y-78148279D01*
X88000000Y-78150000D01*
X88637590Y-78150000D01*
X88662171Y-78152421D01*
X88701953Y-78160334D01*
X88747374Y-78179148D01*
X88770582Y-78194655D01*
X88805345Y-78229418D01*
X88820852Y-78252626D01*
X88839666Y-78298047D01*
X88847579Y-78337829D01*
X88850000Y-78362410D01*
X88850000Y-80837590D01*
X88847579Y-80862171D01*
X88839666Y-80901953D01*
X88820852Y-80947374D01*
X88805345Y-80970582D01*
X88770582Y-81005345D01*
X88747374Y-81020852D01*
X88701953Y-81039666D01*
X88662171Y-81047579D01*
X88637590Y-81050000D01*
X79917951Y-81050000D01*
X79892964Y-81047497D01*
X79852570Y-81039324D01*
X79806525Y-81019896D01*
X79783120Y-81003921D01*
X79748250Y-80968122D01*
X79732895Y-80944303D01*
X79714685Y-80897762D01*
X79707578Y-80857168D01*
X79705734Y-80832124D01*
X79747299Y-79252631D01*
X79750760Y-79226436D01*
X79760899Y-79184358D01*
X79783599Y-79136951D01*
X79810022Y-79102673D01*
X79828264Y-79083549D01*
X80266440Y-78711513D01*
X80327303Y-78683272D01*
X80600269Y-78637838D01*
X80600277Y-78637836D01*
X80604003Y-78637216D01*
X80916455Y-78545553D01*
X81215633Y-78417016D01*
X81218911Y-78415112D01*
X81218917Y-78415109D01*
X81420453Y-78298047D01*
X81497201Y-78253468D01*
X81500226Y-78251184D01*
X81500234Y-78251179D01*
X81754055Y-78059563D01*
X81757082Y-78057278D01*
X81991511Y-77831288D01*
X81993905Y-77828348D01*
X81993910Y-77828342D01*
X82194692Y-77581719D01*
X82197092Y-77578771D01*
X82246793Y-77500000D01*
X82368826Y-77306590D01*
X82368827Y-77306587D01*
X82370848Y-77303385D01*
X82510261Y-77009118D01*
X82613312Y-76700235D01*
X82678509Y-76381208D01*
X82704907Y-76056660D01*
X82705500Y-76000000D01*
X82698607Y-75885653D01*
X82686133Y-75678748D01*
X82686133Y-75678744D01*
X82685905Y-75674970D01*
X82684030Y-75664705D01*
X82628084Y-75358370D01*
X82628083Y-75358366D01*
X82627404Y-75354648D01*
X82530844Y-75043674D01*
X82495173Y-74964115D01*
X82430522Y-74819925D01*
X82419499Y-74767223D01*
X82431658Y-73437204D01*
X82439730Y-72554366D01*
X82460353Y-72486433D01*
X82508522Y-72443253D01*
X82529512Y-72432558D01*
X82529514Y-72432557D01*
X82538347Y-72428056D01*
X82628056Y-72338347D01*
X82685653Y-72225306D01*
X82705500Y-72100000D01*
X82685653Y-71974694D01*
X82628056Y-71861653D01*
X82538347Y-71771944D01*
X82425306Y-71714347D01*
X82300000Y-71694500D01*
X82174694Y-71714347D01*
X82129829Y-71737207D01*
X82060052Y-71750311D01*
X81991224Y-71721115D01*
X81985830Y-71716549D01*
X76184303Y-66806152D01*
X75733980Y-66425000D01*
X77219500Y-66425000D01*
X77239347Y-66550306D01*
X77296944Y-66663347D01*
X77386653Y-66753056D01*
X77499694Y-66810653D01*
X77625000Y-66830500D01*
X77634792Y-66828949D01*
X77740514Y-66812204D01*
X77750306Y-66810653D01*
X77863347Y-66753056D01*
X77953056Y-66663347D01*
X78010653Y-66550306D01*
X78030500Y-66425000D01*
X78010653Y-66299694D01*
X77953056Y-66186653D01*
X77863347Y-66096944D01*
X77750306Y-66039347D01*
X77625000Y-66019500D01*
X77499694Y-66039347D01*
X77386653Y-66096944D01*
X77296944Y-66186653D01*
X77239347Y-66299694D01*
X77219500Y-66425000D01*
X75733980Y-66425000D01*
X75410795Y-66151457D01*
X75410793Y-66151456D01*
X75406526Y-66147844D01*
X75345477Y-66112476D01*
X75334440Y-66110576D01*
X75281455Y-66101455D01*
X75281453Y-66101455D01*
X75275947Y-66100507D01*
X75275946Y-66100507D01*
X75270357Y-66100545D01*
X75270354Y-66100545D01*
X71718374Y-66124874D01*
X69383471Y-66140867D01*
X69325407Y-66127136D01*
X69300306Y-66114347D01*
X69175000Y-66094500D01*
X69049694Y-66114347D01*
X69040866Y-66118845D01*
X69040863Y-66118846D01*
X69018933Y-66130020D01*
X68962595Y-66143749D01*
X68524967Y-66146747D01*
X68456711Y-66127212D01*
X68411837Y-66077952D01*
X68382558Y-66020487D01*
X68382555Y-66020483D01*
X68378056Y-66011653D01*
X68288347Y-65921944D01*
X68175306Y-65864347D01*
X68165516Y-65862796D01*
X68165515Y-65862796D01*
X68156289Y-65861335D01*
X68092136Y-65830922D01*
X68054609Y-65770654D01*
X68050000Y-65736886D01*
X68050000Y-64450000D01*
X68444500Y-64450000D01*
X68464347Y-64575306D01*
X68521944Y-64688347D01*
X68611653Y-64778056D01*
X68724694Y-64835653D01*
X68850000Y-64855500D01*
X68859792Y-64853949D01*
X68965514Y-64837204D01*
X68975306Y-64835653D01*
X69088347Y-64778056D01*
X69178056Y-64688347D01*
X69235653Y-64575306D01*
X69255500Y-64450000D01*
X69235653Y-64324694D01*
X69178056Y-64211653D01*
X69088347Y-64121944D01*
X68975306Y-64064347D01*
X68850000Y-64044500D01*
X68724694Y-64064347D01*
X68611653Y-64121944D01*
X68521944Y-64211653D01*
X68464347Y-64324694D01*
X68444500Y-64450000D01*
X68050000Y-64450000D01*
X68050000Y-61300685D01*
X68070002Y-61232564D01*
X68123658Y-61186071D01*
X68193932Y-61175967D01*
X68214936Y-61180852D01*
X68215862Y-61181153D01*
X68224694Y-61185653D01*
X68234484Y-61187204D01*
X68234485Y-61187204D01*
X68340208Y-61203949D01*
X68350000Y-61205500D01*
X68359792Y-61203949D01*
X68465514Y-61187204D01*
X68475306Y-61185653D01*
X68588347Y-61128056D01*
X68678056Y-61038347D01*
X68735653Y-60925306D01*
X68755500Y-60800000D01*
X68735653Y-60674694D01*
X68678056Y-60561653D01*
X68671040Y-60554637D01*
X68668080Y-60550563D01*
X68644220Y-60483696D01*
X68660298Y-60414544D01*
X68673363Y-60397348D01*
X68673250Y-60397266D01*
X68679077Y-60389246D01*
X68686089Y-60382234D01*
X68743686Y-60269193D01*
X68763533Y-60143887D01*
X68743686Y-60018581D01*
X68686089Y-59905540D01*
X68596380Y-59815831D01*
X68587547Y-59811330D01*
X68587545Y-59811329D01*
X68537196Y-59785675D01*
X68485580Y-59736927D01*
X68468514Y-59668012D01*
X68491414Y-59600811D01*
X68505303Y-59584313D01*
X71262583Y-56827033D01*
X71262585Y-56827030D01*
X71922756Y-56166859D01*
X71985068Y-56132833D01*
X72011212Y-56129956D01*
X72765934Y-56126137D01*
X73320038Y-56123333D01*
X73344847Y-56125672D01*
G37*
%TD.AperFunction*%
%TD*%
M02*
