M48
; DRILL file {KiCad 5.99.0-5f22025611} date Fri Jun 18 16:30:26 2021
; FORMAT={-:-/ absolute / metric / decimal}
; #@! TF.CreationDate,2021-06-18T16:30:26+00:00
; #@! TF.GenerationSoftware,Kicad,Pcbnew,5.99.0-5f22025611
; #@! TF.FileFunction,Plated,1,4,PTH
FMAT,2
METRIC
; #@! TA.AperFunction,Plated,PTH,ViaDrill
T1C0.200
; #@! TA.AperFunction,Plated,PTH,ViaDrill
T2C0.400
; #@! TA.AperFunction,Plated,PTH,ComponentDrill
T3C0.500
; #@! TA.AperFunction,Plated,PTH,ComponentDrill
T4C1.000
%
G90
G05
T1
X63.8Y-75.05
X64.65Y-73.3
X65.137Y-72.609
X68.05Y-66.25
X68.35Y-60.8
X68.358Y-60.144
X68.85Y-64.45
X69.175Y-66.5
X69.2Y-79.0
X69.75Y-77.4
X69.95Y-74.25
X70.0Y-75.2
X71.35Y-70.2
X73.775Y-71.725
X73.775Y-72.325
X73.775Y-72.9
X74.5Y-55.65
X74.5Y-78.15
X75.05Y-74.3
X75.15Y-55.65
X76.65Y-75.5
X77.5Y-78.05
X77.625Y-66.425
X78.3Y-60.95
X78.3Y-64.0
X78.35Y-63.2
X78.9Y-60.95
X79.5Y-60.95
X82.3Y-72.1
X83.4Y-55.55
X84.3Y-65.125
X85.25Y-67.1
X85.25Y-67.7
X85.25Y-68.3
X85.8Y-67.1
X85.8Y-67.7
X85.8Y-68.3
X86.425Y-72.875
X86.45Y-73.45
X87.05Y-71.8
X87.05Y-72.4
X87.05Y-73.05
X87.2Y-69.825
X89.4Y-62.0
X89.7Y-68.575
X90.3Y-68.575
X90.4Y-64.2
X90.425Y-68.0
X90.9Y-68.4
X91.1Y-61.75
X92.3Y-62.925
X92.65Y-63.95
X93.25Y-63.95
X93.9Y-63.95
X94.05Y-66.2
X94.775Y-64.05
X94.824Y-66.256
X95.45Y-64.075
X95.6Y-66.35
X95.65Y-67.1
X95.875Y-64.5
X95.875Y-65.15
T2
X63.7Y-71.925
X66.1Y-74.6
X66.1Y-75.95
X67.0Y-69.65
X67.8Y-69.05
X68.65Y-68.3
X69.2Y-59.5
X69.55Y-67.75
X69.95Y-58.8
X70.15Y-59.8
X71.1Y-60.1
X71.35Y-75.25
X73.25Y-77.45
X73.7Y-76.55
X74.0Y-62.6
X74.0Y-63.65
X74.55Y-59.7
X74.8Y-60.75
X75.025Y-70.325
X75.25Y-62.6
X75.25Y-63.65
X75.3Y-64.85
X76.35Y-62.6
X76.375Y-63.65
X76.775Y-72.675
X77.45Y-71.7
X78.1Y-70.7
X78.225Y-72.55
X78.725Y-79.15
X79.575Y-72.575
X80.35Y-79.45
X80.35Y-80.5
X80.45Y-59.25
X80.45Y-60.2
X81.3Y-80.0
X81.35Y-78.95
X81.8Y-59.25
X81.8Y-60.2
X82.25Y-79.4
X82.25Y-80.55
X82.3Y-78.25
X83.4Y-80.6
X84.55Y-80.6
X87.3Y-80.35
X88.4Y-78.75
X88.4Y-80.4
T4
X90.6Y-71.28
X90.6Y-73.82
X90.6Y-76.36
X90.6Y-78.9
T3
G00X64.15Y-70.88
M15
G01X63.45Y-70.88
M16
G05
G00X64.15Y-79.52
M15
G01X63.45Y-79.52
M16
G05
G00X67.95Y-70.88
M15
G01X67.25Y-70.88
M16
G05
G00X67.95Y-79.52
M15
G01X67.25Y-79.52
M16
G05
T0
M30
