%TF.GenerationSoftware,KiCad,Pcbnew,5.99.0-5f22025611*%
%TF.CreationDate,2021-06-18T16:30:18+00:00*%
%TF.ProjectId,driver,64726976-6572-42e6-9b69-6361645f7063,rev?*%
%TF.SameCoordinates,Original*%
%TF.FileFunction,Profile,NP*%
%FSLAX46Y46*%
G04 Gerber Fmt 4.6, Leading zero omitted, Abs format (unit mm)*
G04 Created by KiCad (PCBNEW 5.99.0-5f22025611) date 2021-06-18 16:30:18*
%MOMM*%
%LPD*%
G01*
G04 APERTURE LIST*
%TA.AperFunction,Profile*%
%ADD10C,0.160000*%
%TD*%
G04 APERTURE END LIST*
D10*
X61675000Y-81000000D02*
X63317000Y-81000000D01*
X64975000Y-81500000D02*
X94975000Y-81500000D01*
X96475000Y-80000000D02*
X96475000Y-64177000D01*
X88229000Y-54500000D02*
X71721000Y-54500000D01*
X61675000Y-81000000D02*
X61675000Y-70000000D01*
X61675000Y-70000000D02*
X61975000Y-70000000D01*
X63475000Y-68500000D02*
X63475000Y-64177000D01*
X66180223Y-61546547D02*
G75*
G02*
X64892000Y-63268000I-830223J-721453D01*
G01*
X70268601Y-55624726D02*
G75*
G02*
X66541000Y-59972000I-6293601J1624726D01*
G01*
X93408972Y-59972484D02*
G75*
G02*
X89681000Y-55625000I2566028J5972484D01*
G01*
X95058895Y-63267909D02*
G75*
G02*
X93769000Y-61547000I-458895J999909D01*
G01*
X63474915Y-64176667D02*
G75*
G02*
X64892000Y-63268000I1000085J-333D01*
G01*
X66180883Y-61547037D02*
G75*
G02*
X66541000Y-59972000I755117J656037D01*
G01*
X93409000Y-59972123D02*
G75*
G02*
X93769000Y-61547000I-395000J-918877D01*
G01*
X95058338Y-63267938D02*
G75*
G02*
X96475000Y-64177000I416662J-909062D01*
G01*
X63316878Y-81000086D02*
G75*
G02*
X64146000Y-81250000I122J-1499914D01*
G01*
X64975122Y-81499914D02*
G75*
G02*
X64146000Y-81250000I-122J1499914D01*
G01*
X96475000Y-80000000D02*
G75*
G02*
X94975000Y-81500000I-1500000J0D01*
G01*
X70268634Y-55624988D02*
G75*
G02*
X71721000Y-54500000I1452366J-375012D01*
G01*
X88228921Y-54500357D02*
G75*
G02*
X89681000Y-55625000I79J-1499643D01*
G01*
X63475000Y-68500000D02*
G75*
G02*
X61975000Y-70000000I-1500000J0D01*
G01*
M02*
