%TF.GenerationSoftware,KiCad,Pcbnew,5.99.0-5f22025611*%
%TF.CreationDate,2021-06-18T16:30:17+00:00*%
%TF.ProjectId,driver,64726976-6572-42e6-9b69-6361645f7063,rev?*%
%TF.SameCoordinates,Original*%
%TF.FileFunction,Copper,L1,Top*%
%TF.FilePolarity,Positive*%
%FSLAX46Y46*%
G04 Gerber Fmt 4.6, Leading zero omitted, Abs format (unit mm)*
G04 Created by KiCad (PCBNEW 5.99.0-5f22025611) date 2021-06-18 16:30:17*
%MOMM*%
%LPD*%
G01*
G04 APERTURE LIST*
G04 Aperture macros list*
%AMRoundRect*
0 Rectangle with rounded corners*
0 $1 Rounding radius*
0 $2 $3 $4 $5 $6 $7 $8 $9 X,Y pos of 4 corners*
0 Add a 4 corners polygon primitive as box body*
4,1,4,$2,$3,$4,$5,$6,$7,$8,$9,$2,$3,0*
0 Add four circle primitives for the rounded corners*
1,1,$1+$1,$2,$3*
1,1,$1+$1,$4,$5*
1,1,$1+$1,$6,$7*
1,1,$1+$1,$8,$9*
0 Add four rect primitives between the rounded corners*
20,1,$1+$1,$2,$3,$4,$5,0*
20,1,$1+$1,$4,$5,$6,$7,0*
20,1,$1+$1,$6,$7,$8,$9,0*
20,1,$1+$1,$8,$9,$2,$3,0*%
G04 Aperture macros list end*
%TA.AperFunction,SMDPad,CuDef*%
%ADD10RoundRect,0.150000X0.150000X-0.587500X0.150000X0.587500X-0.150000X0.587500X-0.150000X-0.587500X0*%
%TD*%
%TA.AperFunction,SMDPad,CuDef*%
%ADD11RoundRect,0.062500X0.072500X0.062500X-0.072500X0.062500X-0.072500X-0.062500X0.072500X-0.062500X0*%
%TD*%
%TA.AperFunction,SMDPad,CuDef*%
%ADD12RoundRect,0.062500X-0.062500X0.072500X-0.062500X-0.072500X0.062500X-0.072500X0.062500X0.072500X0*%
%TD*%
%TA.AperFunction,SMDPad,CuDef*%
%ADD13RoundRect,0.062500X0.062500X-0.072500X0.062500X0.072500X-0.062500X0.072500X-0.062500X-0.072500X0*%
%TD*%
%TA.AperFunction,SMDPad,CuDef*%
%ADD14RoundRect,0.135000X0.135000X0.185000X-0.135000X0.185000X-0.135000X-0.185000X0.135000X-0.185000X0*%
%TD*%
%TA.AperFunction,SMDPad,CuDef*%
%ADD15RoundRect,0.250000X0.475000X-0.250000X0.475000X0.250000X-0.475000X0.250000X-0.475000X-0.250000X0*%
%TD*%
%TA.AperFunction,SMDPad,CuDef*%
%ADD16RoundRect,0.156250X0.343750X-0.156250X0.343750X0.156250X-0.343750X0.156250X-0.343750X-0.156250X0*%
%TD*%
%TA.AperFunction,SMDPad,CuDef*%
%ADD17RoundRect,0.135000X-0.135000X-0.185000X0.135000X-0.185000X0.135000X0.185000X-0.135000X0.185000X0*%
%TD*%
%TA.AperFunction,ComponentPad*%
%ADD18R,1.700000X1.700000*%
%TD*%
%TA.AperFunction,ComponentPad*%
%ADD19O,1.700000X1.700000*%
%TD*%
%TA.AperFunction,SMDPad,CuDef*%
%ADD20R,1.100000X1.500000*%
%TD*%
%TA.AperFunction,SMDPad,CuDef*%
%ADD21R,1.150000X0.700000*%
%TD*%
%TA.AperFunction,SMDPad,CuDef*%
%ADD22R,1.150000X0.800000*%
%TD*%
%TA.AperFunction,SMDPad,CuDef*%
%ADD23R,1.150000X0.900000*%
%TD*%
%TA.AperFunction,ComponentPad*%
%ADD24O,2.000000X1.000000*%
%TD*%
%TA.AperFunction,SMDPad,CuDef*%
%ADD25RoundRect,0.140000X-0.140000X-0.170000X0.140000X-0.170000X0.140000X0.170000X-0.140000X0.170000X0*%
%TD*%
%TA.AperFunction,ConnectorPad*%
%ADD26C,0.787400*%
%TD*%
%TA.AperFunction,SMDPad,CuDef*%
%ADD27RoundRect,0.156250X-0.343750X0.156250X-0.343750X-0.156250X0.343750X-0.156250X0.343750X0.156250X0*%
%TD*%
%TA.AperFunction,SMDPad,CuDef*%
%ADD28RoundRect,0.250000X-0.450000X0.262500X-0.450000X-0.262500X0.450000X-0.262500X0.450000X0.262500X0*%
%TD*%
%TA.AperFunction,SMDPad,CuDef*%
%ADD29RoundRect,0.300000X0.750000X-0.300000X0.750000X0.300000X-0.750000X0.300000X-0.750000X-0.300000X0*%
%TD*%
%TA.AperFunction,SMDPad,CuDef*%
%ADD30RoundRect,0.325000X0.875000X-0.325000X0.875000X0.325000X-0.875000X0.325000X-0.875000X-0.325000X0*%
%TD*%
%TA.AperFunction,SMDPad,CuDef*%
%ADD31RoundRect,0.937500X1.062500X-0.937500X1.062500X0.937500X-1.062500X0.937500X-1.062500X-0.937500X0*%
%TD*%
%TA.AperFunction,SMDPad,CuDef*%
%ADD32RoundRect,0.625000X0.975000X-0.625000X0.975000X0.625000X-0.975000X0.625000X-0.975000X-0.625000X0*%
%TD*%
%TA.AperFunction,ViaPad*%
%ADD33C,0.800000*%
%TD*%
%TA.AperFunction,ViaPad*%
%ADD34C,0.400000*%
%TD*%
%TA.AperFunction,Conductor*%
%ADD35C,0.500000*%
%TD*%
%TA.AperFunction,Conductor*%
%ADD36C,0.200000*%
%TD*%
%TA.AperFunction,Conductor*%
%ADD37C,0.150000*%
%TD*%
G04 APERTURE END LIST*
D10*
%TO.P,D111,1,A*%
%TO.N,GND*%
X71350000Y-80087500D03*
%TO.P,D111,2*%
%TO.N,N/C*%
X73250000Y-80087500D03*
%TO.P,D111,3,K*%
%TO.N,Net-(D111-Pad3)*%
X72300000Y-78212500D03*
%TD*%
D11*
%TO.P,D112,1,A1*%
%TO.N,GND*%
X87710000Y-70900000D03*
%TO.P,D112,2,A2*%
%TO.N,/FAN_VOLTAGE_SEL*%
X87290000Y-70900000D03*
%TD*%
%TO.P,D102,1,A1*%
%TO.N,GND*%
X70610000Y-75700000D03*
%TO.P,D102,2,A2*%
%TO.N,/CC2*%
X70190000Y-75700000D03*
%TD*%
D12*
%TO.P,D110,1,A1*%
%TO.N,GND*%
X89600000Y-62790000D03*
%TO.P,D110,2,A2*%
%TO.N,/POT_WIPER*%
X89600000Y-63210000D03*
%TD*%
D13*
%TO.P,D109,1,A1*%
%TO.N,GND*%
X70650000Y-66210000D03*
%TO.P,D109,2,A2*%
%TO.N,/SW2*%
X70650000Y-65790000D03*
%TD*%
D14*
%TO.P,D104,1,K*%
%TO.N,Net-(C103-Pad1)*%
X75410000Y-72600000D03*
%TO.P,D104,2,A*%
%TO.N,V_{bus}*%
X74390000Y-72600000D03*
%TD*%
D15*
%TO.P,C102,1*%
%TO.N,V_{bus}*%
X72600000Y-72250000D03*
%TO.P,C102,2*%
%TO.N,GND*%
X72600000Y-70350000D03*
%TD*%
D16*
%TO.P,D106,1,K*%
%TO.N,/FAN_TACHO*%
X88700000Y-75025000D03*
%TO.P,D106,2,A*%
%TO.N,GND*%
X88700000Y-73775000D03*
%TD*%
D17*
%TO.P,R103,1*%
%TO.N,V_{bus}*%
X74390000Y-73600000D03*
%TO.P,R103,2*%
%TO.N,Net-(C103-Pad1)*%
X75410000Y-73600000D03*
%TD*%
D18*
%TO.P,J102,1,Pin_1*%
%TO.N,GND*%
X90600000Y-78900000D03*
D19*
%TO.P,J102,2,Pin_2*%
%TO.N,/FAN_PWR*%
X90600000Y-76360000D03*
%TO.P,J102,3,Pin_3*%
%TO.N,/FAN_TACHO*%
X90600000Y-73820000D03*
%TO.P,J102,4,Pin_4*%
%TO.N,/FAN_PWM*%
X90600000Y-71280000D03*
%TD*%
D20*
%TO.P,SW101,1*%
%TO.N,GND*%
X85900000Y-79960000D03*
%TO.P,SW101,2*%
%TO.N,/FAN_VOLTAGE_SEL*%
X85900000Y-71059998D03*
%TD*%
D21*
%TO.P,J101,A5,CC1*%
%TO.N,/CC1*%
X67605000Y-74700000D03*
D22*
%TO.P,J101,A9,V-BUS*%
%TO.N,V_{bus}*%
X67605000Y-76720000D03*
D23*
%TO.P,J101,A12,GND*%
%TO.N,GND*%
X67605000Y-77950000D03*
D21*
%TO.P,J101,B5,CC2*%
%TO.N,/CC2*%
X67605000Y-75700000D03*
D22*
%TO.P,J101,B9,V-BUS*%
%TO.N,V_{bus}*%
X67605000Y-73680000D03*
D23*
%TO.P,J101,B12,GND*%
%TO.N,GND*%
X67605000Y-72450000D03*
D24*
%TO.P,J101,S1,SHIELD*%
X67600000Y-70880000D03*
%TO.P,J101,S2,SHIELD*%
X67600000Y-79520000D03*
%TO.P,J101,S3,SHIELD*%
X63800000Y-70880000D03*
%TO.P,J101,S4,SHIELD*%
X63800000Y-79520000D03*
%TD*%
D25*
%TO.P,C103,1*%
%TO.N,Net-(C103-Pad1)*%
X75420000Y-71600000D03*
%TO.P,C103,2*%
%TO.N,GND*%
X76380000Y-71600000D03*
%TD*%
D26*
%TO.P,J103,1,Pin_1*%
%TO.N,V_{bus}*%
X75157937Y-76737624D03*
%TO.P,J103,2,Pin_2*%
%TO.N,/PROG_SCL*%
X76384663Y-76408924D03*
%TO.P,J103,3,Pin_3*%
%TO.N,unconnected-(J103-Pad3)*%
X75486637Y-77964350D03*
%TO.P,J103,4,Pin_4*%
%TO.N,/PROG_SDA*%
X76713363Y-77635650D03*
%TO.P,J103,5,Pin_5*%
%TO.N,/RESET*%
X75815337Y-79191076D03*
%TO.P,J103,6,Pin_6*%
%TO.N,GND*%
X77042063Y-78862376D03*
%TD*%
D27*
%TO.P,D107,1,K*%
%TO.N,/FAN_PWM*%
X88700000Y-71500000D03*
%TO.P,D107,2,A*%
%TO.N,GND*%
X88700000Y-72750000D03*
%TD*%
D11*
%TO.P,D103,1,A1*%
%TO.N,GND*%
X70610000Y-74700000D03*
%TO.P,D103,2,A2*%
%TO.N,/CC1*%
X70190000Y-74700000D03*
%TD*%
D17*
%TO.P,R107,1*%
%TO.N,/RESET*%
X69840000Y-76650000D03*
%TO.P,R107,2*%
%TO.N,GND*%
X70860000Y-76650000D03*
%TD*%
D28*
%TO.P,F101,1*%
%TO.N,V_{bus}*%
X72550000Y-73887500D03*
%TO.P,F101,2*%
%TO.N,Net-(D111-Pad3)*%
X72550000Y-75712500D03*
%TD*%
D27*
%TO.P,D105,1,K*%
%TO.N,/FAN_PWR*%
X88700000Y-76075000D03*
%TO.P,D105,2,A*%
%TO.N,GND*%
X88700000Y-77325000D03*
%TD*%
D29*
%TO.P,RV101,1,1*%
%TO.N,/POT_SUPPLY*%
X87450000Y-65200000D03*
%TO.P,RV101,2,2*%
%TO.N,/POT_WIPER*%
X87450000Y-63200000D03*
%TO.P,RV101,3,3*%
%TO.N,GND*%
X87450000Y-61200000D03*
D30*
%TO.P,RV101,4,4*%
%TO.N,/SW2*%
X73000000Y-65700000D03*
%TO.P,RV101,5,5*%
%TO.N,/SW1*%
X73000000Y-60700000D03*
D31*
%TO.P,RV101,MP,MountPin*%
%TO.N,GND*%
X80000000Y-56825000D03*
D32*
X87900000Y-68200000D03*
D31*
X80000000Y-69575000D03*
D32*
X87900000Y-58200000D03*
X72100000Y-68200000D03*
X72100000Y-58200000D03*
%TD*%
D16*
%TO.P,D101,1,K*%
%TO.N,V_{bus}*%
X69600000Y-73525000D03*
%TO.P,D101,2,A*%
%TO.N,GND*%
X69600000Y-72275000D03*
%TD*%
D12*
%TO.P,D108,1,A1*%
%TO.N,GND*%
X69200000Y-60390000D03*
%TO.P,D108,2,A2*%
%TO.N,/SW1*%
X69200000Y-60810000D03*
%TD*%
D33*
%TO.N,V_{snk}*%
X81300000Y-80000000D03*
X88400000Y-80400000D03*
X82250000Y-80550000D03*
X74000000Y-63650000D03*
X69200000Y-59500000D03*
X82300000Y-78250000D03*
X69950000Y-58800000D03*
X82250000Y-79400000D03*
X76375000Y-63650000D03*
X71100000Y-60100000D03*
X75250000Y-62600000D03*
X81350000Y-78950000D03*
X74000000Y-62600000D03*
X75300000Y-64850000D03*
X87300000Y-80350000D03*
X84550000Y-80600000D03*
X75250000Y-63650000D03*
X80350000Y-79450000D03*
X70150000Y-59800000D03*
X76350000Y-62600000D03*
X80350000Y-80500000D03*
X83400000Y-80600000D03*
X88400000Y-78750000D03*
%TO.N,GND*%
X74800000Y-60750000D03*
D34*
X68358033Y-60143887D03*
X79500000Y-60950000D03*
D33*
X78225000Y-72550000D03*
D34*
X77625000Y-66425000D03*
X92300000Y-62925000D03*
X69175000Y-66500000D03*
X75150000Y-55650000D03*
X95875000Y-65150000D03*
D33*
X74550000Y-59700000D03*
D34*
X95875000Y-64500000D03*
D33*
X66100000Y-74600000D03*
D34*
X86425000Y-72875000D03*
X89700000Y-68575000D03*
D33*
X78100000Y-70700000D03*
X76775000Y-72675000D03*
D34*
X90900000Y-68400000D03*
D33*
X78725000Y-79150000D03*
X79575000Y-72575000D03*
D34*
X91100000Y-61750000D03*
D33*
X75025000Y-70325000D03*
D34*
X87050000Y-73050000D03*
X94775000Y-64050000D03*
D33*
X66100000Y-75950000D03*
D34*
X87050000Y-72400000D03*
X78300000Y-60950000D03*
X95450000Y-64075000D03*
X87050000Y-71800000D03*
X86450000Y-73450000D03*
X90300000Y-68575000D03*
X78900000Y-60950000D03*
D33*
X63700000Y-71925000D03*
D34*
X74500000Y-55650000D03*
D33*
X77450000Y-71700000D03*
D34*
X90425000Y-68000000D03*
%TO.N,V_{bus}*%
X73775000Y-72325000D03*
X73775000Y-71725000D03*
X73775000Y-72900000D03*
%TO.N,Net-(C103-Pad1)*%
X75050000Y-74300000D03*
X64650000Y-73300000D03*
%TO.N,+5V*%
X82300000Y-72100000D03*
X78300000Y-64000000D03*
D33*
%TO.N,+3.3V*%
X81800000Y-59250000D03*
D34*
X85250000Y-68300000D03*
D33*
X80450000Y-59250000D03*
X80450000Y-60200000D03*
D34*
X92650000Y-63950000D03*
X85800000Y-67100000D03*
X85250000Y-67700000D03*
X85250000Y-67100000D03*
D33*
X81800000Y-60200000D03*
D34*
X85800000Y-67700000D03*
X93900000Y-63950000D03*
X93250000Y-63950000D03*
X89400000Y-62000000D03*
X85800000Y-68300000D03*
%TO.N,/CC2*%
X70000000Y-75200000D03*
%TO.N,/CC1*%
X69950000Y-74250000D03*
%TO.N,/FAN_TACHO*%
X94824162Y-66255742D03*
%TO.N,/FAN_PWM*%
X94050000Y-66200000D03*
%TO.N,/SW1*%
X68350000Y-60800000D03*
%TO.N,/SW2*%
X68850000Y-64450000D03*
%TO.N,/POT_WIPER*%
X95650000Y-67100000D03*
D33*
%TO.N,Net-(D111-Pad3)*%
X73250000Y-77450000D03*
X69550000Y-67750000D03*
X67000000Y-69650000D03*
X71350000Y-75250000D03*
X73700000Y-76550000D03*
X67800000Y-69050000D03*
X68650000Y-68300000D03*
D34*
%TO.N,/FAN_VOLTAGE_SEL*%
X87200000Y-69825000D03*
%TO.N,/PROG_SCL*%
X76650000Y-75500000D03*
%TO.N,/PROG_SDA*%
X77500000Y-78050000D03*
%TO.N,/RESET*%
X74500000Y-78150000D03*
X69750000Y-77400000D03*
%TO.N,/REG_EN*%
X78350000Y-63200000D03*
X84300000Y-65125000D03*
X90400000Y-64200000D03*
%TO.N,Net-(R114-Pad1)*%
X63800000Y-75050000D03*
X68050000Y-66250000D03*
%TO.N,Net-(R115-Pad1)*%
X71350000Y-70200000D03*
X69200000Y-79000000D03*
%TO.N,/HI_PWR*%
X83400000Y-55550000D03*
X65136531Y-72609500D03*
%TO.N,/POT_SUPPLY*%
X95600000Y-66350000D03*
%TD*%
D35*
%TO.N,GND*%
X78437376Y-78862376D02*
X78725000Y-79150000D01*
D36*
X87925000Y-72750000D02*
X88700000Y-72750000D01*
D35*
X67705000Y-79625000D02*
X67600000Y-79520000D01*
D36*
X87710000Y-72535000D02*
X87925000Y-72750000D01*
D35*
X85325000Y-72750000D02*
X88700000Y-72750000D01*
D36*
X69200000Y-60390000D02*
X68604146Y-60390000D01*
D37*
X70610000Y-74700000D02*
X70610000Y-76400000D01*
X69465000Y-66210000D02*
X69175000Y-66500000D01*
X70650000Y-66210000D02*
X69465000Y-66210000D01*
D35*
X87900000Y-68200000D02*
X86169513Y-69930487D01*
D36*
X90060000Y-62790000D02*
X91100000Y-61750000D01*
D35*
X69650000Y-79625000D02*
X67705000Y-79625000D01*
D36*
X68604146Y-60390000D02*
X68358033Y-60143887D01*
D35*
X84550000Y-71975000D02*
X85325000Y-72750000D01*
X79250000Y-70325000D02*
X80000000Y-69575000D01*
X86169513Y-69930487D02*
X85125000Y-69930487D01*
D36*
X89600000Y-62790000D02*
X90060000Y-62790000D01*
D35*
X70860000Y-76650000D02*
X70860000Y-78415000D01*
X85125000Y-69930487D02*
X84550000Y-70505487D01*
D36*
X87710000Y-70900000D02*
X87710000Y-72535000D01*
D37*
X70610000Y-76400000D02*
X70860000Y-76650000D01*
D35*
X76380000Y-71600000D02*
X76380000Y-72280000D01*
X77042063Y-78862376D02*
X78437376Y-78862376D01*
X76380000Y-72280000D02*
X76775000Y-72675000D01*
X75025000Y-70325000D02*
X79250000Y-70325000D01*
X84550000Y-70505487D02*
X84550000Y-71975000D01*
X70860000Y-78415000D02*
X69650000Y-79625000D01*
%TO.N,V_{bus}*%
X71025000Y-73525000D02*
X71187500Y-73687500D01*
X74250000Y-74400000D02*
X73537500Y-73687500D01*
X67605000Y-76720000D02*
X67525489Y-76799511D01*
X68625000Y-73525000D02*
X69600000Y-73525000D01*
X65249511Y-76799511D02*
X64850000Y-76400000D01*
X67605000Y-73680000D02*
X68470000Y-73680000D01*
X74250000Y-74400000D02*
X73800000Y-73950000D01*
X73537500Y-73687500D02*
X72600000Y-73687500D01*
X72600000Y-73687500D02*
X72600000Y-72250000D01*
X75157937Y-76737624D02*
X75157937Y-76540141D01*
X69600000Y-73525000D02*
X71025000Y-73525000D01*
X68470000Y-73680000D02*
X68625000Y-73525000D01*
X67525489Y-76799511D02*
X65249511Y-76799511D01*
X64850000Y-74250000D02*
X65420000Y-73680000D01*
X64850000Y-76400000D02*
X64850000Y-74250000D01*
X74250000Y-75632204D02*
X74250000Y-74400000D01*
X65420000Y-73680000D02*
X67605000Y-73680000D01*
X75157937Y-76540141D02*
X74250000Y-75632204D01*
X72687500Y-73687500D02*
X72600000Y-73687500D01*
X71187500Y-73687500D02*
X72600000Y-73687500D01*
D37*
%TO.N,Net-(C103-Pad1)*%
X75410000Y-71710000D02*
X75420000Y-71700000D01*
X75410000Y-74090000D02*
X75410000Y-73600000D01*
X75200000Y-74300000D02*
X75410000Y-74090000D01*
X75410000Y-73600000D02*
X75410000Y-71710000D01*
X75050000Y-74300000D02*
X75200000Y-74300000D01*
%TO.N,/CC2*%
X67605000Y-75700000D02*
X70190000Y-75700000D01*
X70190000Y-75700000D02*
X70190000Y-75390000D01*
X70190000Y-75390000D02*
X70000000Y-75200000D01*
%TO.N,/CC1*%
X70190000Y-74490000D02*
X69950000Y-74250000D01*
X70190000Y-74700000D02*
X70190000Y-74490000D01*
X67605000Y-74700000D02*
X70190000Y-74700000D01*
%TO.N,/FAN_TACHO*%
X90600000Y-73820000D02*
X90070000Y-74350000D01*
X94824162Y-68275838D02*
X92250000Y-70850000D01*
X91825000Y-75025000D02*
X88700000Y-75025000D01*
X90070000Y-74350000D02*
X89375000Y-74350000D01*
X92250000Y-70850000D02*
X92250000Y-74600000D01*
X94824162Y-66255742D02*
X94824162Y-68275838D01*
X89375000Y-74350000D02*
X88700000Y-75025000D01*
X92250000Y-74600000D02*
X91825000Y-75025000D01*
%TO.N,/FAN_PWM*%
X94050000Y-67830000D02*
X94050000Y-66200000D01*
X92730000Y-69150000D02*
X94050000Y-67830000D01*
X90380000Y-71500000D02*
X90600000Y-71280000D01*
X88700000Y-71500000D02*
X90380000Y-71500000D01*
X90100000Y-69150000D02*
X92730000Y-69150000D01*
X88700000Y-71500000D02*
X88700000Y-70550000D01*
X88700000Y-70550000D02*
X90100000Y-69150000D01*
%TO.N,/SW1*%
X68360000Y-60810000D02*
X70400000Y-60810000D01*
X70400000Y-60810000D02*
X72890000Y-60810000D01*
X68350000Y-60800000D02*
X68360000Y-60810000D01*
X72890000Y-60810000D02*
X73000000Y-60700000D01*
%TO.N,/SW2*%
X72910000Y-65790000D02*
X73000000Y-65700000D01*
X68850000Y-64450000D02*
X70190000Y-65790000D01*
X70650000Y-65790000D02*
X72910000Y-65790000D01*
X70190000Y-65790000D02*
X70650000Y-65790000D01*
%TO.N,/POT_WIPER*%
X90810000Y-63210000D02*
X89600000Y-63210000D01*
X87460000Y-63210000D02*
X87450000Y-63200000D01*
X95650000Y-67100000D02*
X95650000Y-67000000D01*
X94500000Y-64450000D02*
X92050000Y-64450000D01*
X96050000Y-66600000D02*
X96050000Y-66000000D01*
X95650000Y-67000000D02*
X96050000Y-66600000D01*
X89600000Y-63210000D02*
X87460000Y-63210000D01*
X96050000Y-66000000D02*
X94500000Y-64450000D01*
X92050000Y-64450000D02*
X90810000Y-63210000D01*
D35*
%TO.N,Net-(D111-Pad3)*%
X72300000Y-75812500D02*
X72600000Y-75512500D01*
X72600000Y-75512500D02*
X72350000Y-75762500D01*
X72300000Y-76450000D02*
X72300000Y-78212500D01*
X72350000Y-76400000D02*
X72300000Y-76450000D01*
X72350000Y-75762500D02*
X72350000Y-76400000D01*
X72337500Y-75250000D02*
X72600000Y-75512500D01*
X71350000Y-75250000D02*
X72337500Y-75250000D01*
D37*
%TO.N,/FAN_VOLTAGE_SEL*%
X87290000Y-70900000D02*
X87290000Y-69915000D01*
X87290000Y-69915000D02*
X87200000Y-69825000D01*
X85900000Y-71059998D02*
X87130002Y-71059998D01*
X87130002Y-71059998D02*
X87290000Y-70900000D01*
%TO.N,/PROG_SCL*%
X76650000Y-76143587D02*
X76384663Y-76408924D01*
X76650000Y-75500000D02*
X76650000Y-76143587D01*
%TO.N,/PROG_SDA*%
X77500000Y-78050000D02*
X77250000Y-77800000D01*
X77135650Y-77635650D02*
X76713363Y-77635650D01*
X77250000Y-77800000D02*
X77250000Y-77750000D01*
X77250000Y-77750000D02*
X77135650Y-77635650D01*
%TO.N,/RESET*%
X75815337Y-79191076D02*
X75258562Y-79191076D01*
X74500000Y-78432514D02*
X74500000Y-78150000D01*
X69750000Y-77400000D02*
X69750000Y-76740000D01*
X69750000Y-76740000D02*
X69790000Y-76700000D01*
X75258562Y-79191076D02*
X74500000Y-78432514D01*
%TO.N,Net-(R114-Pad1)*%
X65750000Y-71150000D02*
X63800000Y-73100000D01*
X65750000Y-69450000D02*
X65750000Y-68550000D01*
X67450000Y-66850000D02*
X68050000Y-66250000D01*
X63800000Y-73100000D02*
X63800000Y-75050000D01*
X65750000Y-69450000D02*
X65750000Y-71150000D01*
X65750000Y-68550000D02*
X67450000Y-66850000D01*
%TO.N,/POT_SUPPLY*%
X95600000Y-66350000D02*
X94450000Y-65200000D01*
X94450000Y-65200000D02*
X87450000Y-65200000D01*
%TD*%
%TA.AperFunction,Conductor*%
%TO.N,GND*%
G36*
X88190162Y-54756963D02*
G01*
X88192322Y-54757440D01*
X88192328Y-54757441D01*
X88198367Y-54758774D01*
X88204550Y-54758904D01*
X88204554Y-54758904D01*
X88296744Y-54760835D01*
X88304647Y-54761249D01*
X88321321Y-54762649D01*
X88344669Y-54764610D01*
X88354770Y-54765872D01*
X88364388Y-54767470D01*
X88507313Y-54791229D01*
X88517468Y-54793350D01*
X88547376Y-54800894D01*
X88557324Y-54803844D01*
X88701794Y-54853242D01*
X88711450Y-54856994D01*
X88739760Y-54869361D01*
X88749075Y-54873895D01*
X88883489Y-54946324D01*
X88892404Y-54951613D01*
X88918288Y-54968447D01*
X88926731Y-54974446D01*
X89047438Y-55067934D01*
X89055367Y-55074615D01*
X89078146Y-55095472D01*
X89085504Y-55102789D01*
X89189228Y-55214793D01*
X89195960Y-55222692D01*
X89215004Y-55246996D01*
X89221062Y-55255420D01*
X89305019Y-55382934D01*
X89310352Y-55391808D01*
X89325168Y-55418934D01*
X89329752Y-55428219D01*
X89391653Y-55567766D01*
X89395466Y-55577416D01*
X89410489Y-55620552D01*
X89412808Y-55627932D01*
X89431009Y-55692756D01*
X89431414Y-55694235D01*
X89488424Y-55907204D01*
X89489270Y-55911436D01*
X89489431Y-55911398D01*
X89490844Y-55917418D01*
X89491662Y-55923562D01*
X89495602Y-55935115D01*
X89498056Y-55943184D01*
X89501219Y-55955000D01*
X89503954Y-55960549D01*
X89506133Y-55966343D01*
X89505978Y-55966401D01*
X89507633Y-55970389D01*
X89652043Y-56393798D01*
X89653335Y-56398491D01*
X89653345Y-56398488D01*
X89655214Y-56404391D01*
X89656494Y-56410445D01*
X89660487Y-56419766D01*
X89660629Y-56420097D01*
X89664059Y-56429027D01*
X89667448Y-56438964D01*
X89670553Y-56444324D01*
X89673114Y-56449954D01*
X89673103Y-56449959D01*
X89675282Y-56454305D01*
X89852129Y-56867145D01*
X89853774Y-56871728D01*
X89853785Y-56871724D01*
X89856094Y-56877461D01*
X89857831Y-56883403D01*
X89860694Y-56888892D01*
X89860695Y-56888895D01*
X89862687Y-56892715D01*
X89866788Y-56901364D01*
X89868480Y-56905315D01*
X89868483Y-56905320D01*
X89870919Y-56911007D01*
X89874421Y-56916115D01*
X89877401Y-56921531D01*
X89877390Y-56921537D01*
X89879894Y-56925705D01*
X90087593Y-57323929D01*
X90089577Y-57328364D01*
X90089588Y-57328359D01*
X90092327Y-57333908D01*
X90094511Y-57339702D01*
X90097781Y-57344955D01*
X90097783Y-57344959D01*
X90100050Y-57348600D01*
X90104801Y-57356922D01*
X90106796Y-57360747D01*
X90109657Y-57366232D01*
X90113530Y-57371051D01*
X90116919Y-57376236D01*
X90116910Y-57376242D01*
X90119730Y-57380217D01*
X90357064Y-57761495D01*
X90359383Y-57765774D01*
X90359393Y-57765768D01*
X90362545Y-57771091D01*
X90365164Y-57776705D01*
X90371372Y-57785169D01*
X90376731Y-57793090D01*
X90382282Y-57802008D01*
X90386517Y-57806525D01*
X90390289Y-57811437D01*
X90390280Y-57811444D01*
X90393390Y-57815190D01*
X90658997Y-58177340D01*
X90661631Y-58181426D01*
X90661641Y-58181419D01*
X90665192Y-58186493D01*
X90668228Y-58191889D01*
X90675063Y-58199860D01*
X90681006Y-58207349D01*
X90687218Y-58215819D01*
X90691783Y-58220001D01*
X90695917Y-58224611D01*
X90695908Y-58224619D01*
X90699297Y-58228121D01*
X90991641Y-58569047D01*
X90994583Y-58572927D01*
X90994592Y-58572920D01*
X90998516Y-58577707D01*
X91001952Y-58582855D01*
X91006324Y-58587231D01*
X91006326Y-58587234D01*
X91009366Y-58590277D01*
X91015871Y-58597305D01*
X91018670Y-58600569D01*
X91018678Y-58600577D01*
X91022704Y-58605272D01*
X91027569Y-58609092D01*
X91032041Y-58613375D01*
X91032033Y-58613383D01*
X91035673Y-58616613D01*
X91353078Y-58934358D01*
X91356304Y-58938001D01*
X91356313Y-58937992D01*
X91360585Y-58942462D01*
X91364408Y-58947343D01*
X91369109Y-58951382D01*
X91369113Y-58951387D01*
X91372367Y-58954183D01*
X91379388Y-58960697D01*
X91382425Y-58963737D01*
X91382430Y-58963741D01*
X91386804Y-58968120D01*
X91391949Y-58971562D01*
X91396730Y-58975490D01*
X91396723Y-58975499D01*
X91400598Y-58978444D01*
X91741214Y-59271157D01*
X91744712Y-59274549D01*
X91744720Y-59274540D01*
X91749322Y-59278676D01*
X91753500Y-59283247D01*
X91758487Y-59286913D01*
X91758495Y-59286920D01*
X91761968Y-59289473D01*
X91769454Y-59295427D01*
X91772713Y-59298227D01*
X91777410Y-59302263D01*
X91782800Y-59305303D01*
X91787867Y-59308858D01*
X91787860Y-59308867D01*
X91791938Y-59311502D01*
X91852464Y-59355993D01*
X92153819Y-59577511D01*
X92157560Y-59580624D01*
X92157567Y-59580614D01*
X92162470Y-59584388D01*
X92166983Y-59588629D01*
X92175894Y-59594189D01*
X92183818Y-59599563D01*
X92186632Y-59601631D01*
X92192268Y-59605774D01*
X92197872Y-59608395D01*
X92203194Y-59611555D01*
X92203188Y-59611565D01*
X92207464Y-59613888D01*
X92588493Y-59851635D01*
X92592458Y-59854453D01*
X92592464Y-59854444D01*
X92597650Y-59857842D01*
X92602466Y-59861722D01*
X92607948Y-59864589D01*
X92607950Y-59864590D01*
X92611761Y-59866583D01*
X92620065Y-59871336D01*
X92623725Y-59873619D01*
X92628979Y-59876897D01*
X92634768Y-59879086D01*
X92640315Y-59881832D01*
X92640310Y-59881842D01*
X92644754Y-59883836D01*
X92802686Y-59966423D01*
X93041186Y-60091142D01*
X93044866Y-60093382D01*
X93044948Y-60093237D01*
X93050342Y-60096275D01*
X93055411Y-60099825D01*
X93066599Y-60104750D01*
X93074193Y-60108402D01*
X93075799Y-60109242D01*
X93079402Y-60111126D01*
X93085024Y-60114066D01*
X93090963Y-60115809D01*
X93096703Y-60118126D01*
X93096640Y-60118281D01*
X93100688Y-60119757D01*
X93316981Y-60214974D01*
X93319221Y-60215986D01*
X93343906Y-60227438D01*
X93352264Y-60231701D01*
X93383889Y-60249343D01*
X93395191Y-60256458D01*
X93485700Y-60320378D01*
X93496027Y-60328511D01*
X93508101Y-60339087D01*
X93517522Y-60348252D01*
X93593785Y-60430609D01*
X93602197Y-60440701D01*
X93611823Y-60453561D01*
X93619136Y-60464477D01*
X93676661Y-60560861D01*
X93682804Y-60572494D01*
X93689540Y-60587042D01*
X93694437Y-60599251D01*
X93707431Y-60637288D01*
X93730722Y-60705468D01*
X93734313Y-60718103D01*
X93736225Y-60726465D01*
X93737892Y-60733758D01*
X93740149Y-60746714D01*
X93753616Y-60858144D01*
X93754510Y-60871266D01*
X93754764Y-60887300D01*
X93754285Y-60900448D01*
X93753979Y-60903892D01*
X93744350Y-61012245D01*
X93742507Y-61025248D01*
X93739427Y-61041003D01*
X93736233Y-61053759D01*
X93703324Y-61161079D01*
X93698817Y-61173436D01*
X93692546Y-61188187D01*
X93686775Y-61200005D01*
X93683660Y-61205622D01*
X93632329Y-61298161D01*
X93625355Y-61309317D01*
X93606963Y-61335581D01*
X93601171Y-61343217D01*
X93568924Y-61382529D01*
X93502857Y-61462655D01*
X93500670Y-61465234D01*
X93488872Y-61478767D01*
X93487271Y-61481559D01*
X93485226Y-61484039D01*
X93477111Y-61499138D01*
X93476749Y-61499811D01*
X93475081Y-61502816D01*
X93357627Y-61707639D01*
X93357606Y-61707701D01*
X93357575Y-61707755D01*
X93272911Y-61957635D01*
X93272903Y-61957694D01*
X93272882Y-61957756D01*
X93272097Y-61963635D01*
X93272096Y-61963640D01*
X93246368Y-62156377D01*
X93237972Y-62219270D01*
X93237976Y-62219336D01*
X93237968Y-62219397D01*
X93238338Y-62225428D01*
X93238338Y-62225429D01*
X93253593Y-62474073D01*
X93254124Y-62482736D01*
X93254140Y-62482798D01*
X93254144Y-62482859D01*
X93255623Y-62488527D01*
X93258313Y-62498837D01*
X93320759Y-62738144D01*
X93320786Y-62738199D01*
X93320802Y-62738262D01*
X93337041Y-62771945D01*
X93432721Y-62970410D01*
X93432724Y-62970415D01*
X93435377Y-62975918D01*
X93435416Y-62975970D01*
X93435443Y-62976026D01*
X93593681Y-63187140D01*
X93593731Y-63187184D01*
X93593766Y-63187232D01*
X93789731Y-63363883D01*
X93789787Y-63363916D01*
X93789833Y-63363958D01*
X93795249Y-63367202D01*
X93795252Y-63367204D01*
X93847902Y-63398737D01*
X93896065Y-63450898D01*
X93908382Y-63520818D01*
X93880942Y-63586298D01*
X93826256Y-63625233D01*
X93732250Y-63659448D01*
X93665650Y-63715333D01*
X93655992Y-63723437D01*
X93590952Y-63751902D01*
X93520847Y-63740685D01*
X93494008Y-63723437D01*
X93484351Y-63715333D01*
X93417750Y-63659448D01*
X93308259Y-63619597D01*
X93191741Y-63619597D01*
X93082250Y-63659448D01*
X93073804Y-63666535D01*
X93030992Y-63702459D01*
X92965951Y-63730924D01*
X92895846Y-63719707D01*
X92869008Y-63702459D01*
X92826196Y-63666535D01*
X92817750Y-63659448D01*
X92708259Y-63619597D01*
X92591741Y-63619597D01*
X92482250Y-63659448D01*
X92473804Y-63666535D01*
X92405992Y-63723437D01*
X92392992Y-63734345D01*
X92387482Y-63743889D01*
X92387481Y-63743890D01*
X92368214Y-63777261D01*
X92334733Y-63835252D01*
X92314500Y-63950000D01*
X92334733Y-64064748D01*
X92340245Y-64074295D01*
X92340649Y-64075405D01*
X92345152Y-64146259D01*
X92310634Y-64208299D01*
X92248054Y-64241829D01*
X92222248Y-64244500D01*
X92187310Y-64244500D01*
X92119189Y-64224498D01*
X92098215Y-64207595D01*
X91557156Y-63666535D01*
X90980144Y-63089523D01*
X90979423Y-63088715D01*
X90974739Y-63078961D01*
X90954442Y-63062729D01*
X90945647Y-63054857D01*
X90944812Y-63054191D01*
X90939811Y-63049190D01*
X90933823Y-63045427D01*
X90932585Y-63044439D01*
X90923486Y-63037973D01*
X90912697Y-63029345D01*
X90912698Y-63029345D01*
X90901616Y-63020483D01*
X90889822Y-63017771D01*
X90879574Y-63011330D01*
X90851732Y-63008182D01*
X90840487Y-63006259D01*
X90839053Y-63006096D01*
X90832111Y-63004500D01*
X90824985Y-63004500D01*
X90823725Y-63004357D01*
X90812100Y-63003702D01*
X90800638Y-63002406D01*
X90800637Y-63002406D01*
X90786536Y-63000812D01*
X90776175Y-63004430D01*
X90774925Y-63004500D01*
X89851215Y-63004500D01*
X89781213Y-62983265D01*
X89748588Y-62961465D01*
X89748586Y-62961464D01*
X89738271Y-62954572D01*
X89687636Y-62944500D01*
X89512364Y-62944500D01*
X89461729Y-62954572D01*
X89451414Y-62961464D01*
X89451412Y-62961465D01*
X89418787Y-62983265D01*
X89348785Y-63004500D01*
X88756500Y-63004500D01*
X88688379Y-62984498D01*
X88641886Y-62930842D01*
X88630500Y-62878500D01*
X88630500Y-62866742D01*
X88629177Y-62857937D01*
X88617648Y-62781256D01*
X88617648Y-62781255D01*
X88616248Y-62771945D01*
X88560194Y-62655213D01*
X88472293Y-62560123D01*
X88360318Y-62495082D01*
X88249947Y-62469500D01*
X86666742Y-62469500D01*
X86662095Y-62470199D01*
X86662090Y-62470199D01*
X86581256Y-62482352D01*
X86581255Y-62482352D01*
X86571945Y-62483752D01*
X86455213Y-62539806D01*
X86360123Y-62627707D01*
X86295082Y-62739682D01*
X86269500Y-62850053D01*
X86269500Y-63533258D01*
X86270199Y-63537905D01*
X86270199Y-63537910D01*
X86282233Y-63617954D01*
X86283752Y-63628055D01*
X86339806Y-63744787D01*
X86427707Y-63839877D01*
X86458073Y-63857515D01*
X86524515Y-63896108D01*
X86539682Y-63904918D01*
X86650053Y-63930500D01*
X88233258Y-63930500D01*
X88237905Y-63929801D01*
X88237910Y-63929801D01*
X88318744Y-63917648D01*
X88318745Y-63917648D01*
X88328055Y-63916248D01*
X88444787Y-63860194D01*
X88526839Y-63784345D01*
X88532957Y-63778690D01*
X88532958Y-63778689D01*
X88539877Y-63772293D01*
X88590135Y-63685768D01*
X88600190Y-63668458D01*
X88600190Y-63668457D01*
X88604918Y-63660318D01*
X88630500Y-63549947D01*
X88630500Y-63541500D01*
X88630737Y-63540694D01*
X88631316Y-63535629D01*
X88632194Y-63535729D01*
X88650502Y-63473379D01*
X88704158Y-63426886D01*
X88756500Y-63415500D01*
X89348785Y-63415500D01*
X89418787Y-63436735D01*
X89423284Y-63439740D01*
X89451412Y-63458535D01*
X89451414Y-63458536D01*
X89461729Y-63465428D01*
X89512364Y-63475500D01*
X89687636Y-63475500D01*
X89738271Y-63465428D01*
X89748586Y-63458536D01*
X89748588Y-63458535D01*
X89776716Y-63439740D01*
X89781213Y-63436735D01*
X89851215Y-63415500D01*
X90672689Y-63415500D01*
X90740810Y-63435502D01*
X90761784Y-63452405D01*
X91879856Y-64570477D01*
X91880577Y-64571285D01*
X91885261Y-64581039D01*
X91896341Y-64589900D01*
X91905558Y-64597271D01*
X91914353Y-64605143D01*
X91915188Y-64605809D01*
X91920189Y-64610810D01*
X91926177Y-64614573D01*
X91927415Y-64615561D01*
X91936513Y-64622027D01*
X91958384Y-64639517D01*
X91970178Y-64642229D01*
X91980426Y-64648670D01*
X92008268Y-64651818D01*
X92019513Y-64653741D01*
X92020947Y-64653904D01*
X92027889Y-64655500D01*
X92035015Y-64655500D01*
X92036275Y-64655643D01*
X92047900Y-64656298D01*
X92059362Y-64657594D01*
X92059363Y-64657594D01*
X92073464Y-64659188D01*
X92083825Y-64655570D01*
X92085075Y-64655500D01*
X94362689Y-64655500D01*
X94430810Y-64675502D01*
X94451784Y-64692405D01*
X94536673Y-64777294D01*
X94570699Y-64839606D01*
X94565634Y-64910421D01*
X94523087Y-64967257D01*
X94456567Y-64992068D01*
X94445657Y-64991843D01*
X94440637Y-64992406D01*
X94426536Y-64990812D01*
X94416175Y-64994430D01*
X94414925Y-64994500D01*
X88756500Y-64994500D01*
X88688379Y-64974498D01*
X88641886Y-64920842D01*
X88632139Y-64876036D01*
X88630850Y-64876132D01*
X88630500Y-64871447D01*
X88630500Y-64866742D01*
X88628974Y-64856587D01*
X88617648Y-64781256D01*
X88617648Y-64781255D01*
X88616248Y-64771945D01*
X88560194Y-64655213D01*
X88472293Y-64560123D01*
X88360318Y-64495082D01*
X88249947Y-64469500D01*
X86666742Y-64469500D01*
X86662095Y-64470199D01*
X86662090Y-64470199D01*
X86581256Y-64482352D01*
X86581255Y-64482352D01*
X86571945Y-64483752D01*
X86455213Y-64539806D01*
X86360123Y-64627707D01*
X86343516Y-64656298D01*
X86309706Y-64714506D01*
X86295082Y-64739682D01*
X86269500Y-64850053D01*
X86269500Y-65533258D01*
X86270199Y-65537905D01*
X86270199Y-65537910D01*
X86275492Y-65573114D01*
X86283752Y-65628055D01*
X86339806Y-65744787D01*
X86427707Y-65839877D01*
X86462685Y-65860194D01*
X86508678Y-65886909D01*
X86539682Y-65904918D01*
X86650053Y-65930500D01*
X88233258Y-65930500D01*
X88237905Y-65929801D01*
X88237910Y-65929801D01*
X88318744Y-65917648D01*
X88318745Y-65917648D01*
X88328055Y-65916248D01*
X88444787Y-65860194D01*
X88539877Y-65772293D01*
X88587211Y-65690803D01*
X88600190Y-65668458D01*
X88600190Y-65668457D01*
X88604918Y-65660318D01*
X88630500Y-65549947D01*
X88630500Y-65531500D01*
X88650502Y-65463379D01*
X88704158Y-65416886D01*
X88756500Y-65405500D01*
X94312689Y-65405500D01*
X94380810Y-65425502D01*
X94401784Y-65442405D01*
X94713161Y-65753782D01*
X94747187Y-65816094D01*
X94742122Y-65886909D01*
X94699575Y-65943745D01*
X94667163Y-65961277D01*
X94656412Y-65965190D01*
X94647966Y-65972277D01*
X94594984Y-66016735D01*
X94567154Y-66040087D01*
X94561644Y-66049631D01*
X94554557Y-66058077D01*
X94553334Y-66057051D01*
X94510903Y-66097505D01*
X94441189Y-66110938D01*
X94375279Y-66084548D01*
X94344053Y-66048509D01*
X94343672Y-66047848D01*
X94313531Y-65995643D01*
X94312519Y-65993890D01*
X94312518Y-65993889D01*
X94307008Y-65984345D01*
X94290695Y-65970656D01*
X94226196Y-65916535D01*
X94217750Y-65909448D01*
X94108259Y-65869597D01*
X93991741Y-65869597D01*
X93882250Y-65909448D01*
X93873804Y-65916535D01*
X93809306Y-65970656D01*
X93792992Y-65984345D01*
X93787482Y-65993889D01*
X93787481Y-65993890D01*
X93756328Y-66047848D01*
X93734733Y-66085252D01*
X93714500Y-66200000D01*
X93734733Y-66314748D01*
X93740245Y-66324295D01*
X93759842Y-66358237D01*
X93792992Y-66415655D01*
X93801434Y-66422739D01*
X93808522Y-66431186D01*
X93807029Y-66432439D01*
X93838817Y-66480216D01*
X93844500Y-66517630D01*
X93844500Y-67692689D01*
X93824498Y-67760810D01*
X93807595Y-67781784D01*
X92681784Y-68907595D01*
X92619472Y-68941621D01*
X92592689Y-68944500D01*
X90135117Y-68944500D01*
X90134041Y-68944439D01*
X90123830Y-68940853D01*
X90109729Y-68942422D01*
X90109727Y-68942422D01*
X90098005Y-68943727D01*
X90086207Y-68944381D01*
X90085151Y-68944500D01*
X90078081Y-68944500D01*
X90071184Y-68946073D01*
X90069615Y-68946250D01*
X90058609Y-68948111D01*
X90044877Y-68949639D01*
X90044875Y-68949640D01*
X90030774Y-68951209D01*
X90020516Y-68957631D01*
X90008715Y-68960323D01*
X89997619Y-68969165D01*
X89997617Y-68969166D01*
X89986813Y-68977776D01*
X89977492Y-68984375D01*
X89976361Y-68985276D01*
X89970324Y-68989055D01*
X89965284Y-68994095D01*
X89964288Y-68994888D01*
X89955619Y-69002633D01*
X89935490Y-69018673D01*
X89930723Y-69028556D01*
X89929881Y-69029498D01*
X88579523Y-70379856D01*
X88578715Y-70380577D01*
X88568961Y-70385261D01*
X88560100Y-70396341D01*
X88552729Y-70405558D01*
X88544857Y-70414353D01*
X88544191Y-70415188D01*
X88539190Y-70420189D01*
X88535427Y-70426177D01*
X88534439Y-70427415D01*
X88527973Y-70436513D01*
X88510483Y-70458384D01*
X88507771Y-70470178D01*
X88501330Y-70480426D01*
X88498182Y-70508268D01*
X88496259Y-70519513D01*
X88496096Y-70520947D01*
X88494500Y-70527889D01*
X88494500Y-70535015D01*
X88494357Y-70536275D01*
X88493702Y-70547900D01*
X88490812Y-70573464D01*
X88494430Y-70583825D01*
X88494500Y-70585075D01*
X88494500Y-70931000D01*
X88474498Y-70999121D01*
X88420842Y-71045614D01*
X88368500Y-71057000D01*
X88329403Y-71057000D01*
X88323701Y-71058062D01*
X88262656Y-71069431D01*
X88262655Y-71069432D01*
X88251221Y-71071561D01*
X88241320Y-71077664D01*
X88170178Y-71121516D01*
X88170177Y-71121517D01*
X88160276Y-71127620D01*
X88153236Y-71136879D01*
X88153234Y-71136880D01*
X88146734Y-71145428D01*
X88095609Y-71212661D01*
X88069500Y-71302821D01*
X88069500Y-71683097D01*
X88070562Y-71688799D01*
X88076935Y-71723015D01*
X88084061Y-71761279D01*
X88090164Y-71771180D01*
X88114092Y-71809998D01*
X88140120Y-71852224D01*
X88149379Y-71859264D01*
X88149380Y-71859266D01*
X88166626Y-71872380D01*
X88225161Y-71916891D01*
X88315321Y-71943000D01*
X89070597Y-71943000D01*
X89083881Y-71940526D01*
X89137344Y-71930569D01*
X89137345Y-71930568D01*
X89148779Y-71928439D01*
X89164543Y-71918722D01*
X89229822Y-71878484D01*
X89229823Y-71878483D01*
X89239724Y-71872380D01*
X89249697Y-71859266D01*
X89297350Y-71796598D01*
X89304391Y-71787339D01*
X89307626Y-71776167D01*
X89308271Y-71774885D01*
X89356748Y-71723015D01*
X89420835Y-71705500D01*
X89636261Y-71705500D01*
X89704382Y-71725502D01*
X89739976Y-71759952D01*
X89778688Y-71816068D01*
X89849504Y-71918722D01*
X89993266Y-72056585D01*
X90161812Y-72162724D01*
X90348258Y-72232804D01*
X90354556Y-72233802D01*
X90354558Y-72233802D01*
X90435293Y-72246589D01*
X90544988Y-72263963D01*
X90678175Y-72257915D01*
X90737581Y-72255218D01*
X90737582Y-72255218D01*
X90743965Y-72254928D01*
X90750156Y-72253361D01*
X90750159Y-72253361D01*
X90930873Y-72207633D01*
X90930875Y-72207632D01*
X90937061Y-72206067D01*
X90974683Y-72187880D01*
X91110640Y-72122156D01*
X91110642Y-72122155D01*
X91116388Y-72119377D01*
X91121457Y-72115501D01*
X91121461Y-72115499D01*
X91240444Y-72024529D01*
X91274621Y-71998399D01*
X91405296Y-71848074D01*
X91503075Y-71674544D01*
X91563964Y-71484897D01*
X91575538Y-71378361D01*
X91585119Y-71290168D01*
X91585119Y-71290164D01*
X91585476Y-71286880D01*
X91585500Y-71280000D01*
X91584106Y-71266271D01*
X91566016Y-71088187D01*
X91566016Y-71088186D01*
X91565371Y-71081838D01*
X91505808Y-70891770D01*
X91409243Y-70717562D01*
X91279620Y-70566329D01*
X91188742Y-70495837D01*
X91127279Y-70448161D01*
X91127276Y-70448159D01*
X91122235Y-70444249D01*
X91116509Y-70441431D01*
X91116505Y-70441429D01*
X90949247Y-70359128D01*
X90943518Y-70356309D01*
X90825092Y-70325461D01*
X90756950Y-70307711D01*
X90756947Y-70307711D01*
X90750768Y-70306101D01*
X90665272Y-70301620D01*
X90558240Y-70296011D01*
X90558236Y-70296011D01*
X90551859Y-70295677D01*
X90354916Y-70325461D01*
X90167985Y-70394238D01*
X89998702Y-70499199D01*
X89994069Y-70503580D01*
X89994068Y-70503581D01*
X89947202Y-70547900D01*
X89853981Y-70636054D01*
X89816649Y-70689370D01*
X89752601Y-70780840D01*
X89739735Y-70799214D01*
X89737201Y-70805070D01*
X89682707Y-70931000D01*
X89660631Y-70982014D01*
X89659325Y-70988264D01*
X89659325Y-70988265D01*
X89622670Y-71163725D01*
X89619899Y-71176987D01*
X89619881Y-71182094D01*
X89593044Y-71247326D01*
X89534823Y-71287957D01*
X89494746Y-71294500D01*
X89420669Y-71294500D01*
X89352548Y-71274498D01*
X89313409Y-71234616D01*
X89265984Y-71157678D01*
X89265983Y-71157677D01*
X89259880Y-71147776D01*
X89250621Y-71140736D01*
X89250620Y-71140734D01*
X89209413Y-71109400D01*
X89174839Y-71083109D01*
X89084679Y-71057000D01*
X89031500Y-71057000D01*
X88963379Y-71036998D01*
X88916886Y-70983342D01*
X88905500Y-70931000D01*
X88905500Y-70687311D01*
X88925502Y-70619190D01*
X88942405Y-70598216D01*
X90148216Y-69392405D01*
X90210528Y-69358379D01*
X90237311Y-69355500D01*
X92694884Y-69355500D01*
X92695960Y-69355561D01*
X92706171Y-69359147D01*
X92720272Y-69357578D01*
X92720274Y-69357578D01*
X92731996Y-69356273D01*
X92743792Y-69355619D01*
X92744848Y-69355500D01*
X92751919Y-69355500D01*
X92758817Y-69353927D01*
X92760385Y-69353750D01*
X92771391Y-69351889D01*
X92785123Y-69350361D01*
X92785125Y-69350360D01*
X92799226Y-69348791D01*
X92809484Y-69342369D01*
X92821285Y-69339677D01*
X92832381Y-69330835D01*
X92832383Y-69330834D01*
X92843187Y-69322224D01*
X92852508Y-69315625D01*
X92853639Y-69314724D01*
X92859676Y-69310945D01*
X92864716Y-69305905D01*
X92865712Y-69305112D01*
X92874381Y-69297367D01*
X92883414Y-69290169D01*
X92894510Y-69281327D01*
X92899277Y-69271444D01*
X92900119Y-69270502D01*
X94170477Y-68000144D01*
X94171285Y-67999423D01*
X94181039Y-67994739D01*
X94197271Y-67974442D01*
X94205143Y-67965647D01*
X94205809Y-67964812D01*
X94210810Y-67959811D01*
X94214573Y-67953823D01*
X94215561Y-67952585D01*
X94222027Y-67943486D01*
X94230655Y-67932697D01*
X94239517Y-67921616D01*
X94242229Y-67909822D01*
X94248670Y-67899574D01*
X94251818Y-67871732D01*
X94253741Y-67860487D01*
X94253904Y-67859053D01*
X94255500Y-67852111D01*
X94255500Y-67844985D01*
X94255643Y-67843725D01*
X94256298Y-67832100D01*
X94257594Y-67820638D01*
X94257594Y-67820637D01*
X94259188Y-67806536D01*
X94255570Y-67796175D01*
X94255500Y-67794925D01*
X94255500Y-66517630D01*
X94275502Y-66449509D01*
X94291569Y-66431262D01*
X94291478Y-66431186D01*
X94298566Y-66422739D01*
X94307008Y-66415655D01*
X94312519Y-66406110D01*
X94319605Y-66397665D01*
X94320828Y-66398691D01*
X94363259Y-66358237D01*
X94432973Y-66344804D01*
X94498883Y-66371194D01*
X94530108Y-66407232D01*
X94567154Y-66471397D01*
X94575596Y-66478481D01*
X94582684Y-66486928D01*
X94581191Y-66488181D01*
X94612979Y-66535958D01*
X94618662Y-66573372D01*
X94618662Y-68138528D01*
X94598660Y-68206649D01*
X94581757Y-68227623D01*
X93314782Y-69494597D01*
X92129523Y-70679856D01*
X92128715Y-70680577D01*
X92118961Y-70685261D01*
X92110100Y-70696341D01*
X92102729Y-70705558D01*
X92094857Y-70714353D01*
X92094191Y-70715188D01*
X92089190Y-70720189D01*
X92085427Y-70726177D01*
X92084439Y-70727415D01*
X92077973Y-70736513D01*
X92060483Y-70758384D01*
X92057771Y-70770178D01*
X92051330Y-70780426D01*
X92048182Y-70808268D01*
X92046259Y-70819513D01*
X92046096Y-70820947D01*
X92044500Y-70827889D01*
X92044500Y-70835015D01*
X92044357Y-70836275D01*
X92043702Y-70847900D01*
X92040812Y-70873464D01*
X92044430Y-70883825D01*
X92044500Y-70885075D01*
X92044500Y-74462689D01*
X92024498Y-74530810D01*
X92007595Y-74551785D01*
X91776783Y-74782596D01*
X91714471Y-74816621D01*
X91687688Y-74819500D01*
X91279206Y-74819500D01*
X91211085Y-74799498D01*
X91164592Y-74745842D01*
X91154488Y-74675568D01*
X91183982Y-74610988D01*
X91202677Y-74593404D01*
X91203984Y-74592405D01*
X91274621Y-74538399D01*
X91384238Y-74412299D01*
X91401108Y-74392892D01*
X91401109Y-74392891D01*
X91405296Y-74388074D01*
X91503075Y-74214544D01*
X91563964Y-74024897D01*
X91581251Y-73865770D01*
X91585119Y-73830168D01*
X91585119Y-73830164D01*
X91585476Y-73826880D01*
X91585500Y-73820000D01*
X91584801Y-73813113D01*
X91566016Y-73628187D01*
X91566016Y-73628186D01*
X91565371Y-73621838D01*
X91505808Y-73431770D01*
X91409243Y-73257562D01*
X91279620Y-73106329D01*
X91183875Y-73032062D01*
X91127279Y-72988161D01*
X91127276Y-72988159D01*
X91122235Y-72984249D01*
X91116509Y-72981431D01*
X91116505Y-72981429D01*
X90949247Y-72899128D01*
X90943518Y-72896309D01*
X90823610Y-72865075D01*
X90756950Y-72847711D01*
X90756947Y-72847711D01*
X90750768Y-72846101D01*
X90665272Y-72841620D01*
X90558240Y-72836011D01*
X90558236Y-72836011D01*
X90551859Y-72835677D01*
X90354916Y-72865461D01*
X90348921Y-72867667D01*
X90348920Y-72867667D01*
X90178153Y-72930497D01*
X90167985Y-72934238D01*
X89998702Y-73039199D01*
X89994069Y-73043580D01*
X89994068Y-73043581D01*
X89959692Y-73076089D01*
X89853981Y-73176054D01*
X89825426Y-73216835D01*
X89755336Y-73316934D01*
X89739735Y-73339214D01*
X89737201Y-73345070D01*
X89697044Y-73437869D01*
X89660631Y-73522014D01*
X89659325Y-73528264D01*
X89659325Y-73528265D01*
X89633809Y-73650405D01*
X89619899Y-73716987D01*
X89619877Y-73723375D01*
X89619233Y-73907724D01*
X89619203Y-73916168D01*
X89620466Y-73922430D01*
X89634815Y-73993595D01*
X89628672Y-74064326D01*
X89585265Y-74120507D01*
X89511301Y-74144500D01*
X89410116Y-74144500D01*
X89409040Y-74144439D01*
X89398829Y-74140853D01*
X89384728Y-74142422D01*
X89384726Y-74142422D01*
X89373004Y-74143727D01*
X89361199Y-74144382D01*
X89360151Y-74144500D01*
X89353081Y-74144500D01*
X89346191Y-74146072D01*
X89344617Y-74146249D01*
X89333611Y-74148111D01*
X89305773Y-74151209D01*
X89295515Y-74157631D01*
X89283715Y-74160323D01*
X89269615Y-74171559D01*
X89261813Y-74177776D01*
X89252503Y-74184367D01*
X89251367Y-74185272D01*
X89245324Y-74189055D01*
X89240277Y-74194102D01*
X89239281Y-74194895D01*
X89230619Y-74202633D01*
X89210490Y-74218673D01*
X89205723Y-74228556D01*
X89204881Y-74229498D01*
X88889284Y-74545095D01*
X88826972Y-74579121D01*
X88800189Y-74582000D01*
X88329403Y-74582000D01*
X88323701Y-74583062D01*
X88262656Y-74594431D01*
X88262655Y-74594432D01*
X88251221Y-74596561D01*
X88241320Y-74602664D01*
X88170178Y-74646516D01*
X88170177Y-74646517D01*
X88160276Y-74652620D01*
X88153236Y-74661879D01*
X88153234Y-74661880D01*
X88138264Y-74681567D01*
X88095609Y-74737661D01*
X88069500Y-74827821D01*
X88069500Y-75208097D01*
X88071072Y-75216535D01*
X88081030Y-75270003D01*
X88084061Y-75286279D01*
X88090164Y-75296180D01*
X88133328Y-75366205D01*
X88140120Y-75377224D01*
X88149378Y-75384264D01*
X88149379Y-75384265D01*
X88168107Y-75398506D01*
X88210223Y-75455661D01*
X88214753Y-75526513D01*
X88180258Y-75588567D01*
X88151236Y-75609921D01*
X88130402Y-75621057D01*
X88107194Y-75636564D01*
X88104802Y-75638527D01*
X88104798Y-75638530D01*
X88097344Y-75644647D01*
X88087494Y-75652731D01*
X88052731Y-75687494D01*
X88036564Y-75707194D01*
X88034845Y-75709766D01*
X88034844Y-75709768D01*
X88030911Y-75715655D01*
X88021057Y-75730402D01*
X88009044Y-75752877D01*
X88007862Y-75755730D01*
X88007858Y-75755739D01*
X88006559Y-75758876D01*
X87990230Y-75798298D01*
X87982832Y-75822686D01*
X87982231Y-75825705D01*
X87982230Y-75825711D01*
X87978764Y-75843139D01*
X87974919Y-75862468D01*
X87973047Y-75875087D01*
X87970626Y-75899668D01*
X87970293Y-75906453D01*
X87970160Y-75909160D01*
X87970000Y-75912410D01*
X87970000Y-76387590D01*
X87970626Y-76400332D01*
X87973047Y-76424913D01*
X87973273Y-76426435D01*
X87973275Y-76426453D01*
X87974217Y-76432799D01*
X87974919Y-76437532D01*
X87975217Y-76439028D01*
X87975219Y-76439042D01*
X87980416Y-76465169D01*
X87982832Y-76477314D01*
X87990230Y-76501702D01*
X87992653Y-76507551D01*
X88007858Y-76544261D01*
X88007862Y-76544270D01*
X88009044Y-76547123D01*
X88010503Y-76549853D01*
X88010507Y-76549861D01*
X88019596Y-76566865D01*
X88021057Y-76569598D01*
X88036564Y-76592806D01*
X88052731Y-76612506D01*
X88087494Y-76647269D01*
X88107194Y-76663436D01*
X88130402Y-76678943D01*
X88133132Y-76680402D01*
X88133135Y-76680404D01*
X88150139Y-76689493D01*
X88150147Y-76689497D01*
X88152877Y-76690956D01*
X88155730Y-76692138D01*
X88155739Y-76692142D01*
X88172401Y-76699043D01*
X88198298Y-76709770D01*
X88222686Y-76717168D01*
X88225705Y-76717769D01*
X88225711Y-76717770D01*
X88260958Y-76724781D01*
X88260972Y-76724783D01*
X88262468Y-76725081D01*
X88267201Y-76725783D01*
X88273547Y-76726725D01*
X88273565Y-76726727D01*
X88275087Y-76726953D01*
X88299668Y-76729374D01*
X88306453Y-76729707D01*
X88310856Y-76729924D01*
X88310870Y-76729924D01*
X88312410Y-76730000D01*
X89244473Y-76730000D01*
X89268510Y-76732314D01*
X89270385Y-76732679D01*
X89315015Y-76750720D01*
X89316615Y-76751760D01*
X89335519Y-76766811D01*
X89789913Y-77206058D01*
X89942781Y-77353831D01*
X89952164Y-77362068D01*
X89953342Y-77363006D01*
X89953347Y-77363010D01*
X89967447Y-77374235D01*
X89971068Y-77377118D01*
X89981193Y-77384413D01*
X90012634Y-77404848D01*
X90014497Y-77406059D01*
X90036619Y-77417585D01*
X90081223Y-77435619D01*
X90093174Y-77439162D01*
X90102229Y-77441846D01*
X90102237Y-77441848D01*
X90105125Y-77442704D01*
X90108092Y-77443281D01*
X90108095Y-77443282D01*
X90108810Y-77443421D01*
X90115115Y-77444648D01*
X90115140Y-77444653D01*
X90142650Y-77450003D01*
X90144131Y-77450291D01*
X90149106Y-77451013D01*
X90154975Y-77451865D01*
X90154991Y-77451867D01*
X90156480Y-77452083D01*
X90157995Y-77452229D01*
X90179028Y-77454256D01*
X90179037Y-77454257D01*
X90180535Y-77454401D01*
X90193004Y-77455000D01*
X91512590Y-77455000D01*
X91514130Y-77454924D01*
X91514144Y-77454924D01*
X91518547Y-77454707D01*
X91525332Y-77454374D01*
X91549913Y-77451953D01*
X91551435Y-77451727D01*
X91551453Y-77451725D01*
X91557799Y-77450783D01*
X91562532Y-77450081D01*
X91564028Y-77449783D01*
X91564042Y-77449781D01*
X91599289Y-77442770D01*
X91599295Y-77442769D01*
X91602314Y-77442168D01*
X91626702Y-77434770D01*
X91648829Y-77425605D01*
X91669261Y-77417142D01*
X91669270Y-77417138D01*
X91672123Y-77415956D01*
X91674853Y-77414497D01*
X91674861Y-77414493D01*
X91691865Y-77405404D01*
X91691868Y-77405402D01*
X91694598Y-77403943D01*
X91710602Y-77393250D01*
X91715232Y-77390156D01*
X91715234Y-77390155D01*
X91717806Y-77388436D01*
X91737506Y-77372269D01*
X91772269Y-77337506D01*
X91788436Y-77317806D01*
X91803943Y-77294598D01*
X91808254Y-77286533D01*
X91814493Y-77274861D01*
X91814497Y-77274853D01*
X91815956Y-77272123D01*
X91817138Y-77269270D01*
X91817142Y-77269261D01*
X91829343Y-77239803D01*
X91834770Y-77226702D01*
X91842168Y-77202314D01*
X91843844Y-77193890D01*
X91849781Y-77164042D01*
X91849783Y-77164028D01*
X91850081Y-77162532D01*
X91851953Y-77149913D01*
X91854374Y-77125332D01*
X91854734Y-77118014D01*
X91854924Y-77114144D01*
X91854924Y-77114130D01*
X91855000Y-77112590D01*
X91855000Y-75912410D01*
X91854841Y-75909160D01*
X91854707Y-75906453D01*
X91854374Y-75899668D01*
X91851953Y-75875087D01*
X91850081Y-75862468D01*
X91846237Y-75843139D01*
X91842770Y-75825711D01*
X91842769Y-75825705D01*
X91842168Y-75822686D01*
X91834770Y-75798298D01*
X91818441Y-75758876D01*
X91817142Y-75755739D01*
X91817138Y-75755730D01*
X91815956Y-75752877D01*
X91803943Y-75730402D01*
X91794090Y-75715655D01*
X91790156Y-75709768D01*
X91790155Y-75709766D01*
X91788436Y-75707194D01*
X91772269Y-75687494D01*
X91737506Y-75652731D01*
X91727656Y-75644648D01*
X91720202Y-75638530D01*
X91720198Y-75638527D01*
X91717806Y-75636564D01*
X91694598Y-75621057D01*
X91689910Y-75618551D01*
X91674861Y-75610507D01*
X91674853Y-75610503D01*
X91672123Y-75609044D01*
X91669270Y-75607862D01*
X91669261Y-75607858D01*
X91647546Y-75598864D01*
X91626702Y-75590230D01*
X91602314Y-75582832D01*
X91599295Y-75582231D01*
X91599289Y-75582230D01*
X91564042Y-75575219D01*
X91564028Y-75575217D01*
X91562532Y-75574919D01*
X91557799Y-75574217D01*
X91551453Y-75573275D01*
X91551435Y-75573273D01*
X91549913Y-75573047D01*
X91525332Y-75570626D01*
X91518547Y-75570293D01*
X91514144Y-75570076D01*
X91514130Y-75570076D01*
X91512590Y-75570000D01*
X91224357Y-75570000D01*
X91156236Y-75549998D01*
X91147132Y-75543560D01*
X91127284Y-75528165D01*
X91127281Y-75528163D01*
X91122235Y-75524249D01*
X91116509Y-75521431D01*
X91116505Y-75521429D01*
X91011081Y-75469554D01*
X90958790Y-75421531D01*
X90940764Y-75352862D01*
X90962724Y-75285347D01*
X91017700Y-75240423D01*
X91066711Y-75230500D01*
X91789884Y-75230500D01*
X91790960Y-75230561D01*
X91801171Y-75234147D01*
X91815272Y-75232578D01*
X91815274Y-75232578D01*
X91826996Y-75231273D01*
X91838792Y-75230619D01*
X91839848Y-75230500D01*
X91846919Y-75230500D01*
X91853817Y-75228927D01*
X91855385Y-75228750D01*
X91866391Y-75226889D01*
X91880123Y-75225361D01*
X91880125Y-75225360D01*
X91894226Y-75223791D01*
X91904484Y-75217369D01*
X91916285Y-75214677D01*
X91927381Y-75205835D01*
X91927383Y-75205834D01*
X91938187Y-75197224D01*
X91947508Y-75190625D01*
X91948639Y-75189724D01*
X91954676Y-75185945D01*
X91959716Y-75180905D01*
X91960712Y-75180112D01*
X91969381Y-75172367D01*
X91978414Y-75165169D01*
X91989510Y-75156327D01*
X91994277Y-75146444D01*
X91995119Y-75145502D01*
X92370477Y-74770144D01*
X92371285Y-74769423D01*
X92381039Y-74764739D01*
X92397271Y-74744442D01*
X92405136Y-74735654D01*
X92405802Y-74734819D01*
X92410810Y-74729811D01*
X92414577Y-74723817D01*
X92415563Y-74722581D01*
X92422027Y-74713486D01*
X92439517Y-74691616D01*
X92442229Y-74679820D01*
X92448670Y-74669573D01*
X92451817Y-74641736D01*
X92453741Y-74630488D01*
X92453904Y-74629050D01*
X92455500Y-74622111D01*
X92455500Y-74614987D01*
X92455643Y-74613727D01*
X92456298Y-74602106D01*
X92456313Y-74601975D01*
X92459189Y-74576536D01*
X92455570Y-74566174D01*
X92455500Y-74564920D01*
X92455500Y-70987311D01*
X92475502Y-70919190D01*
X92492405Y-70898216D01*
X94944639Y-68445982D01*
X94945447Y-68445261D01*
X94955201Y-68440577D01*
X94971433Y-68420280D01*
X94979305Y-68411485D01*
X94979971Y-68410650D01*
X94984972Y-68405649D01*
X94988735Y-68399661D01*
X94989723Y-68398423D01*
X94996189Y-68389324D01*
X95004817Y-68378535D01*
X95013679Y-68367454D01*
X95016391Y-68355660D01*
X95022832Y-68345412D01*
X95025980Y-68317570D01*
X95027903Y-68306325D01*
X95028066Y-68304891D01*
X95029662Y-68297949D01*
X95029662Y-68290823D01*
X95029805Y-68289563D01*
X95030460Y-68277938D01*
X95031756Y-68266476D01*
X95031756Y-68266475D01*
X95033350Y-68252374D01*
X95029732Y-68242013D01*
X95029662Y-68240763D01*
X95029662Y-66573372D01*
X95049664Y-66505251D01*
X95065731Y-66487004D01*
X95065640Y-66486928D01*
X95072728Y-66478481D01*
X95081170Y-66471397D01*
X95086681Y-66461852D01*
X95087348Y-66461057D01*
X95146457Y-66421730D01*
X95217445Y-66420603D01*
X95277773Y-66458033D01*
X95292987Y-66479044D01*
X95342992Y-66565655D01*
X95351433Y-66572738D01*
X95351434Y-66572739D01*
X95360568Y-66580403D01*
X95430608Y-66639174D01*
X95432250Y-66640552D01*
X95432096Y-66640735D01*
X95475824Y-66686595D01*
X95489260Y-66756309D01*
X95462874Y-66822220D01*
X95444823Y-66840853D01*
X95392992Y-66884345D01*
X95334733Y-66985252D01*
X95314500Y-67100000D01*
X95334733Y-67214748D01*
X95340245Y-67224295D01*
X95369773Y-67275438D01*
X95392992Y-67315655D01*
X95401433Y-67322738D01*
X95401434Y-67322739D01*
X95439475Y-67354659D01*
X95482250Y-67390552D01*
X95591741Y-67430403D01*
X95708259Y-67430403D01*
X95817750Y-67390552D01*
X95860525Y-67354659D01*
X95898566Y-67322739D01*
X95898567Y-67322738D01*
X95907008Y-67315655D01*
X95930228Y-67275438D01*
X95959755Y-67224295D01*
X95965267Y-67214748D01*
X95970914Y-67182722D01*
X96002441Y-67119109D01*
X96063355Y-67082640D01*
X96134316Y-67084892D01*
X96192794Y-67125151D01*
X96220224Y-67190635D01*
X96221000Y-67204601D01*
X96221000Y-79935947D01*
X96218114Y-79962759D01*
X96216497Y-79970185D01*
X96216385Y-79976381D01*
X96214757Y-80066404D01*
X96214390Y-80074012D01*
X96211619Y-80109221D01*
X96210456Y-80119045D01*
X96204182Y-80158659D01*
X96187188Y-80265963D01*
X96186777Y-80268555D01*
X96184849Y-80278248D01*
X96181576Y-80291880D01*
X96179307Y-80301331D01*
X96176622Y-80310850D01*
X96129844Y-80454816D01*
X96126421Y-80464095D01*
X96117342Y-80486015D01*
X96113200Y-80494999D01*
X96044476Y-80629879D01*
X96039649Y-80638498D01*
X96027247Y-80658735D01*
X96021752Y-80666958D01*
X95933791Y-80788026D01*
X95932775Y-80789424D01*
X95926662Y-80797178D01*
X95911236Y-80815240D01*
X95904532Y-80822491D01*
X95797497Y-80929526D01*
X95790235Y-80936240D01*
X95772193Y-80951650D01*
X95764430Y-80957770D01*
X95665491Y-81029654D01*
X95641958Y-81046752D01*
X95633735Y-81052247D01*
X95613490Y-81064653D01*
X95604879Y-81069476D01*
X95489957Y-81128031D01*
X95470001Y-81138199D01*
X95461016Y-81142341D01*
X95439092Y-81151422D01*
X95429811Y-81154846D01*
X95285842Y-81201624D01*
X95276327Y-81204308D01*
X95273450Y-81204999D01*
X95253259Y-81209846D01*
X95243593Y-81211769D01*
X95168934Y-81223595D01*
X95094042Y-81235456D01*
X95084218Y-81236619D01*
X95049011Y-81239390D01*
X95041403Y-81239757D01*
X94962184Y-81241190D01*
X94945185Y-81241497D01*
X94939128Y-81242816D01*
X94939129Y-81242816D01*
X94937759Y-81243114D01*
X94910947Y-81246000D01*
X84952900Y-81246000D01*
X84884779Y-81225998D01*
X84838286Y-81172342D01*
X84828182Y-81102068D01*
X84857676Y-81037488D01*
X84882078Y-81015788D01*
X84901211Y-81002785D01*
X84901213Y-81002783D01*
X84908319Y-80997954D01*
X85002138Y-80886935D01*
X85062645Y-80754777D01*
X85085383Y-80611215D01*
X85085500Y-80600000D01*
X85065774Y-80455993D01*
X85048950Y-80417116D01*
X86768723Y-80417116D01*
X86806342Y-80557515D01*
X86880332Y-80682625D01*
X86886531Y-80688570D01*
X86886533Y-80688572D01*
X86938673Y-80738572D01*
X86985241Y-80783229D01*
X86992807Y-80787286D01*
X86992810Y-80787288D01*
X87044941Y-80815240D01*
X87113340Y-80851915D01*
X87255191Y-80883622D01*
X87263764Y-80883173D01*
X87263768Y-80883173D01*
X87391760Y-80876465D01*
X87391761Y-80876465D01*
X87400343Y-80876015D01*
X87484604Y-80847658D01*
X87529967Y-80832392D01*
X87529969Y-80832391D01*
X87538102Y-80829654D01*
X87559312Y-80815240D01*
X87577643Y-80802782D01*
X87658319Y-80747954D01*
X87664323Y-80740850D01*
X87717374Y-80678072D01*
X87738653Y-80652892D01*
X87797900Y-80613772D01*
X87868891Y-80612894D01*
X87929087Y-80650536D01*
X87943337Y-80670070D01*
X87980332Y-80732625D01*
X87986531Y-80738570D01*
X87986533Y-80738572D01*
X88041614Y-80791392D01*
X88085241Y-80833229D01*
X88092807Y-80837286D01*
X88092810Y-80837288D01*
X88144111Y-80864795D01*
X88213340Y-80901915D01*
X88355191Y-80933622D01*
X88363764Y-80933173D01*
X88363768Y-80933173D01*
X88491760Y-80926465D01*
X88491761Y-80926465D01*
X88500343Y-80926015D01*
X88584025Y-80897853D01*
X88629967Y-80882392D01*
X88629969Y-80882391D01*
X88638102Y-80879654D01*
X88657998Y-80866133D01*
X88674379Y-80855000D01*
X88758319Y-80797954D01*
X88852138Y-80686935D01*
X88912645Y-80554777D01*
X88935383Y-80411215D01*
X88935500Y-80400000D01*
X88915774Y-80255993D01*
X88904374Y-80229650D01*
X88861460Y-80130481D01*
X88861459Y-80130479D01*
X88858048Y-80122597D01*
X88794633Y-80044286D01*
X88771983Y-80016315D01*
X88771982Y-80016314D01*
X88766575Y-80009637D01*
X88759573Y-80004661D01*
X88759571Y-80004659D01*
X88655097Y-79930414D01*
X88648095Y-79925438D01*
X88511337Y-79876202D01*
X88502777Y-79875573D01*
X88502775Y-79875573D01*
X88413965Y-79869052D01*
X88366376Y-79865557D01*
X88223892Y-79894286D01*
X88094383Y-79960275D01*
X87987390Y-80058659D01*
X87981302Y-80068478D01*
X87974760Y-80079029D01*
X87921863Y-80126383D01*
X87851762Y-80137622D01*
X87786712Y-80109177D01*
X87760799Y-80078955D01*
X87758048Y-80072597D01*
X87735122Y-80044286D01*
X87671983Y-79966315D01*
X87671982Y-79966314D01*
X87666575Y-79959637D01*
X87659573Y-79954661D01*
X87659571Y-79954659D01*
X87555097Y-79880414D01*
X87548095Y-79875438D01*
X87411337Y-79826202D01*
X87402777Y-79825573D01*
X87402775Y-79825573D01*
X87313965Y-79819052D01*
X87266376Y-79815557D01*
X87199154Y-79829111D01*
X87137799Y-79841482D01*
X87123892Y-79844286D01*
X86994383Y-79910275D01*
X86887390Y-80008659D01*
X86882866Y-80015956D01*
X86882864Y-80015958D01*
X86865300Y-80044286D01*
X86810796Y-80132193D01*
X86808399Y-80140444D01*
X86808398Y-80140446D01*
X86789322Y-80206109D01*
X86770245Y-80271773D01*
X86768723Y-80417116D01*
X85048950Y-80417116D01*
X85011460Y-80330481D01*
X85011459Y-80330479D01*
X85008048Y-80322597D01*
X84932781Y-80229650D01*
X84921983Y-80216315D01*
X84921982Y-80216314D01*
X84916575Y-80209637D01*
X84909573Y-80204661D01*
X84909571Y-80204659D01*
X84805097Y-80130414D01*
X84798095Y-80125438D01*
X84661337Y-80076202D01*
X84652777Y-80075573D01*
X84652775Y-80075573D01*
X84556153Y-80068478D01*
X84516376Y-80065557D01*
X84373892Y-80094286D01*
X84325300Y-80119045D01*
X84255260Y-80154733D01*
X84244383Y-80160275D01*
X84137390Y-80258659D01*
X84132865Y-80265957D01*
X84132860Y-80265963D01*
X84083580Y-80345444D01*
X84030684Y-80392800D01*
X83960583Y-80404039D01*
X83895533Y-80375595D01*
X83866919Y-80337218D01*
X83865910Y-80337829D01*
X83861460Y-80330481D01*
X83858048Y-80322597D01*
X83782781Y-80229650D01*
X83771983Y-80216315D01*
X83771982Y-80216314D01*
X83766575Y-80209637D01*
X83759573Y-80204661D01*
X83759571Y-80204659D01*
X83655097Y-80130414D01*
X83648095Y-80125438D01*
X83511337Y-80076202D01*
X83502777Y-80075573D01*
X83502775Y-80075573D01*
X83406153Y-80068478D01*
X83366376Y-80065557D01*
X83223892Y-80094286D01*
X83175300Y-80119045D01*
X83105260Y-80154733D01*
X83094383Y-80160275D01*
X82987390Y-80258659D01*
X82982867Y-80265954D01*
X82982862Y-80265960D01*
X82946323Y-80324892D01*
X82893427Y-80372247D01*
X82823325Y-80383486D01*
X82758276Y-80355042D01*
X82723600Y-80308535D01*
X82711461Y-80280483D01*
X82711460Y-80280481D01*
X82708048Y-80272597D01*
X82653033Y-80204659D01*
X82621983Y-80166315D01*
X82621982Y-80166314D01*
X82616575Y-80159637D01*
X82500159Y-80076905D01*
X82456219Y-80021140D01*
X82449403Y-79950471D01*
X82481876Y-79887336D01*
X82502326Y-79869987D01*
X82608319Y-79797954D01*
X82702138Y-79686935D01*
X82762645Y-79554777D01*
X82785383Y-79411215D01*
X82785500Y-79400000D01*
X82765774Y-79255993D01*
X82762362Y-79248108D01*
X82711460Y-79130481D01*
X82711459Y-79130479D01*
X82708048Y-79122597D01*
X82638851Y-79037146D01*
X82621983Y-79016315D01*
X82621982Y-79016314D01*
X82616575Y-79009637D01*
X82522878Y-78943050D01*
X82478941Y-78887289D01*
X82472172Y-78817116D01*
X87868723Y-78817116D01*
X87906342Y-78957515D01*
X87980332Y-79082625D01*
X87986531Y-79088570D01*
X87986533Y-79088572D01*
X88015091Y-79115958D01*
X88085241Y-79183229D01*
X88092807Y-79187286D01*
X88092810Y-79187288D01*
X88145715Y-79215655D01*
X88213340Y-79251915D01*
X88355191Y-79283622D01*
X88363764Y-79283173D01*
X88363768Y-79283173D01*
X88491760Y-79276465D01*
X88491761Y-79276465D01*
X88500343Y-79276015D01*
X88595676Y-79243932D01*
X88629967Y-79232392D01*
X88629969Y-79232391D01*
X88638102Y-79229654D01*
X88758319Y-79147954D01*
X88852138Y-79036935D01*
X88912645Y-78904777D01*
X88935383Y-78761215D01*
X88935500Y-78750000D01*
X88915774Y-78605993D01*
X88911893Y-78597024D01*
X88861460Y-78480481D01*
X88861459Y-78480479D01*
X88858048Y-78472597D01*
X88796262Y-78396297D01*
X88771983Y-78366315D01*
X88771982Y-78366314D01*
X88766575Y-78359637D01*
X88759573Y-78354661D01*
X88759571Y-78354659D01*
X88655097Y-78280414D01*
X88648095Y-78275438D01*
X88511337Y-78226202D01*
X88502777Y-78225573D01*
X88502775Y-78225573D01*
X88413965Y-78219052D01*
X88366376Y-78215557D01*
X88223892Y-78244286D01*
X88094383Y-78310275D01*
X87987390Y-78408659D01*
X87982866Y-78415956D01*
X87982864Y-78415958D01*
X87967055Y-78441456D01*
X87910796Y-78532193D01*
X87908399Y-78540444D01*
X87908398Y-78540446D01*
X87888581Y-78608659D01*
X87870245Y-78671773D01*
X87870155Y-78680361D01*
X87869357Y-78756587D01*
X87868723Y-78817116D01*
X82472172Y-78817116D01*
X82472124Y-78816620D01*
X82504596Y-78753484D01*
X82535905Y-78730393D01*
X82538102Y-78729654D01*
X82658319Y-78647954D01*
X82752138Y-78536935D01*
X82812645Y-78404777D01*
X82835383Y-78261215D01*
X82835500Y-78250000D01*
X82815774Y-78105993D01*
X82812362Y-78098108D01*
X82761460Y-77980481D01*
X82761459Y-77980479D01*
X82758048Y-77972597D01*
X82666575Y-77859637D01*
X82659573Y-77854661D01*
X82659571Y-77854659D01*
X82555097Y-77780414D01*
X82548095Y-77775438D01*
X82411337Y-77726202D01*
X82402777Y-77725573D01*
X82402775Y-77725573D01*
X82274942Y-77716186D01*
X82266376Y-77715557D01*
X82258666Y-77717112D01*
X82189765Y-77701506D01*
X82139993Y-77650877D01*
X82125494Y-77581377D01*
X82147252Y-77520071D01*
X82227064Y-77403943D01*
X82259064Y-77357383D01*
X82264831Y-77346306D01*
X82351261Y-77180274D01*
X82407649Y-77071954D01*
X82410099Y-77065403D01*
X82518995Y-76774147D01*
X82518997Y-76774142D01*
X82520341Y-76770546D01*
X82568413Y-76570313D01*
X82594562Y-76461396D01*
X82594563Y-76461391D01*
X82595461Y-76457650D01*
X82595923Y-76453600D01*
X82617227Y-76266612D01*
X82631888Y-76137931D01*
X82635500Y-76000000D01*
X82615855Y-75678813D01*
X82612785Y-75662244D01*
X82581890Y-75495557D01*
X82557214Y-75362415D01*
X82473248Y-75096108D01*
X82461609Y-75059193D01*
X82461608Y-75059190D01*
X82460451Y-75055521D01*
X82457948Y-75050027D01*
X82328607Y-74766216D01*
X82328605Y-74766212D01*
X82327008Y-74762708D01*
X82203720Y-74561519D01*
X82160884Y-74491617D01*
X82160882Y-74491614D01*
X82158875Y-74488339D01*
X82153089Y-74481064D01*
X81977925Y-74260854D01*
X81958558Y-74236506D01*
X81950665Y-74228749D01*
X81799807Y-74080502D01*
X81729044Y-74010963D01*
X81582914Y-73898833D01*
X81476816Y-73817421D01*
X81476812Y-73817419D01*
X81473753Y-73815071D01*
X81285295Y-73704061D01*
X81199808Y-73653705D01*
X81199805Y-73653703D01*
X81196492Y-73651752D01*
X80901394Y-73523440D01*
X80897700Y-73522346D01*
X80897695Y-73522344D01*
X80667987Y-73454302D01*
X80592859Y-73432048D01*
X80275485Y-73378938D01*
X79954004Y-73364901D01*
X79820670Y-73375395D01*
X79637044Y-73389847D01*
X79637041Y-73389847D01*
X79633209Y-73390149D01*
X79317882Y-73454302D01*
X79012724Y-73556407D01*
X78722284Y-73694940D01*
X78719047Y-73697002D01*
X78719042Y-73697005D01*
X78697492Y-73710734D01*
X78450892Y-73867836D01*
X78202593Y-74072517D01*
X77981090Y-74305933D01*
X77789684Y-74564604D01*
X77787798Y-74567937D01*
X77787795Y-74567942D01*
X77709364Y-74706569D01*
X77631228Y-74844673D01*
X77629760Y-74848216D01*
X77629758Y-74848221D01*
X77580689Y-74966686D01*
X77508086Y-75141965D01*
X77484315Y-75227680D01*
X77423122Y-75448333D01*
X77423120Y-75448341D01*
X77422092Y-75452049D01*
X77384122Y-75706110D01*
X77376737Y-75755530D01*
X77374529Y-75770301D01*
X77374429Y-75774134D01*
X77374428Y-75774141D01*
X77371376Y-75890705D01*
X77366105Y-76091978D01*
X77366473Y-76095797D01*
X77366473Y-76095805D01*
X77396183Y-76404348D01*
X77396947Y-76412283D01*
X77466595Y-76726442D01*
X77467880Y-76730070D01*
X77467880Y-76730071D01*
X77477903Y-76758374D01*
X77574009Y-77029772D01*
X77717590Y-77317750D01*
X77719705Y-77320946D01*
X77719710Y-77320954D01*
X77814141Y-77463623D01*
X77895196Y-77586083D01*
X77897699Y-77589013D01*
X77897700Y-77589015D01*
X78049316Y-77766535D01*
X78104180Y-77830772D01*
X78341426Y-78048168D01*
X78344547Y-78050394D01*
X78344548Y-78050395D01*
X78381569Y-78076802D01*
X78603398Y-78235031D01*
X78886190Y-78388574D01*
X78889765Y-78389982D01*
X78889771Y-78389985D01*
X79020439Y-78441456D01*
X79185586Y-78506509D01*
X79189306Y-78507471D01*
X79189309Y-78507472D01*
X79206810Y-78511998D01*
X79497123Y-78587078D01*
X79500942Y-78587581D01*
X79500943Y-78587581D01*
X79812340Y-78628578D01*
X79812348Y-78628579D01*
X79816157Y-78629080D01*
X79820000Y-78629114D01*
X79820007Y-78629114D01*
X79970520Y-78630427D01*
X80137931Y-78631888D01*
X80141746Y-78631453D01*
X80141752Y-78631453D01*
X80453818Y-78595898D01*
X80453824Y-78595897D01*
X80457650Y-78595461D01*
X80461391Y-78594563D01*
X80461396Y-78594562D01*
X80606867Y-78559637D01*
X80732917Y-78529375D01*
X80803823Y-78532922D01*
X80861557Y-78574242D01*
X80887787Y-78640215D01*
X80874185Y-78709897D01*
X80869416Y-78718289D01*
X80865325Y-78724887D01*
X80865323Y-78724892D01*
X80860796Y-78732193D01*
X80858399Y-78740444D01*
X80858398Y-78740446D01*
X80838620Y-78808524D01*
X80820245Y-78871773D01*
X80820155Y-78880361D01*
X80820050Y-78890379D01*
X80799335Y-78958286D01*
X80745195Y-79004214D01*
X80674819Y-79013581D01*
X80621068Y-78991764D01*
X80605097Y-78980414D01*
X80598095Y-78975438D01*
X80461337Y-78926202D01*
X80452777Y-78925573D01*
X80452775Y-78925573D01*
X80363965Y-78919052D01*
X80316376Y-78915557D01*
X80173892Y-78944286D01*
X80147929Y-78957515D01*
X80064549Y-79000000D01*
X80044383Y-79010275D01*
X79937390Y-79108659D01*
X79932866Y-79115956D01*
X79932864Y-79115958D01*
X79913026Y-79147954D01*
X79860796Y-79232193D01*
X79858399Y-79240444D01*
X79858398Y-79240446D01*
X79833360Y-79326631D01*
X79820245Y-79371773D01*
X79820155Y-79380361D01*
X79819320Y-79460081D01*
X79818723Y-79517116D01*
X79856342Y-79657515D01*
X79930332Y-79782625D01*
X79936531Y-79788570D01*
X79936533Y-79788572D01*
X80035241Y-79883229D01*
X80033173Y-79885386D01*
X80067585Y-79930000D01*
X80073670Y-80000735D01*
X80035462Y-80068478D01*
X79937390Y-80158659D01*
X79860796Y-80282193D01*
X79858399Y-80290444D01*
X79858398Y-80290446D01*
X79836145Y-80367043D01*
X79820245Y-80421773D01*
X79820155Y-80430361D01*
X79819776Y-80466549D01*
X79818723Y-80567116D01*
X79856342Y-80707515D01*
X79930332Y-80832625D01*
X79936531Y-80838570D01*
X79936533Y-80838572D01*
X79983043Y-80883173D01*
X80035241Y-80933229D01*
X80042807Y-80937286D01*
X80042810Y-80937288D01*
X80112888Y-80974863D01*
X80163340Y-81001915D01*
X80168088Y-81002976D01*
X80223528Y-81044398D01*
X80248401Y-81110895D01*
X80233373Y-81180283D01*
X80183217Y-81230532D01*
X80122730Y-81246000D01*
X76225883Y-81246000D01*
X76157762Y-81225998D01*
X76111269Y-81172342D01*
X76101165Y-81102068D01*
X76130659Y-81037488D01*
X76145567Y-81022916D01*
X76229744Y-80953278D01*
X76229745Y-80953277D01*
X76235853Y-80948224D01*
X76282789Y-80883622D01*
X76324135Y-80826715D01*
X76324136Y-80826713D01*
X76328794Y-80820302D01*
X76336641Y-80800485D01*
X76384085Y-80680654D01*
X76384085Y-80680652D01*
X76387002Y-80673286D01*
X76388355Y-80662583D01*
X76405826Y-80524280D01*
X76406820Y-80516412D01*
X76401052Y-80470751D01*
X76387996Y-80367403D01*
X76387995Y-80367400D01*
X76387002Y-80359538D01*
X76378165Y-80337218D01*
X76331712Y-80219891D01*
X76331711Y-80219888D01*
X76328794Y-80212522D01*
X76324051Y-80205993D01*
X76240513Y-80091014D01*
X76235853Y-80084600D01*
X76226944Y-80077230D01*
X76120127Y-79988862D01*
X76120126Y-79988861D01*
X76114020Y-79983810D01*
X75976293Y-79919001D01*
X75967756Y-79911431D01*
X77112955Y-79911431D01*
X77112955Y-80069551D01*
X77152278Y-80222704D01*
X77228453Y-80361266D01*
X77233878Y-80367043D01*
X77317408Y-80455993D01*
X77336694Y-80476531D01*
X77470199Y-80561256D01*
X77477738Y-80563706D01*
X77477741Y-80563707D01*
X77613043Y-80607669D01*
X77613045Y-80607669D01*
X77620581Y-80610118D01*
X77628490Y-80610616D01*
X77628492Y-80610616D01*
X77699485Y-80615082D01*
X77778389Y-80620046D01*
X77793749Y-80617116D01*
X77925922Y-80591903D01*
X77925926Y-80591902D01*
X77933709Y-80590417D01*
X78076781Y-80523093D01*
X78100116Y-80503789D01*
X78192505Y-80427357D01*
X78192506Y-80427356D01*
X78198614Y-80422303D01*
X78227756Y-80382193D01*
X78286896Y-80300794D01*
X78286897Y-80300792D01*
X78291555Y-80294381D01*
X78295587Y-80284199D01*
X78346846Y-80154733D01*
X78346846Y-80154731D01*
X78349763Y-80147365D01*
X78351506Y-80133574D01*
X78368587Y-79998359D01*
X78369581Y-79990491D01*
X78364453Y-79949897D01*
X78350757Y-79841482D01*
X78350756Y-79841479D01*
X78349763Y-79833617D01*
X78337555Y-79802782D01*
X78294473Y-79693970D01*
X78294472Y-79693967D01*
X78291555Y-79686601D01*
X78275799Y-79664914D01*
X78203274Y-79565093D01*
X78198614Y-79558679D01*
X78151602Y-79519787D01*
X78082888Y-79462941D01*
X78082887Y-79462940D01*
X78076781Y-79457889D01*
X78064086Y-79451915D01*
X77972159Y-79408658D01*
X77933709Y-79390565D01*
X77925926Y-79389080D01*
X77925922Y-79389079D01*
X77786174Y-79362421D01*
X77786173Y-79362421D01*
X77778389Y-79360936D01*
X77699485Y-79365900D01*
X77628492Y-79370366D01*
X77628490Y-79370366D01*
X77620581Y-79370864D01*
X77613045Y-79373313D01*
X77613043Y-79373313D01*
X77477741Y-79417275D01*
X77477738Y-79417276D01*
X77470199Y-79419726D01*
X77336694Y-79504451D01*
X77331267Y-79510230D01*
X77331266Y-79510231D01*
X77284272Y-79560275D01*
X77228453Y-79619716D01*
X77152278Y-79758278D01*
X77112955Y-79911431D01*
X75967756Y-79911431D01*
X75923175Y-79871901D01*
X75903952Y-79803556D01*
X75924731Y-79735668D01*
X75978914Y-79689791D01*
X75989755Y-79685576D01*
X76042499Y-79667826D01*
X76050638Y-79665087D01*
X76060097Y-79658659D01*
X76086970Y-79640396D01*
X76169441Y-79584348D01*
X76174984Y-79577789D01*
X76174986Y-79577787D01*
X76256612Y-79481195D01*
X76262155Y-79474636D01*
X76263503Y-79471691D01*
X76314955Y-79426590D01*
X76335640Y-79419116D01*
X76850106Y-79282625D01*
X77161245Y-79200078D01*
X76879443Y-78259642D01*
X76879050Y-78188648D01*
X76917103Y-78128710D01*
X76942392Y-78111772D01*
X76948664Y-78109661D01*
X76989710Y-78081766D01*
X77057294Y-78060020D01*
X77125907Y-78078264D01*
X77173763Y-78130707D01*
X77178046Y-78143897D01*
X77179048Y-78143532D01*
X77182819Y-78153892D01*
X77184733Y-78164748D01*
X77190245Y-78174295D01*
X77233954Y-78250000D01*
X77242992Y-78265655D01*
X77251433Y-78272738D01*
X77251434Y-78272739D01*
X77318770Y-78329241D01*
X77332250Y-78340552D01*
X77441741Y-78380403D01*
X77558259Y-78380403D01*
X77667750Y-78340552D01*
X77681230Y-78329241D01*
X77748566Y-78272739D01*
X77748567Y-78272738D01*
X77757008Y-78265655D01*
X77766047Y-78250000D01*
X77809755Y-78174295D01*
X77815267Y-78164748D01*
X77835500Y-78050000D01*
X77815267Y-77935252D01*
X77773887Y-77863580D01*
X77762519Y-77843890D01*
X77762518Y-77843889D01*
X77757008Y-77834345D01*
X77743928Y-77823369D01*
X77676196Y-77766535D01*
X77667750Y-77759448D01*
X77558259Y-77719597D01*
X77544669Y-77719597D01*
X77540815Y-77718465D01*
X77536378Y-77717683D01*
X77536465Y-77717188D01*
X77476548Y-77699595D01*
X77440100Y-77658380D01*
X77439678Y-77658716D01*
X77433122Y-77650489D01*
X77422222Y-77636811D01*
X77415633Y-77627503D01*
X77414728Y-77626367D01*
X77410945Y-77620324D01*
X77405898Y-77615277D01*
X77405105Y-77614281D01*
X77397367Y-77605619D01*
X77390169Y-77596586D01*
X77381327Y-77585490D01*
X77371444Y-77580723D01*
X77370502Y-77579881D01*
X77305794Y-77515173D01*
X77305073Y-77514365D01*
X77300389Y-77504611D01*
X77280092Y-77488379D01*
X77271297Y-77480507D01*
X77270462Y-77479841D01*
X77265461Y-77474840D01*
X77259473Y-77471077D01*
X77258235Y-77470089D01*
X77249136Y-77463623D01*
X77227265Y-77446132D01*
X77228178Y-77444990D01*
X77187608Y-77408249D01*
X77179435Y-77392506D01*
X77174685Y-77381528D01*
X77166022Y-77361510D01*
X77075625Y-77249880D01*
X77065216Y-77242482D01*
X76965541Y-77171647D01*
X76958539Y-77166671D01*
X76823390Y-77118014D01*
X76814830Y-77117385D01*
X76814828Y-77117385D01*
X76749529Y-77112590D01*
X76688477Y-77108107D01*
X76622005Y-77083169D01*
X76579567Y-77026253D01*
X76574637Y-76955428D01*
X76608780Y-76893180D01*
X76626883Y-76878233D01*
X76662615Y-76853949D01*
X76738767Y-76802196D01*
X76744310Y-76795637D01*
X76744312Y-76795635D01*
X76825938Y-76699043D01*
X76831481Y-76692484D01*
X76840898Y-76671917D01*
X76887701Y-76569689D01*
X76887701Y-76569688D01*
X76891276Y-76561880D01*
X76893614Y-76547123D01*
X76908890Y-76450670D01*
X76913747Y-76420007D01*
X76913863Y-76408924D01*
X76894369Y-76266612D01*
X76890956Y-76258724D01*
X76866683Y-76202632D01*
X76857117Y-76138441D01*
X76857594Y-76134224D01*
X76859188Y-76120123D01*
X76855570Y-76109762D01*
X76855500Y-76108512D01*
X76855500Y-75817630D01*
X76875502Y-75749509D01*
X76891569Y-75731262D01*
X76891478Y-75731186D01*
X76898566Y-75722739D01*
X76907008Y-75715655D01*
X76943372Y-75652672D01*
X76959755Y-75624295D01*
X76965267Y-75614748D01*
X76985500Y-75500000D01*
X76965267Y-75385252D01*
X76950465Y-75359615D01*
X76912519Y-75293890D01*
X76912518Y-75293889D01*
X76907008Y-75284345D01*
X76898030Y-75276811D01*
X76826196Y-75216535D01*
X76817750Y-75209448D01*
X76708259Y-75169597D01*
X76591741Y-75169597D01*
X76482250Y-75209448D01*
X76473804Y-75216535D01*
X76401971Y-75276811D01*
X76392992Y-75284345D01*
X76387482Y-75293889D01*
X76387481Y-75293890D01*
X76349535Y-75359615D01*
X76334733Y-75385252D01*
X76314500Y-75500000D01*
X76334733Y-75614748D01*
X76386374Y-75704192D01*
X76403111Y-75773185D01*
X76379891Y-75840277D01*
X76324084Y-75884164D01*
X76302160Y-75890703D01*
X76287681Y-75893623D01*
X76279953Y-75895181D01*
X76209223Y-75889036D01*
X76156143Y-75845834D01*
X76153640Y-75837480D01*
X76140862Y-75841207D01*
X76140861Y-75841207D01*
X76133792Y-75843269D01*
X76062795Y-75843139D01*
X76003139Y-75804647D01*
X75973764Y-75740012D01*
X75983996Y-75669757D01*
X75988101Y-75661604D01*
X75990713Y-75656854D01*
X75995374Y-75650438D01*
X76009505Y-75614748D01*
X76050665Y-75510790D01*
X76050665Y-75510788D01*
X76053582Y-75503422D01*
X76054710Y-75494500D01*
X76072406Y-75354416D01*
X76073400Y-75346548D01*
X76068823Y-75310320D01*
X76054576Y-75197539D01*
X76054575Y-75197536D01*
X76053582Y-75189674D01*
X76047493Y-75174295D01*
X75998292Y-75050027D01*
X75998291Y-75050024D01*
X75995374Y-75042658D01*
X75987268Y-75031500D01*
X75907093Y-74921150D01*
X75902433Y-74914736D01*
X75827448Y-74852702D01*
X75786707Y-74818998D01*
X75786706Y-74818997D01*
X75780600Y-74813946D01*
X75752007Y-74800491D01*
X75683605Y-74768304D01*
X75637528Y-74746622D01*
X75629745Y-74745137D01*
X75629741Y-74745136D01*
X75489993Y-74718478D01*
X75489992Y-74718478D01*
X75482208Y-74716993D01*
X75409646Y-74721558D01*
X75340404Y-74705873D01*
X75290634Y-74655242D01*
X75276138Y-74585741D01*
X75303749Y-74518389D01*
X75307008Y-74515655D01*
X75312518Y-74506112D01*
X75312521Y-74506108D01*
X75338476Y-74461152D01*
X75349123Y-74445544D01*
X75353413Y-74440170D01*
X75364510Y-74431327D01*
X75369277Y-74421444D01*
X75370119Y-74420502D01*
X75530477Y-74260144D01*
X75531285Y-74259423D01*
X75541039Y-74254739D01*
X75557271Y-74234442D01*
X75565143Y-74225647D01*
X75565809Y-74224812D01*
X75570810Y-74219811D01*
X75574573Y-74213823D01*
X75575561Y-74212585D01*
X75582027Y-74203486D01*
X75590655Y-74192697D01*
X75599517Y-74181616D01*
X75602229Y-74169822D01*
X75608670Y-74159574D01*
X75611818Y-74131732D01*
X75613741Y-74120485D01*
X75613903Y-74119056D01*
X75615500Y-74112111D01*
X75615500Y-74109462D01*
X75642358Y-74045683D01*
X75669997Y-74020556D01*
X75736272Y-73976272D01*
X75759528Y-73941467D01*
X75788016Y-73898833D01*
X75788017Y-73898830D01*
X75794909Y-73888516D01*
X75798537Y-73870280D01*
X75809293Y-73816203D01*
X75810500Y-73810136D01*
X75810500Y-73389864D01*
X75801053Y-73342372D01*
X75797330Y-73323653D01*
X75797329Y-73323651D01*
X75794909Y-73311484D01*
X75788017Y-73301170D01*
X75788016Y-73301167D01*
X75743165Y-73234044D01*
X75736272Y-73223728D01*
X75707892Y-73204765D01*
X75662364Y-73150288D01*
X75653516Y-73079845D01*
X75684158Y-73015801D01*
X75707892Y-72995235D01*
X75725956Y-72983165D01*
X75736272Y-72976272D01*
X75752974Y-72951276D01*
X75788016Y-72898833D01*
X75788017Y-72898830D01*
X75794909Y-72888516D01*
X75799057Y-72867667D01*
X75809293Y-72816203D01*
X75810500Y-72810136D01*
X75810500Y-72389864D01*
X75805214Y-72363291D01*
X75797330Y-72323653D01*
X75797329Y-72323651D01*
X75794909Y-72311484D01*
X75788017Y-72301170D01*
X75788016Y-72301167D01*
X75743165Y-72234044D01*
X75736272Y-72223728D01*
X75708582Y-72205226D01*
X75663054Y-72150751D01*
X75656679Y-72100000D01*
X81964500Y-72100000D01*
X81984733Y-72214748D01*
X82042992Y-72315655D01*
X82051433Y-72322738D01*
X82051434Y-72322739D01*
X82055362Y-72326035D01*
X82132250Y-72390552D01*
X82241741Y-72430403D01*
X82358259Y-72430403D01*
X82467750Y-72390552D01*
X82544638Y-72326035D01*
X82548566Y-72322739D01*
X82548567Y-72322738D01*
X82557008Y-72315655D01*
X82615267Y-72214748D01*
X82635500Y-72100000D01*
X82615267Y-71985252D01*
X82575799Y-71916891D01*
X82562519Y-71893890D01*
X82562518Y-71893889D01*
X82557008Y-71884345D01*
X82546383Y-71875429D01*
X82476196Y-71816535D01*
X82467750Y-71809448D01*
X82358259Y-71769597D01*
X82241741Y-71769597D01*
X82132250Y-71809448D01*
X82123804Y-71816535D01*
X82053618Y-71875429D01*
X82042992Y-71884345D01*
X82037482Y-71893889D01*
X82037481Y-71893890D01*
X82024201Y-71916891D01*
X81984733Y-71985252D01*
X81964500Y-72100000D01*
X75656679Y-72100000D01*
X75654205Y-72080308D01*
X75684845Y-72016263D01*
X75708581Y-71995696D01*
X75744492Y-71971701D01*
X75754808Y-71964808D01*
X75767711Y-71945498D01*
X75807634Y-71885748D01*
X75814529Y-71875429D01*
X75830500Y-71795137D01*
X75830500Y-71404863D01*
X75814529Y-71324571D01*
X75775058Y-71265498D01*
X75761701Y-71245508D01*
X75754808Y-71235192D01*
X75665429Y-71175471D01*
X75585137Y-71159500D01*
X75254863Y-71159500D01*
X75174571Y-71175471D01*
X75085192Y-71235192D01*
X75078299Y-71245508D01*
X75034276Y-71311394D01*
X75025471Y-71324571D01*
X75023936Y-71332288D01*
X74981363Y-71385119D01*
X74913999Y-71407541D01*
X74845208Y-71389983D01*
X74833516Y-71382131D01*
X74828529Y-71378361D01*
X74825215Y-71375855D01*
X74792675Y-71357314D01*
X74772692Y-71345928D01*
X74772688Y-71345926D01*
X74769148Y-71343909D01*
X74765382Y-71342368D01*
X74765374Y-71342364D01*
X74737059Y-71330778D01*
X74721349Y-71324349D01*
X74717418Y-71323308D01*
X74717410Y-71323305D01*
X74672443Y-71311394D01*
X74672442Y-71311394D01*
X74670461Y-71310869D01*
X74668448Y-71310473D01*
X74647065Y-71306267D01*
X74647059Y-71306266D01*
X74645071Y-71305875D01*
X74612807Y-71301674D01*
X74610774Y-71301542D01*
X74610772Y-71301542D01*
X74589022Y-71300132D01*
X74589018Y-71300132D01*
X74586984Y-71300000D01*
X71012410Y-71300000D01*
X71010871Y-71300076D01*
X71010855Y-71300076D01*
X71001848Y-71300519D01*
X70992807Y-71300963D01*
X70968226Y-71303384D01*
X70966704Y-71303610D01*
X70966686Y-71303612D01*
X70955813Y-71305225D01*
X70948812Y-71306264D01*
X70947316Y-71306562D01*
X70947302Y-71306564D01*
X70927999Y-71310404D01*
X70909030Y-71314177D01*
X70871510Y-71325558D01*
X70826089Y-71344372D01*
X70791512Y-71362854D01*
X70788938Y-71364574D01*
X70770870Y-71376646D01*
X70770864Y-71376651D01*
X70768304Y-71378361D01*
X70737997Y-71403234D01*
X70703234Y-71437997D01*
X70678361Y-71468304D01*
X70662854Y-71491512D01*
X70644372Y-71526089D01*
X70625558Y-71571510D01*
X70614177Y-71609030D01*
X70606264Y-71648812D01*
X70603384Y-71668226D01*
X70600963Y-71692807D01*
X70600886Y-71694381D01*
X70600140Y-71709565D01*
X70600000Y-71712410D01*
X70600000Y-72724000D01*
X70579998Y-72792121D01*
X70526342Y-72838614D01*
X70474000Y-72850000D01*
X68356513Y-72850000D01*
X68351931Y-72850680D01*
X68351926Y-72850680D01*
X68303043Y-72857931D01*
X68303037Y-72857932D01*
X68298455Y-72858612D01*
X68294021Y-72859957D01*
X68294017Y-72859958D01*
X68280110Y-72864177D01*
X68228454Y-72879847D01*
X68224265Y-72881828D01*
X68224263Y-72881829D01*
X68199792Y-72893403D01*
X68145920Y-72905500D01*
X67064080Y-72905500D01*
X67010208Y-72893403D01*
X66985737Y-72881829D01*
X66985735Y-72881828D01*
X66981546Y-72879847D01*
X66929890Y-72864177D01*
X66915983Y-72859958D01*
X66915979Y-72859957D01*
X66911545Y-72858612D01*
X66906963Y-72857932D01*
X66906957Y-72857931D01*
X66858074Y-72850680D01*
X66858069Y-72850680D01*
X66853487Y-72850000D01*
X66812410Y-72850000D01*
X66810871Y-72850076D01*
X66810855Y-72850076D01*
X66801848Y-72850519D01*
X66792807Y-72850963D01*
X66768226Y-72853384D01*
X66766704Y-72853610D01*
X66766686Y-72853612D01*
X66755813Y-72855225D01*
X66748812Y-72856264D01*
X66747316Y-72856562D01*
X66747302Y-72856564D01*
X66727999Y-72860404D01*
X66709030Y-72864177D01*
X66671510Y-72875558D01*
X66626089Y-72894372D01*
X66591512Y-72912854D01*
X66588938Y-72914574D01*
X66570870Y-72926646D01*
X66570864Y-72926651D01*
X66568304Y-72928361D01*
X66537997Y-72953234D01*
X66503234Y-72987997D01*
X66478361Y-73018304D01*
X66462854Y-73041512D01*
X66444372Y-73076089D01*
X66425558Y-73121510D01*
X66414177Y-73159030D01*
X66410860Y-73175705D01*
X66406409Y-73198082D01*
X66373501Y-73260992D01*
X66311806Y-73296123D01*
X66282830Y-73299500D01*
X65472807Y-73299500D01*
X65452114Y-73297297D01*
X65448337Y-73297119D01*
X65438160Y-73294928D01*
X65406908Y-73298627D01*
X65400336Y-73299014D01*
X65400341Y-73299072D01*
X65395162Y-73299500D01*
X65389960Y-73299500D01*
X65369304Y-73302938D01*
X65363502Y-73303764D01*
X65312449Y-73309807D01*
X65304180Y-73313778D01*
X65295130Y-73315284D01*
X65285966Y-73320229D01*
X65285965Y-73320229D01*
X65249926Y-73339675D01*
X65244633Y-73342372D01*
X65205484Y-73361170D01*
X65205480Y-73361173D01*
X65198336Y-73364603D01*
X65191770Y-73370122D01*
X65191717Y-73370059D01*
X65185609Y-73374003D01*
X65184754Y-73372678D01*
X65130516Y-73399327D01*
X65059985Y-73391214D01*
X65005036Y-73346257D01*
X64984979Y-73297046D01*
X64967181Y-73196107D01*
X64965267Y-73185252D01*
X64953627Y-73165091D01*
X64928606Y-73121753D01*
X64911868Y-73052757D01*
X64935089Y-72985666D01*
X64990896Y-72941779D01*
X65059606Y-72934667D01*
X65067909Y-72936131D01*
X65078272Y-72939903D01*
X65194790Y-72939903D01*
X65304281Y-72900052D01*
X65333472Y-72875558D01*
X65385097Y-72832239D01*
X65385098Y-72832238D01*
X65393539Y-72825155D01*
X65451798Y-72724248D01*
X65472031Y-72609500D01*
X65451798Y-72494752D01*
X65393539Y-72393845D01*
X65381565Y-72383797D01*
X65312727Y-72326035D01*
X65304281Y-72318948D01*
X65194790Y-72279097D01*
X65188231Y-72279097D01*
X65127086Y-72248794D01*
X65090616Y-72187880D01*
X65092868Y-72116919D01*
X65123482Y-72067139D01*
X65870477Y-71320144D01*
X65871285Y-71319423D01*
X65881039Y-71314739D01*
X65889938Y-71303612D01*
X65897271Y-71294442D01*
X65905134Y-71285656D01*
X65905800Y-71284821D01*
X65910809Y-71279812D01*
X65914571Y-71273826D01*
X65915565Y-71272580D01*
X65922030Y-71263482D01*
X65923571Y-71261555D01*
X65939517Y-71241616D01*
X65942229Y-71229822D01*
X65948670Y-71219574D01*
X65951818Y-71191732D01*
X65953741Y-71180487D01*
X65953904Y-71179053D01*
X65955500Y-71172111D01*
X65955500Y-71164985D01*
X65955643Y-71163725D01*
X65956298Y-71152100D01*
X65957594Y-71140638D01*
X65957594Y-71140637D01*
X65959188Y-71126536D01*
X65955570Y-71116175D01*
X65955500Y-71114925D01*
X65955500Y-70200000D01*
X71014500Y-70200000D01*
X71034733Y-70314748D01*
X71092992Y-70415655D01*
X71101433Y-70422738D01*
X71101434Y-70422739D01*
X71130708Y-70447303D01*
X71182250Y-70490552D01*
X71291741Y-70530403D01*
X71408259Y-70530403D01*
X71517750Y-70490552D01*
X71569292Y-70447303D01*
X71598566Y-70422739D01*
X71598567Y-70422738D01*
X71607008Y-70415655D01*
X71665267Y-70314748D01*
X71666105Y-70309998D01*
X85214500Y-70309998D01*
X85214500Y-71809998D01*
X85224814Y-71861852D01*
X85254187Y-71905811D01*
X85298146Y-71935184D01*
X85329469Y-71941414D01*
X85343930Y-71944291D01*
X85343933Y-71944291D01*
X85350000Y-71945498D01*
X86450000Y-71945498D01*
X86456067Y-71944291D01*
X86456070Y-71944291D01*
X86470531Y-71941414D01*
X86501854Y-71935184D01*
X86545813Y-71905811D01*
X86575186Y-71861852D01*
X86585500Y-71809998D01*
X86585500Y-71391498D01*
X86605502Y-71323377D01*
X86659158Y-71276884D01*
X86711500Y-71265498D01*
X87094886Y-71265498D01*
X87095962Y-71265559D01*
X87106173Y-71269145D01*
X87120274Y-71267576D01*
X87120276Y-71267576D01*
X87131998Y-71266271D01*
X87143794Y-71265617D01*
X87144850Y-71265498D01*
X87151921Y-71265498D01*
X87158819Y-71263925D01*
X87160387Y-71263748D01*
X87171393Y-71261887D01*
X87185125Y-71260359D01*
X87185127Y-71260358D01*
X87199228Y-71258789D01*
X87209486Y-71252367D01*
X87221287Y-71249675D01*
X87232383Y-71240833D01*
X87232385Y-71240832D01*
X87243189Y-71232222D01*
X87252510Y-71225623D01*
X87253641Y-71224722D01*
X87259678Y-71220943D01*
X87264718Y-71215903D01*
X87265714Y-71215110D01*
X87274383Y-71207365D01*
X87294512Y-71191325D01*
X87295668Y-71192775D01*
X87339375Y-71162131D01*
X87375298Y-71156226D01*
X87375286Y-71156107D01*
X87377118Y-71155927D01*
X87379713Y-71155500D01*
X87387636Y-71155500D01*
X87438271Y-71145428D01*
X87448586Y-71138536D01*
X87448588Y-71138535D01*
X87492191Y-71109400D01*
X87502507Y-71102507D01*
X87516318Y-71081838D01*
X87538535Y-71048588D01*
X87538536Y-71048586D01*
X87545428Y-71038271D01*
X87555500Y-70987636D01*
X87555500Y-70812364D01*
X87545428Y-70761729D01*
X87538536Y-70751414D01*
X87538535Y-70751412D01*
X87516735Y-70718787D01*
X87495500Y-70648785D01*
X87495500Y-70007748D01*
X87508172Y-69960451D01*
X87505985Y-69959655D01*
X87509757Y-69949291D01*
X87515267Y-69939748D01*
X87517182Y-69928892D01*
X87533586Y-69835855D01*
X87535500Y-69825000D01*
X87515267Y-69710252D01*
X87479897Y-69648990D01*
X87462519Y-69618890D01*
X87462518Y-69618889D01*
X87457008Y-69609345D01*
X87417824Y-69576465D01*
X87376196Y-69541535D01*
X87367750Y-69534448D01*
X87258259Y-69494597D01*
X87141741Y-69494597D01*
X87032250Y-69534448D01*
X87023804Y-69541535D01*
X86982177Y-69576465D01*
X86942992Y-69609345D01*
X86937482Y-69618889D01*
X86937481Y-69618890D01*
X86920103Y-69648990D01*
X86884733Y-69710252D01*
X86864500Y-69825000D01*
X86884733Y-69939748D01*
X86890245Y-69949295D01*
X86934033Y-70025137D01*
X86942992Y-70040655D01*
X86951433Y-70047738D01*
X86951434Y-70047739D01*
X87032250Y-70115552D01*
X87030974Y-70117072D01*
X87070492Y-70158515D01*
X87084500Y-70216254D01*
X87084500Y-70648785D01*
X87063265Y-70718787D01*
X87034572Y-70761729D01*
X87032151Y-70773902D01*
X87030985Y-70776716D01*
X86986437Y-70831997D01*
X86914576Y-70854498D01*
X86711500Y-70854498D01*
X86643379Y-70834496D01*
X86596886Y-70780840D01*
X86585500Y-70728498D01*
X86585500Y-70309998D01*
X86584286Y-70303892D01*
X86577607Y-70270318D01*
X86575186Y-70258144D01*
X86545813Y-70214185D01*
X86501854Y-70184812D01*
X86470531Y-70178582D01*
X86456070Y-70175705D01*
X86456067Y-70175705D01*
X86450000Y-70174498D01*
X85350000Y-70174498D01*
X85343933Y-70175705D01*
X85343930Y-70175705D01*
X85329469Y-70178582D01*
X85298146Y-70184812D01*
X85254187Y-70214185D01*
X85224814Y-70258144D01*
X85222393Y-70270318D01*
X85215715Y-70303892D01*
X85214500Y-70309998D01*
X71666105Y-70309998D01*
X71685500Y-70200000D01*
X71665267Y-70085252D01*
X71617552Y-70002608D01*
X71612519Y-69993890D01*
X71612518Y-69993889D01*
X71607008Y-69984345D01*
X71578533Y-69960451D01*
X71526196Y-69916535D01*
X71517750Y-69909448D01*
X71408259Y-69869597D01*
X71291741Y-69869597D01*
X71182250Y-69909448D01*
X71173804Y-69916535D01*
X71121468Y-69960451D01*
X71092992Y-69984345D01*
X71087482Y-69993889D01*
X71087481Y-69993890D01*
X71082448Y-70002608D01*
X71034733Y-70085252D01*
X71014500Y-70200000D01*
X65955500Y-70200000D01*
X65955500Y-69717116D01*
X66468723Y-69717116D01*
X66496720Y-69821605D01*
X66502076Y-69841592D01*
X66506342Y-69857515D01*
X66580332Y-69982625D01*
X66586531Y-69988570D01*
X66586533Y-69988572D01*
X66612352Y-70013331D01*
X66685241Y-70083229D01*
X66692807Y-70087286D01*
X66692810Y-70087288D01*
X66760650Y-70123663D01*
X66813340Y-70151915D01*
X66955191Y-70183622D01*
X66963764Y-70183173D01*
X66963768Y-70183173D01*
X67091760Y-70176465D01*
X67091761Y-70176465D01*
X67100343Y-70176015D01*
X67184025Y-70147853D01*
X67229967Y-70132392D01*
X67229969Y-70132391D01*
X67238102Y-70129654D01*
X67246918Y-70123663D01*
X67303437Y-70085252D01*
X67358319Y-70047954D01*
X67452138Y-69936935D01*
X67512645Y-69804777D01*
X67533778Y-69671346D01*
X67564190Y-69607194D01*
X67624458Y-69569667D01*
X67685713Y-69568092D01*
X67755191Y-69583622D01*
X67763764Y-69583173D01*
X67763768Y-69583173D01*
X67891760Y-69576465D01*
X67891761Y-69576465D01*
X67900343Y-69576015D01*
X67971955Y-69551915D01*
X68029967Y-69532392D01*
X68029969Y-69532391D01*
X68038102Y-69529654D01*
X68158319Y-69447954D01*
X68252138Y-69336935D01*
X68312645Y-69204777D01*
X68335383Y-69061215D01*
X68335500Y-69050000D01*
X68321009Y-68944212D01*
X68331581Y-68874009D01*
X68378430Y-68820665D01*
X68446683Y-68801117D01*
X68473328Y-68804148D01*
X68596810Y-68831749D01*
X68596812Y-68831749D01*
X68605191Y-68833622D01*
X68613764Y-68833173D01*
X68613768Y-68833173D01*
X68741760Y-68826465D01*
X68741761Y-68826465D01*
X68750343Y-68826015D01*
X68824326Y-68801117D01*
X68879967Y-68782392D01*
X68879969Y-68782391D01*
X68888102Y-68779654D01*
X69008319Y-68697954D01*
X69102138Y-68586935D01*
X69162645Y-68454777D01*
X69180256Y-68343585D01*
X69210668Y-68279432D01*
X69270937Y-68241905D01*
X69348628Y-68245199D01*
X69355765Y-68247853D01*
X69363340Y-68251915D01*
X69505191Y-68283622D01*
X69513764Y-68283173D01*
X69513768Y-68283173D01*
X69641760Y-68276465D01*
X69641761Y-68276465D01*
X69650343Y-68276015D01*
X69751699Y-68241905D01*
X69779967Y-68232392D01*
X69779969Y-68232391D01*
X69788102Y-68229654D01*
X69799699Y-68221773D01*
X69853437Y-68185252D01*
X69908319Y-68147954D01*
X70002138Y-68036935D01*
X70062645Y-67904777D01*
X70085383Y-67761215D01*
X70085500Y-67750000D01*
X70065774Y-67605993D01*
X70062362Y-67598108D01*
X70011460Y-67480481D01*
X70011459Y-67480479D01*
X70008048Y-67472597D01*
X69944663Y-67394323D01*
X69921983Y-67366315D01*
X69921982Y-67366314D01*
X69916575Y-67359637D01*
X69909573Y-67354661D01*
X69909571Y-67354659D01*
X69805097Y-67280414D01*
X69798095Y-67275438D01*
X69661337Y-67226202D01*
X69652777Y-67225573D01*
X69652775Y-67225573D01*
X69563965Y-67219052D01*
X69516376Y-67215557D01*
X69373892Y-67244286D01*
X69244383Y-67310275D01*
X69137390Y-67408659D01*
X69060796Y-67532193D01*
X69058399Y-67540444D01*
X69058398Y-67540446D01*
X69036882Y-67614506D01*
X69020245Y-67671773D01*
X69020155Y-67680359D01*
X69020155Y-67680360D01*
X69020040Y-67691380D01*
X68999327Y-67759288D01*
X68945188Y-67805218D01*
X68874813Y-67814586D01*
X68851367Y-67808614D01*
X68769418Y-67779111D01*
X68769416Y-67779111D01*
X68761337Y-67776202D01*
X68752777Y-67775573D01*
X68752775Y-67775573D01*
X68663965Y-67769052D01*
X68616376Y-67765557D01*
X68473892Y-67794286D01*
X68452437Y-67805218D01*
X68360406Y-67852111D01*
X68344383Y-67860275D01*
X68237390Y-67958659D01*
X68232866Y-67965956D01*
X68232864Y-67965958D01*
X68211668Y-68000144D01*
X68160796Y-68082193D01*
X68158399Y-68090444D01*
X68158398Y-68090446D01*
X68133629Y-68175705D01*
X68120245Y-68221773D01*
X68118723Y-68367116D01*
X68120947Y-68375416D01*
X68120947Y-68375417D01*
X68125663Y-68393017D01*
X68123975Y-68463994D01*
X68084181Y-68522790D01*
X68018917Y-68550739D01*
X67961276Y-68544181D01*
X67947752Y-68539312D01*
X67911337Y-68526202D01*
X67902777Y-68525573D01*
X67902775Y-68525573D01*
X67813965Y-68519052D01*
X67766376Y-68515557D01*
X67623892Y-68544286D01*
X67494383Y-68610275D01*
X67387390Y-68708659D01*
X67310796Y-68832193D01*
X67308399Y-68840444D01*
X67308398Y-68840446D01*
X67289097Y-68906882D01*
X67270245Y-68971773D01*
X67270155Y-68980361D01*
X67269878Y-69006817D01*
X67249164Y-69074724D01*
X67195024Y-69120652D01*
X67118235Y-69128686D01*
X67111337Y-69126202D01*
X67102777Y-69125573D01*
X67102775Y-69125573D01*
X67013965Y-69119052D01*
X66966376Y-69115557D01*
X66823892Y-69144286D01*
X66694383Y-69210275D01*
X66587390Y-69308659D01*
X66582866Y-69315956D01*
X66582864Y-69315958D01*
X66558347Y-69355500D01*
X66510796Y-69432193D01*
X66508399Y-69440444D01*
X66508398Y-69440446D01*
X66483883Y-69524829D01*
X66470245Y-69571773D01*
X66470155Y-69580361D01*
X66470126Y-69583173D01*
X66468723Y-69717116D01*
X65955500Y-69717116D01*
X65955500Y-68687311D01*
X65975502Y-68619190D01*
X65992405Y-68598216D01*
X67579666Y-67010954D01*
X67579677Y-67010944D01*
X67774086Y-66816535D01*
X67973312Y-66617308D01*
X68035625Y-66583283D01*
X68062408Y-66580403D01*
X68108259Y-66580403D01*
X68217750Y-66540552D01*
X68280163Y-66488181D01*
X68298566Y-66472739D01*
X68298567Y-66472738D01*
X68307008Y-66465655D01*
X68312994Y-66455288D01*
X68359755Y-66374295D01*
X68365267Y-66364748D01*
X68385500Y-66250000D01*
X68365267Y-66135252D01*
X68327243Y-66069392D01*
X68312519Y-66043890D01*
X68312518Y-66043889D01*
X68307008Y-66034345D01*
X68286022Y-66016735D01*
X68226196Y-65966535D01*
X68217750Y-65959448D01*
X68108259Y-65919597D01*
X67991741Y-65919597D01*
X67882250Y-65959448D01*
X67873804Y-65966535D01*
X67813979Y-66016735D01*
X67792992Y-66034345D01*
X67787482Y-66043889D01*
X67787481Y-66043890D01*
X67772757Y-66069392D01*
X67734733Y-66135252D01*
X67714500Y-66250000D01*
X67713744Y-66249867D01*
X67696412Y-66308896D01*
X67679509Y-66329870D01*
X65629523Y-68379856D01*
X65628715Y-68380577D01*
X65618961Y-68385261D01*
X65610100Y-68396341D01*
X65602729Y-68405558D01*
X65594857Y-68414353D01*
X65594191Y-68415188D01*
X65589190Y-68420189D01*
X65585427Y-68426177D01*
X65584439Y-68427415D01*
X65577973Y-68436513D01*
X65560483Y-68458384D01*
X65557771Y-68470178D01*
X65551330Y-68480426D01*
X65548182Y-68508268D01*
X65546259Y-68519513D01*
X65546096Y-68520947D01*
X65544500Y-68527889D01*
X65544500Y-68535015D01*
X65544357Y-68536275D01*
X65543702Y-68547900D01*
X65540812Y-68573464D01*
X65544430Y-68583825D01*
X65544500Y-68585075D01*
X65544500Y-71012689D01*
X65524498Y-71080810D01*
X65507595Y-71101784D01*
X63679523Y-72929856D01*
X63678715Y-72930577D01*
X63668961Y-72935261D01*
X63660100Y-72946341D01*
X63652729Y-72955558D01*
X63644857Y-72964353D01*
X63644191Y-72965188D01*
X63639190Y-72970189D01*
X63635427Y-72976177D01*
X63634439Y-72977415D01*
X63627973Y-72986513D01*
X63610483Y-73008384D01*
X63607771Y-73020178D01*
X63601330Y-73030426D01*
X63598182Y-73058268D01*
X63596259Y-73069513D01*
X63596096Y-73070947D01*
X63594500Y-73077889D01*
X63594500Y-73085015D01*
X63594357Y-73086275D01*
X63593702Y-73097900D01*
X63590812Y-73123464D01*
X63594430Y-73133825D01*
X63594500Y-73135075D01*
X63594500Y-74732370D01*
X63574498Y-74800491D01*
X63558431Y-74818738D01*
X63558522Y-74818814D01*
X63551434Y-74827261D01*
X63542992Y-74834345D01*
X63537482Y-74843889D01*
X63537481Y-74843890D01*
X63509594Y-74892191D01*
X63484733Y-74935252D01*
X63464500Y-75050000D01*
X63484733Y-75164748D01*
X63542992Y-75265655D01*
X63551433Y-75272738D01*
X63551434Y-75272739D01*
X63596221Y-75310320D01*
X63632250Y-75340552D01*
X63741741Y-75380403D01*
X63858259Y-75380403D01*
X63967750Y-75340552D01*
X64003779Y-75310320D01*
X64048566Y-75272739D01*
X64048567Y-75272738D01*
X64057008Y-75265655D01*
X64115267Y-75164748D01*
X64135500Y-75050000D01*
X64115267Y-74935252D01*
X64090406Y-74892191D01*
X64062519Y-74843890D01*
X64062518Y-74843889D01*
X64057008Y-74834345D01*
X64048566Y-74827261D01*
X64041478Y-74818814D01*
X64042971Y-74817561D01*
X64011183Y-74769784D01*
X64005500Y-74732370D01*
X64005500Y-73237311D01*
X64025502Y-73169190D01*
X64042405Y-73148216D01*
X64124533Y-73066088D01*
X64186845Y-73032062D01*
X64257660Y-73037127D01*
X64314496Y-73079674D01*
X64339307Y-73146194D01*
X64333871Y-73185100D01*
X64334733Y-73185252D01*
X64314500Y-73300000D01*
X64334733Y-73414748D01*
X64392992Y-73515655D01*
X64401433Y-73522738D01*
X64401434Y-73522739D01*
X64404101Y-73524977D01*
X64482250Y-73590552D01*
X64591741Y-73630403D01*
X64627298Y-73630403D01*
X64695419Y-73650405D01*
X64741912Y-73704061D01*
X64752016Y-73774335D01*
X64722522Y-73838915D01*
X64716393Y-73845498D01*
X64618287Y-73943604D01*
X64602095Y-73956682D01*
X64599302Y-73959223D01*
X64590554Y-73964872D01*
X64584108Y-73973049D01*
X64571071Y-73989586D01*
X64566694Y-73994511D01*
X64566738Y-73994549D01*
X64563385Y-73998506D01*
X64559704Y-74002187D01*
X64551507Y-74013657D01*
X64547531Y-74019221D01*
X64543967Y-74023967D01*
X64512184Y-74064284D01*
X64509145Y-74072937D01*
X64503810Y-74080403D01*
X64500826Y-74090382D01*
X64500825Y-74090383D01*
X64489091Y-74129619D01*
X64487256Y-74135265D01*
X64474511Y-74171559D01*
X64470240Y-74183721D01*
X64469500Y-74192266D01*
X64469500Y-74195006D01*
X64469494Y-74195147D01*
X64467539Y-74201684D01*
X64467948Y-74212092D01*
X64469403Y-74249115D01*
X64469500Y-74254063D01*
X64469500Y-76347193D01*
X64467297Y-76367886D01*
X64467119Y-76371663D01*
X64464928Y-76381840D01*
X64466152Y-76392179D01*
X64468627Y-76413092D01*
X64469014Y-76419664D01*
X64469072Y-76419659D01*
X64469500Y-76424838D01*
X64469500Y-76430040D01*
X64472938Y-76450696D01*
X64473764Y-76456498D01*
X64479807Y-76507551D01*
X64483778Y-76515820D01*
X64485284Y-76524870D01*
X64509691Y-76570104D01*
X64512369Y-76575362D01*
X64531170Y-76614517D01*
X64531172Y-76614521D01*
X64534603Y-76621665D01*
X64540122Y-76628230D01*
X64542047Y-76630155D01*
X64542157Y-76630275D01*
X64545395Y-76636276D01*
X64553040Y-76643343D01*
X64580241Y-76668487D01*
X64583809Y-76671917D01*
X64943118Y-77031227D01*
X64956192Y-77047415D01*
X64958735Y-77050209D01*
X64964383Y-77058957D01*
X64980870Y-77071954D01*
X64989097Y-77078440D01*
X64994022Y-77082817D01*
X64994060Y-77082773D01*
X64998017Y-77086126D01*
X65001698Y-77089807D01*
X65005930Y-77092831D01*
X65018732Y-77101980D01*
X65023478Y-77105544D01*
X65032416Y-77112590D01*
X65063795Y-77137327D01*
X65072448Y-77140366D01*
X65079914Y-77145701D01*
X65089893Y-77148685D01*
X65089894Y-77148686D01*
X65109623Y-77154586D01*
X65129139Y-77160423D01*
X65134776Y-77162255D01*
X65175750Y-77176644D01*
X65175753Y-77176645D01*
X65183232Y-77179271D01*
X65191777Y-77180011D01*
X65194517Y-77180011D01*
X65194658Y-77180017D01*
X65201195Y-77181972D01*
X65211603Y-77181563D01*
X65248626Y-77180108D01*
X65253574Y-77180011D01*
X66849617Y-77180011D01*
X66917738Y-77200013D01*
X66930504Y-77210301D01*
X66934187Y-77215813D01*
X66944500Y-77222704D01*
X66960858Y-77233634D01*
X66978146Y-77245186D01*
X67009469Y-77251416D01*
X67023930Y-77254293D01*
X67023933Y-77254293D01*
X67030000Y-77255500D01*
X68180000Y-77255500D01*
X68186067Y-77254293D01*
X68186070Y-77254293D01*
X68200531Y-77251416D01*
X68231854Y-77245186D01*
X68249143Y-77233634D01*
X68265500Y-77222704D01*
X68275813Y-77215813D01*
X68305186Y-77171854D01*
X68312054Y-77137327D01*
X68314293Y-77126070D01*
X68314293Y-77126067D01*
X68315500Y-77120000D01*
X68315500Y-76320000D01*
X68305186Y-76268146D01*
X68296404Y-76255003D01*
X68294182Y-76247906D01*
X68293541Y-76246359D01*
X68293679Y-76246302D01*
X68275189Y-76187250D01*
X68293831Y-76123761D01*
X68293541Y-76123641D01*
X68294657Y-76120946D01*
X68296404Y-76114997D01*
X68298291Y-76112173D01*
X68305186Y-76101854D01*
X68315500Y-76050000D01*
X68315500Y-76031500D01*
X68335502Y-75963379D01*
X68389158Y-75916886D01*
X68441500Y-75905500D01*
X69943752Y-75905500D01*
X70013752Y-75926734D01*
X70041729Y-75945428D01*
X70092364Y-75955500D01*
X70287636Y-75955500D01*
X70338271Y-75945428D01*
X70348586Y-75938536D01*
X70348588Y-75938535D01*
X70392191Y-75909400D01*
X70402507Y-75902507D01*
X70414125Y-75885120D01*
X70438535Y-75848588D01*
X70438536Y-75848586D01*
X70445428Y-75838271D01*
X70455500Y-75787636D01*
X70455500Y-75612364D01*
X70445428Y-75561729D01*
X70438536Y-75551414D01*
X70438535Y-75551412D01*
X70416735Y-75518787D01*
X70395500Y-75448785D01*
X70395500Y-75425117D01*
X70395561Y-75424041D01*
X70399147Y-75413830D01*
X70397317Y-75397380D01*
X70396273Y-75388005D01*
X70395619Y-75376207D01*
X70395500Y-75375151D01*
X70395500Y-75368081D01*
X70393927Y-75361184D01*
X70393750Y-75359615D01*
X70391889Y-75348609D01*
X70390361Y-75334877D01*
X70390360Y-75334875D01*
X70388791Y-75320774D01*
X70382369Y-75310516D01*
X70379677Y-75298715D01*
X70369768Y-75286279D01*
X70362223Y-75276811D01*
X70353977Y-75265166D01*
X70352799Y-75263285D01*
X70335165Y-75201903D01*
X70335500Y-75200000D01*
X70330139Y-75169597D01*
X70317182Y-75096110D01*
X70317181Y-75096108D01*
X70315267Y-75085252D01*
X70310922Y-75077726D01*
X70306509Y-75008310D01*
X70341027Y-74946269D01*
X70359412Y-74931302D01*
X70392191Y-74909400D01*
X70402507Y-74902507D01*
X70421244Y-74874465D01*
X70438535Y-74848588D01*
X70438536Y-74848586D01*
X70445428Y-74838271D01*
X70455500Y-74787636D01*
X70455500Y-74612364D01*
X70445428Y-74561729D01*
X70438536Y-74551414D01*
X70438535Y-74551412D01*
X70414642Y-74515655D01*
X70414121Y-74514874D01*
X70396897Y-74467772D01*
X70395502Y-74468090D01*
X70395500Y-74468081D01*
X70394270Y-74462689D01*
X70391887Y-74448599D01*
X70390360Y-74434874D01*
X70388791Y-74420773D01*
X70382369Y-74410515D01*
X70379677Y-74398715D01*
X70370834Y-74387618D01*
X70368476Y-74382718D01*
X70356957Y-74312662D01*
X70385142Y-74247499D01*
X70444082Y-74207919D01*
X70515065Y-74206488D01*
X70576836Y-74245103D01*
X70777557Y-74474498D01*
X70780859Y-74478272D01*
X70795716Y-74493530D01*
X70796947Y-74494667D01*
X70796959Y-74494678D01*
X70814132Y-74510530D01*
X70815390Y-74511691D01*
X70816695Y-74512773D01*
X70816710Y-74512786D01*
X70825984Y-74520474D01*
X70865661Y-74579349D01*
X70867208Y-74650328D01*
X70834662Y-74706569D01*
X70803234Y-74737997D01*
X70778361Y-74768304D01*
X70776651Y-74770864D01*
X70776646Y-74770870D01*
X70769578Y-74781449D01*
X70762854Y-74791512D01*
X70744372Y-74826089D01*
X70725558Y-74871510D01*
X70714177Y-74909030D01*
X70711766Y-74921150D01*
X70706770Y-74946269D01*
X70706264Y-74948812D01*
X70703384Y-74968226D01*
X70700963Y-74992807D01*
X70700000Y-75012410D01*
X70700000Y-75451672D01*
X70700680Y-75456254D01*
X70700680Y-75456259D01*
X70707169Y-75500000D01*
X70708612Y-75509731D01*
X70709957Y-75514165D01*
X70709958Y-75514169D01*
X70727242Y-75571144D01*
X70726936Y-75571237D01*
X70727633Y-75573045D01*
X70727803Y-75572993D01*
X70728319Y-75574693D01*
X70729851Y-75579743D01*
X70731836Y-75583939D01*
X70733372Y-75587920D01*
X70733438Y-75588305D01*
X70733161Y-75588412D01*
X70733639Y-75589676D01*
X70733668Y-75589664D01*
X70734400Y-75591432D01*
X70734316Y-75591467D01*
X70737241Y-75599206D01*
X70738338Y-75603018D01*
X70736500Y-75603547D01*
X70742295Y-75615949D01*
X70743076Y-75619873D01*
X70745500Y-75644469D01*
X70745500Y-75755530D01*
X70743079Y-75780111D01*
X70742605Y-75782494D01*
X70736218Y-75804195D01*
X70733919Y-75810016D01*
X70730972Y-75817857D01*
X70718351Y-75880098D01*
X70715468Y-75951036D01*
X70721274Y-76007665D01*
X70721303Y-76007781D01*
X70738029Y-76051814D01*
X70739753Y-76055117D01*
X70757793Y-76089680D01*
X70765299Y-76104062D01*
X70791859Y-76142962D01*
X70823978Y-76179798D01*
X70840721Y-76196830D01*
X70863025Y-76216960D01*
X70881688Y-76231882D01*
X70986102Y-76305586D01*
X71008752Y-76319418D01*
X71038315Y-76334879D01*
X71040215Y-76335717D01*
X71040223Y-76335721D01*
X71047514Y-76338937D01*
X71077654Y-76357697D01*
X71084693Y-76363604D01*
X71124018Y-76422711D01*
X71127036Y-76434350D01*
X71127208Y-76435171D01*
X71127226Y-76435256D01*
X71127895Y-76440207D01*
X71128038Y-76440182D01*
X71128586Y-76443290D01*
X71129091Y-76449065D01*
X71129638Y-76453113D01*
X71129704Y-76454164D01*
X71129538Y-76454174D01*
X71130500Y-76465169D01*
X71130500Y-76861279D01*
X71128986Y-76879144D01*
X71129042Y-76879150D01*
X71126189Y-76905198D01*
X71125000Y-76926973D01*
X71125000Y-78687590D01*
X71125076Y-78689129D01*
X71125076Y-78689145D01*
X71125519Y-78698152D01*
X71125963Y-78707193D01*
X71128384Y-78731774D01*
X71131264Y-78751188D01*
X71131562Y-78752684D01*
X71131564Y-78752698D01*
X71131946Y-78754619D01*
X71139177Y-78790970D01*
X71150558Y-78828490D01*
X71169372Y-78873911D01*
X71187854Y-78908488D01*
X71189574Y-78911062D01*
X71201634Y-78929111D01*
X71203361Y-78931696D01*
X71228234Y-78962003D01*
X71262997Y-78996766D01*
X71293304Y-79021639D01*
X71295864Y-79023349D01*
X71295870Y-79023354D01*
X71304512Y-79029128D01*
X71316512Y-79037146D01*
X71351089Y-79055628D01*
X71396510Y-79074442D01*
X71434030Y-79085823D01*
X71452999Y-79089596D01*
X71472302Y-79093436D01*
X71472316Y-79093438D01*
X71473812Y-79093736D01*
X71480813Y-79094775D01*
X71491686Y-79096388D01*
X71491704Y-79096390D01*
X71493226Y-79096616D01*
X71517807Y-79099037D01*
X71526848Y-79099481D01*
X71535855Y-79099924D01*
X71535871Y-79099924D01*
X71537410Y-79100000D01*
X72797458Y-79100000D01*
X72865579Y-79120002D01*
X72912072Y-79173658D01*
X72922176Y-79243932D01*
X72897754Y-79302267D01*
X72851983Y-79362458D01*
X72851980Y-79362463D01*
X72844942Y-79371719D01*
X72819500Y-79459580D01*
X72819500Y-80701846D01*
X72833642Y-80777779D01*
X72839747Y-80787683D01*
X72876157Y-80846751D01*
X72888500Y-80866776D01*
X72897758Y-80873816D01*
X72897759Y-80873817D01*
X72935850Y-80902782D01*
X72971719Y-80930058D01*
X73059580Y-80955500D01*
X73426846Y-80955500D01*
X73502779Y-80941358D01*
X73563728Y-80903789D01*
X73581872Y-80892605D01*
X73581873Y-80892605D01*
X73591776Y-80886500D01*
X73601421Y-80873817D01*
X73648018Y-80812539D01*
X73655058Y-80803281D01*
X73680500Y-80715420D01*
X73680500Y-79473154D01*
X73666358Y-79397221D01*
X73620122Y-79322212D01*
X73617605Y-79318128D01*
X73617605Y-79318127D01*
X73611500Y-79308224D01*
X73593220Y-79294323D01*
X73537539Y-79251982D01*
X73528281Y-79244942D01*
X73440420Y-79219500D01*
X73251330Y-79219500D01*
X73183209Y-79199498D01*
X73136716Y-79145842D01*
X73126612Y-79075568D01*
X73156106Y-79010988D01*
X73169918Y-78997333D01*
X73184980Y-78984582D01*
X73186270Y-78983490D01*
X73206038Y-78964832D01*
X73207200Y-78963610D01*
X73207210Y-78963600D01*
X73219768Y-78950393D01*
X73219771Y-78950389D01*
X73220926Y-78949175D01*
X73946110Y-78098959D01*
X74005534Y-78060111D01*
X74076528Y-78059558D01*
X74136552Y-78097474D01*
X74166060Y-78158847D01*
X74184733Y-78264748D01*
X74242992Y-78365655D01*
X74251434Y-78372739D01*
X74258522Y-78381186D01*
X74257494Y-78382049D01*
X74290458Y-78431594D01*
X74294500Y-78450859D01*
X74294500Y-78454433D01*
X74296072Y-78461324D01*
X74296249Y-78462898D01*
X74298111Y-78473905D01*
X74299564Y-78486957D01*
X74301209Y-78501740D01*
X74307631Y-78511998D01*
X74310323Y-78523799D01*
X74319165Y-78534895D01*
X74319166Y-78534897D01*
X74327776Y-78545701D01*
X74334375Y-78555022D01*
X74335276Y-78556153D01*
X74339055Y-78562190D01*
X74344095Y-78567230D01*
X74344888Y-78568226D01*
X74352633Y-78576895D01*
X74368673Y-78597024D01*
X74378556Y-78601791D01*
X74379498Y-78602633D01*
X75088418Y-79311553D01*
X75089139Y-79312361D01*
X75093823Y-79322115D01*
X75104903Y-79330976D01*
X75114120Y-79338347D01*
X75122908Y-79346212D01*
X75123743Y-79346878D01*
X75128751Y-79351886D01*
X75134745Y-79355653D01*
X75135981Y-79356639D01*
X75145076Y-79363103D01*
X75166946Y-79380593D01*
X75178742Y-79383305D01*
X75188989Y-79389746D01*
X75216826Y-79392893D01*
X75228074Y-79394817D01*
X75229512Y-79394980D01*
X75236451Y-79396576D01*
X75243575Y-79396576D01*
X75244835Y-79396719D01*
X75256454Y-79397374D01*
X75270996Y-79399018D01*
X75336439Y-79426545D01*
X75365296Y-79460081D01*
X75394955Y-79510231D01*
X75400606Y-79519787D01*
X75504281Y-79619208D01*
X75624224Y-79683521D01*
X75674806Y-79733338D01*
X75690425Y-79802595D01*
X75666121Y-79869303D01*
X75603618Y-79914396D01*
X75507438Y-79945647D01*
X75373933Y-80030372D01*
X75368506Y-80036151D01*
X75368505Y-80036152D01*
X75316986Y-80091014D01*
X75265692Y-80145637D01*
X75189517Y-80284199D01*
X75150194Y-80437352D01*
X75150194Y-80595472D01*
X75189517Y-80748625D01*
X75231629Y-80825227D01*
X75261262Y-80879128D01*
X75265692Y-80887187D01*
X75271117Y-80892964D01*
X75350301Y-80977286D01*
X75373933Y-81002452D01*
X75384182Y-81008956D01*
X75391523Y-81013615D01*
X75438322Y-81067004D01*
X75448827Y-81137219D01*
X75419703Y-81201967D01*
X75360197Y-81240691D01*
X75324009Y-81246000D01*
X65039219Y-81246000D01*
X65012936Y-81243228D01*
X65003830Y-81241286D01*
X64925072Y-81240199D01*
X64904903Y-81239920D01*
X64897381Y-81239591D01*
X64878252Y-81238181D01*
X64869141Y-81237175D01*
X64793309Y-81225998D01*
X64719994Y-81215192D01*
X64710942Y-81213517D01*
X64698122Y-81210656D01*
X64689218Y-81208324D01*
X64569838Y-81172342D01*
X64545443Y-81164989D01*
X64536722Y-81162008D01*
X64524451Y-81157306D01*
X64515971Y-81153696D01*
X64380095Y-81089864D01*
X64371899Y-81085641D01*
X64353849Y-81075488D01*
X64347445Y-81071631D01*
X64307282Y-81045790D01*
X64307280Y-81045789D01*
X64216352Y-80987287D01*
X64203069Y-80978741D01*
X64196473Y-80974193D01*
X64186449Y-80966799D01*
X64180846Y-80964167D01*
X64179344Y-80963272D01*
X64177784Y-80962473D01*
X64172575Y-80959121D01*
X64166814Y-80956851D01*
X64166808Y-80956848D01*
X64160995Y-80954558D01*
X64153629Y-80951382D01*
X63972159Y-80866132D01*
X63966539Y-80863318D01*
X63958919Y-80859262D01*
X63958917Y-80859261D01*
X63953457Y-80856355D01*
X63948129Y-80854749D01*
X63947607Y-80854519D01*
X63947054Y-80854337D01*
X63942018Y-80851972D01*
X63936006Y-80850483D01*
X63936004Y-80850482D01*
X63927659Y-80848415D01*
X63921603Y-80846754D01*
X63726762Y-80788026D01*
X63720788Y-80786061D01*
X63712674Y-80783166D01*
X63712670Y-80783165D01*
X63706843Y-80781086D01*
X63701345Y-80780276D01*
X63700783Y-80780121D01*
X63700211Y-80780023D01*
X63694888Y-80778418D01*
X63688727Y-80777822D01*
X63688726Y-80777822D01*
X63683181Y-80777286D01*
X63680144Y-80776992D01*
X63673923Y-80776234D01*
X63528351Y-80754777D01*
X63475563Y-80746996D01*
X63467655Y-80745572D01*
X63461524Y-80744264D01*
X63461522Y-80744264D01*
X63455480Y-80742975D01*
X63449297Y-80742889D01*
X63447559Y-80742694D01*
X63445803Y-80742609D01*
X63439672Y-80741706D01*
X63427222Y-80742329D01*
X63419214Y-80742475D01*
X63295319Y-80740764D01*
X63278288Y-80743908D01*
X63255425Y-80746000D01*
X62055000Y-80746000D01*
X61986879Y-80725998D01*
X61940386Y-80672342D01*
X61929000Y-80620000D01*
X61929000Y-79000000D01*
X68864500Y-79000000D01*
X68884733Y-79114748D01*
X68890245Y-79124295D01*
X68933999Y-79200078D01*
X68942992Y-79215655D01*
X68951433Y-79222738D01*
X68951434Y-79222739D01*
X69015462Y-79276465D01*
X69032250Y-79290552D01*
X69141741Y-79330403D01*
X69258259Y-79330403D01*
X69367750Y-79290552D01*
X69384538Y-79276465D01*
X69448566Y-79222739D01*
X69448567Y-79222738D01*
X69457008Y-79215655D01*
X69466002Y-79200078D01*
X69509755Y-79124295D01*
X69515267Y-79114748D01*
X69535500Y-79000000D01*
X69515267Y-78885252D01*
X69480720Y-78825415D01*
X69462519Y-78793890D01*
X69462518Y-78793889D01*
X69457008Y-78784345D01*
X69430782Y-78762338D01*
X69376196Y-78716535D01*
X69367750Y-78709448D01*
X69258259Y-78669597D01*
X69141741Y-78669597D01*
X69032250Y-78709448D01*
X69023804Y-78716535D01*
X68969219Y-78762338D01*
X68942992Y-78784345D01*
X68937482Y-78793889D01*
X68937481Y-78793890D01*
X68919280Y-78825415D01*
X68884733Y-78885252D01*
X68864500Y-79000000D01*
X61929000Y-79000000D01*
X61929000Y-77400000D01*
X69414500Y-77400000D01*
X69434733Y-77514748D01*
X69440245Y-77524295D01*
X69477752Y-77589258D01*
X69492992Y-77615655D01*
X69501433Y-77622738D01*
X69501434Y-77622739D01*
X69570596Y-77680773D01*
X69582250Y-77690552D01*
X69691741Y-77730403D01*
X69808259Y-77730403D01*
X69917750Y-77690552D01*
X69929404Y-77680773D01*
X69998566Y-77622739D01*
X69998567Y-77622738D01*
X70007008Y-77615655D01*
X70022249Y-77589258D01*
X70059755Y-77524295D01*
X70065267Y-77514748D01*
X70085500Y-77400000D01*
X70065267Y-77285252D01*
X70051878Y-77262062D01*
X70044493Y-77249270D01*
X70027755Y-77180274D01*
X70050976Y-77113182D01*
X70083610Y-77081505D01*
X70092797Y-77075367D01*
X70166272Y-77026272D01*
X70213609Y-76955428D01*
X70218016Y-76948833D01*
X70218017Y-76948830D01*
X70224909Y-76938516D01*
X70227542Y-76925282D01*
X70236054Y-76882488D01*
X70240500Y-76860136D01*
X70240500Y-76439864D01*
X70234148Y-76407931D01*
X70227330Y-76373653D01*
X70227329Y-76373651D01*
X70224909Y-76361484D01*
X70218017Y-76351170D01*
X70218016Y-76351167D01*
X70173165Y-76284044D01*
X70166272Y-76273728D01*
X70125312Y-76246359D01*
X70088833Y-76221984D01*
X70088830Y-76221983D01*
X70078516Y-76215091D01*
X70066349Y-76212671D01*
X70066347Y-76212670D01*
X70015881Y-76202632D01*
X70000136Y-76199500D01*
X69679864Y-76199500D01*
X69664119Y-76202632D01*
X69613653Y-76212670D01*
X69613651Y-76212671D01*
X69601484Y-76215091D01*
X69591170Y-76221983D01*
X69591167Y-76221984D01*
X69554688Y-76246359D01*
X69513728Y-76273728D01*
X69506835Y-76284044D01*
X69461984Y-76351167D01*
X69461983Y-76351170D01*
X69455091Y-76361484D01*
X69452671Y-76373651D01*
X69452670Y-76373653D01*
X69445852Y-76407931D01*
X69439500Y-76439864D01*
X69439500Y-76860136D01*
X69443946Y-76882488D01*
X69452459Y-76925282D01*
X69455091Y-76938516D01*
X69461983Y-76948830D01*
X69461984Y-76948833D01*
X69511931Y-77023583D01*
X69533146Y-77091336D01*
X69514363Y-77159803D01*
X69503688Y-77174575D01*
X69501434Y-77177261D01*
X69492992Y-77184345D01*
X69487482Y-77193889D01*
X69487481Y-77193890D01*
X69452607Y-77254293D01*
X69434733Y-77285252D01*
X69414500Y-77400000D01*
X61929000Y-77400000D01*
X61929000Y-70383616D01*
X61949002Y-70315495D01*
X62002658Y-70269002D01*
X62052719Y-70257637D01*
X62063430Y-70257443D01*
X62087810Y-70257002D01*
X62094998Y-70257078D01*
X62108574Y-70257611D01*
X62114684Y-70256644D01*
X62115239Y-70256611D01*
X62115595Y-70256597D01*
X62115953Y-70256548D01*
X62116506Y-70256483D01*
X62122700Y-70256371D01*
X62128750Y-70255054D01*
X62128755Y-70255053D01*
X62135962Y-70253484D01*
X62143058Y-70252150D01*
X62360630Y-70217690D01*
X62365532Y-70217012D01*
X62371936Y-70216254D01*
X62381882Y-70215077D01*
X62386402Y-70213608D01*
X62391095Y-70212865D01*
X62406552Y-70207163D01*
X62411206Y-70205549D01*
X62624588Y-70136217D01*
X62629313Y-70134783D01*
X62645169Y-70130311D01*
X62649403Y-70128154D01*
X62653923Y-70126685D01*
X62668302Y-70118632D01*
X62672644Y-70116312D01*
X62872551Y-70014455D01*
X62877001Y-70012296D01*
X62891955Y-70005402D01*
X62895801Y-70002608D01*
X62900034Y-70000451D01*
X62912957Y-69990263D01*
X62916903Y-69987276D01*
X62923305Y-69982625D01*
X63098425Y-69855393D01*
X63102477Y-69852569D01*
X63111008Y-69846868D01*
X63116162Y-69843424D01*
X63119520Y-69840066D01*
X63123367Y-69837271D01*
X63134551Y-69825172D01*
X63137981Y-69821605D01*
X63296618Y-69662969D01*
X63300185Y-69659540D01*
X63307724Y-69652571D01*
X63307728Y-69652566D01*
X63312271Y-69648367D01*
X63315063Y-69644524D01*
X63318425Y-69641162D01*
X63327576Y-69627467D01*
X63330405Y-69623408D01*
X63462272Y-69441909D01*
X63465257Y-69437965D01*
X63471619Y-69429895D01*
X63471619Y-69429894D01*
X63475451Y-69425034D01*
X63477608Y-69420801D01*
X63480402Y-69416955D01*
X63487296Y-69402000D01*
X63489455Y-69397551D01*
X63591312Y-69197644D01*
X63593632Y-69193302D01*
X63601685Y-69178923D01*
X63603154Y-69174403D01*
X63605311Y-69170169D01*
X63606991Y-69164213D01*
X63606993Y-69164207D01*
X63609781Y-69154321D01*
X63611217Y-69149587D01*
X63680552Y-68936198D01*
X63682172Y-68931527D01*
X63685721Y-68921906D01*
X63687865Y-68916095D01*
X63688608Y-68911402D01*
X63690077Y-68906882D01*
X63692013Y-68890528D01*
X63692690Y-68885630D01*
X63694531Y-68874009D01*
X63727155Y-68668029D01*
X63728489Y-68660932D01*
X63728771Y-68659637D01*
X63731371Y-68647700D01*
X63731482Y-68641518D01*
X63731545Y-68640982D01*
X63731597Y-68640607D01*
X63731612Y-68640208D01*
X63731642Y-68639693D01*
X63732612Y-68633574D01*
X63732369Y-68627383D01*
X63732079Y-68620000D01*
X63732003Y-68612777D01*
X63734300Y-68485743D01*
X63734412Y-68479552D01*
X63730997Y-68460597D01*
X63729000Y-68438255D01*
X63729000Y-64450000D01*
X68514500Y-64450000D01*
X68534733Y-64564748D01*
X68540245Y-64574295D01*
X68587212Y-64655643D01*
X68592992Y-64665655D01*
X68601433Y-64672738D01*
X68601434Y-64672739D01*
X68651210Y-64714506D01*
X68682250Y-64740552D01*
X68791741Y-64780403D01*
X68837592Y-64780403D01*
X68905713Y-64800405D01*
X68926687Y-64817308D01*
X70019852Y-65910472D01*
X70020577Y-65911284D01*
X70025261Y-65921039D01*
X70036341Y-65929900D01*
X70045563Y-65937275D01*
X70054346Y-65945135D01*
X70055181Y-65945801D01*
X70060189Y-65950809D01*
X70066181Y-65954575D01*
X70067417Y-65955561D01*
X70076505Y-65962020D01*
X70098384Y-65979517D01*
X70110179Y-65982229D01*
X70120426Y-65988670D01*
X70148268Y-65991818D01*
X70159513Y-65993741D01*
X70160947Y-65993904D01*
X70167889Y-65995500D01*
X70175015Y-65995500D01*
X70176275Y-65995643D01*
X70187900Y-65996298D01*
X70199362Y-65997594D01*
X70199363Y-65997594D01*
X70213464Y-65999188D01*
X70223825Y-65995570D01*
X70225075Y-65995500D01*
X70398785Y-65995500D01*
X70468787Y-66016735D01*
X70501412Y-66038535D01*
X70501414Y-66038536D01*
X70511729Y-66045428D01*
X70562364Y-66055500D01*
X70737636Y-66055500D01*
X70788271Y-66045428D01*
X70798586Y-66038536D01*
X70798588Y-66038535D01*
X70831213Y-66016735D01*
X70901215Y-65995500D01*
X71551592Y-65995500D01*
X71619713Y-66015502D01*
X71666206Y-66069158D01*
X71676192Y-66102768D01*
X71681939Y-66140994D01*
X71684857Y-66160406D01*
X71688936Y-66168900D01*
X71740050Y-66275346D01*
X71740052Y-66275349D01*
X71744129Y-66283839D01*
X71750525Y-66290758D01*
X71824880Y-66371194D01*
X71837076Y-66384388D01*
X71845220Y-66389118D01*
X71845222Y-66389120D01*
X71947337Y-66448433D01*
X71955479Y-66453162D01*
X72073425Y-66480500D01*
X73908258Y-66480500D01*
X73959881Y-66472739D01*
X74001090Y-66466544D01*
X74001093Y-66466543D01*
X74010406Y-66465143D01*
X74080963Y-66431262D01*
X74125346Y-66409950D01*
X74125349Y-66409948D01*
X74133839Y-66405871D01*
X74234388Y-66312924D01*
X74239635Y-66303892D01*
X74298433Y-66202663D01*
X74298434Y-66202662D01*
X74299980Y-66200000D01*
X75000000Y-66200000D01*
X75000000Y-69700000D01*
X77250000Y-69700000D01*
X77250000Y-66200000D01*
X82750000Y-66200000D01*
X82750000Y-69700000D01*
X85000000Y-69700000D01*
X85000000Y-68740561D01*
X85020002Y-68672440D01*
X85073658Y-68625947D01*
X85143932Y-68615843D01*
X85169089Y-68622159D01*
X85191741Y-68630403D01*
X85308259Y-68630403D01*
X85417750Y-68590552D01*
X85426196Y-68583465D01*
X85444009Y-68568518D01*
X85509050Y-68540054D01*
X85579154Y-68551271D01*
X85605991Y-68568518D01*
X85623804Y-68583465D01*
X85632250Y-68590552D01*
X85741741Y-68630403D01*
X85858259Y-68630403D01*
X85967750Y-68590552D01*
X85976196Y-68583465D01*
X86048566Y-68522739D01*
X86048567Y-68522738D01*
X86057008Y-68515655D01*
X86115267Y-68414748D01*
X86135500Y-68300000D01*
X86115267Y-68185252D01*
X86057008Y-68084345D01*
X86050930Y-68079245D01*
X86023230Y-68015949D01*
X86034449Y-67945844D01*
X86050154Y-67921406D01*
X86057008Y-67915655D01*
X86063289Y-67904777D01*
X86109755Y-67824295D01*
X86115267Y-67814748D01*
X86135500Y-67700000D01*
X86115267Y-67585252D01*
X86084633Y-67532193D01*
X86062521Y-67493893D01*
X86062520Y-67493891D01*
X86057008Y-67484345D01*
X86050930Y-67479245D01*
X86023230Y-67415949D01*
X86034449Y-67345844D01*
X86050154Y-67321406D01*
X86057008Y-67315655D01*
X86080228Y-67275438D01*
X86109755Y-67224295D01*
X86115267Y-67214748D01*
X86135500Y-67100000D01*
X86115267Y-66985252D01*
X86057008Y-66884345D01*
X85967750Y-66809448D01*
X85858259Y-66769597D01*
X85741741Y-66769597D01*
X85632250Y-66809448D01*
X85623804Y-66816535D01*
X85605991Y-66831482D01*
X85540950Y-66859946D01*
X85470846Y-66848729D01*
X85444009Y-66831482D01*
X85426196Y-66816535D01*
X85417750Y-66809448D01*
X85308259Y-66769597D01*
X85191741Y-66769597D01*
X85169093Y-66777840D01*
X85098242Y-66782343D01*
X85036201Y-66747825D01*
X85002671Y-66685245D01*
X85000000Y-66659439D01*
X85000000Y-66200000D01*
X82750000Y-66200000D01*
X77250000Y-66200000D01*
X75000000Y-66200000D01*
X74299980Y-66200000D01*
X74303162Y-66194521D01*
X74330500Y-66076575D01*
X74330500Y-65341742D01*
X74317126Y-65252782D01*
X74316544Y-65248910D01*
X74316543Y-65248907D01*
X74315143Y-65239594D01*
X74294851Y-65197337D01*
X74259950Y-65124654D01*
X74259948Y-65124651D01*
X74255871Y-65116161D01*
X74201659Y-65057515D01*
X74169321Y-65022532D01*
X74169320Y-65022531D01*
X74162924Y-65015612D01*
X74154780Y-65010882D01*
X74154778Y-65010880D01*
X74052663Y-64951567D01*
X74052662Y-64951566D01*
X74044521Y-64946838D01*
X73926575Y-64919500D01*
X72091742Y-64919500D01*
X72052398Y-64925415D01*
X71998910Y-64933456D01*
X71998907Y-64933457D01*
X71989594Y-64934857D01*
X71981099Y-64938936D01*
X71981100Y-64938936D01*
X71874654Y-64990050D01*
X71874651Y-64990052D01*
X71866161Y-64994129D01*
X71848040Y-65010880D01*
X71785209Y-65068961D01*
X71765612Y-65087076D01*
X71760882Y-65095220D01*
X71760880Y-65095222D01*
X71706658Y-65188572D01*
X71696838Y-65205479D01*
X71669500Y-65323425D01*
X71669500Y-65458500D01*
X71649498Y-65526621D01*
X71595842Y-65573114D01*
X71543500Y-65584500D01*
X70901215Y-65584500D01*
X70831213Y-65563265D01*
X70798588Y-65541465D01*
X70798586Y-65541464D01*
X70788271Y-65534572D01*
X70737636Y-65524500D01*
X70562364Y-65524500D01*
X70511729Y-65534572D01*
X70501414Y-65541464D01*
X70501412Y-65541465D01*
X70468787Y-65563265D01*
X70398785Y-65584500D01*
X70327311Y-65584500D01*
X70259190Y-65564498D01*
X70238216Y-65547595D01*
X69220491Y-64529870D01*
X69186465Y-64467558D01*
X69184927Y-64453250D01*
X69185500Y-64450000D01*
X69165267Y-64335252D01*
X69146490Y-64302729D01*
X69112519Y-64243890D01*
X69112518Y-64243889D01*
X69107008Y-64234345D01*
X69084735Y-64215655D01*
X69026196Y-64166535D01*
X69017750Y-64159448D01*
X68908259Y-64119597D01*
X68791741Y-64119597D01*
X68682250Y-64159448D01*
X68673804Y-64166535D01*
X68615266Y-64215655D01*
X68592992Y-64234345D01*
X68587482Y-64243889D01*
X68587481Y-64243890D01*
X68553510Y-64302729D01*
X68534733Y-64335252D01*
X68514500Y-64450000D01*
X63729000Y-64450000D01*
X63729000Y-64240998D01*
X63731273Y-64220586D01*
X63731067Y-64220560D01*
X63731829Y-64214423D01*
X63733192Y-64208379D01*
X63735138Y-64131859D01*
X63735723Y-64122521D01*
X63736401Y-64115747D01*
X63738309Y-64096686D01*
X63740200Y-64084176D01*
X63762323Y-63975259D01*
X63765442Y-63963067D01*
X63768742Y-63952415D01*
X63768770Y-63952325D01*
X63773085Y-63940518D01*
X63816621Y-63837671D01*
X63822108Y-63826328D01*
X63827502Y-63816466D01*
X63834090Y-63805732D01*
X63897191Y-63713596D01*
X63904815Y-63703579D01*
X63912072Y-63694972D01*
X63920657Y-63685768D01*
X64000801Y-63608018D01*
X64010269Y-63599710D01*
X64019074Y-63592731D01*
X64029327Y-63585408D01*
X64123330Y-63525131D01*
X64134256Y-63518872D01*
X64144277Y-63513779D01*
X64155786Y-63508638D01*
X64259892Y-63468244D01*
X64271843Y-63464281D01*
X64282684Y-63461280D01*
X64294969Y-63458532D01*
X64317629Y-63454641D01*
X64405021Y-63439634D01*
X64417519Y-63438126D01*
X64428740Y-63437338D01*
X64441332Y-63437085D01*
X64497146Y-63438759D01*
X64552947Y-63440434D01*
X64565504Y-63441441D01*
X64576662Y-63442900D01*
X64589055Y-63445155D01*
X64654255Y-63460423D01*
X64697779Y-63470616D01*
X64709872Y-63474094D01*
X64724298Y-63479037D01*
X64733019Y-63482025D01*
X64741825Y-63485416D01*
X64766921Y-63496175D01*
X64766990Y-63496222D01*
X64789822Y-63505993D01*
X64812822Y-63515854D01*
X64812830Y-63515857D01*
X64813047Y-63515950D01*
X64813129Y-63515967D01*
X64885822Y-63547076D01*
X64888991Y-63548484D01*
X64899672Y-63553407D01*
X64899677Y-63553409D01*
X64905297Y-63555999D01*
X64908425Y-63556750D01*
X64911382Y-63558015D01*
X64917429Y-63559291D01*
X64917434Y-63559293D01*
X64928944Y-63561723D01*
X64932321Y-63562484D01*
X65156396Y-63616254D01*
X65161793Y-63617549D01*
X65161858Y-63617552D01*
X65161918Y-63617566D01*
X65425467Y-63628517D01*
X65425529Y-63628507D01*
X65425592Y-63628510D01*
X65431819Y-63627553D01*
X65431824Y-63627553D01*
X65584466Y-63604101D01*
X65686310Y-63588454D01*
X65686368Y-63588433D01*
X65686433Y-63588423D01*
X65800973Y-63547076D01*
X65928713Y-63500964D01*
X65928715Y-63500963D01*
X65934541Y-63498860D01*
X65934599Y-63498825D01*
X65934655Y-63498805D01*
X66001779Y-63458532D01*
X66155450Y-63366332D01*
X66155452Y-63366331D01*
X66160843Y-63363096D01*
X66160889Y-63363054D01*
X66160943Y-63363022D01*
X66195643Y-63331694D01*
X66296653Y-63240497D01*
X66356730Y-63186257D01*
X66356767Y-63186207D01*
X66356815Y-63186164D01*
X66514857Y-62974974D01*
X66514884Y-62974918D01*
X66514923Y-62974866D01*
X66517538Y-62969431D01*
X66517541Y-62969426D01*
X66626878Y-62742181D01*
X66629289Y-62737170D01*
X66629305Y-62737110D01*
X66629332Y-62737053D01*
X66638170Y-62703079D01*
X66647525Y-62667116D01*
X73468723Y-62667116D01*
X73506342Y-62807515D01*
X73580332Y-62932625D01*
X73586531Y-62938570D01*
X73586533Y-62938572D01*
X73685241Y-63033229D01*
X73683173Y-63035386D01*
X73717585Y-63080000D01*
X73723670Y-63150735D01*
X73685462Y-63218478D01*
X73684764Y-63219120D01*
X73587390Y-63308659D01*
X73582866Y-63315956D01*
X73582864Y-63315958D01*
X73556297Y-63358807D01*
X73510796Y-63432193D01*
X73508400Y-63440441D01*
X73508398Y-63440446D01*
X73483741Y-63525319D01*
X73470245Y-63571773D01*
X73470155Y-63580361D01*
X73469986Y-63596521D01*
X73468723Y-63717116D01*
X73506342Y-63857515D01*
X73580332Y-63982625D01*
X73586531Y-63988570D01*
X73586533Y-63988572D01*
X73608408Y-64009549D01*
X73685241Y-64083229D01*
X73692807Y-64087286D01*
X73692810Y-64087288D01*
X73744600Y-64115057D01*
X73813340Y-64151915D01*
X73955191Y-64183622D01*
X73963764Y-64183173D01*
X73963768Y-64183173D01*
X74091760Y-64176465D01*
X74091761Y-64176465D01*
X74100343Y-64176015D01*
X74184025Y-64147853D01*
X74229967Y-64132392D01*
X74229969Y-64132391D01*
X74238102Y-64129654D01*
X74245988Y-64124295D01*
X74285540Y-64097415D01*
X74358319Y-64047954D01*
X74452138Y-63936935D01*
X74511769Y-63806690D01*
X74558313Y-63753079D01*
X74626453Y-63733142D01*
X74694555Y-63753209D01*
X74740996Y-63806909D01*
X74748040Y-63826531D01*
X74756342Y-63857515D01*
X74830332Y-63982625D01*
X74836531Y-63988570D01*
X74836533Y-63988572D01*
X74858408Y-64009549D01*
X74935241Y-64083229D01*
X74942807Y-64087286D01*
X74942810Y-64087288D01*
X75063340Y-64151915D01*
X75061752Y-64154876D01*
X75105849Y-64187821D01*
X75130722Y-64254318D01*
X75115696Y-64323706D01*
X75062255Y-64375691D01*
X75002038Y-64406374D01*
X75002035Y-64406376D01*
X74994383Y-64410275D01*
X74887390Y-64508659D01*
X74882866Y-64515956D01*
X74882864Y-64515958D01*
X74868078Y-64539806D01*
X74810796Y-64632193D01*
X74808399Y-64640444D01*
X74808398Y-64640446D01*
X74786882Y-64714506D01*
X74770245Y-64771773D01*
X74768723Y-64917116D01*
X74806342Y-65057515D01*
X74880332Y-65182625D01*
X74886531Y-65188570D01*
X74886533Y-65188572D01*
X74904164Y-65205479D01*
X74985241Y-65283229D01*
X74992807Y-65287286D01*
X74992810Y-65287288D01*
X75047157Y-65316428D01*
X75113340Y-65351915D01*
X75255191Y-65383622D01*
X75263764Y-65383173D01*
X75263768Y-65383173D01*
X75391760Y-65376465D01*
X75391761Y-65376465D01*
X75400343Y-65376015D01*
X75484025Y-65347853D01*
X75529967Y-65332392D01*
X75529969Y-65332391D01*
X75538102Y-65329654D01*
X75658319Y-65247954D01*
X75752138Y-65136935D01*
X75757602Y-65125000D01*
X83964500Y-65125000D01*
X83984733Y-65239748D01*
X83990245Y-65249295D01*
X84036641Y-65329654D01*
X84042992Y-65340655D01*
X84051433Y-65347738D01*
X84051434Y-65347739D01*
X84123804Y-65408465D01*
X84132250Y-65415552D01*
X84241741Y-65455403D01*
X84358259Y-65455403D01*
X84467750Y-65415552D01*
X84476196Y-65408465D01*
X84548566Y-65347739D01*
X84548567Y-65347738D01*
X84557008Y-65340655D01*
X84563360Y-65329654D01*
X84609755Y-65249295D01*
X84615267Y-65239748D01*
X84635500Y-65125000D01*
X84615267Y-65010252D01*
X84577427Y-64944712D01*
X84562519Y-64918890D01*
X84562518Y-64918889D01*
X84557008Y-64909345D01*
X84499650Y-64861215D01*
X84476196Y-64841535D01*
X84467750Y-64834448D01*
X84358259Y-64794597D01*
X84241741Y-64794597D01*
X84132250Y-64834448D01*
X84123804Y-64841535D01*
X84100351Y-64861215D01*
X84042992Y-64909345D01*
X84037482Y-64918889D01*
X84037481Y-64918890D01*
X84022573Y-64944712D01*
X83984733Y-65010252D01*
X83964500Y-65125000D01*
X75757602Y-65125000D01*
X75812645Y-65004777D01*
X75835383Y-64861215D01*
X75835500Y-64850000D01*
X75815774Y-64705993D01*
X75794188Y-64656110D01*
X75761460Y-64580481D01*
X75761459Y-64580479D01*
X75758048Y-64572597D01*
X75693556Y-64492956D01*
X75671983Y-64466315D01*
X75671982Y-64466314D01*
X75666575Y-64459637D01*
X75659573Y-64454661D01*
X75659571Y-64454659D01*
X75555097Y-64380414D01*
X75548095Y-64375438D01*
X75502753Y-64359114D01*
X75445435Y-64317220D01*
X75419866Y-64250987D01*
X75434164Y-64181445D01*
X75487035Y-64130013D01*
X75488102Y-64129654D01*
X75608319Y-64047954D01*
X75669744Y-63975268D01*
X75696595Y-63943495D01*
X75696597Y-63943492D01*
X75702138Y-63936935D01*
X75705712Y-63929128D01*
X75708374Y-63924934D01*
X75761764Y-63878136D01*
X75831979Y-63867632D01*
X75896727Y-63896757D01*
X75923208Y-63928306D01*
X75955332Y-63982625D01*
X75961531Y-63988570D01*
X75961533Y-63988572D01*
X75983408Y-64009549D01*
X76060241Y-64083229D01*
X76067807Y-64087286D01*
X76067810Y-64087288D01*
X76119600Y-64115057D01*
X76188340Y-64151915D01*
X76330191Y-64183622D01*
X76338764Y-64183173D01*
X76338768Y-64183173D01*
X76466760Y-64176465D01*
X76466761Y-64176465D01*
X76475343Y-64176015D01*
X76559025Y-64147853D01*
X76604967Y-64132392D01*
X76604969Y-64132391D01*
X76613102Y-64129654D01*
X76620988Y-64124295D01*
X76660540Y-64097415D01*
X76733319Y-64047954D01*
X76773844Y-64000000D01*
X77964500Y-64000000D01*
X77984733Y-64114748D01*
X77990245Y-64124295D01*
X78035361Y-64202437D01*
X78042992Y-64215655D01*
X78051433Y-64222738D01*
X78051434Y-64222739D01*
X78085507Y-64251330D01*
X78132250Y-64290552D01*
X78241741Y-64330403D01*
X78358259Y-64330403D01*
X78467750Y-64290552D01*
X78514493Y-64251330D01*
X78548566Y-64222739D01*
X78548567Y-64222738D01*
X78557008Y-64215655D01*
X78564640Y-64202437D01*
X78609755Y-64124295D01*
X78615267Y-64114748D01*
X78635500Y-64000000D01*
X78615267Y-63885252D01*
X78581247Y-63826328D01*
X78562519Y-63793890D01*
X78562518Y-63793889D01*
X78557008Y-63784345D01*
X78519747Y-63753079D01*
X78468108Y-63709748D01*
X78428782Y-63650638D01*
X78427656Y-63579650D01*
X78465088Y-63519323D01*
X78506006Y-63494826D01*
X78517750Y-63490552D01*
X78527197Y-63482625D01*
X78598566Y-63422739D01*
X78598567Y-63422738D01*
X78607008Y-63415655D01*
X78612519Y-63406110D01*
X78619605Y-63397665D01*
X78620905Y-63398756D01*
X78663079Y-63358545D01*
X78732793Y-63345110D01*
X78798703Y-63371498D01*
X78839884Y-63429331D01*
X78844992Y-63449200D01*
X78854895Y-63506830D01*
X78929985Y-63710371D01*
X78932937Y-63715332D01*
X78932937Y-63715333D01*
X79030311Y-63879003D01*
X79040910Y-63896819D01*
X79044716Y-63901159D01*
X79044719Y-63901163D01*
X79173452Y-64047954D01*
X79183956Y-64059931D01*
X79188492Y-64063507D01*
X79346183Y-64187821D01*
X79354330Y-64194244D01*
X79359439Y-64196932D01*
X79541217Y-64292570D01*
X79541222Y-64292572D01*
X79546329Y-64295259D01*
X79594125Y-64310100D01*
X79748006Y-64357882D01*
X79748011Y-64357883D01*
X79753521Y-64359594D01*
X79787462Y-64363611D01*
X79926466Y-64380064D01*
X79926473Y-64380064D01*
X79930153Y-64380500D01*
X80054415Y-64380500D01*
X80216040Y-64365649D01*
X80221602Y-64364080D01*
X80221604Y-64364080D01*
X80346406Y-64328882D01*
X80424845Y-64306760D01*
X80619422Y-64210805D01*
X80625710Y-64206110D01*
X80633892Y-64200000D01*
X90064500Y-64200000D01*
X90084733Y-64314748D01*
X90090245Y-64324295D01*
X90122542Y-64380234D01*
X90142992Y-64415655D01*
X90151433Y-64422738D01*
X90151434Y-64422739D01*
X90183922Y-64450000D01*
X90232250Y-64490552D01*
X90341741Y-64530403D01*
X90458259Y-64530403D01*
X90567750Y-64490552D01*
X90616078Y-64450000D01*
X90648566Y-64422739D01*
X90648567Y-64422738D01*
X90657008Y-64415655D01*
X90677459Y-64380234D01*
X90709755Y-64324295D01*
X90715267Y-64314748D01*
X90735500Y-64200000D01*
X90715267Y-64085252D01*
X90671560Y-64009549D01*
X90662519Y-63993890D01*
X90662518Y-63993889D01*
X90657008Y-63984345D01*
X90618849Y-63952325D01*
X90576196Y-63916535D01*
X90567750Y-63909448D01*
X90458259Y-63869597D01*
X90341741Y-63869597D01*
X90232250Y-63909448D01*
X90223804Y-63916535D01*
X90181152Y-63952325D01*
X90142992Y-63984345D01*
X90137482Y-63993889D01*
X90137481Y-63993890D01*
X90128440Y-64009549D01*
X90084733Y-64085252D01*
X90064500Y-64200000D01*
X80633892Y-64200000D01*
X80788630Y-64084451D01*
X80788631Y-64084451D01*
X80793254Y-64080998D01*
X80902269Y-63963067D01*
X80936601Y-63925927D01*
X80936603Y-63925924D01*
X80940520Y-63921687D01*
X81056288Y-63738206D01*
X81136681Y-63536700D01*
X81138983Y-63525131D01*
X81177879Y-63329585D01*
X81177879Y-63329582D01*
X81179006Y-63323918D01*
X81179111Y-63315958D01*
X81180800Y-63186824D01*
X81181845Y-63106987D01*
X81181025Y-63102214D01*
X83419625Y-63102214D01*
X83419625Y-63297786D01*
X83420997Y-63304239D01*
X83420997Y-63304243D01*
X83437202Y-63380481D01*
X83460287Y-63489085D01*
X83462973Y-63495118D01*
X83462974Y-63495121D01*
X83536137Y-63659448D01*
X83539833Y-63667750D01*
X83543713Y-63673091D01*
X83543714Y-63673092D01*
X83640779Y-63806690D01*
X83654788Y-63825972D01*
X83800127Y-63956835D01*
X83805846Y-63960137D01*
X83805849Y-63960139D01*
X83961586Y-64050054D01*
X83969498Y-64054622D01*
X84000663Y-64064748D01*
X84098959Y-64096686D01*
X84155499Y-64115057D01*
X84162062Y-64115747D01*
X84162063Y-64115747D01*
X84186584Y-64118324D01*
X84302428Y-64130500D01*
X84697572Y-64130500D01*
X84813416Y-64118324D01*
X84837937Y-64115747D01*
X84837938Y-64115747D01*
X84844501Y-64115057D01*
X84901042Y-64096686D01*
X84999337Y-64064748D01*
X85030502Y-64054622D01*
X85038414Y-64050054D01*
X85194151Y-63960139D01*
X85194154Y-63960137D01*
X85199873Y-63956835D01*
X85345212Y-63825972D01*
X85359222Y-63806690D01*
X85456286Y-63673092D01*
X85456287Y-63673091D01*
X85460167Y-63667750D01*
X85463864Y-63659448D01*
X85537026Y-63495121D01*
X85537027Y-63495118D01*
X85539713Y-63489085D01*
X85562798Y-63380481D01*
X85579003Y-63304243D01*
X85579003Y-63304239D01*
X85580375Y-63297786D01*
X85580375Y-63102214D01*
X85578341Y-63092641D01*
X85541086Y-62917375D01*
X85539713Y-62910915D01*
X85534349Y-62898867D01*
X85462853Y-62738282D01*
X85462851Y-62738279D01*
X85460167Y-62732250D01*
X85440309Y-62704918D01*
X85349095Y-62579372D01*
X85349093Y-62579370D01*
X85345212Y-62574028D01*
X85199873Y-62443165D01*
X85194154Y-62439863D01*
X85194151Y-62439861D01*
X85036225Y-62348682D01*
X85036224Y-62348681D01*
X85030502Y-62345378D01*
X84954033Y-62320532D01*
X84850780Y-62286983D01*
X84850779Y-62286983D01*
X84844501Y-62284943D01*
X84837938Y-62284253D01*
X84837937Y-62284253D01*
X84813416Y-62281676D01*
X84697572Y-62269500D01*
X84302428Y-62269500D01*
X84186584Y-62281676D01*
X84162063Y-62284253D01*
X84162062Y-62284253D01*
X84155499Y-62284943D01*
X84149221Y-62286983D01*
X84149220Y-62286983D01*
X84045967Y-62320532D01*
X83969498Y-62345378D01*
X83963776Y-62348681D01*
X83963775Y-62348682D01*
X83805849Y-62439861D01*
X83805846Y-62439863D01*
X83800127Y-62443165D01*
X83654788Y-62574028D01*
X83650907Y-62579370D01*
X83650905Y-62579372D01*
X83559691Y-62704918D01*
X83539833Y-62732250D01*
X83537149Y-62738279D01*
X83537147Y-62738282D01*
X83465651Y-62898867D01*
X83460287Y-62910915D01*
X83458914Y-62917375D01*
X83421660Y-63092641D01*
X83419625Y-63102214D01*
X81181025Y-63102214D01*
X81172320Y-63051553D01*
X81146084Y-62898867D01*
X81146084Y-62898866D01*
X81145105Y-62893170D01*
X81070015Y-62689629D01*
X81056621Y-62667116D01*
X80962046Y-62508149D01*
X80962044Y-62508146D01*
X80959090Y-62503181D01*
X80955284Y-62498841D01*
X80955281Y-62498837D01*
X80819851Y-62344410D01*
X80816044Y-62340069D01*
X80811508Y-62336493D01*
X80650204Y-62209330D01*
X80650202Y-62209328D01*
X80645670Y-62205756D01*
X80640561Y-62203068D01*
X80458783Y-62107430D01*
X80458778Y-62107428D01*
X80453671Y-62104741D01*
X80329504Y-62066186D01*
X80251994Y-62042118D01*
X80251989Y-62042117D01*
X80246479Y-62040406D01*
X80208577Y-62035920D01*
X80073534Y-62019936D01*
X80073527Y-62019936D01*
X80069847Y-62019500D01*
X79945585Y-62019500D01*
X79783960Y-62034351D01*
X79778398Y-62035920D01*
X79778396Y-62035920D01*
X79756420Y-62042118D01*
X79575155Y-62093240D01*
X79380578Y-62189195D01*
X79375952Y-62192649D01*
X79375951Y-62192650D01*
X79253280Y-62284253D01*
X79206746Y-62319002D01*
X79155083Y-62374891D01*
X79066981Y-62470199D01*
X79059480Y-62478313D01*
X78943712Y-62661794D01*
X78863319Y-62863300D01*
X78857313Y-62893494D01*
X78845044Y-62955173D01*
X78812136Y-63018082D01*
X78750441Y-63053214D01*
X78679546Y-63049414D01*
X78621960Y-63007888D01*
X78612662Y-62994061D01*
X78612519Y-62993890D01*
X78607008Y-62984345D01*
X78595774Y-62974918D01*
X78526196Y-62916535D01*
X78517750Y-62909448D01*
X78408259Y-62869597D01*
X78291741Y-62869597D01*
X78182250Y-62909448D01*
X78173804Y-62916535D01*
X78104227Y-62974918D01*
X78092992Y-62984345D01*
X78087482Y-62993889D01*
X78087481Y-62993890D01*
X78055424Y-63049414D01*
X78034733Y-63085252D01*
X78014500Y-63200000D01*
X78034733Y-63314748D01*
X78040245Y-63324295D01*
X78084279Y-63400563D01*
X78092992Y-63415655D01*
X78101433Y-63422738D01*
X78101434Y-63422739D01*
X78181892Y-63490252D01*
X78221218Y-63549362D01*
X78222344Y-63620350D01*
X78184912Y-63680677D01*
X78143994Y-63705174D01*
X78132250Y-63709448D01*
X78123804Y-63716535D01*
X78092159Y-63743089D01*
X78042992Y-63784345D01*
X78037482Y-63793889D01*
X78037481Y-63793890D01*
X78018753Y-63826328D01*
X77984733Y-63885252D01*
X77964500Y-64000000D01*
X76773844Y-64000000D01*
X76827138Y-63936935D01*
X76887645Y-63804777D01*
X76910383Y-63661215D01*
X76910500Y-63650000D01*
X76890774Y-63505993D01*
X76886546Y-63496222D01*
X76836460Y-63380481D01*
X76836459Y-63380479D01*
X76833048Y-63372597D01*
X76768602Y-63293013D01*
X76746983Y-63266315D01*
X76746982Y-63266314D01*
X76741575Y-63259637D01*
X76684867Y-63219337D01*
X76640927Y-63163571D01*
X76634111Y-63092903D01*
X76666584Y-63029767D01*
X76687031Y-63012422D01*
X76708319Y-62997954D01*
X76802138Y-62886935D01*
X76862645Y-62754777D01*
X76885383Y-62611215D01*
X76885500Y-62600000D01*
X76865774Y-62455993D01*
X76830678Y-62374891D01*
X76811460Y-62330481D01*
X76811459Y-62330479D01*
X76808048Y-62322597D01*
X76727185Y-62222739D01*
X76721983Y-62216315D01*
X76721979Y-62216311D01*
X76716575Y-62209637D01*
X76709573Y-62204661D01*
X76709571Y-62204659D01*
X76605097Y-62130414D01*
X76598095Y-62125438D01*
X76461337Y-62076202D01*
X76452777Y-62075573D01*
X76452775Y-62075573D01*
X76363965Y-62069052D01*
X76316376Y-62065557D01*
X76173892Y-62094286D01*
X76044383Y-62160275D01*
X75937390Y-62258659D01*
X75932864Y-62265959D01*
X75932863Y-62265960D01*
X75908913Y-62304587D01*
X75856017Y-62351942D01*
X75785916Y-62363181D01*
X75720866Y-62334737D01*
X75703915Y-62317493D01*
X75616575Y-62209637D01*
X75609573Y-62204661D01*
X75609571Y-62204659D01*
X75505097Y-62130414D01*
X75498095Y-62125438D01*
X75361337Y-62076202D01*
X75352777Y-62075573D01*
X75352775Y-62075573D01*
X75263965Y-62069052D01*
X75216376Y-62065557D01*
X75073892Y-62094286D01*
X74944383Y-62160275D01*
X74837390Y-62258659D01*
X74832866Y-62265956D01*
X74832864Y-62265958D01*
X74803660Y-62313060D01*
X74760796Y-62382193D01*
X74747186Y-62429040D01*
X74708975Y-62488873D01*
X74644480Y-62518552D01*
X74574177Y-62508649D01*
X74520388Y-62462311D01*
X74510553Y-62443927D01*
X74461460Y-62330481D01*
X74461459Y-62330479D01*
X74458048Y-62322597D01*
X74377185Y-62222739D01*
X74371983Y-62216315D01*
X74371979Y-62216311D01*
X74366575Y-62209637D01*
X74359573Y-62204661D01*
X74359571Y-62204659D01*
X74255097Y-62130414D01*
X74248095Y-62125438D01*
X74111337Y-62076202D01*
X74102777Y-62075573D01*
X74102775Y-62075573D01*
X74013965Y-62069052D01*
X73966376Y-62065557D01*
X73823892Y-62094286D01*
X73694383Y-62160275D01*
X73587390Y-62258659D01*
X73582866Y-62265956D01*
X73582864Y-62265958D01*
X73553660Y-62313060D01*
X73510796Y-62382193D01*
X73508400Y-62390441D01*
X73508398Y-62390446D01*
X73487520Y-62462311D01*
X73470245Y-62521773D01*
X73468723Y-62667116D01*
X66647525Y-62667116D01*
X66685331Y-62521773D01*
X66695736Y-62481771D01*
X66695740Y-62481705D01*
X66695755Y-62481647D01*
X66711704Y-62218352D01*
X66711695Y-62218288D01*
X66711699Y-62218227D01*
X66682396Y-62000000D01*
X89064500Y-62000000D01*
X89084733Y-62114748D01*
X89142992Y-62215655D01*
X89151433Y-62222738D01*
X89151434Y-62222739D01*
X89207161Y-62269500D01*
X89232250Y-62290552D01*
X89341741Y-62330403D01*
X89458259Y-62330403D01*
X89567750Y-62290552D01*
X89592839Y-62269500D01*
X89648566Y-62222739D01*
X89648567Y-62222738D01*
X89657008Y-62215655D01*
X89715267Y-62114748D01*
X89735500Y-62000000D01*
X89715267Y-61885252D01*
X89657008Y-61784345D01*
X89648147Y-61776909D01*
X89576196Y-61716535D01*
X89567750Y-61709448D01*
X89458259Y-61669597D01*
X89341741Y-61669597D01*
X89232250Y-61709448D01*
X89223804Y-61716535D01*
X89151854Y-61776909D01*
X89142992Y-61784345D01*
X89084733Y-61885252D01*
X89064500Y-62000000D01*
X66682396Y-62000000D01*
X66676595Y-61956796D01*
X66676574Y-61956735D01*
X66676566Y-61956674D01*
X66621271Y-61793890D01*
X66593713Y-61712761D01*
X66593711Y-61712756D01*
X66591726Y-61706913D01*
X66591696Y-61706861D01*
X66591675Y-61706799D01*
X66474099Y-61502131D01*
X66472452Y-61499170D01*
X66469714Y-61494086D01*
X66466864Y-61488791D01*
X66466861Y-61488787D01*
X66463930Y-61483343D01*
X66461882Y-61480863D01*
X66460281Y-61478076D01*
X66448486Y-61464568D01*
X66446268Y-61461957D01*
X66405520Y-61412615D01*
X66397951Y-61403449D01*
X66397188Y-61402424D01*
X66397079Y-61402220D01*
X66347407Y-61341659D01*
X66341524Y-61333893D01*
X66325001Y-61310232D01*
X66318119Y-61299205D01*
X66263115Y-61200033D01*
X66257345Y-61188214D01*
X66251059Y-61173427D01*
X66246555Y-61161079D01*
X66213650Y-61053752D01*
X66210460Y-61041009D01*
X66210459Y-61041003D01*
X66207376Y-61025232D01*
X66205532Y-61012219D01*
X66204990Y-61006110D01*
X66196876Y-60914748D01*
X66195603Y-60900415D01*
X66195125Y-60887276D01*
X66195280Y-60877477D01*
X66195379Y-60871215D01*
X66196274Y-60858089D01*
X66198476Y-60839881D01*
X66203298Y-60800000D01*
X68014500Y-60800000D01*
X68034733Y-60914748D01*
X68092992Y-61015655D01*
X68101433Y-61022738D01*
X68101434Y-61022739D01*
X68157033Y-61069392D01*
X68182250Y-61090552D01*
X68291741Y-61130403D01*
X68408259Y-61130403D01*
X68517750Y-61090552D01*
X68572062Y-61044979D01*
X68637101Y-61016514D01*
X68653053Y-61015500D01*
X68948785Y-61015500D01*
X69018787Y-61036735D01*
X69051412Y-61058535D01*
X69051414Y-61058536D01*
X69061729Y-61065428D01*
X69112364Y-61075500D01*
X69287636Y-61075500D01*
X69338271Y-61065428D01*
X69348586Y-61058536D01*
X69348588Y-61058535D01*
X69381213Y-61036735D01*
X69451215Y-61015500D01*
X71554598Y-61015500D01*
X71622719Y-61035502D01*
X71669212Y-61089158D01*
X71679198Y-61122766D01*
X71684857Y-61160406D01*
X71688936Y-61168900D01*
X71740050Y-61275346D01*
X71740052Y-61275349D01*
X71744129Y-61283839D01*
X71750525Y-61290758D01*
X71797578Y-61341659D01*
X71837076Y-61384388D01*
X71845220Y-61389118D01*
X71845222Y-61389120D01*
X71881084Y-61409950D01*
X71955479Y-61453162D01*
X72073425Y-61480500D01*
X73908258Y-61480500D01*
X73955351Y-61473420D01*
X74001090Y-61466544D01*
X74001093Y-61466543D01*
X74010406Y-61465143D01*
X74045204Y-61448433D01*
X74125346Y-61409950D01*
X74125349Y-61409948D01*
X74133839Y-61405871D01*
X74188606Y-61355245D01*
X74227468Y-61319321D01*
X74227469Y-61319320D01*
X74234388Y-61312924D01*
X74303162Y-61194521D01*
X74330500Y-61076575D01*
X74330500Y-60341742D01*
X74323511Y-60295253D01*
X74316544Y-60248910D01*
X74316543Y-60248907D01*
X74315143Y-60239594D01*
X74293314Y-60194135D01*
X74259950Y-60124654D01*
X74259948Y-60124651D01*
X74255871Y-60116161D01*
X74192963Y-60048108D01*
X74169321Y-60022532D01*
X74169320Y-60022531D01*
X74162924Y-60015612D01*
X74154780Y-60010882D01*
X74154778Y-60010880D01*
X74052663Y-59951567D01*
X74052662Y-59951566D01*
X74044521Y-59946838D01*
X73926575Y-59919500D01*
X72091742Y-59919500D01*
X72049650Y-59925828D01*
X71998910Y-59933456D01*
X71998907Y-59933457D01*
X71989594Y-59934857D01*
X71969071Y-59944712D01*
X71874654Y-59990050D01*
X71874651Y-59990052D01*
X71866161Y-59994129D01*
X71826071Y-60031188D01*
X71762473Y-60062739D01*
X71691911Y-60054898D01*
X71636789Y-60010153D01*
X71619186Y-59972547D01*
X71616939Y-59964501D01*
X71615774Y-59955993D01*
X71583686Y-59881842D01*
X71561460Y-59830481D01*
X71561459Y-59830479D01*
X71558048Y-59822597D01*
X71493935Y-59743424D01*
X71471983Y-59716315D01*
X71471982Y-59716314D01*
X71466575Y-59709637D01*
X71459573Y-59704661D01*
X71459571Y-59704659D01*
X71355097Y-59630414D01*
X71348095Y-59625438D01*
X71211337Y-59576202D01*
X71202777Y-59575573D01*
X71202775Y-59575573D01*
X71113965Y-59569052D01*
X71066376Y-59565557D01*
X70984806Y-59582004D01*
X70935706Y-59591904D01*
X70923892Y-59594286D01*
X70916240Y-59598185D01*
X70916234Y-59598187D01*
X70810078Y-59652277D01*
X70740302Y-59665382D01*
X70674517Y-59638682D01*
X70637238Y-59590051D01*
X70611461Y-59530483D01*
X70611460Y-59530481D01*
X70608048Y-59522597D01*
X70516575Y-59409637D01*
X70509573Y-59404661D01*
X70509571Y-59404659D01*
X70405097Y-59330414D01*
X70398095Y-59325438D01*
X70397101Y-59325080D01*
X70348611Y-59278315D01*
X70332267Y-59209225D01*
X70355870Y-59142267D01*
X70361849Y-59134611D01*
X70396595Y-59093494D01*
X70402138Y-59086935D01*
X70462645Y-58954777D01*
X70485383Y-58811215D01*
X70485500Y-58800000D01*
X70465774Y-58655993D01*
X70447335Y-58613383D01*
X70411460Y-58530481D01*
X70411459Y-58530479D01*
X70408048Y-58522597D01*
X70316575Y-58409637D01*
X70309573Y-58404661D01*
X70309571Y-58404659D01*
X70205097Y-58330414D01*
X70198095Y-58325438D01*
X70061337Y-58276202D01*
X70052777Y-58275573D01*
X70052775Y-58275573D01*
X69963965Y-58269052D01*
X69916376Y-58265557D01*
X69773892Y-58294286D01*
X69644383Y-58360275D01*
X69537390Y-58458659D01*
X69460796Y-58582193D01*
X69458399Y-58590444D01*
X69458398Y-58590446D01*
X69436882Y-58664506D01*
X69420245Y-58721773D01*
X69420155Y-58730361D01*
X69418904Y-58849828D01*
X69398190Y-58917736D01*
X69344050Y-58963664D01*
X69283684Y-58974171D01*
X69201278Y-58968120D01*
X69166376Y-58965557D01*
X69023892Y-58994286D01*
X68894383Y-59060275D01*
X68787390Y-59158659D01*
X68710796Y-59282193D01*
X68708399Y-59290444D01*
X68708398Y-59290446D01*
X68688111Y-59360275D01*
X68670245Y-59421773D01*
X68668723Y-59567116D01*
X68706342Y-59707515D01*
X68780332Y-59832625D01*
X68786531Y-59838570D01*
X68786533Y-59838572D01*
X68831645Y-59881832D01*
X68885241Y-59933229D01*
X68892807Y-59937286D01*
X68892810Y-59937288D01*
X68942388Y-59963871D01*
X69013340Y-60001915D01*
X69155191Y-60033622D01*
X69163764Y-60033173D01*
X69163768Y-60033173D01*
X69291760Y-60026465D01*
X69291761Y-60026465D01*
X69300343Y-60026015D01*
X69390500Y-59995674D01*
X69429967Y-59982392D01*
X69429969Y-59982391D01*
X69438102Y-59979654D01*
X69472402Y-59956344D01*
X69539985Y-59934598D01*
X69608597Y-59952842D01*
X69655946Y-60007749D01*
X69656342Y-60007515D01*
X69730332Y-60132625D01*
X69835241Y-60233229D01*
X69842807Y-60237286D01*
X69842810Y-60237288D01*
X69882416Y-60258524D01*
X69963340Y-60301915D01*
X70105191Y-60333622D01*
X70113764Y-60333173D01*
X70113768Y-60333173D01*
X70241760Y-60326465D01*
X70241761Y-60326465D01*
X70250343Y-60326015D01*
X70334025Y-60297853D01*
X70379967Y-60282392D01*
X70379969Y-60282391D01*
X70388102Y-60279654D01*
X70422402Y-60256344D01*
X70489985Y-60234598D01*
X70558597Y-60252842D01*
X70605945Y-60307749D01*
X70606342Y-60307514D01*
X70606342Y-60307515D01*
X70669532Y-60414363D01*
X70686991Y-60483177D01*
X70664475Y-60550508D01*
X70609130Y-60594977D01*
X70561078Y-60604500D01*
X69451215Y-60604500D01*
X69381213Y-60583265D01*
X69348588Y-60561465D01*
X69348586Y-60561464D01*
X69338271Y-60554572D01*
X69287636Y-60544500D01*
X69112364Y-60544500D01*
X69061729Y-60554572D01*
X69051414Y-60561464D01*
X69051412Y-60561465D01*
X69018787Y-60583265D01*
X68948785Y-60604500D01*
X68676888Y-60604500D01*
X68608767Y-60584498D01*
X68595896Y-60575021D01*
X68592885Y-60572494D01*
X68517750Y-60509448D01*
X68408259Y-60469597D01*
X68291741Y-60469597D01*
X68182250Y-60509448D01*
X68173804Y-60516535D01*
X68139039Y-60545707D01*
X68092992Y-60584345D01*
X68087482Y-60593889D01*
X68087481Y-60593890D01*
X68079553Y-60607622D01*
X68034733Y-60685252D01*
X68014500Y-60800000D01*
X66203298Y-60800000D01*
X66209747Y-60746659D01*
X66212004Y-60733707D01*
X66214389Y-60723274D01*
X66215584Y-60718049D01*
X66219181Y-60705399D01*
X66255472Y-60599183D01*
X66260369Y-60586973D01*
X66267119Y-60572397D01*
X66273262Y-60560766D01*
X66330788Y-60464391D01*
X66338102Y-60453474D01*
X66347741Y-60440597D01*
X66356145Y-60430515D01*
X66432432Y-60348140D01*
X66441855Y-60338975D01*
X66453932Y-60328398D01*
X66464250Y-60320272D01*
X66555975Y-60255500D01*
X66567074Y-60248501D01*
X66595066Y-60232829D01*
X66603589Y-60228474D01*
X66646586Y-60208531D01*
X66648834Y-60207515D01*
X66849263Y-60119276D01*
X66853319Y-60117792D01*
X66853258Y-60117640D01*
X66858993Y-60115325D01*
X66864935Y-60113581D01*
X66875772Y-60107914D01*
X66883370Y-60104260D01*
X66894549Y-60099338D01*
X66899618Y-60095788D01*
X66905012Y-60092750D01*
X66905094Y-60092895D01*
X66908776Y-60090654D01*
X66962155Y-60062739D01*
X67305182Y-59883349D01*
X67309609Y-59881363D01*
X67309604Y-59881353D01*
X67315154Y-59878605D01*
X67320943Y-59876416D01*
X67329839Y-59870865D01*
X67338152Y-59866107D01*
X67341967Y-59864112D01*
X67341971Y-59864109D01*
X67347456Y-59861241D01*
X67352276Y-59857358D01*
X67357454Y-59853965D01*
X67357460Y-59853975D01*
X67361428Y-59851154D01*
X67742428Y-59613413D01*
X67746699Y-59611092D01*
X67746692Y-59611081D01*
X67752008Y-59607925D01*
X67757620Y-59605300D01*
X67762990Y-59601353D01*
X67766079Y-59599082D01*
X67773995Y-59593714D01*
X67782904Y-59588155D01*
X67787415Y-59583917D01*
X67792325Y-59580137D01*
X67792332Y-59580146D01*
X67796075Y-59577031D01*
X67943528Y-59468636D01*
X68157911Y-59311041D01*
X68161990Y-59308405D01*
X68161983Y-59308395D01*
X68167049Y-59304842D01*
X68172441Y-59301800D01*
X68177132Y-59297769D01*
X68177137Y-59297765D01*
X68180394Y-59294965D01*
X68187880Y-59289011D01*
X68196350Y-59282784D01*
X68200528Y-59278213D01*
X68205130Y-59274077D01*
X68205138Y-59274086D01*
X68208637Y-59270693D01*
X68549218Y-58977996D01*
X68553096Y-58975048D01*
X68553089Y-58975039D01*
X68557870Y-58971111D01*
X68563014Y-58967669D01*
X68567388Y-58963290D01*
X68567393Y-58963286D01*
X68570423Y-58960252D01*
X68577452Y-58953730D01*
X68580715Y-58950926D01*
X68585409Y-58946892D01*
X68589228Y-58942017D01*
X68593501Y-58937545D01*
X68593510Y-58937553D01*
X68596737Y-58933908D01*
X68882215Y-58648108D01*
X68914110Y-58616177D01*
X68917747Y-58612950D01*
X68917738Y-58612941D01*
X68922203Y-58608665D01*
X68927078Y-58604837D01*
X68933919Y-58596858D01*
X68940412Y-58589846D01*
X68943449Y-58586806D01*
X68943454Y-58586800D01*
X68947831Y-58582418D01*
X68951271Y-58577263D01*
X68955190Y-58572482D01*
X68955200Y-58572490D01*
X68958138Y-58568613D01*
X69250464Y-58227692D01*
X69253846Y-58224197D01*
X69253837Y-58224189D01*
X69257968Y-58219582D01*
X69262532Y-58215401D01*
X69266188Y-58210416D01*
X69266194Y-58210409D01*
X69268741Y-58206935D01*
X69274690Y-58199438D01*
X69281522Y-58191471D01*
X69284556Y-58186079D01*
X69288109Y-58181002D01*
X69288118Y-58181008D01*
X69290753Y-58176921D01*
X69556334Y-57814788D01*
X69559441Y-57811045D01*
X69559432Y-57811038D01*
X69563202Y-57806129D01*
X69567439Y-57801610D01*
X69570712Y-57796351D01*
X69570716Y-57796346D01*
X69572983Y-57792704D01*
X69578347Y-57784773D01*
X69580893Y-57781301D01*
X69584555Y-57776308D01*
X69587172Y-57770698D01*
X69590327Y-57765369D01*
X69590337Y-57765375D01*
X69592657Y-57761095D01*
X69829963Y-57379838D01*
X69832777Y-57375869D01*
X69832768Y-57375863D01*
X69836156Y-57370680D01*
X69840033Y-57365856D01*
X69844891Y-57356542D01*
X69849629Y-57348241D01*
X69855179Y-57339325D01*
X69857363Y-57333530D01*
X69860102Y-57327981D01*
X69860113Y-57327986D01*
X69862099Y-57323546D01*
X70069764Y-56925364D01*
X70072273Y-56921185D01*
X70072264Y-56921180D01*
X70075246Y-56915758D01*
X70078744Y-56910656D01*
X70082883Y-56900994D01*
X70086979Y-56892354D01*
X70088967Y-56888542D01*
X70091830Y-56883052D01*
X70093568Y-56877107D01*
X70095876Y-56871370D01*
X70095888Y-56871375D01*
X70097529Y-56866800D01*
X70163173Y-56713548D01*
X70168976Y-56700000D01*
X75000000Y-56700000D01*
X75000000Y-60200000D01*
X77250000Y-60200000D01*
X77250000Y-59317116D01*
X79918723Y-59317116D01*
X79956342Y-59457515D01*
X80030332Y-59582625D01*
X80036531Y-59588570D01*
X80036533Y-59588572D01*
X80083887Y-59633982D01*
X80119209Y-59695568D01*
X80115629Y-59766474D01*
X80081962Y-59817673D01*
X80043715Y-59852842D01*
X80043712Y-59852846D01*
X80037390Y-59858659D01*
X80032866Y-59865956D01*
X80032864Y-59865958D01*
X80013968Y-59896435D01*
X79960796Y-59982193D01*
X79958399Y-59990444D01*
X79958398Y-59990446D01*
X79932876Y-60078297D01*
X79920245Y-60121773D01*
X79920155Y-60130361D01*
X79919568Y-60186452D01*
X79918723Y-60267116D01*
X79956342Y-60407515D01*
X80030332Y-60532625D01*
X80036531Y-60538570D01*
X80036533Y-60538572D01*
X80053218Y-60554572D01*
X80135241Y-60633229D01*
X80142807Y-60637286D01*
X80142810Y-60637288D01*
X80212825Y-60674829D01*
X80263340Y-60701915D01*
X80405191Y-60733622D01*
X80413764Y-60733173D01*
X80413768Y-60733173D01*
X80541760Y-60726465D01*
X80541761Y-60726465D01*
X80550343Y-60726015D01*
X80639210Y-60696108D01*
X80679967Y-60682392D01*
X80679969Y-60682391D01*
X80688102Y-60679654D01*
X80808319Y-60597954D01*
X80902138Y-60486935D01*
X80962645Y-60354777D01*
X80985383Y-60211215D01*
X80985500Y-60200000D01*
X80965774Y-60055993D01*
X80955283Y-60031749D01*
X80911460Y-59930481D01*
X80911459Y-59930479D01*
X80908048Y-59922597D01*
X80816575Y-59809637D01*
X80817647Y-59808769D01*
X80786235Y-59755306D01*
X80789074Y-59684366D01*
X80812216Y-59643342D01*
X80815581Y-59639361D01*
X80902138Y-59536935D01*
X80962645Y-59404777D01*
X80976529Y-59317116D01*
X81268723Y-59317116D01*
X81306342Y-59457515D01*
X81380332Y-59582625D01*
X81386531Y-59588570D01*
X81386533Y-59588572D01*
X81433887Y-59633982D01*
X81469209Y-59695568D01*
X81465629Y-59766474D01*
X81431962Y-59817673D01*
X81393715Y-59852842D01*
X81393712Y-59852846D01*
X81387390Y-59858659D01*
X81382866Y-59865956D01*
X81382864Y-59865958D01*
X81363968Y-59896435D01*
X81310796Y-59982193D01*
X81308399Y-59990444D01*
X81308398Y-59990446D01*
X81282876Y-60078297D01*
X81270245Y-60121773D01*
X81270155Y-60130361D01*
X81269568Y-60186452D01*
X81268723Y-60267116D01*
X81306342Y-60407515D01*
X81380332Y-60532625D01*
X81386531Y-60538570D01*
X81386533Y-60538572D01*
X81403218Y-60554572D01*
X81485241Y-60633229D01*
X81492807Y-60637286D01*
X81492810Y-60637288D01*
X81562825Y-60674829D01*
X81613340Y-60701915D01*
X81755191Y-60733622D01*
X81763764Y-60733173D01*
X81763768Y-60733173D01*
X81891760Y-60726465D01*
X81891761Y-60726465D01*
X81900343Y-60726015D01*
X81989210Y-60696108D01*
X82029967Y-60682392D01*
X82029969Y-60682391D01*
X82038102Y-60679654D01*
X82158319Y-60597954D01*
X82252138Y-60486935D01*
X82312645Y-60354777D01*
X82335383Y-60211215D01*
X82335500Y-60200000D01*
X82315774Y-60055993D01*
X82305283Y-60031749D01*
X82261460Y-59930481D01*
X82261459Y-59930479D01*
X82258048Y-59922597D01*
X82166575Y-59809637D01*
X82167647Y-59808769D01*
X82136235Y-59755306D01*
X82139074Y-59684366D01*
X82162216Y-59643342D01*
X82165581Y-59639361D01*
X82252138Y-59536935D01*
X82312645Y-59404777D01*
X82335383Y-59261215D01*
X82335500Y-59250000D01*
X82315774Y-59105993D01*
X82307527Y-59086935D01*
X82261460Y-58980481D01*
X82261459Y-58980479D01*
X82258048Y-58972597D01*
X82188038Y-58886142D01*
X82171983Y-58866315D01*
X82171982Y-58866314D01*
X82166575Y-58859637D01*
X82159573Y-58854661D01*
X82159571Y-58854659D01*
X82055097Y-58780414D01*
X82048095Y-58775438D01*
X81911337Y-58726202D01*
X81902777Y-58725573D01*
X81902775Y-58725573D01*
X81813965Y-58719052D01*
X81766376Y-58715557D01*
X81623892Y-58744286D01*
X81616240Y-58748185D01*
X81514549Y-58800000D01*
X81494383Y-58810275D01*
X81387390Y-58908659D01*
X81382866Y-58915956D01*
X81382864Y-58915958D01*
X81363405Y-58947343D01*
X81310796Y-59032193D01*
X81308399Y-59040444D01*
X81308398Y-59040446D01*
X81286882Y-59114506D01*
X81270245Y-59171773D01*
X81268723Y-59317116D01*
X80976529Y-59317116D01*
X80985383Y-59261215D01*
X80985500Y-59250000D01*
X80965774Y-59105993D01*
X80957527Y-59086935D01*
X80911460Y-58980481D01*
X80911459Y-58980479D01*
X80908048Y-58972597D01*
X80838038Y-58886142D01*
X80821983Y-58866315D01*
X80821982Y-58866314D01*
X80816575Y-58859637D01*
X80809573Y-58854661D01*
X80809571Y-58854659D01*
X80705097Y-58780414D01*
X80698095Y-58775438D01*
X80561337Y-58726202D01*
X80552777Y-58725573D01*
X80552775Y-58725573D01*
X80463965Y-58719052D01*
X80416376Y-58715557D01*
X80273892Y-58744286D01*
X80266240Y-58748185D01*
X80164549Y-58800000D01*
X80144383Y-58810275D01*
X80037390Y-58908659D01*
X80032866Y-58915956D01*
X80032864Y-58915958D01*
X80013405Y-58947343D01*
X79960796Y-59032193D01*
X79958399Y-59040444D01*
X79958398Y-59040446D01*
X79936882Y-59114506D01*
X79920245Y-59171773D01*
X79918723Y-59317116D01*
X77250000Y-59317116D01*
X77250000Y-56700000D01*
X82750000Y-56700000D01*
X82750000Y-60200000D01*
X85000000Y-60200000D01*
X85000000Y-56700000D01*
X82750000Y-56700000D01*
X77250000Y-56700000D01*
X75000000Y-56700000D01*
X70168976Y-56700000D01*
X70274354Y-56453983D01*
X70276534Y-56449635D01*
X70276523Y-56449630D01*
X70279085Y-56443997D01*
X70282189Y-56438639D01*
X70284187Y-56432781D01*
X70284189Y-56432776D01*
X70285573Y-56428717D01*
X70289010Y-56419766D01*
X70290568Y-56416130D01*
X70293142Y-56410120D01*
X70294423Y-56404062D01*
X70296289Y-56398165D01*
X70296300Y-56398169D01*
X70297591Y-56393477D01*
X70302240Y-56379846D01*
X70441984Y-55970085D01*
X70443638Y-55966107D01*
X70443481Y-55966048D01*
X70445658Y-55960257D01*
X70448395Y-55954704D01*
X70451554Y-55942903D01*
X70454010Y-55934824D01*
X70455952Y-55929129D01*
X70455953Y-55929125D01*
X70457951Y-55923266D01*
X70458768Y-55917128D01*
X70460181Y-55911107D01*
X70460342Y-55911145D01*
X70461188Y-55906910D01*
X70515982Y-55702197D01*
X70516386Y-55700722D01*
X70537147Y-55626766D01*
X70539484Y-55619332D01*
X70553944Y-55577865D01*
X70557738Y-55568268D01*
X70559420Y-55564477D01*
X70565841Y-55550000D01*
X83064500Y-55550000D01*
X83084733Y-55664748D01*
X83090245Y-55674295D01*
X83100904Y-55692756D01*
X83142992Y-55765655D01*
X83232250Y-55840552D01*
X83341741Y-55880403D01*
X83458259Y-55880403D01*
X83567750Y-55840552D01*
X83657008Y-55765655D01*
X83699097Y-55692756D01*
X83709755Y-55674295D01*
X83715267Y-55664748D01*
X83735500Y-55550000D01*
X83715267Y-55435252D01*
X83692575Y-55395948D01*
X83662519Y-55343890D01*
X83662518Y-55343889D01*
X83657008Y-55334345D01*
X83567750Y-55259448D01*
X83458259Y-55219597D01*
X83341741Y-55219597D01*
X83232250Y-55259448D01*
X83142992Y-55334345D01*
X83137482Y-55343889D01*
X83137481Y-55343890D01*
X83107425Y-55395948D01*
X83084733Y-55435252D01*
X83064500Y-55550000D01*
X70565841Y-55550000D01*
X70619895Y-55428124D01*
X70624491Y-55418817D01*
X70639312Y-55391678D01*
X70644654Y-55382786D01*
X70728612Y-55255256D01*
X70734656Y-55246852D01*
X70753731Y-55222506D01*
X70760463Y-55214607D01*
X70864204Y-55102574D01*
X70871553Y-55095265D01*
X70894348Y-55074391D01*
X70902275Y-55067711D01*
X71022985Y-54974209D01*
X71031440Y-54968201D01*
X71057378Y-54951330D01*
X71066300Y-54946037D01*
X71200162Y-54873896D01*
X71200692Y-54873611D01*
X71210006Y-54869076D01*
X71228676Y-54860919D01*
X71238351Y-54856692D01*
X71248021Y-54852933D01*
X71392496Y-54803523D01*
X71402439Y-54800574D01*
X71412087Y-54798139D01*
X71432431Y-54793006D01*
X71442552Y-54790892D01*
X71567640Y-54770094D01*
X71593184Y-54765847D01*
X71603481Y-54764568D01*
X71649056Y-54760805D01*
X71656778Y-54760406D01*
X71728285Y-54758904D01*
X71751567Y-54758415D01*
X71757609Y-54757081D01*
X71757615Y-54757080D01*
X71758135Y-54756965D01*
X71763101Y-54756423D01*
X71763762Y-54756344D01*
X71763763Y-54756351D01*
X71785308Y-54754000D01*
X88162999Y-54754000D01*
X88190162Y-54756963D01*
G37*
%TD.AperFunction*%
%TA.AperFunction,Conductor*%
G36*
X66403077Y-74080502D02*
G01*
X66446078Y-74127103D01*
X66462854Y-74158488D01*
X66464574Y-74161062D01*
X66475742Y-74177776D01*
X66478361Y-74181696D01*
X66503234Y-74212003D01*
X66537997Y-74246766D01*
X66568304Y-74271639D01*
X66570864Y-74273349D01*
X66570870Y-74273354D01*
X66585268Y-74282974D01*
X66591512Y-74287146D01*
X66626089Y-74305628D01*
X66671510Y-74324442D01*
X66709030Y-74335823D01*
X66725651Y-74339129D01*
X66747302Y-74343436D01*
X66747316Y-74343438D01*
X66748812Y-74343736D01*
X66755813Y-74344775D01*
X66766686Y-74346388D01*
X66766704Y-74346390D01*
X66768226Y-74346616D01*
X66780850Y-74347859D01*
X66846680Y-74374439D01*
X66887691Y-74432393D01*
X66894500Y-74473252D01*
X66894500Y-75050000D01*
X66895707Y-75056067D01*
X66895707Y-75056070D01*
X66896659Y-75060855D01*
X66904814Y-75101854D01*
X66911707Y-75112170D01*
X66911710Y-75112177D01*
X66923618Y-75129997D01*
X66944834Y-75197750D01*
X66923618Y-75270003D01*
X66911710Y-75287823D01*
X66911707Y-75287830D01*
X66904814Y-75298146D01*
X66902393Y-75310320D01*
X66896752Y-75338680D01*
X66894500Y-75350000D01*
X66894500Y-76050000D01*
X66904814Y-76101854D01*
X66911709Y-76112173D01*
X66913596Y-76114997D01*
X66915818Y-76122094D01*
X66916459Y-76123641D01*
X66916321Y-76123698D01*
X66934811Y-76182750D01*
X66916169Y-76246239D01*
X66916459Y-76246359D01*
X66915343Y-76249054D01*
X66913596Y-76255003D01*
X66904814Y-76268146D01*
X66897367Y-76305586D01*
X66894979Y-76317592D01*
X66862072Y-76380502D01*
X66800377Y-76415634D01*
X66771400Y-76419011D01*
X65459310Y-76419011D01*
X65391189Y-76399009D01*
X65370214Y-76382106D01*
X65267404Y-76279295D01*
X65233379Y-76216983D01*
X65230500Y-76190200D01*
X65230500Y-74459798D01*
X65250502Y-74391677D01*
X65267405Y-74370703D01*
X65540703Y-74097405D01*
X65603015Y-74063379D01*
X65629798Y-74060500D01*
X66334956Y-74060500D01*
X66403077Y-74080502D01*
G37*
%TD.AperFunction*%
%TA.AperFunction,Conductor*%
G36*
X95521502Y-63437437D02*
G01*
X95531280Y-63438126D01*
X95532712Y-63438227D01*
X95545213Y-63439740D01*
X95655240Y-63458672D01*
X95667529Y-63461425D01*
X95678356Y-63464426D01*
X95690318Y-63468396D01*
X95794409Y-63508824D01*
X95805912Y-63513967D01*
X95815916Y-63519055D01*
X95826843Y-63525319D01*
X95861700Y-63547686D01*
X95920822Y-63585624D01*
X95931044Y-63592929D01*
X95939890Y-63599945D01*
X95949322Y-63608227D01*
X96029459Y-63686022D01*
X96038034Y-63695224D01*
X96045281Y-63703825D01*
X96052903Y-63713849D01*
X96115787Y-63805732D01*
X96115955Y-63805978D01*
X96122541Y-63816716D01*
X96127936Y-63826588D01*
X96133417Y-63837930D01*
X96168841Y-63921687D01*
X96176901Y-63940745D01*
X96181220Y-63952573D01*
X96184551Y-63963336D01*
X96187668Y-63975539D01*
X96194829Y-64010855D01*
X96209854Y-64084956D01*
X96211737Y-64097415D01*
X96214178Y-64121743D01*
X96214768Y-64131161D01*
X96216085Y-64183622D01*
X96216712Y-64208622D01*
X96218070Y-64214656D01*
X96218832Y-64220806D01*
X96218682Y-64220825D01*
X96221000Y-64241678D01*
X96221000Y-65576189D01*
X96200998Y-65644310D01*
X96147342Y-65690803D01*
X96077068Y-65700907D01*
X96012488Y-65671413D01*
X96005905Y-65665284D01*
X94670144Y-64329523D01*
X94669423Y-64328715D01*
X94664739Y-64318961D01*
X94649483Y-64306760D01*
X94644442Y-64302729D01*
X94635647Y-64294857D01*
X94634812Y-64294191D01*
X94629811Y-64289190D01*
X94623823Y-64285427D01*
X94622585Y-64284439D01*
X94613486Y-64277973D01*
X94602697Y-64269345D01*
X94602698Y-64269345D01*
X94591616Y-64260483D01*
X94579822Y-64257771D01*
X94569574Y-64251330D01*
X94541732Y-64248182D01*
X94530487Y-64246259D01*
X94529053Y-64246096D01*
X94522111Y-64244500D01*
X94514985Y-64244500D01*
X94513725Y-64244357D01*
X94502100Y-64243702D01*
X94490638Y-64242406D01*
X94490637Y-64242406D01*
X94476536Y-64240812D01*
X94466175Y-64244430D01*
X94464925Y-64244500D01*
X94327752Y-64244500D01*
X94259631Y-64224498D01*
X94213138Y-64170842D01*
X94203034Y-64100568D01*
X94209351Y-64075405D01*
X94209755Y-64074295D01*
X94215267Y-64064748D01*
X94235500Y-63950000D01*
X94215267Y-63835252D01*
X94197545Y-63804556D01*
X94185720Y-63784075D01*
X94168982Y-63715080D01*
X94192202Y-63647988D01*
X94248010Y-63604101D01*
X94313874Y-63596521D01*
X94525444Y-63628859D01*
X94525507Y-63628856D01*
X94525570Y-63628866D01*
X94789167Y-63617708D01*
X94789226Y-63617694D01*
X94789292Y-63617691D01*
X94794942Y-63616331D01*
X94794946Y-63616330D01*
X95018768Y-63562437D01*
X95022145Y-63561673D01*
X95033658Y-63559233D01*
X95033661Y-63559232D01*
X95039712Y-63557950D01*
X95042670Y-63556682D01*
X95045795Y-63555929D01*
X95051409Y-63553337D01*
X95051413Y-63553335D01*
X95062079Y-63548409D01*
X95065242Y-63547001D01*
X95146263Y-63512253D01*
X95184081Y-63496034D01*
X95184575Y-63495695D01*
X95185725Y-63495133D01*
X95207318Y-63485885D01*
X95216020Y-63482534D01*
X95240039Y-63474293D01*
X95240996Y-63473965D01*
X95253184Y-63470459D01*
X95330390Y-63452405D01*
X95361203Y-63445200D01*
X95373596Y-63442948D01*
X95384744Y-63441494D01*
X95397304Y-63440491D01*
X95466036Y-63438452D01*
X95508914Y-63437180D01*
X95521502Y-63437437D01*
G37*
%TD.AperFunction*%
%TD*%
%TA.AperFunction,Conductor*%
%TO.N,V_{bus}*%
G36*
X74619248Y-71504201D02*
G01*
X74670136Y-71517681D01*
X74726203Y-71549627D01*
X74751642Y-71574635D01*
X74784541Y-71630148D01*
X74798888Y-71680797D01*
X74803640Y-71712983D01*
X74840827Y-73888408D01*
X74821992Y-73956861D01*
X74803940Y-73979657D01*
X74721944Y-74061653D01*
X74664347Y-74174694D01*
X74644500Y-74300000D01*
X74644941Y-74302782D01*
X74626049Y-74367121D01*
X74572393Y-74413614D01*
X74520051Y-74425000D01*
X71104224Y-74425000D01*
X71077591Y-74422153D01*
X71034745Y-74412887D01*
X70986238Y-74390877D01*
X70951048Y-74364732D01*
X70931374Y-74346571D01*
X70536266Y-73895019D01*
X70530740Y-73890954D01*
X70530737Y-73890951D01*
X70494641Y-73864397D01*
X70466673Y-73843822D01*
X70453174Y-73841102D01*
X70453172Y-73841101D01*
X70388708Y-73828111D01*
X70381979Y-73826755D01*
X70381978Y-73826755D01*
X70375120Y-73826884D01*
X70375116Y-73826884D01*
X69236662Y-73848365D01*
X69236661Y-73848365D01*
X69230627Y-73848479D01*
X69192107Y-73856709D01*
X69167968Y-73861866D01*
X69167967Y-73861867D01*
X69156123Y-73864397D01*
X69092978Y-73907022D01*
X68917356Y-74082644D01*
X68898269Y-74098310D01*
X68864530Y-74120853D01*
X68819112Y-74139666D01*
X68802498Y-74142970D01*
X68779327Y-74147579D01*
X68754747Y-74150000D01*
X68220061Y-74150000D01*
X68195479Y-74147579D01*
X68194089Y-74147302D01*
X68180000Y-74144500D01*
X67030000Y-74144500D01*
X67015911Y-74147302D01*
X67014521Y-74147579D01*
X66989939Y-74150000D01*
X66812410Y-74150000D01*
X66787829Y-74147579D01*
X66748047Y-74139666D01*
X66702626Y-74120852D01*
X66679418Y-74105345D01*
X66644655Y-74070582D01*
X66629148Y-74047374D01*
X66610334Y-74001953D01*
X66602421Y-73962171D01*
X66600000Y-73937590D01*
X66600000Y-73262410D01*
X66602421Y-73237829D01*
X66610334Y-73198047D01*
X66629148Y-73152626D01*
X66644655Y-73129418D01*
X66679418Y-73094655D01*
X66702626Y-73079148D01*
X66748047Y-73060334D01*
X66787829Y-73052421D01*
X66812410Y-73050000D01*
X66853487Y-73050000D01*
X66923488Y-73071235D01*
X66941039Y-73082962D01*
X66941041Y-73082963D01*
X66951359Y-73089857D01*
X66963526Y-73092277D01*
X66963528Y-73092278D01*
X67005169Y-73100561D01*
X67030000Y-73105500D01*
X68180000Y-73105500D01*
X68204831Y-73100561D01*
X68246472Y-73092278D01*
X68246474Y-73092277D01*
X68258641Y-73089857D01*
X68268959Y-73082963D01*
X68268961Y-73082962D01*
X68286512Y-73071235D01*
X68356513Y-73050000D01*
X70600000Y-73050000D01*
X70608651Y-73048279D01*
X70664367Y-73037197D01*
X70664368Y-73037196D01*
X70676537Y-73034776D01*
X70741421Y-72991421D01*
X70784776Y-72926537D01*
X70800000Y-72850000D01*
X70800000Y-71712410D01*
X70802421Y-71687829D01*
X70810334Y-71648047D01*
X70829148Y-71602626D01*
X70844655Y-71579418D01*
X70879418Y-71544655D01*
X70902626Y-71529148D01*
X70948047Y-71510334D01*
X70987829Y-71502421D01*
X71012410Y-71500000D01*
X74586984Y-71500000D01*
X74619248Y-71504201D01*
G37*
%TD.AperFunction*%
%TD*%
%TA.AperFunction,Conductor*%
%TO.N,/FAN_PWR*%
G36*
X91537171Y-75702421D02*
G01*
X91576953Y-75710334D01*
X91622374Y-75729148D01*
X91645582Y-75744655D01*
X91680345Y-75779418D01*
X91695852Y-75802626D01*
X91714666Y-75848047D01*
X91722579Y-75887829D01*
X91725000Y-75912410D01*
X91725000Y-77112590D01*
X91722579Y-77137171D01*
X91714666Y-77176953D01*
X91695852Y-77222374D01*
X91680345Y-77245582D01*
X91645582Y-77280345D01*
X91622374Y-77295852D01*
X91576953Y-77314666D01*
X91537171Y-77322579D01*
X91512590Y-77325000D01*
X90193004Y-77325000D01*
X90168949Y-77322682D01*
X90139949Y-77317042D01*
X90129952Y-77315097D01*
X90085348Y-77297063D01*
X90083485Y-77295852D01*
X90052038Y-77275413D01*
X90033134Y-77260363D01*
X89880266Y-77112590D01*
X89408140Y-76656202D01*
X89403066Y-76652904D01*
X89403062Y-76652901D01*
X89354284Y-76621198D01*
X89354282Y-76621197D01*
X89344104Y-76614582D01*
X89332187Y-76612264D01*
X89275080Y-76601156D01*
X89275078Y-76601156D01*
X89269136Y-76600000D01*
X88312410Y-76600000D01*
X88287829Y-76597579D01*
X88248047Y-76589666D01*
X88202626Y-76570852D01*
X88179418Y-76555345D01*
X88144655Y-76520582D01*
X88129148Y-76497374D01*
X88110334Y-76451953D01*
X88102421Y-76412171D01*
X88100000Y-76387590D01*
X88100000Y-75912410D01*
X88102421Y-75887829D01*
X88110334Y-75848047D01*
X88129148Y-75802626D01*
X88144655Y-75779418D01*
X88179418Y-75744655D01*
X88202626Y-75729148D01*
X88248047Y-75710334D01*
X88287829Y-75702421D01*
X88312410Y-75700000D01*
X91512590Y-75700000D01*
X91537171Y-75702421D01*
G37*
%TD.AperFunction*%
%TD*%
%TA.AperFunction,Conductor*%
%TO.N,Net-(D111-Pad3)*%
G36*
X73312171Y-74802421D02*
G01*
X73351953Y-74810334D01*
X73397374Y-74829148D01*
X73420582Y-74844655D01*
X73455345Y-74879418D01*
X73470852Y-74902626D01*
X73489666Y-74948047D01*
X73497579Y-74987829D01*
X73500000Y-75012410D01*
X73500000Y-75553080D01*
X73520020Y-75640298D01*
X73576071Y-75710056D01*
X73812068Y-75896369D01*
X74114996Y-76135523D01*
X74126016Y-76145323D01*
X74413095Y-76432402D01*
X74447121Y-76494714D01*
X74450000Y-76521497D01*
X74450000Y-77115141D01*
X74448041Y-77137272D01*
X74441609Y-77173323D01*
X74426305Y-77214850D01*
X74407798Y-77246461D01*
X74394930Y-77264565D01*
X73068759Y-78819386D01*
X73048991Y-78838044D01*
X73013560Y-78864892D01*
X72964487Y-78887535D01*
X72921071Y-78897068D01*
X72894049Y-78900000D01*
X71537410Y-78900000D01*
X71512829Y-78897579D01*
X71473047Y-78889666D01*
X71427626Y-78870852D01*
X71404418Y-78855345D01*
X71369655Y-78820582D01*
X71354148Y-78797374D01*
X71335334Y-78751953D01*
X71327421Y-78712171D01*
X71325000Y-78687590D01*
X71325000Y-76926973D01*
X71327853Y-76900925D01*
X71330327Y-76894127D01*
X71330500Y-76892150D01*
X71330500Y-76436644D01*
X71325000Y-76405452D01*
X71325988Y-76405278D01*
X71325329Y-76403531D01*
X71324995Y-76403612D01*
X71324976Y-76403531D01*
X71324795Y-76402792D01*
X71324476Y-76401269D01*
X71324330Y-76400882D01*
X71323839Y-76398865D01*
X71314965Y-76348542D01*
X71310072Y-76340067D01*
X71307193Y-76330560D01*
X71302577Y-76311619D01*
X71284180Y-76290520D01*
X71270033Y-76270718D01*
X71255838Y-76246131D01*
X71165250Y-76170118D01*
X71154898Y-76166350D01*
X71154896Y-76166349D01*
X71131002Y-76157653D01*
X71101439Y-76142192D01*
X70997025Y-76068488D01*
X70974721Y-76048358D01*
X70942602Y-76011522D01*
X70915332Y-75959274D01*
X70915303Y-75959158D01*
X70918186Y-75888220D01*
X70921133Y-75880379D01*
X70923203Y-75875380D01*
X70930100Y-75865059D01*
X70945500Y-75787637D01*
X70945500Y-75612363D01*
X70930100Y-75534941D01*
X70923206Y-75524623D01*
X70923205Y-75524621D01*
X70921236Y-75521675D01*
X70919188Y-75514925D01*
X70918456Y-75513157D01*
X70918630Y-75513085D01*
X70900000Y-75451672D01*
X70900000Y-75012410D01*
X70902421Y-74987829D01*
X70910334Y-74948047D01*
X70929148Y-74902626D01*
X70944655Y-74879418D01*
X70979418Y-74844655D01*
X71002626Y-74829148D01*
X71048047Y-74810334D01*
X71087829Y-74802421D01*
X71112410Y-74800000D01*
X73287590Y-74800000D01*
X73312171Y-74802421D01*
G37*
%TD.AperFunction*%
%TD*%
M02*
